<svg version="1.1" xmlns="http://www.w3.org/2000/svg" xmlns:xlink="http://www.w3.org/1999/xlink" width="50.13865" height="49.5433" viewBox="0,0,50.13865,49.5433"><g transform="translate(-162.43067,-308.72835)"><g data-paper-data="{&quot;isPaintingLayer&quot;:true}" fill-rule="nonzero" stroke="none" stroke-width="0" stroke-linecap="butt" stroke-linejoin="miter" stroke-miterlimit="10" stroke-dasharray="" stroke-dashoffset="0" style="mix-blend-mode: normal"><g><g><path d="M198.51938,309.60057l2.19281,2.53017l2.95507,3.59989l0.53806,3.54864l1.33875,3.20702l0.30106,2.50455l0.08968,3.13015l2.08819,-1.79354l2.12662,-1.84905l1.44124,0.51244l0.62774,3.13015l-1.46899,3.78778c0,0 -1.23626,1.40921 -1.42415,1.5971c-0.18789,0.18789 -1.29818,1.87895 -1.66116,1.88962c-0.36298,0.01068 -1.73162,1.18288 -1.73162,1.18288l-1.72948,1.39853l-1.54586,3.21129l0.5039,2.13303l1.44764,-1.03983l2.2163,-1.09107h1.25334l1.50529,0.84553h0.6982l0.3096,1.67183c0,0 1.60564,-0.54874 0.62347,1.05691c-0.98431,1.60564 -5.84608,6.99053 -5.84608,6.99053c0,0 -3.21556,0.65977 -4.202,-1.0142c-0.98645,-1.67397 -2.6476,-0.79001 -2.6476,-0.79001l-5.98487,1.05904l-4.15503,0.16654l-2.77144,1.17007h-3.25399l-0.87115,3.34153l-1.61845,2.28249l-1.40494,-0.69606l-0.75585,-0.09608l-1.49248,-0.4612l-0.33736,-2.18641l-0.24554,-2.80347l-5.98487,0.20711l-4.26606,-1.68251c0,0 -2.44049,-1.61632 -2.23338,-3.46537c0.20711,-1.84905 1.62273,-4.8575 3.20061,-4.16571c1.57789,0.68966 6.33076,2.70525 6.33076,2.70525l4.44541,0.60425l0.5829,-1.56508c0,0 0.48895,-1.86186 0.70887,-2.0156c0.21779,-0.1516 2.67963,-3.26894 2.67963,-3.26894l-0.95655,-0.73877l-3.42694,1.76578l-3.74721,1.84905c0,0 -1.80421,1.14018 -2.86753,0.079c-1.06118,-1.06118 -1.76578,-1.32167 -1.07826,-2.25046c0.68752,-0.9288 1.60778,-2.08819 1.60778,-2.08819l1.2021,-1.01634c0,0 -0.92239,-1.02488 -0.41849,-1.44978c0.50603,-0.42276 2.05189,-0.51457 2.05189,-0.51457l2.41487,-0.23487l3.33086,-0.97364l0.92666,-0.80923l-0.5103,-4.87031l-0.38646,-2.83763l-0.16868,-2.88461l0.17722,-1.90243l0.61279,-3.10026l-0.62133,-3.23691l-0.71315,-2.92304l6.27952,3.10453l2.34228,0.5039l5.69235,-0.77293l3.28388,0.03843l1.3964,0.10462l0.99712,-4.31944" fill="#f2b65e"/><path d="M207.29705,327.46122c0,0 1.45191,-4.55004 3.82622,-2.36576c2.3743,2.18427 0.14519,6.05533 0.14519,6.05533c-3.62551,-0.66404 -3.77284,-3.97568 -3.77284,-3.97568" fill="#fbe6c9"/><path d="M183.06293,321.80517c0,-2.95276 2.05242,-5.34645 4.5842,-5.34645c2.53178,0 4.5842,2.39369 4.5842,5.34645c0,2.95276 -2.05242,5.34645 -4.5842,5.34645c-2.53178,0 -4.5842,-2.39369 -4.5842,-5.34645z" fill="#fbe6c9"/><path d="M190.82639,324.77945c-2.04976,-0.67471 -6.58485,-0.25195 -6.58485,-0.25195l-0.07473,-1.07826c0,0 -0.13238,-2.79066 1.13591,-4.17211c1.26829,-1.38145 2.81415,-0.68966 4.37495,0c1.56081,0.68966 1.14658,5.50232 1.14658,5.50232" fill="#ffffff"/><path d="M198.20124,309.47246c3.48245,1.73589 6.36493,8.73709 7.23821,14.42304c0.87328,5.68381 -2.94439,12.74907 -2.09033,9.96054c0.65763,-2.15011 0.95015,-4.1593 1.04837,-4.96426c0.02776,-0.23914 0.04484,-0.48041 0.05124,-0.72169c0.28398,-11.76689 -6.24749,-18.69764 -6.24749,-18.69764" fill="#fbe6c9"/><path d="M204.20533,335.89512c-2.71593,16.41515 -13.41738,15.52265 -13.41738,15.52265c8.45952,-1.97076 10.41106,-10.64593 10.79539,-13.07575c0.06619,-0.41849 0.28825,-0.79428 0.62133,-1.05477l1.78286,-1.39213" fill="#fbe6c9"/><path d="M171.02273,337.7762c0,0 1.21064,3.3031 3.886,3.21769c2.67536,-0.08541 -4.8148,1.56508 -5.34005,0.80282c-0.52525,-0.76439 -0.9288,-2.85045 1.45191,-4.02052z" fill="#fbe6c9"/><path d="M193.59142,327.82633l2.25046,1.19569c0,0 0.26263,1.34942 -0.42063,1.81916c-0.68325,0.46974 -2.69458,0.63841 -3.37997,-1.21918c-0.68539,-1.85759 -0.68539,-1.85759 -0.68539,-1.85759" fill="#d06950"/><path d="M204.56831,330.63621l-0.79855,6.25817l-2.19495,1.85546l0.52312,-5.1244l2.38711,-4.09738z" fill="#fbe6c9"/><path d="M208.73828,340.81668c0,0 -3.27961,1.3174 -5.07315,3.63619c-1.79354,2.31879 -1.76151,5.35072 -1.60564,5.79484c0.15587,0.44411 1.85546,1.62486 3.30524,0.60212c1.44978,-1.02488 0.36298,1.23199 -0.79642,1.36864c-1.15939,0.13665 -2.92518,-0.41209 -3.25826,-1.22345c-0.33095,-0.80923 -1.38145,-1.35156 -1.38145,-1.35156l-3.97568,0.60212l3.52729,-3.64473l2.73728,-3.12161l0.80282,-1.26829l1.11669,0.40355c0,0 3.25186,-2.80347 3.6917,-2.55366c0.43984,0.24981 0.90958,0.75158 0.90958,0.75158z" fill="#e49a2c"/><path d="M211.3197,326.32531c3.67675,5.18845 -8.01327,12.03592 -8.01327,12.03592v-4.22336c0,0 1.38572,-2.70739 1.26188,-1.92165c-0.12384,0.78574 0.94161,3.13656 4.16998,0.41849c3.2305,-2.71593 2.58141,-6.30728 2.58141,-6.30728z" fill="#e49a2c"/><path d="M193.35656,350.28827c-1.2021,0.81563 -2.71593,-0.44411 -2.17787,-1.79354c1.81489,-4.55004 -1.12737,-9.53778 -0.54233,-12.26652c0.54447,-2.53871 4.22763,-3.44189 4.92369,-3.43762c0.09181,0 0.18576,-0.00427 0.27971,-0.01708c0.82204,-0.11103 5.15429,0.30106 4.24471,6.98199c-1.00353,7.37272 -6.52506,10.38758 -6.64677,10.47725c-0.02776,0.01708 -0.05338,0.0363 -0.08114,0.05551z" fill="#fdd29e"/></g><path d="M203.06729,322.58878l-6.10444,2.38284c0,0 -0.77934,-1.54372 -0.57009,-2.86753c0.21138,-1.3238 0.48041,-3.23264 2.50882,-3.57854c2.02841,-0.34376 3.1878,0.75158 3.1878,0.75158c0,0 1.59924,2.41487 1.1295,3.35648" fill="#ffffff"/><path d="M179.24098,311.14429l3.11307,6.22828c0,0 -2.85258,6.52506 -0.21565,13.13126c2.63693,6.60406 -2.00278,2.19495 -2.00278,2.19495c0,0 -1.6761,-10.47939 -1.04623,-12.68501c0.62987,-2.20563 -0.32241,-8.08587 -0.32241,-8.08587c0,0 -0.45052,-1.17861 0.26476,-0.77934" fill="#e49a2c"/><path d="M176.41402,348.71252l-0.83912,2.37217c0,0 -0.66404,0.31814 -2.46185,0.93947c-1.79781,0.6192 -6.97985,-0.78788 -8.61112,-1.85973c-1.63127,-1.07185 -0.92026,-3.70878 -0.92026,-3.70878c1.84051,5.33578 12.83234,2.25473 12.83234,2.25473" fill="#e49a2c"/><path d="M169.28684,341.1882c0.2306,-0.10889 3.03193,0.73023 5.41478,-1.29818c2.38284,-2.02841 6.73004,-3.0725 6.73004,-3.0725c0,0 2.71806,-0.66831 1.21277,2.42555c-1.50529,3.09385 -3.5337,4.51374 -3.20915,6.18771c0.32455,1.67183 -2.31238,2.83123 -2.31238,2.83123l0.29679,-2.99777l0.28611,-1.93873l2.08819,-2.33587l1.21918,-2.20349l-3.30951,0.8135l-2.8782,2.07111l-3.81554,0.80709l-1.84265,-1.09747l0.11957,-0.18789z" fill="#e49a2c"/><path d="M195.82481,329.29106c0,0 -1.85973,-2.16506 -4.21695,-0.64482c-2.35722,1.52024 0,0 0,0l-0.316,-1.49462c0,0 -0.23487,-0.59144 0.57649,-0.52312c0.81136,0.06833 1.52451,0.71101 2.29103,0.59358c0.76652,-0.11743 1.79781,-0.59998 1.79781,-0.59998l-0.13025,2.66682" fill="#984332"/><path d="M179.35201,345.92826c0,0 -0.06833,2.47679 -0.93734,3.13442c-0.86901,0.65763 -1.49248,2.75863 -1.28964,4.67174c0.20284,1.91311 1.50529,3.10453 1.50529,3.10453l-0.5829,0.65763l-1.10815,-0.73023l-0.83485,-0.66404l-0.79855,-4.34933l0.39074,-2.43622l1.5181,-1.9793l-0.09181,-2.71379" fill="#e49a2c"/><path d="M176.71081,346.14391c0,0 -5.09023,0.65763 -7.5414,-0.82417c-2.45117,-1.4818 -3.82622,-1.2875 -4.26819,-0.69606c-0.44198,0.59144 -0.76012,2.89101 -0.76012,2.89101l-1.18502,-0.37579l1.71881,-3.97141l1.67397,-0.30319z" fill="#fbe6c9"/><path d="M187.97808,314.79756l-2.65828,1.12096l-5.96779,-4.16357l6.2539,3.04261z" fill="#fbe6c9"/><path d="M196.12373,322.97738c0,0 -0.41636,-4.01197 2.39352,-4.97493c2.80988,-0.96082 4.06108,1.52237 4.06108,1.52237l0.18576,0.93734l-1.19142,-1.56081c0,0 -4.5116,-2.53017 -5.45108,4.07389z" fill="#fbe6c9"/><path d="M211.4414,344.23081v0.98218c0,0 -6.62115,8.05171 -5.50659,5.03685c1.11456,-3.01485 5.50659,-6.02116 5.50659,-6.02116" fill="#fbe6c9"/></g><g><path d="M196.96498,321.6493c0,-1.31011 1.06206,-2.37217 2.37217,-2.37217c1.31011,0 2.37217,1.06206 2.37217,2.37217c0,1.31011 -1.06206,2.37217 -2.37217,2.37217c-1.31011,0 -2.37217,-1.06206 -2.37217,-2.37217z" fill="#070808"/><path d="M185.60591,322.10409c0,-1.31011 1.06206,-2.37217 2.37217,-2.37217c1.31011,0 2.37217,1.06206 2.37217,2.37217c0,1.31011 -1.06206,2.37217 -2.37217,2.37217c-1.31011,0 -2.37217,-1.06206 -2.37217,-2.37217z" fill="#070808"/><path d="M198.51938,320.8294c0,-0.45282 0.36708,-0.8199 0.8199,-0.8199c0.45282,0 0.8199,0.36708 0.8199,0.8199c0,0.45282 -0.36708,0.8199 -0.8199,0.8199c-0.45282,0 -0.8199,-0.36708 -0.8199,-0.8199z" fill="#ffffff"/><path d="M187.55745,321.28419c0,-0.45282 0.36708,-0.8199 0.8199,-0.8199c0.45282,0 0.8199,0.36708 0.8199,0.8199c0,0.45282 -0.36708,0.8199 -0.8199,0.8199c-0.45282,0 -0.8199,-0.36708 -0.8199,-0.8199z" fill="#ffffff"/></g><g fill="#855928"><path d="M190.67052,325.22357c-2.52804,-1.06972 -6.34571,-0.43344 -6.38414,-0.42703c-0.0726,0.01281 -0.14519,-0.00427 -0.20498,-0.04697c-0.05978,-0.0427 -0.10035,-0.10676 -0.11103,-0.17935c-0.00641,-0.04057 -0.16227,-1.03555 -0.01495,-3.06183c0.10035,-1.37718 0.7772,-2.15438 1.32594,-2.56647c0.54874,-0.40995 1.08039,-0.54233 1.17861,-0.56368c0.10035,-0.02989 0.70674,-0.1943 1.46686,-0.09822c0.76012,0.09395 1.82343,0.47401 2.57074,1.74443c1.32594,2.25046 0.57436,4.91088 0.54233,5.02191c-0.02135,0.07473 -0.07473,0.13665 -0.14519,0.17081c-0.0363,0.01708 -0.07687,0.02562 -0.11743,0.02562c-0.0363,0 -0.0726,-0.00641 -0.10676,-0.02135zM186.60943,318.90562c0,0 -0.01922,0.00641 -0.02989,0.00641c-0.01922,0.00427 -1.91738,0.40568 -2.07965,2.63693c-0.09822,1.36651 -0.05551,2.2526 -0.01922,2.66469c0.92239,-0.12811 3.84543,-0.43557 6.1023,0.38646c0.14733,-0.72596 0.40782,-2.66255 -0.55728,-4.29809c-0.7409,-1.25548 -1.8213,-1.50743 -2.57074,-1.50743c-0.47187,0 -0.81136,0.10035 -0.84766,0.11103z"/><path d="M191.73597,318.54264c0.02349,0.03203 0.04057,0.06833 0.05551,0.10676c0.06192,0.17508 0.17508,0.6256 -0.1153,0.82844c-0.18362,0.12811 -0.74517,0.00214 -0.8562,-0.35444c-0.2306,-0.7345 -1.0868,-1.48394 -1.79781,-1.59924c-0.71101,-0.1153 0.85193,-0.2733 1.43056,0c0.63201,0.30106 1.15939,0.83912 1.28537,1.01847z"/><path d="M198.14787,317.58608c-0.49536,0.29679 -1.06118,0.63841 -1.55867,1.52451c-0.01068,0.01922 -0.07687,0.11957 -0.08968,0.13452c-0.1516,0.19216 -0.60852,0.43984 -0.76012,-0.10676c-0.15587,-0.56368 1.18075,-1.65902 2.34014,-1.75511c0.1153,-0.00854 0.16654,0.14306 0.06619,0.20284z"/><path d="M196.7109,325.07838c-0.48682,-1.14445 -0.53806,-1.71667 -0.53806,-1.90884c0,-0.01708 0,-0.0363 -0.00427,-0.05551c-0.05124,-0.37152 -0.24768,-2.29103 0.78788,-3.64686c0.55728,-0.73023 1.37291,-1.17221 2.42128,-1.31099c1.02274,-0.13665 1.87681,0.08968 2.53871,0.67258c1.41561,1.24267 1.42415,3.65754 1.42415,3.76003c0,0.1217 -0.08114,0.22846 -0.19857,0.26263c-1.88535,0.52952 -5.63897,2.18 -6.0596,2.36576c-0.01922,0.00854 -0.05978,0.02562 -0.11743,0.02562c-0.10889,0 -0.20925,-0.06619 -0.25195,-0.16654zM201.55345,319.2387c-0.53806,-0.47187 -1.24694,-0.65336 -2.10527,-0.5402c-0.8989,0.11957 -1.5907,0.48895 -2.0583,1.10175c-0.90317,1.18502 -0.72596,2.90809 -0.67898,3.24118c0.00641,0.0427 0.00854,0.08754 0.00854,0.12811c0,0.08114 0.01922,0.50603 0.3886,1.43697c0.9352,-0.40782 3.92443,-1.69532 5.6774,-2.22271c-0.03416,-0.57863 -0.21992,-2.26114 -1.23199,-3.14723z"/><path d="M194.40706,325.77658c-0.05124,0 -0.10462,-0.01495 -0.14946,-0.04484l-1.56721,-1.02488c-0.12597,-0.08114 -0.16227,-0.25195 -0.079,-0.37792c0.08114,-0.12597 0.25195,-0.16227 0.37792,-0.079l1.40707,0.92026l0.91385,-0.68112c0.11957,-0.08968 0.29252,-0.06619 0.38219,0.05551c0.08968,0.11957 0.06619,0.29252 -0.05551,0.38219l-1.06545,0.79428c-0.04911,0.03416 -0.10676,0.05338 -0.16441,0.05338z"/><path d="M194.13376,327.15162v-1.65048c0,-0.1516 0.1217,-0.2733 0.2733,-0.2733c0.1516,0 0.2733,0.1217 0.2733,0.2733v1.65048c0,0.1516 -0.1217,0.2733 -0.2733,0.2733c-0.1516,0 -0.2733,-0.1217 -0.2733,-0.2733z"/><path d="M193.91597,331.53512c-0.82844,-0.19216 -1.52451,-0.76439 -2.06684,-1.69959c-0.52525,-0.90531 -0.73663,-1.86827 -0.80282,-2.23979c-0.07687,-0.4313 0.00214,-0.74731 0.237,-0.93947c0.40355,-0.32882 1.06331,-0.08114 1.13591,-0.05338c0,0 0.00214,0 0.00427,0c2.61771,1.08893 3.96287,-0.72809 4.02052,-0.80496v0c0.08754,-0.1217 0.25835,-0.1516 0.38006,-0.06405c0.12384,0.08754 0.1516,0.25835 0.06405,0.38219c-0.01281,0.01922 -0.27757,0.38646 -0.79001,0.73663c0,0.01068 0.00214,0.02135 0.00427,0.03203c0.10035,2.26968 0.01281,3.80273 -0.73236,4.41979c-0.23914,0.19857 -0.53166,0.29679 -0.88609,0.29679c-0.17508,0 -0.36298,-0.02349 -0.56795,-0.0726zM192.21424,327.11319c-0.17935,-0.06833 -0.48041,-0.11957 -0.58717,-0.03203c-0.06619,0.05338 -0.08327,0.20711 -0.04484,0.41849c0.05551,0.31387 0.59998,3.07037 2.45544,3.50167c0.44198,0.10249 0.76439,0.06619 0.98004,-0.11316c0.57436,-0.47614 0.61066,-2.04976 0.5466,-3.728c-0.72596,0.33736 -1.864,0.57009 -3.35007,-0.04697z"/></g><path d="M172.07537,352.87822c-1.27896,-0.00214 -2.48106,-0.20498 -3.44616,-0.44198c-2.1736,-0.53379 -3.97781,-1.44551 -4.63971,-2.06897c-0.68539,-0.64909 -1.17007,-1.49035 -1.39853,-2.43836c-0.25622,-1.0505 -0.20498,-2.21203 0.1516,-3.45256c0.30746,-1.06758 1.03769,-1.80421 2.11168,-2.13089c0.8199,-0.24768 1.65048,-0.1943 2.07325,-0.14092c0.22419,0.02776 0.44198,0.08754 0.64695,0.17935c0.57436,0.25195 3.52302,1.55013 5.36353,2.28463c1.83411,0.73236 3.55932,0.28398 3.58494,0.27757c0.37579,-0.10249 0.76225,0.11743 0.86688,0.49322c0.10462,0.37579 -0.1153,0.76439 -0.49109,0.86901c-0.08754,0.02562 -2.18854,0.58931 -4.48385,-0.32668c-1.81489,-0.72382 -4.59915,-1.94727 -5.40837,-2.30384c-0.08327,-0.03416 -0.16868,-0.05978 -0.25622,-0.07046c-0.3096,-0.04057 -0.91385,-0.08114 -1.4818,0.09181c-0.61066,0.18576 -0.99072,0.56795 -1.16366,1.16794c-0.53166,1.85759 -0.22846,3.44616 0.85834,4.47104c0.84553,0.79428 6.19411,3.22837 10.2616,1.55226c0.36084,-0.14946 0.77293,0.02349 0.92239,0.38433c0.14733,0.36084 -0.02349,0.77293 -0.38433,0.92239c-1.21064,0.49749 -2.48106,0.67685 -3.68316,0.67685z" fill="#d07f2a"/><path d="M179.32212,358.20332c-0.22846,-0.09181 -0.40355,-0.25622 -0.53593,-0.43557c-0.2306,0.16227 -0.49963,0.22633 -0.78147,0.17935c-0.40141,-0.06405 -0.74944,-0.34803 -0.98431,-0.59571c-0.16654,0.02776 -0.33309,0.01495 -0.49536,-0.0363c-0.6982,-0.22206 -1.03128,-1.09961 -1.09107,-1.27256c-0.01495,-0.04484 -0.02562,-0.09181 -0.02989,-0.13879c0,-0.02349 -0.20284,-2.26755 -0.36298,-4.12727l-0.02349,-0.28398c-0.01068,-0.1217 -0.02135,-0.23914 -0.02989,-0.35657c-0.158,-1.84692 1.41775,-3.39705 2.06257,-3.94792c-0.03416,-0.39074 -0.09608,-1.07399 -0.1516,-1.64621c-0.02989,-0.31173 -0.05338,-0.54233 -0.07046,-0.70247c-0.09822,-0.89463 0.37365,-2.34655 2.00278,-3.7344c0.58717,-0.50176 1.06331,-1.15512 1.40921,-1.71881l-2.78425,0.90104c-0.55087,0.44411 -3.34153,2.56647 -6.32436,2.48747c-1.24267,-0.03203 -2.07325,-0.39928 -2.46825,-1.0932c-0.51671,-0.90531 -0.04484,-1.94727 0.08754,-2.20563c0.4612,-1.2811 1.49462,-2.29317 2.15652,-2.8419c-0.04911,-0.07473 -0.09395,-0.16014 -0.13025,-0.25195c-0.1153,-0.29038 -0.19216,-0.77079 0.09608,-1.40067c0.31387,-0.68539 1.13377,-0.98218 2.43195,-0.87755c0.57436,0.04484 1.11029,0.158 1.38999,0.22419c0.84766,-0.3523 4.33011,-1.7914 4.91301,-1.98784c-2.16719,-9.50148 -0.70033,-13.87857 -0.26903,-14.8821c-0.25408,-1.00993 -1.17861,-4.75928 -1.17861,-5.7927c0,-0.65977 0.33522,-0.92666 0.53593,-1.02488c0.59144,-0.29465 1.3174,0.16014 1.58429,0.35444l6.07454,3.19848l0.29252,-0.11316c0.01281,-0.00427 0.02776,-0.01068 0.04057,-0.01495c3.8497,-1.1658 8.67304,-0.91599 10.32139,-0.78574l0.55087,-4.0376c0.02776,-0.20711 0.16441,-0.38646 0.35871,-0.4676c0.1943,-0.08114 0.41636,-0.05338 0.5829,0.0726l0.66831,0.50176c0.01281,0.00854 0.02349,0.01922 0.0363,0.02989c1.95581,1.71881 3.55291,3.80486 4.74647,6.19838c0.95228,1.90884 1.65048,4.01625 2.07538,6.26244c0.39928,2.11168 0.48468,3.93511 0.47614,5.16496c0.60852,-0.63201 1.40921,-1.42629 2.24406,-2.16079c0.75158,-0.65977 1.46045,-0.91599 2.10741,-0.76225c0.8135,0.19216 1.13804,0.94161 1.17221,1.02701c0.04911,0.11743 1.16366,2.92731 0.0427,5.75c-0.4676,1.18075 -2.01773,2.92518 -4.60769,5.18632c-1.51383,1.32167 -2.95934,2.4469 -3.48672,2.85045c-0.10889,0.75158 -0.52098,2.00705 -0.73663,2.63266l0.51457,0.67258c0.64695,-0.53379 1.82984,-1.46899 2.87393,-2.0647c0.71315,-0.40782 1.25548,-0.3096 1.58429,-0.15373c0.44625,0.20925 0.71742,0.6192 0.87969,0.97791c0.08754,-0.02989 0.18362,-0.0363 0.27544,-0.02135c0.91812,0.14306 1.33875,0.60212 1.52878,0.96082c0.23487,0.44411 0.23487,0.9288 0.16868,1.31313c0.33309,0.11957 0.67044,0.33949 0.88609,0.71742c0.65123,1.14018 -0.35871,2.21844 -0.98431,2.62839c-0.00641,0.00427 -0.01068,0.00641 -0.01708,0.01068c-0.63841,0.3886 -2.34228,2.02414 -4.24471,4.28528c-0.95442,1.13377 -1.74229,1.70386 -2.55579,1.84692c-0.78574,0.13879 -1.45191,-0.14519 -2.15438,-0.44411l-0.11103,-0.04697c-1.75724,-0.74517 -1.58002,-2.89101 -1.57148,-2.98283c0.02989,-0.32668 0.31814,-0.56582 0.64482,-0.53593c0.32668,0.02989 0.56582,0.31814 0.53593,0.64482c0,0.01281 -0.1153,1.37078 0.85407,1.78286l0.11316,0.04911c0.60639,0.25835 1.04623,0.44411 1.48607,0.36725c0.51244,-0.08968 1.10175,-0.54874 1.85546,-1.44337c1.78927,-2.12662 3.64473,-3.98422 4.52228,-4.52655c0.06405,-0.04484 0.85193,-0.60852 0.59998,-1.04623c-0.13879,-0.24341 -0.55087,-0.24554 -0.58717,-0.24554c-0.20925,0.01281 -0.40355,-0.08114 -0.52312,-0.25408c-0.11957,-0.17295 -0.13238,-0.39714 -0.0427,-0.58717c0.0726,-0.158 0.24127,-0.67471 0.07687,-0.98004c-0.079,-0.14733 -0.25408,-0.25408 -0.51885,-0.316l-0.40141,0.14946c-0.16441,0.06192 -0.35017,0.04697 -0.50176,-0.04057c-0.15373,-0.08754 -0.25835,-0.23914 -0.29038,-0.41209c-0.0363,-0.21352 -0.20498,-0.67471 -0.42703,-0.77934c-0.13452,-0.06405 -0.34376,0.02562 -0.49322,0.11103c-1.39426,0.79642 -3.14723,2.32092 -3.16431,2.33587c-0.12384,0.10676 -0.28611,0.16014 -0.44838,0.14306c-0.16227,-0.01708 -0.31173,-0.10035 -0.41209,-0.22846l-1.0868,-1.42202c-0.1217,-0.16014 -0.15587,-0.36938 -0.08754,-0.55941c0.33309,-0.93307 0.80069,-2.43409 0.80069,-2.85258c0,-0.18576 0.08754,-0.36084 0.237,-0.47401c1.92805,-1.44978 7.10796,-5.65392 7.91506,-7.68659c0.92026,-2.31665 0.01281,-4.73153 -0.03843,-4.86177c-0.01281,-0.02776 -0.13879,-0.27757 -0.35444,-0.32668c-0.24127,-0.05338 -0.62347,0.13025 -1.04837,0.50176c-1.66329,1.46045 -3.23477,3.23264 -3.24972,3.24972c-0.17081,0.1943 -0.44838,0.25408 -0.68325,0.14946c-0.237,-0.10462 -0.37792,-0.35017 -0.34803,-0.60852c0.00214,-0.02776 0.30533,-2.84831 -0.39287,-6.50371c-0.62987,-3.29883 -2.22911,-7.96844 -6.26244,-11.60462l-0.48895,3.58067c-0.0427,0.31814 -0.33309,0.54447 -0.65123,0.50817c-0.05978,-0.00641 -6.02116,-0.63628 -10.40252,0.68325l-0.52312,0.20071c-0.16014,0.06192 -0.33736,0.05124 -0.48895,-0.02776l-6.35425,-3.34367c-0.02776,-0.01495 -0.05551,-0.03203 -0.08114,-0.05124c-0.07473,-0.05765 -0.16868,-0.11316 -0.25622,-0.158c0.0726,0.93734 0.7345,3.77924 1.18715,5.55997c0.0363,0.14519 0.01922,0.29465 -0.05338,0.42703c-0.00427,0.01068 -0.52312,1.00993 -0.74731,3.2604c-0.20711,2.07965 -0.19644,5.67313 1.02061,11.00891c0.07473,0.1943 0.10676,0.4676 -0.00214,0.7345c-0.08541,0.21138 -0.28825,0.49749 -0.77293,0.65977c-0.49749,0.16654 -3.79205,1.52451 -5.01764,2.03268c-0.1217,0.05124 -0.25622,0.05978 -0.38219,0.02562c-0.00641,0 -0.68112,-0.18149 -1.38999,-0.237c-0.91812,-0.07046 -1.21064,0.11316 -1.24694,0.19003c-0.05551,0.1217 -0.22633,0.49322 0.10676,0.6555c0.20925,0.07473 0.3459,0.25835 0.37365,0.47828c0.02776,0.22419 -0.08754,0.43771 -0.2733,0.56155c-0.01708,0.01068 -1.75938,1.17861 -2.30384,2.73942c-0.01068,0.03203 -0.02562,0.06192 -0.04057,0.09181c-0.07687,0.13879 -0.32455,0.73236 -0.11957,1.09107c0.17081,0.29892 0.69393,0.47401 1.47113,0.49536c2.80561,0.0726 5.592,-2.26114 5.61975,-2.28463c0.05978,-0.05124 0.12811,-0.08754 0.20071,-0.11316l4.26392,-1.37932c0.21992,-0.07046 0.45906,-0.00854 0.61493,0.16014c0.15587,0.16868 0.20284,0.41209 0.1153,0.6256c-0.03416,0.08541 -0.86688,2.11381 -2.38071,3.40559c-1.36437,1.16366 -1.64408,2.24619 -1.59283,2.70098c0.01922,0.16654 0.0427,0.40355 0.0726,0.72169c0.08327,0.85407 0.17722,1.95795 0.17935,1.96862c0.01708,0.20498 -0.0726,0.40568 -0.237,0.52739c-0.01922,0.01495 -1.98784,1.52024 -1.85332,3.11094c0.01068,0.1153 0.01922,0.23273 0.02989,0.35444l0.02349,0.28398c0.14306,1.65902 0.31814,3.62337 0.35657,4.04187c0.07473,0.18149 0.19644,0.37792 0.27971,0.45052c0,0 0,0 0.00214,0c0.13025,-0.09395 0.29038,-0.13025 0.44838,-0.10249c0.158,0.02776 0.29679,0.11743 0.3886,0.24768c0.13025,0.19003 0.33736,0.39287 0.45479,0.45265l0.49109,-0.37792c0.158,-0.1217 0.36938,-0.15587 0.55728,-0.08968c0.19003,0.06619 0.33095,0.22419 0.38006,0.41849c0.02776,0.11103 0.10035,0.27544 0.16227,0.35871c0.59358,-0.37365 0.97791,-0.70247 1.32167,-2.07538c0.37365,-1.49035 0.79215,-3.08531 0.79642,-3.10026c0.0427,-0.16227 0.15373,-0.29679 0.30106,-0.37579c0.14946,-0.07687 0.32455,-0.08754 0.48041,-0.02776c0.01068,0.00427 1.04196,0.38219 2.53231,0.29465c1.98357,-0.11743 3.80486,-0.96082 5.41905,-2.50882c0.237,-0.22633 0.61066,-0.21992 0.83698,0.01708c0.22633,0.237 0.21992,0.61066 -0.01708,0.83698c-2.29103,2.19922 -4.65466,2.75863 -6.23255,2.83977c-0.99285,0.05124 -1.80635,-0.0726 -2.32733,-0.19216c-0.15587,0.59785 -0.40782,1.57148 -0.64055,2.50241c-0.40995,1.63981 -0.94374,2.22698 -1.84692,2.79493c-0.21138,0.13238 -0.43557,0.20071 -0.65336,0.20071c-0.13238,0 -0.26476,-0.02562 -0.3886,-0.07687zM172.04975,336.12572z" fill="#d07f2a"/><path d="M190.48476,351.88324c-0.2306,0 -0.46547,-0.00641 -0.70033,-0.01708c-0.3886,-0.01922 -0.68966,-0.35017 -0.67044,-0.7409c0.01922,-0.3886 0.3523,-0.68966 0.7409,-0.67044c3.68102,0.18362 6.81972,-1.19783 9.32854,-4.10379c1.90884,-2.21203 2.7202,-4.52228 2.72874,-4.54363c0.12597,-0.36938 0.52739,-0.56582 0.89677,-0.43984c0.36938,0.12597 0.56582,0.52739 0.43984,0.89677c-0.0363,0.10249 -0.89036,2.55366 -2.96147,4.96853c-1.22558,1.43056 -2.62625,2.54939 -4.1593,3.32872c-1.72735,0.87755 -3.62337,1.31953 -5.64324,1.31953z" fill="#d07f2a"/><path d="M195.78637,350.95017c-0.05978,0 -0.11743,0 -0.17722,0c-0.3886,-0.00427 -0.70247,-0.32455 -0.69606,-0.71528c0.00641,-0.38646 0.32027,-0.69606 0.70674,-0.69606c0.00427,0 0.00641,0 0.01068,0c2.1736,0.02989 4.89807,-0.57863 4.92583,-0.58504v0c0.38219,-0.08541 0.76012,0.15373 0.84553,0.53379c0.08541,0.38219 -0.15373,0.76012 -0.53379,0.84553c-0.11316,0.02562 -2.77358,0.62133 -5.07956,0.62133z" fill="#d07f2a"/><path d="M180.25732,341.1882c0,0 -0.06192,1.63127 1.3174,2.50882c1.37932,0.87755 -2.66469,-0.06405 -3.10453,-0.83271c-0.43984,-0.76652 1.78713,-1.6761 1.78713,-1.6761z" fill="#d07f2a"/><path d="M178.29297,342.96465c-0.09395,-0.16441 -0.10889,-0.34803 -0.04697,-0.53166c0.25195,-0.73023 1.76151,-1.36651 1.93446,-1.43483c0.06405,-0.02562 0.13879,-0.01708 0.1943,0.02135c0.05765,0.04057 0.08968,0.10676 0.08754,0.17508c0,0.01495 -0.03843,1.52664 1.22131,2.32733c0.21992,0.13879 0.41636,0.29679 0.37579,0.49749c-0.01495,0.06833 -0.06833,0.19003 -0.27544,0.22419c-0.03843,0.00641 -0.08327,0.00854 -0.13452,0.00854c-0.77506,0 -2.99137,-0.64909 -3.35434,-1.2875zM178.63459,342.56751c-0.02562,0.0726 -0.02135,0.13452 0.01495,0.1943c0.10035,0.17295 0.60639,0.47828 1.5181,0.76866c0.5103,0.16227 0.94588,0.25622 1.23199,0.29465c-1.04196,-0.70247 -1.2811,-1.79354 -1.33234,-2.32946c-0.57222,0.26903 -1.30886,0.71101 -1.4327,1.07185z" fill="#d07f2a"/><path d="M178.15632,343.31909l2.63266,2.2889c0,0 -2.13303,0.72169 -2.82055,0c-0.68966,-0.72169 0.18789,-2.2889 0.18789,-2.2889z" fill="#d07f2a"/><path d="M177.8211,345.74891c-0.78574,-0.82204 0.11957,-2.46185 0.158,-2.53017c0.02989,-0.05338 0.08327,-0.09181 0.14306,-0.10249c0.06192,-0.01068 0.12384,0.00641 0.17081,0.04697l2.63266,2.2889c0.05551,0.04911 0.08114,0.1217 0.06619,0.1943c-0.01495,0.0726 -0.06619,0.13025 -0.13452,0.15373c-0.14519,0.04911 -1.02061,0.33309 -1.83411,0.33309c-0.47187,0 -0.92239,-0.09608 -1.19996,-0.38646zM178.22251,343.64791c-0.2306,0.5039 -0.5103,1.39426 -0.10462,1.81916c0.40995,0.42917 1.56294,0.237 2.25687,0.05124z" fill="#d07f2a"/><path d="M179.35201,333.06603c0,0 -0.59785,1.72308 -0.56795,2.50882c0.03203,0.78361 -1.08039,-1.41134 -1.08039,-1.41134l1.64621,-1.09747z" fill="#d07f2a"/><path d="M177.78907,335.17984c-0.23487,-0.40782 -0.44198,-0.8135 -0.45052,-0.83058c-0.09395,-0.18576 -0.03416,-0.41209 0.13879,-0.52739l1.64621,-1.09747c0.14733,-0.09822 0.33949,-0.09181 0.47828,0.01708c0.13879,0.10676 0.1943,0.29252 0.13665,0.45906c-0.16014,0.45906 -0.56795,1.77859 -0.54447,2.35722c0.01708,0.43771 -0.24127,0.55301 -0.3523,0.58076c-0.0427,0.01068 -0.08541,0.01708 -0.12384,0.01708c-0.30533,0 -0.54874,-0.32241 -0.9288,-0.97791zM178.23745,334.30015c0.07473,0.14092 0.15373,0.28184 0.2306,0.41422c0.04484,-0.22419 0.10035,-0.45479 0.158,-0.67258l-0.38646,0.25835z" fill="#d07f2a"/><path d="M177.1229,334.19553c0,0 -0.43984,1.34729 -0.24981,1.78713c0.18789,0.43984 -1.5971,-1.09534 -1.56721,-1.26829c0.02989,-0.17295 1.81916,-0.51885 1.81916,-0.51885z" fill="#d07f2a"/><path d="M176.55281,336.38194c-0.24981,-0.13665 -0.65763,-0.46974 -0.95442,-0.73663c-0.64695,-0.58076 -0.73663,-0.76866 -0.6982,-0.99499c0.05338,-0.32241 0.3523,-0.44838 1.22985,-0.65763c0.45479,-0.10889 0.8989,-0.1943 0.91599,-0.19857c0.14306,-0.02776 0.28825,0.02349 0.38433,0.13025c0.09608,0.10889 0.12811,0.26049 0.08327,0.39928c-0.20071,0.61706 -0.32668,1.33234 -0.26476,1.49889c0.12811,0.30106 -0.03843,0.48682 -0.09395,0.53593c-0.06619,0.05978 -0.16014,0.11316 -0.29038,0.11316c-0.08754,0 -0.19216,-0.02562 -0.31173,-0.08968zM175.97418,334.87665c0.13879,0.13025 0.30746,0.27971 0.4676,0.41209c0.02349,-0.18576 0.05978,-0.37579 0.10249,-0.55301c-0.20925,0.04697 -0.40568,0.09608 -0.57009,0.14092zM175.5685,335.01116v0z" fill="#d07f2a"/><path d="M179.43528,326.62851l2.77358,1.38145l-2.38925,1.01207z" fill="#d07f2a"/><path d="M179.62104,329.38073c-0.11103,-0.06192 -0.18576,-0.16868 -0.20711,-0.29465l-0.38433,-2.39352c-0.02349,-0.1516 0.03843,-0.30533 0.16227,-0.39501c0.12384,-0.09181 0.28825,-0.10462 0.4249,-0.0363l2.77358,1.37932c0.14306,0.07046 0.23273,0.21992 0.22633,0.38006c-0.00427,0.16014 -0.10249,0.30319 -0.24981,0.36511l-2.38925,1.0142c-0.05124,0.02135 -0.10676,0.03203 -0.16014,0.03203c-0.06833,0 -0.13665,-0.01708 -0.19857,-0.05124zM179.96694,327.35233l0.17508,1.08893l1.0868,-0.4612z" fill="#d07f2a"/><path d="M179.24098,320.87424l2.89742,2.06257l-2.70312,1.15726z" fill="#d07f2a"/><path d="M179.21963,324.4421c-0.11316,-0.07046 -0.18576,-0.19003 -0.1943,-0.32455l-0.1943,-3.21769c-0.00854,-0.158 0.0726,-0.30746 0.21138,-0.38433c0.13879,-0.07687 0.30746,-0.06619 0.43771,0.02349l2.89742,2.06257c0.1217,0.08541 0.18576,0.2306 0.17081,0.37792c-0.01495,0.14733 -0.11103,0.27544 -0.24554,0.33309l-2.70312,1.15726c-0.05124,0.02135 -0.10676,0.03203 -0.16227,0.03203c-0.07473,0 -0.14946,-0.02135 -0.21565,-0.06192zM179.70218,321.70695l0.10889,1.78073l1.49462,-0.64055z" fill="#d07f2a"/><path d="M196.84755,313.86236l-0.57009,1.86827l-0.87755,-1.72521z" fill="#d07f2a"/><path d="M195.91235,315.91638l-0.87755,-1.72308c-0.06192,-0.1217 -0.05978,-0.26476 0.00641,-0.38219c0.06405,-0.11957 0.18576,-0.19857 0.32027,-0.21138l1.44764,-0.14306c0.13665,-0.01281 0.27117,0.0427 0.35657,0.14733c0.08754,0.10676 0.1153,0.24768 0.07473,0.38006l-0.57009,1.86613c-0.04911,0.16014 -0.19003,0.2733 -0.35657,0.28825c-0.01281,0 -0.02349,0 -0.0363,0c-0.15373,0 -0.29465,-0.08541 -0.36511,-0.22419zM196.03832,314.35558l0.14519,0.28398l0.09395,-0.30746z" fill="#d07f2a"/><path d="M194.20849,313.86236l-0.34376,2.05616l-1.78713,-1.91311z" fill="#d07f2a"/><path d="M193.56367,316.19823l-1.78713,-1.91311c-0.10889,-0.1153 -0.14092,-0.28398 -0.08114,-0.4313c0.05765,-0.14733 0.19644,-0.24768 0.35444,-0.25835l2.13089,-0.14306c0.12597,-0.00854 0.24768,0.04057 0.33095,0.13452c0.08327,0.09395 0.1217,0.21992 0.10035,0.34376l-0.34376,2.05403c-0.02562,0.15373 -0.13665,0.27971 -0.28611,0.32455c-0.03843,0.01281 -0.079,0.01708 -0.11743,0.01708c-0.11103,0 -0.21992,-0.04484 -0.29892,-0.13025zM192.96796,314.35771l0.62987,0.67471l0.1217,-0.72382z" fill="#d07f2a"/><path d="M190.97798,313.88798v2.03054l-2.60063,-1.50529z" fill="#d07f2a"/><path d="M190.77087,316.27296l-2.60063,-1.50529c-0.14733,-0.08541 -0.22633,-0.25408 -0.19857,-0.42063c0.02776,-0.16868 0.15587,-0.30106 0.32455,-0.33522l2.60063,-0.52525c0.1217,-0.02349 0.24554,0.00641 0.34163,0.08541c0.09608,0.07687 0.14946,0.1943 0.14946,0.31814v2.03054c0,0.14733 -0.079,0.28184 -0.20498,0.35444c-0.06405,0.0363 -0.13452,0.05551 -0.20498,0.05551c-0.07046,0 -0.14092,-0.01922 -0.20498,-0.05551zM189.51966,314.60112l1.04623,0.60639v-0.81777z" fill="#d07f2a"/><path d="M176.21332,345.92826c0,0 -3.41626,1.56081 -2.03695,5.41691l-1.25334,0.40782c0,0 -2.2889,-3.10453 0.53379,-6.08308l2.75863,0.25835z" fill="#d07f2a"/><path d="M172.57713,345.66991c0,0 -4.044,0.9715 -1.63127,6.08308l-2.2889,-0.43984c0,0 -2.41701,-4.32584 1.26829,-6.55282z" fill="#d07f2a"/><path d="M168.75092,344.04932c0,0 -5.07956,0.90317 -2.2889,6.20052l-1.91311,-0.81563c0,0 -2.35082,-3.98208 2.19495,-6.11298l2.00705,0.73023z" fill="#d07f2a"/><path d="M205.93481,336.65097c-0.02135,0 -0.04057,-0.00214 -0.06192,-0.00427c-0.32455,-0.03416 -0.56155,-0.32668 -0.52739,-0.65123l0.24981,-2.41487c0.02776,-0.26049 0.22419,-0.47401 0.48255,-0.52098c0.25835,-0.04697 0.51885,0.08114 0.63628,0.316l0.51671,1.02701l0.28825,-0.27544l-0.47187,-2.0946c-0.05551,-0.24981 0.05551,-0.50817 0.27544,-0.63841c0.21992,-0.13238 0.49963,-0.10676 0.69179,0.06192l1.27683,1.11242c0.18576,-0.03203 0.38219,0.02349 0.52525,0.16654c0.22846,0.2306 0.2306,0.59785 0.00641,0.83058l-1.2085,1.24907c-0.0726,0.07687 -0.16441,0.13025 -0.26263,0.158l-0.87969,0.84125c-0.13665,0.13025 -0.32455,0.18789 -0.5103,0.15587c-0.16227,-0.02776 -0.30533,-0.12384 -0.39501,-0.26049l-0.0427,0.41209c-0.03203,0.30533 -0.29038,0.53166 -0.58931,0.53166z" fill="#d07f2a"/><path d="M203.41745,339.17474c-0.00641,0 -0.01068,0 -0.01708,0c-0.32668,-0.00854 -0.58504,-0.28184 -0.57649,-0.60852l0.13665,-4.92155c0.00214,-0.08968 0.02349,-0.17508 0.06405,-0.25408l1.44124,-2.82055c0.14733,-0.29252 0.5039,-0.40782 0.79642,-0.25835c0.29252,0.14733 0.40782,0.50603 0.25835,0.79642l-1.38145,2.70312l-0.13238,4.78917c-0.00854,0.32241 -0.27117,0.57649 -0.59144,0.57649z" fill="#d07f2a"/><path d="M203.81015,342.87732l-0.02377,-0.03802l3.86909,-2.41862l0.02377,0.03802z" fill="#d07f2a"/><path d="M181.18185,317.37257l-1.04623,-4.43474l3.38637,2.98069z" fill="#d07f2a"/></g></g></svg>