<svg version="1.1" xmlns="http://www.w3.org/2000/svg" xmlns:xlink="http://www.w3.org/1999/xlink" width="50.13865" height="49.54338" viewBox="0,0,50.13865,49.54338"><g transform="translate(-162.43068,-308.72835)"><g data-paper-data="{&quot;isPaintingLayer&quot;:true}" fill-rule="nonzero" stroke="none" stroke-width="0" stroke-linecap="butt" stroke-linejoin="miter" stroke-miterlimit="10" stroke-dasharray="" stroke-dashoffset="0" style="mix-blend-mode: normal"><g data-paper-data="{&quot;index&quot;:null}"><g><path d="M176.48701,309.60266l0.99712,4.31944l1.3964,-0.10462l3.28388,-0.03843l5.69235,0.77293l2.34228,-0.5039l6.27952,-3.10453l-0.71315,2.92304l-0.62133,3.23691l0.61279,3.10026l0.17722,1.90243l-0.16868,2.88461l-0.38646,2.83763l-0.5103,4.87031l0.92666,0.80923l3.33086,0.97364l2.41487,0.23487c0,0 1.54586,0.09181 2.05189,0.51457c0.5039,0.4249 -0.41849,1.44978 -0.41849,1.44978l1.2021,1.01634c0,0 0.92026,1.15939 1.60778,2.08819c0.68752,0.92879 -0.01708,1.18928 -1.07826,2.25046c-1.06332,1.06118 -2.86753,-0.079 -2.86753,-0.079l-3.74721,-1.84905l-3.42694,-1.76578l-0.95655,0.73877c0,0 2.46184,3.11734 2.67963,3.26894c0.21992,0.15374 0.70887,2.0156 0.70887,2.0156l0.5829,1.56508l4.44541,-0.60425c0,0 4.75287,-2.01559 6.33076,-2.70525c1.57788,-0.69179 2.9935,2.31666 3.20061,4.16571c0.20711,1.84905 -2.23338,3.46537 -2.23338,3.46537l-4.26606,1.68251l-5.98487,-0.20711l-0.24554,2.80347l-0.33736,2.18641l-1.49248,0.4612l-0.75585,0.09608l-1.40494,0.69606l-1.61845,-2.28249l-0.87115,-3.34153h-3.25399l-2.77144,-1.17007l-4.15503,-0.16654l-5.98487,-1.05904c0,0 -1.66115,-0.88396 -2.6476,0.79001c-0.98644,1.67397 -4.202,1.0142 -4.202,1.0142c0,0 -4.86177,-5.38489 -5.84608,-6.99053c-0.98217,-1.60565 0.62347,-1.05691 0.62347,-1.05691l0.3096,-1.67183h0.6982l1.50529,-0.84553h1.25334l2.2163,1.09107l1.44764,1.03983l0.5039,-2.13303l-1.54586,-3.21129l-1.72948,-1.39853c0,0 -1.36864,-1.1722 -1.73162,-1.18288c-0.36298,-0.01067 -1.47327,-1.70173 -1.66116,-1.88962c-0.18789,-0.18789 -1.42415,-1.5971 -1.42415,-1.5971l-1.46899,-3.78778l0.62774,-3.13015l1.44124,-0.51244l2.12662,1.84905l2.08819,1.79354l0.08968,-3.13015l0.30106,-2.50455l1.33875,-3.20702l0.53806,-3.54864l2.95507,-3.59989l2.19281,-2.53017" fill="#f2b65e"/><path d="M167.50438,327.17511c0,0 -0.14733,3.31164 -3.77284,3.97568c0,0 -2.22911,-3.87106 0.14519,-6.05533c2.37431,-2.18428 3.82622,2.36576 3.82622,2.36576" fill="#fbe6c9"/><path d="M187.35287,327.15162c-2.53178,0 -4.5842,-2.39369 -4.5842,-5.34645c0,-2.95276 2.05242,-5.34645 4.5842,-5.34645c2.53178,0 4.5842,2.39369 4.5842,5.34645c0,2.95276 -2.05242,5.34645 -4.5842,5.34645z" fill="#fbe6c9"/><path d="M184.17575,324.77945c0,0 -0.41423,-4.81266 1.14658,-5.50232c1.5608,-0.68966 3.10666,-1.38145 4.37495,0c1.26829,1.38145 1.13591,4.17211 1.13591,4.17211l-0.07473,1.07826c0,0 -4.53509,-0.42276 -6.58485,0.25195" fill="#ffffff"/><path d="M176.79876,309.47245c0,0 -6.53147,6.93075 -6.24749,18.69764c0.0064,0.24128 0.02348,0.48255 0.05124,0.72169c0.09822,0.80496 0.39074,2.81415 1.04837,4.96426c0.85406,2.78853 -2.96361,-4.27673 -2.09033,-9.96054c0.87328,-5.68595 3.75576,-12.68715 7.23821,-14.42304" fill="#fbe6c9"/><path d="M171.01247,335.89512l1.78286,1.39213c0.33308,0.26049 0.55514,0.63628 0.62133,1.05477c0.38433,2.42982 2.33587,11.10499 10.79539,13.07575c0,0 -10.70145,0.8925 -13.41738,-15.52265" fill="#fbe6c9"/><path d="M203.97941,337.77619c2.38071,1.17007 1.97716,3.25613 1.45191,4.02052c-0.52525,0.76226 -8.01541,-0.88823 -5.34005,-0.80282c2.67536,0.08541 3.886,-3.21769 3.886,-3.21769z" fill="#fbe6c9"/><path d="M183.64411,327.76441c0,0 0,0 -0.68539,1.85759c-0.68539,1.85759 -2.69672,1.68892 -3.37997,1.21918c-0.68326,-0.46974 -0.42063,-1.81916 -0.42063,-1.81916l2.25046,-1.19569" fill="#d06950"/><path d="M170.51496,329.52806l2.38711,4.09738l0.52312,5.1244l-2.19495,-1.85546l-0.79855,-6.25817z" fill="#fbe6c9"/><path d="M166.26172,340.81242c0,0 0.46974,-0.50177 0.90958,-0.75158c0.43984,-0.24981 3.6917,2.55366 3.6917,2.55366l1.11669,-0.40355l0.80282,1.26829l2.73728,3.12161l3.52729,3.64473l-3.97568,-0.60212c0,0 -1.0505,0.54233 -1.38145,1.35156c-0.33308,0.81136 -2.09887,1.3601 -3.25826,1.22345c-1.1594,-0.13665 -2.2462,-2.39352 -0.79642,-1.36864c1.44978,1.02274 3.14937,-0.15801 3.30524,-0.60212c0.15587,-0.44412 0.1879,-3.47605 -1.60564,-5.79484c-1.79354,-2.31879 -5.07315,-3.63619 -5.07315,-3.63619z" fill="#e49a2c"/><path d="M163.6803,326.32743c0,0 -0.64909,3.59135 2.58141,6.30728c3.22837,2.71807 4.29382,0.36725 4.16998,-0.41849c-0.12384,-0.78574 1.26188,1.92165 1.26188,1.92165v4.22336c0,0 -11.69002,-6.84747 -8.01327,-12.03592z" fill="#e49a2c"/><path d="M181.64344,350.28826c-0.02776,-0.01921 -0.05338,-0.03843 -0.08114,-0.05551c-0.12171,-0.08967 -5.64324,-3.10453 -6.64677,-10.47725c-0.90958,-6.68093 3.42267,-7.09302 4.24471,-6.98199c0.09395,0.01281 0.1879,0.01708 0.27971,0.01708c0.69606,-0.00427 4.37922,0.89891 4.92369,3.43762c0.58504,2.72874 -2.35722,7.71648 -0.54233,12.26652c0.53806,1.34943 -0.97577,2.60917 -2.17787,1.79354z" fill="#fdd29e"/></g><path d="M171.78112,322.63361c-0.46974,-0.94161 1.1295,-3.35648 1.1295,-3.35648c0,0 1.15939,-1.09534 3.1878,-0.75158c2.02841,0.3459 2.29744,2.25474 2.50882,3.57854c0.20925,1.32381 -0.57009,2.86753 -0.57009,2.86753l-6.10444,-2.38284" fill="#ffffff"/><path d="M195.96826,311.14856c0.71528,-0.39927 0.26476,0.77934 0.26476,0.77934c0,0 -0.95228,5.88024 -0.32241,8.08587c0.62987,2.20562 -1.04623,12.68501 -1.04623,12.68501c0,0 -4.63971,4.40911 -2.00278,-2.19495c2.63693,-6.6062 -0.21565,-13.13126 -0.21565,-13.13126l3.11307,-6.22828" fill="#e49a2c"/><path d="M198.58599,348.71038c0,0 10.99183,3.08105 12.83234,-2.25473c0,0 0.71101,2.63693 -0.92026,3.70878c-1.63127,1.07185 -6.81331,2.47893 -8.61112,1.85973c-1.79781,-0.62133 -2.46185,-0.93947 -2.46185,-0.93947l-0.83912,-2.37217" fill="#e49a2c"/><path d="M205.71316,341.19249l0.11957,0.18789l-1.84265,1.09747l-3.81554,-0.80709l-2.8782,-2.07111l-3.30951,-0.8135l1.21918,2.20349l2.08819,2.33587l0.28611,1.93873l0.29679,2.99777c0,0 -2.63693,-1.1594 -2.31238,-2.83123c0.32455,-1.67397 -1.70386,-3.09386 -3.20915,-6.18771c-1.50529,-3.09386 1.21277,-2.42555 1.21277,-2.42555c0,0 4.3472,1.04409 6.73004,3.0725c2.38285,2.02841 5.18418,1.18929 5.41478,1.29818z" fill="#e49a2c"/><path d="M179.17306,329.28892l-0.13025,-2.66682c0,0 1.03129,0.48255 1.79781,0.59998c0.76652,0.11743 1.47967,-0.52525 2.29103,-0.59358c0.81136,-0.06832 0.57649,0.52312 0.57649,0.52312l-0.316,1.49462c0,0 2.35722,1.52024 0,0c-2.35722,-1.52024 -4.21695,0.64482 -4.21695,0.64482" fill="#984332"/><path d="M197.8771,344.62367l-0.09181,2.71379l1.5181,1.9793l0.39074,2.43622l-0.79855,4.34933l-0.83485,0.66404l-1.10815,0.73023l-0.5829,-0.65763c0,0 1.30245,-1.19142 1.50529,-3.10453c0.20284,-1.91311 -0.42063,-4.01411 -1.28964,-4.67174c-0.86901,-0.65763 -0.93734,-3.13442 -0.93734,-3.13442" fill="#e49a2c"/><path d="M208.65114,342.8643l1.67397,0.30319l1.71881,3.97141l-1.18502,0.37579c0,0 -0.31814,-2.29957 -0.76012,-2.89101c-0.44197,-0.59144 -1.81702,-0.78574 -4.26819,0.69606c-2.45117,1.4818 -7.5414,0.82417 -7.5414,0.82417z" fill="#fbe6c9"/><path d="M189.39409,314.79756l6.2539,-3.04261l-5.96779,4.16357l-2.65828,-1.12096z" fill="#fbe6c9"/><path d="M178.87841,322.97524c-0.93948,-6.60406 -5.45108,-4.07389 -5.45108,-4.07389l-1.19142,1.56081l0.18576,-0.93734c0,0 1.2512,-2.48319 4.06108,-1.52237c2.80988,0.96296 2.39352,4.97493 2.39352,4.97493z" fill="#fbe6c9"/><path d="M163.5586,344.22868c0,0 4.39203,3.00631 5.50659,6.02116c1.11456,3.01486 -5.50659,-5.03685 -5.50659,-5.03685v-0.98218" fill="#fbe6c9"/></g><g data-paper-data="{&quot;index&quot;:null}"><path d="M175.66285,324.02147c-1.31011,0 -2.37217,-1.06206 -2.37217,-2.37217c0,-1.31011 1.06206,-2.37217 2.37217,-2.37217c1.31011,0 2.37217,1.06206 2.37217,2.37217c0,1.31011 -1.06206,2.37217 -2.37217,2.37217z" fill="#070808"/><path d="M187.02192,324.47626c-1.31011,0 -2.37217,-1.06206 -2.37217,-2.37217c0,-1.31011 1.06206,-2.37217 2.37217,-2.37217c1.31011,0 2.37217,1.06206 2.37217,2.37217c0,1.31011 -1.06206,2.37217 -2.37217,2.37217z" fill="#070808"/><path d="M175.66072,321.6493c-0.45282,0 -0.8199,-0.36708 -0.8199,-0.8199c0,-0.45282 0.36708,-0.8199 0.8199,-0.8199c0.45282,0 0.8199,0.36708 0.8199,0.8199c0,0.45282 -0.36708,0.8199 -0.8199,0.8199z" fill="#ffffff"/><path d="M186.62265,322.10409c-0.45282,0 -0.8199,-0.36708 -0.8199,-0.8199c0,-0.45282 0.36708,-0.8199 0.8199,-0.8199c0.45282,0 0.8199,0.36708 0.8199,0.8199c0,0.45282 -0.36708,0.8199 -0.8199,0.8199z" fill="#ffffff"/></g><g data-paper-data="{&quot;index&quot;:null}" fill="#855928"><path d="M184.32948,325.22144c-0.03416,0.01494 -0.07046,0.02135 -0.10676,0.02135c-0.04056,0 -0.08113,-0.00854 -0.11743,-0.02562c-0.07046,-0.03416 -0.12384,-0.09608 -0.14519,-0.17081c-0.03203,-0.11103 -0.78361,-2.77145 0.54233,-5.02191c0.74731,-1.27042 1.81062,-1.65048 2.57074,-1.74443c0.76012,-0.09608 1.36651,0.06833 1.46686,0.09822c0.09822,0.02135 0.62987,0.15373 1.17861,0.56368c0.54874,0.41209 1.22559,1.18929 1.32594,2.56647c0.14732,2.02628 -0.00854,3.02126 -0.01495,3.06183c-0.01068,0.07259 -0.05125,0.13665 -0.11103,0.17935c-0.05979,0.0427 -0.13238,0.05978 -0.20498,0.04697c-0.03843,-0.00641 -3.8561,-0.64269 -6.38414,0.42703zM188.39271,318.90562c-0.0363,-0.01068 -0.37579,-0.11103 -0.84766,-0.11103c-0.74944,0 -1.82984,0.25195 -2.57074,1.50743c-0.9651,1.63554 -0.70461,3.57213 -0.55728,4.29809c2.25687,-0.82203 5.17991,-0.51457 6.1023,-0.38646c0.03629,-0.41209 0.079,-1.29818 -0.01922,-2.66469c-0.16227,-2.23125 -2.06043,-2.63266 -2.07965,-2.63693c-0.01067,0 -0.02989,-0.00641 -0.02989,-0.00641z"/><path d="M183.2619,318.54263c0.12598,-0.17935 0.65336,-0.71741 1.28537,-1.01847c0.57863,-0.2733 2.14157,-0.1153 1.43056,0c-0.71101,0.1153 -1.56721,0.86474 -1.79781,1.59924c-0.11103,0.35658 -0.67258,0.48255 -0.8562,0.35444c-0.29038,-0.20284 -0.17722,-0.65336 -0.1153,-0.82844c0.01494,-0.03843 0.03202,-0.07473 0.05551,-0.10676z"/><path d="M176.85427,317.58608c-0.10035,-0.05978 -0.04911,-0.21138 0.06619,-0.20284c1.15939,0.09609 2.49601,1.19143 2.34014,1.75511c-0.1516,0.5466 -0.60852,0.29892 -0.76012,0.10676c-0.01281,-0.01495 -0.079,-0.1153 -0.08968,-0.13452c-0.49749,-0.8861 -1.06331,-1.22772 -1.55867,-1.52451z"/><path d="M178.28696,325.07626c-0.0427,0.10035 -0.14306,0.16654 -0.25195,0.16654c-0.05765,0 -0.09821,-0.01708 -0.11743,-0.02562c-0.42063,-0.18576 -4.17425,-1.83624 -6.0596,-2.36576c-0.11743,-0.03417 -0.19857,-0.14093 -0.19857,-0.26263c0,-0.10249 0.00854,-2.51736 1.42415,-3.76003c0.6619,-0.5829 1.51597,-0.80923 2.53871,-0.67258c1.04837,0.13878 1.864,0.58076 2.42128,1.31099c1.03556,1.35583 0.83912,3.27534 0.78788,3.64686c-0.00427,0.01921 -0.00427,0.03843 -0.00427,0.05551c0,0.19217 -0.05124,0.76439 -0.53806,1.90884zM173.44655,319.23657c-1.01207,0.88609 -1.19783,2.5686 -1.23199,3.14723c1.75297,0.52739 4.7422,1.81489 5.6774,2.22271c0.36938,-0.93094 0.3886,-1.35583 0.3886,-1.43697c0,-0.04057 0.00213,-0.08541 0.00854,-0.12811c0.04698,-0.33309 0.22419,-2.05616 -0.67898,-3.24118c-0.4676,-0.6128 -1.1594,-0.98218 -2.0583,-1.10175c-0.85833,-0.11316 -1.56721,0.06833 -2.10527,0.5402z"/><path d="M180.59295,325.77444c-0.05765,0 -0.1153,-0.01922 -0.16441,-0.05338l-1.06545,-0.79428c-0.1217,-0.08967 -0.14519,-0.26262 -0.05551,-0.38219c0.08967,-0.1217 0.26262,-0.14519 0.38219,-0.05551l0.91385,0.68112l1.40707,-0.92026c0.12597,-0.08327 0.29678,-0.04697 0.37792,0.079c0.08327,0.12597 0.04697,0.29678 -0.079,0.37792l-1.56721,1.02488c-0.04484,0.02989 -0.09822,0.04484 -0.14946,0.04484z"/><path d="M180.59294,327.42492c-0.1516,0 -0.2733,-0.1217 -0.2733,-0.2733v-1.65048c0,-0.1516 0.1217,-0.2733 0.2733,-0.2733c0.1516,0 0.2733,0.1217 0.2733,0.2733v1.65048c0,0.1516 -0.1217,0.2733 -0.2733,0.2733z"/><path d="M181.08402,331.52871c-0.20497,0.04911 -0.39287,0.0726 -0.56795,0.0726c-0.35443,0 -0.64695,-0.09822 -0.88609,-0.29679c-0.74517,-0.61706 -0.83271,-2.15011 -0.73236,-4.41979c0.00213,-0.01068 0.00427,-0.02135 0.00427,-0.03203c-0.51244,-0.35017 -0.7772,-0.71741 -0.79001,-0.73663c-0.08755,-0.12384 -0.05979,-0.29465 0.06405,-0.38219c0.12171,-0.08755 0.29252,-0.05765 0.38006,0.06405v0c0.05765,0.07687 1.40281,1.89389 4.02052,0.80496c0.00213,0 0.00427,0 0.00427,0c0.0726,-0.02776 0.73236,-0.27544 1.13591,0.05338c0.23486,0.19216 0.31387,0.50817 0.237,0.93947c-0.06619,0.37152 -0.27757,1.33448 -0.80282,2.23979c-0.54233,0.9352 -1.2384,1.50743 -2.06684,1.69959zM179.43569,327.16016c-0.06406,1.67824 -0.02776,3.25186 0.5466,3.728c0.21565,0.17935 0.53806,0.21565 0.98004,0.11316c1.85546,-0.4313 2.39993,-3.1878 2.45544,-3.50167c0.03843,-0.21138 0.02135,-0.36511 -0.04484,-0.41849c-0.10676,-0.08754 -0.40782,-0.0363 -0.58717,0.03203c-1.48607,0.61706 -2.62411,0.38433 -3.35007,0.04697z"/></g><path d="M202.92035,352.87396c-1.2021,0 -2.47252,-0.17936 -3.68316,-0.67685c-0.36084,-0.14946 -0.53166,-0.56155 -0.38433,-0.92239c0.14946,-0.36084 0.56155,-0.53379 0.92239,-0.38433c4.06749,1.67611 9.41607,-0.75798 10.2616,-1.55226c1.0868,-1.02488 1.39,-2.61345 0.85834,-4.47104c-0.17294,-0.59999 -0.553,-0.98218 -1.16366,-1.16794c-0.56795,-0.17295 -1.1722,-0.13238 -1.4818,-0.09181c-0.08754,0.01068 -0.17295,0.0363 -0.25622,0.07046c-0.80922,0.35657 -3.59348,1.58002 -5.40837,2.30384c-2.29531,0.91599 -4.39631,0.3523 -4.48385,0.32668c-0.37579,-0.10462 -0.59571,-0.49322 -0.49109,-0.86901c0.10463,-0.37579 0.49109,-0.59571 0.86688,-0.49322c0.02562,0.00641 1.75083,0.45479 3.58494,-0.27757c1.84051,-0.7345 4.78917,-2.03268 5.36353,-2.28463c0.20497,-0.09181 0.42276,-0.15159 0.64695,-0.17935c0.42277,-0.05338 1.25335,-0.10676 2.07325,0.14092c1.07399,0.32668 1.80422,1.06331 2.11168,2.13089c0.35658,1.24053 0.40782,2.40206 0.1516,3.45256c-0.22846,0.94801 -0.71314,1.78927 -1.39853,2.43836c-0.6619,0.62346 -2.46611,1.53518 -4.63971,2.06897c-0.9651,0.237 -2.1672,0.43984 -3.44616,0.44198z" data-paper-data="{&quot;index&quot;:null}" fill="#d07f2a"/><path d="M195.6864,358.19486c-0.12384,0.05125 -0.25622,0.07687 -0.3886,0.07687c-0.21779,0 -0.44198,-0.06833 -0.65336,-0.20071c-0.90318,-0.56795 -1.43697,-1.15512 -1.84692,-2.79493c-0.23273,-0.93093 -0.48468,-1.90456 -0.64055,-2.50241c-0.52098,0.11956 -1.33448,0.2434 -2.32733,0.19216c-1.57789,-0.08114 -3.94152,-0.64055 -6.23255,-2.83977c-0.237,-0.22632 -0.24341,-0.59998 -0.01708,-0.83698c0.22632,-0.237 0.59998,-0.24341 0.83698,-0.01708c1.61419,1.548 3.43548,2.39139 5.41905,2.50882c1.49035,0.08754 2.52163,-0.29038 2.53231,-0.29465c0.15586,-0.05978 0.33095,-0.04911 0.48041,0.02776c0.14733,0.079 0.25836,0.21352 0.30106,0.37579c0.00427,0.01495 0.42277,1.60991 0.79642,3.10026c0.34376,1.37291 0.72809,1.70173 1.32167,2.07538c0.06192,-0.08327 0.13451,-0.24768 0.16227,-0.35871c0.04911,-0.1943 0.19003,-0.3523 0.38006,-0.41849c0.1879,-0.06619 0.39928,-0.03202 0.55728,0.08968l0.49109,0.37792c0.11743,-0.05978 0.32454,-0.26262 0.45479,-0.45265c0.09181,-0.13025 0.2306,-0.21992 0.3886,-0.24768c0.158,-0.02776 0.31813,0.00854 0.44838,0.10249c0.00214,0 0.00214,0 0.00214,0c0.08327,-0.0726 0.20498,-0.26903 0.27971,-0.45052c0.03843,-0.4185 0.21351,-2.38285 0.35657,-4.04187l0.02349,-0.28398c0.01067,-0.12171 0.01921,-0.23914 0.02989,-0.35444c0.13452,-1.5907 -1.8341,-3.09599 -1.85332,-3.11094c-0.1644,-0.12171 -0.25408,-0.32241 -0.237,-0.52739c0.00213,-0.01067 0.09608,-1.11455 0.17935,-1.96862c0.0299,-0.31814 0.05338,-0.55515 0.0726,-0.72169c0.05125,-0.45479 -0.22846,-1.53732 -1.59283,-2.70098c-1.51383,-1.29178 -2.34655,-3.32018 -2.38071,-3.40559c-0.08754,-0.21351 -0.04057,-0.45692 0.1153,-0.6256c0.15587,-0.16868 0.39501,-0.2306 0.61493,-0.16014l4.26392,1.37932c0.0726,0.02562 0.14093,0.06192 0.20071,0.11316c0.02775,0.02349 2.81414,2.35723 5.61975,2.28463c0.7772,-0.02135 1.30032,-0.19644 1.47113,-0.49536c0.20498,-0.35871 -0.0427,-0.95228 -0.11957,-1.09107c-0.01495,-0.02989 -0.02989,-0.05978 -0.04057,-0.09181c-0.54446,-1.56081 -2.28676,-2.72874 -2.30384,-2.73942c-0.18576,-0.12384 -0.30106,-0.33736 -0.2733,-0.56155c0.02775,-0.21993 0.1644,-0.40355 0.37365,-0.47828c0.33309,-0.16228 0.16227,-0.5338 0.10676,-0.6555c-0.0363,-0.07687 -0.32882,-0.26049 -1.24694,-0.19003c-0.70887,0.05551 -1.38358,0.237 -1.38999,0.237c-0.12597,0.03416 -0.26049,0.02562 -0.38219,-0.02562c-1.22559,-0.50817 -4.52015,-1.86614 -5.01764,-2.03268c-0.48468,-0.16228 -0.68752,-0.44839 -0.77293,-0.65977c-0.1089,-0.2669 -0.07687,-0.5402 -0.00214,-0.7345c1.21705,-5.33578 1.22772,-8.92926 1.02061,-11.00891c-0.22419,-2.25047 -0.74304,-3.24972 -0.74731,-3.2604c-0.0726,-0.13238 -0.08968,-0.28184 -0.05338,-0.42703c0.45265,-1.78073 1.11455,-4.62263 1.18715,-5.55997c-0.08754,0.04484 -0.18149,0.10035 -0.25622,0.158c-0.02563,0.01921 -0.05338,0.03629 -0.08114,0.05124l-6.35425,3.34367c-0.15159,0.079 -0.32881,0.08968 -0.48895,0.02776l-0.52312,-0.20071c-4.38136,-1.31953 -10.34274,-0.68966 -10.40252,-0.68325c-0.31814,0.0363 -0.60853,-0.19003 -0.65123,-0.50817l-0.48895,-3.58067c-4.03333,3.63618 -5.63257,8.30579 -6.26244,11.60462c-0.6982,3.6554 -0.39501,6.47595 -0.39287,6.50371c0.02989,0.25835 -0.11103,0.5039 -0.34803,0.60852c-0.23487,0.10462 -0.51244,0.04484 -0.68325,-0.14946c-0.01495,-0.01708 -1.58643,-1.78927 -3.24972,-3.24972c-0.4249,-0.37151 -0.8071,-0.55514 -1.04837,-0.50176c-0.21565,0.04911 -0.34163,0.29892 -0.35444,0.32668c-0.05124,0.13024 -0.95869,2.54512 -0.03843,4.86177c0.8071,2.03267 5.98701,6.23681 7.91506,7.68659c0.14946,0.11317 0.237,0.28825 0.237,0.47401c0,0.41849 0.4676,1.91951 0.80069,2.85258c0.06833,0.19003 0.03416,0.39927 -0.08754,0.55941l-1.0868,1.42202c-0.10036,0.12811 -0.24982,0.21138 -0.41209,0.22846c-0.16227,0.01708 -0.32454,-0.0363 -0.44838,-0.14306c-0.01708,-0.01495 -1.77005,-1.53945 -3.16431,-2.33587c-0.14946,-0.08541 -0.3587,-0.17508 -0.49322,-0.11103c-0.22205,0.10463 -0.39073,0.56582 -0.42703,0.77934c-0.03203,0.17295 -0.13665,0.32455 -0.29038,0.41209c-0.15159,0.08754 -0.33735,0.10249 -0.50176,0.04057l-0.40141,-0.14946c-0.26477,0.06192 -0.43985,0.16867 -0.51885,0.316c-0.1644,0.30533 0.00427,0.82204 0.07687,0.98004c0.08968,0.19003 0.07687,0.41422 -0.0427,0.58717c-0.11957,0.17294 -0.31387,0.26689 -0.52312,0.25408c-0.0363,0 -0.44838,0.00213 -0.58717,0.24554c-0.25195,0.43771 0.53593,1.00139 0.59998,1.04623c0.87755,0.54233 2.73301,2.39993 4.52228,4.52655c0.75371,0.89463 1.34302,1.35369 1.85546,1.44337c0.43984,0.07686 0.87968,-0.1089 1.48607,-0.36725l0.11316,-0.04911c0.96937,-0.41208 0.85407,-1.77005 0.85407,-1.78286c-0.02989,-0.32668 0.20925,-0.61493 0.53593,-0.64482c0.32668,-0.02989 0.61493,0.20925 0.64482,0.53593c0.00854,0.09182 0.18576,2.23766 -1.57148,2.98283l-0.11103,0.04697c-0.70247,0.29892 -1.36864,0.5829 -2.15438,0.44411c-0.8135,-0.14306 -1.60137,-0.71315 -2.55579,-1.84692c-1.90243,-2.26114 -3.6063,-3.89668 -4.24471,-4.28528c-0.0064,-0.00427 -0.01067,-0.00641 -0.01708,-0.01068c-0.6256,-0.40995 -1.63554,-1.48821 -0.98431,-2.62839c0.21565,-0.37793 0.553,-0.59785 0.88609,-0.71742c-0.06619,-0.38433 -0.06619,-0.86902 0.16868,-1.31313c0.19003,-0.3587 0.61066,-0.81776 1.52878,-0.96082c0.09182,-0.01495 0.1879,-0.00854 0.27544,0.02135c0.16227,-0.35871 0.43344,-0.76866 0.87969,-0.97791c0.32881,-0.15587 0.87114,-0.25409 1.58429,0.15373c1.04409,0.59571 2.22698,1.53091 2.87393,2.0647l0.51457,-0.67258c-0.21565,-0.62561 -0.62774,-1.88108 -0.73663,-2.63266c-0.52738,-0.40355 -1.97289,-1.52878 -3.48672,-2.85045c-2.58996,-2.26114 -4.14009,-4.00557 -4.60769,-5.18632c-1.12096,-2.82269 -0.00641,-5.63257 0.0427,-5.75c0.03417,-0.0854 0.35871,-0.83485 1.17221,-1.02701c0.64696,-0.15374 1.35583,0.10248 2.10741,0.76225c0.83485,0.7345 1.63554,1.52878 2.24406,2.16079c-0.00854,-1.22985 0.07686,-3.05328 0.47614,-5.16496c0.4249,-2.24619 1.1231,-4.3536 2.07538,-6.26244c1.19356,-2.39352 2.79066,-4.47957 4.74647,-6.19838c0.01281,-0.01067 0.02349,-0.02135 0.0363,-0.02989l0.66831,-0.50176c0.16654,-0.12598 0.3886,-0.15374 0.5829,-0.0726c0.1943,0.08114 0.33095,0.26049 0.35871,0.4676l0.55087,4.0376c1.64835,-0.13025 6.47169,-0.38006 10.32139,0.78574c0.01281,0.00427 0.02776,0.01068 0.04057,0.01495l0.29252,0.11316l6.07454,-3.19848c0.26689,-0.1943 0.99285,-0.64909 1.58429,-0.35444c0.20071,0.09822 0.53593,0.36511 0.53593,1.02488c0,1.03342 -0.92453,4.78277 -1.17861,5.7927c0.4313,1.00353 1.89816,5.38062 -0.26903,14.8821c0.5829,0.19644 4.06535,1.63554 4.91301,1.98784c0.2797,-0.06619 0.81563,-0.17935 1.38999,-0.22419c1.29818,-0.10463 2.11808,0.19216 2.43195,0.87755c0.28824,0.62988 0.21138,1.11029 0.09608,1.40067c-0.0363,0.09181 -0.08114,0.17722 -0.13025,0.25195c0.6619,0.54873 1.69532,1.5608 2.15652,2.8419c0.13238,0.25836 0.60425,1.30032 0.08754,2.20563c-0.395,0.69392 -1.22558,1.06117 -2.46825,1.0932c-2.98283,0.079 -5.77349,-2.04336 -6.32436,-2.48747l-2.78425,-0.90104c0.3459,0.56369 0.82204,1.21705 1.40921,1.71881c1.62913,1.38785 2.101,2.83977 2.00278,3.7344c-0.01708,0.16014 -0.04057,0.39074 -0.07046,0.70247c-0.05552,0.57222 -0.11744,1.25547 -0.1516,1.64621c0.64482,0.55087 2.22057,2.101 2.06257,3.94792c-0.00854,0.11743 -0.01921,0.23487 -0.02989,0.35657l-0.02349,0.28398c-0.16014,1.85972 -0.36298,4.10378 -0.36298,4.12727c-0.00427,0.04698 -0.01494,0.09395 -0.02989,0.13879c-0.05979,0.17295 -0.39287,1.0505 -1.09107,1.27256c-0.16227,0.05125 -0.32882,0.06406 -0.49536,0.0363c-0.23487,0.24768 -0.5829,0.53166 -0.98431,0.59571c-0.28184,0.04698 -0.55087,-0.01708 -0.78147,-0.17935c-0.13238,0.17935 -0.30747,0.34376 -0.53593,0.43557zM202.95025,336.12572z" data-paper-data="{&quot;index&quot;:null}" fill="#d07f2a"/><path d="M184.51523,351.88111c-2.01987,0 -3.91589,-0.44198 -5.64324,-1.31953c-1.53305,-0.77933 -2.93372,-1.89816 -4.1593,-3.32872c-2.07111,-2.41487 -2.92517,-4.86604 -2.96147,-4.96853c-0.12598,-0.36938 0.07046,-0.7708 0.43984,-0.89677c0.36938,-0.12598 0.7708,0.07046 0.89677,0.43984c0.00854,0.02135 0.8199,2.3316 2.72874,4.54363c2.50882,2.90596 5.64752,4.28741 9.32854,4.10379c0.3886,-0.01922 0.72168,0.28184 0.7409,0.67044c0.01922,0.39073 -0.28184,0.72168 -0.67044,0.7409c-0.23486,0.01067 -0.46973,0.01708 -0.70033,0.01708z" data-paper-data="{&quot;index&quot;:null}" fill="#d07f2a"/><path d="M179.21148,350.95444c-2.30598,0 -4.9664,-0.59571 -5.07956,-0.62133c-0.38006,-0.08541 -0.6192,-0.46334 -0.53379,-0.84553c0.08541,-0.38006 0.46334,-0.6192 0.84553,-0.53379v0c0.02776,0.00641 2.75223,0.61493 4.92583,0.58504c0.00427,0 0.00641,0 0.01068,0c0.38647,0 0.70033,0.3096 0.70674,0.69606c0.00641,0.39073 -0.30746,0.71101 -0.69606,0.71528c-0.05979,0 -0.11744,0 -0.17722,0z" data-paper-data="{&quot;index&quot;:null}" fill="#d07f2a"/><path d="M194.74268,341.18821c0,0 2.22697,0.90958 1.78713,1.6761c-0.43984,0.76866 -4.48385,1.71026 -3.10453,0.83271c1.37932,-0.87755 1.3174,-2.50882 1.3174,-2.50882z" data-paper-data="{&quot;index&quot;:null}" fill="#d07f2a"/><path d="M196.7049,342.96464c-0.36297,0.63841 -2.57928,1.2875 -3.35434,1.2875c-0.05125,0 -0.09609,-0.00213 -0.13452,-0.00854c-0.20711,-0.03416 -0.26049,-0.15586 -0.27544,-0.22419c-0.04057,-0.2007 0.15587,-0.3587 0.37579,-0.49749c1.25974,-0.80069 1.22131,-2.31238 1.22131,-2.32733c-0.00214,-0.06832 0.02989,-0.13451 0.08754,-0.17508c0.05551,-0.03843 0.13025,-0.04697 0.1943,-0.02135c0.17295,0.06832 1.68251,0.7046 1.93446,1.43483c0.06192,0.18363 0.04698,0.36725 -0.04697,0.53166zM194.93271,341.49566c-0.05124,0.53592 -0.29038,1.62699 -1.33234,2.32946c0.28611,-0.03843 0.72169,-0.13238 1.23199,-0.29465c0.91171,-0.29038 1.41775,-0.59571 1.5181,-0.76866c0.0363,-0.05978 0.04057,-0.1217 0.01495,-0.1943c-0.12384,-0.36084 -0.86048,-0.80282 -1.4327,-1.07185z" data-paper-data="{&quot;index&quot;:null}" fill="#d07f2a"/><path d="M197.03157,345.60799c-0.68752,0.72169 -2.82055,0 -2.82055,0l2.63266,-2.2889c0,0 0.87755,1.56721 0.18789,2.2889z" data-paper-data="{&quot;index&quot;:null}" fill="#d07f2a"/><path d="M197.17677,345.74678c-0.27757,0.29038 -0.72809,0.38646 -1.19996,0.38646c-0.8135,0 -1.68892,-0.28398 -1.83411,-0.33309c-0.06833,-0.02348 -0.11957,-0.08113 -0.13452,-0.15373c-0.01495,-0.0726 0.01068,-0.14519 0.06619,-0.1943l2.63266,-2.2889c0.04697,-0.04056 0.10889,-0.05765 0.17081,-0.04697c0.05979,0.01068 0.11317,0.04911 0.14306,0.10249c0.03843,0.06832 0.94374,1.70813 0.158,2.53017zM194.62524,345.51831c0.69393,0.18576 1.84692,0.37793 2.25687,-0.05124c0.40568,-0.4249 0.12598,-1.31526 -0.10462,-1.81916z" data-paper-data="{&quot;index&quot;:null}" fill="#d07f2a"/><path d="M195.65012,333.06604l1.64621,1.09747c0,0 -1.11242,2.19495 -1.08039,1.41134c0.0299,-0.78574 -0.56795,-2.50882 -0.56795,-2.50882z" data-paper-data="{&quot;index&quot;:null}" fill="#d07f2a"/><path d="M197.21093,335.17769c-0.38006,0.6555 -0.62347,0.97791 -0.9288,0.97791c-0.03843,0 -0.08114,-0.0064 -0.12384,-0.01708c-0.11103,-0.02775 -0.36938,-0.14305 -0.3523,-0.58076c0.02348,-0.57863 -0.38433,-1.89816 -0.54447,-2.35722c-0.05765,-0.16654 -0.00214,-0.3523 0.13665,-0.45906c0.13879,-0.10889 0.33095,-0.1153 0.47828,-0.01708l1.64621,1.09747c0.17295,0.1153 0.23274,0.34163 0.13879,0.52739c-0.00854,0.01708 -0.21565,0.42276 -0.45052,0.83058zM196.76041,334.30014l-0.38646,-0.25835c0.05765,0.21779 0.11316,0.44839 0.158,0.67258c0.07687,-0.13238 0.15587,-0.2733 0.2306,-0.41422z" data-paper-data="{&quot;index&quot;:null}" fill="#d07f2a"/><path d="M197.87496,334.19552c0,0 1.78927,0.3459 1.81916,0.51885c0.02989,0.17295 -1.7551,1.70813 -1.56721,1.26829c0.19003,-0.43984 -0.24981,-1.78713 -0.24981,-1.78713z" data-paper-data="{&quot;index&quot;:null}" fill="#d07f2a"/><path d="M198.44719,336.38195c-0.11957,0.06406 -0.22419,0.08968 -0.31173,0.08968c-0.13024,0 -0.22419,-0.05338 -0.29038,-0.11316c-0.05552,-0.04911 -0.22206,-0.23487 -0.09395,-0.53593c0.06192,-0.16655 -0.06405,-0.88183 -0.26476,-1.49889c-0.04484,-0.13879 -0.01281,-0.29039 0.08327,-0.39928c0.09608,-0.10676 0.24127,-0.15801 0.38433,-0.13025c0.01709,0.00427 0.4612,0.08968 0.91599,0.19857c0.87755,0.20925 1.17647,0.33522 1.22985,0.65763c0.03843,0.22633 -0.05125,0.41423 -0.6982,0.99499c-0.29679,0.26689 -0.70461,0.59998 -0.95442,0.73663zM198.45573,334.73573c0.04271,0.17722 0.079,0.36725 0.10249,0.55301c0.16014,-0.13238 0.32881,-0.28184 0.4676,-0.41209c-0.16441,-0.04484 -0.36084,-0.09395 -0.57009,-0.14092zM199.4315,335.01116z" data-paper-data="{&quot;index&quot;:null}" fill="#d07f2a"/><path d="M195.18039,329.02203l-2.38925,-1.01207l2.77358,-1.38145z" data-paper-data="{&quot;index&quot;:null}" fill="#d07f2a"/><path d="M195.38109,329.38073c-0.06192,0.03416 -0.13024,0.05124 -0.19857,0.05124c-0.05338,0 -0.1089,-0.01068 -0.16014,-0.03203l-2.38925,-1.0142c-0.14732,-0.06192 -0.24554,-0.20497 -0.24981,-0.36511c-0.0064,-0.16014 0.08327,-0.3096 0.22633,-0.38006l2.77358,-1.37932c0.13665,-0.06832 0.30106,-0.05551 0.4249,0.0363c0.12384,0.08968 0.18576,0.24341 0.16227,0.39501l-0.38433,2.39352c-0.02135,0.12597 -0.09608,0.23273 -0.20711,0.29465zM193.77118,327.98006l1.0868,0.4612l0.17508,-1.08893z" data-paper-data="{&quot;index&quot;:null}" fill="#d07f2a"/><path d="M195.56472,324.09407l-2.70312,-1.15726l2.89742,-2.06257z" data-paper-data="{&quot;index&quot;:null}" fill="#d07f2a"/><path d="M195.77823,324.43997c-0.06619,0.04057 -0.14092,0.06192 -0.21565,0.06192c-0.05551,0 -0.11103,-0.01068 -0.16227,-0.03203l-2.70312,-1.15726c-0.13451,-0.05765 -0.23059,-0.18576 -0.24554,-0.33309c-0.01495,-0.14732 0.04911,-0.29251 0.17081,-0.37792l2.89742,-2.06257c0.13025,-0.08968 0.29892,-0.10036 0.43771,-0.02349c0.13878,0.07687 0.21992,0.22633 0.21138,0.38433l-0.1943,3.21769c-0.00854,0.13452 -0.08114,0.25409 -0.1943,0.32455zM193.69431,322.84713l1.49462,0.64055l0.10889,-1.78073z" data-paper-data="{&quot;index&quot;:null}" fill="#d07f2a"/><path d="M179.60009,314.00542l-0.87755,1.72521l-0.57009,-1.86827z" data-paper-data="{&quot;index&quot;:null}" fill="#d07f2a"/><path d="M179.08765,315.91425c-0.07046,0.13878 -0.21138,0.22419 -0.36511,0.22419c-0.01281,0 -0.02349,0 -0.0363,0c-0.16654,-0.01495 -0.30746,-0.12811 -0.35657,-0.28825l-0.57009,-1.86613c-0.04057,-0.13238 -0.01281,-0.2733 0.07473,-0.38006c0.0854,-0.10463 0.21992,-0.16014 0.35657,-0.14733l1.44764,0.14306c0.13451,0.01281 0.25622,0.09181 0.32027,0.21138c0.06619,0.11743 0.06833,0.26049 0.00641,0.38219l-0.87755,1.72308zM178.72254,314.3321l0.09395,0.30746l0.14519,-0.28398z" data-paper-data="{&quot;index&quot;:null}" fill="#d07f2a"/><path d="M182.9224,314.00541l-1.78713,1.91311l-0.34376,-2.05616z" data-paper-data="{&quot;index&quot;:null}" fill="#d07f2a"/><path d="M181.43419,316.1961c-0.079,0.08541 -0.18789,0.13025 -0.29892,0.13025c-0.03843,0 -0.079,-0.00427 -0.11743,-0.01708c-0.14946,-0.04484 -0.26049,-0.17082 -0.28611,-0.32455l-0.34376,-2.05403c-0.02135,-0.12384 0.01708,-0.24981 0.10035,-0.34376c0.08327,-0.09395 0.20498,-0.14306 0.33095,-0.13452l2.13089,0.14306c0.158,0.01067 0.29679,0.11102 0.35444,0.25835c0.05978,0.14732 0.02775,0.316 -0.08114,0.4313l-1.78713,1.91311zM181.28047,314.3086l0.1217,0.72382l0.62987,-0.67471z" data-paper-data="{&quot;index&quot;:null}" fill="#d07f2a"/><path d="M186.62265,314.41323l-2.60063,1.50529v-2.03054z" data-paper-data="{&quot;index&quot;:null}" fill="#d07f2a"/><path d="M184.227,316.2751c-0.06406,0.03629 -0.13452,0.05551 -0.20498,0.05551c-0.07046,0 -0.14093,-0.01921 -0.20498,-0.05551c-0.12598,-0.0726 -0.20498,-0.20711 -0.20498,-0.35444v-2.03054c0,-0.12384 0.05338,-0.24127 0.14946,-0.31814c0.09609,-0.079 0.21993,-0.1089 0.34163,-0.08541l2.60063,0.52525c0.16868,0.03416 0.29679,0.16654 0.32455,0.33522c0.02776,0.16655 -0.05124,0.33522 -0.19857,0.42063l-2.60063,1.50529zM184.43411,314.38974v0.81777l1.04623,-0.60639z" data-paper-data="{&quot;index&quot;:null}" fill="#d07f2a"/><path d="M198.78455,345.92826l2.75863,-0.25835c2.82269,2.97855 0.53379,6.08308 0.53379,6.08308l-1.25334,-0.40782c1.37931,-3.8561 -2.03695,-5.41691 -2.03695,-5.41691z" data-paper-data="{&quot;index&quot;:null}" fill="#d07f2a"/><path d="M205.07475,344.76033c3.6853,2.22698 1.26829,6.55282 1.26829,6.55282l-2.2889,0.43984c2.41273,-5.11158 -1.63127,-6.08308 -1.63127,-6.08308z" data-paper-data="{&quot;index&quot;:null}" fill="#d07f2a"/><path d="M206.24909,344.05146l2.00705,-0.73023c4.54577,2.1309 2.19495,6.11298 2.19495,6.11298l-1.91311,0.81563c2.79066,-5.29735 -2.2889,-6.20052 -2.2889,-6.20052z" data-paper-data="{&quot;index&quot;:null}" fill="#d07f2a"/><path d="M169.06519,336.65309c-0.29893,0 -0.55728,-0.22633 -0.58931,-0.53166l-0.0427,-0.41209c-0.08968,0.13665 -0.23274,0.23273 -0.39501,0.26049c-0.18575,0.03202 -0.37365,-0.02562 -0.5103,-0.15587l-0.87969,-0.84125c-0.09822,-0.02775 -0.19003,-0.08113 -0.26263,-0.158l-1.2085,-1.24907c-0.22419,-0.23273 -0.22205,-0.59998 0.00641,-0.83058c0.14306,-0.14305 0.33949,-0.19857 0.52525,-0.16654l1.27683,-1.11242c0.19216,-0.16868 0.47187,-0.1943 0.69179,-0.06192c0.21993,0.13024 0.33095,0.3886 0.27544,0.63841l-0.47187,2.0946l0.28825,0.27544l0.51671,-1.02701c0.11743,-0.23486 0.37793,-0.36297 0.63628,-0.316c0.25836,0.04697 0.45479,0.26049 0.48255,0.52098l0.24981,2.41487c0.03416,0.32455 -0.20284,0.61707 -0.52739,0.65123c-0.02135,0.00213 -0.04057,0.00427 -0.06192,0.00427z" data-paper-data="{&quot;index&quot;:null}" fill="#d07f2a"/><path d="M171.58468,339.17689c-0.32027,0 -0.5829,-0.25408 -0.59144,-0.57649l-0.13238,-4.78917l-1.38145,-2.70312c-0.14947,-0.29039 -0.03417,-0.64909 0.25835,-0.79642c0.29252,-0.14947 0.64909,-0.03417 0.79642,0.25835l1.44124,2.82055c0.04056,0.079 0.06191,0.1644 0.06405,0.25408l0.13665,4.92155c0.00855,0.32668 -0.24981,0.59998 -0.57649,0.60852c-0.0064,0 -0.01067,0 -0.01708,0z" data-paper-data="{&quot;index&quot;:null}" fill="#d07f2a"/><path d="M167.32076,340.4587l0.02377,-0.03802l3.86909,2.41862l-0.02377,0.03802z" data-paper-data="{&quot;index&quot;:null}" fill="#d07f2a"/><path d="M191.47801,315.91852l3.38637,-2.98069l-1.04623,4.43474z" data-paper-data="{&quot;index&quot;:null}" fill="#d07f2a"/></g></g></svg>