<svg version="1.1" xmlns="http://www.w3.org/2000/svg" xmlns:xlink="http://www.w3.org/1999/xlink" width="52.58145" height="51.103" viewBox="0,0,52.58145,51.103"><g transform="translate(-161.20928,-307.9485)"><g data-paper-data="{&quot;isPaintingLayer&quot;:true}" fill-rule="nonzero" stroke="none" stroke-width="0" stroke-linecap="butt" stroke-linejoin="miter" stroke-miterlimit="10" stroke-dasharray="" stroke-dashoffset="0" style="mix-blend-mode: normal"><g><path d="M178.97575,350.33937l-0.39176,-2.23719v-2.08606l0.54886,-2.20339l-0.16307,-0.14119l-0.82726,-0.62443l-0.98039,-0.74573l-0.42159,-1.05397l0.03381,-1.23891l-0.19886,0.27244l-0.49517,0.02983l-0.38579,0.38977l-0.10937,0.3321l-1.11363,0.75567h-1.42982l-2.61304,-0.92073l-1.30652,-1.60879l-0.61448,-1.75993l1.04402,-1.11164l2.34259,-0.65823l0.00398,-1.18919l0.6642,-0.17102l1.31249,0.52102c0,0 0.2963,-1.24885 0.17301,-1.39004c-0.12329,-0.14119 0.5946,-1.71021 0.5946,-1.71021l0.34602,-2.98293l0.10341,-3.24145l0.50511,-2.56333l1.1534,-1.44771l0.89687,0.5946l1.05993,-2.80395l-0.11335,-0.77954l0.38579,-0.67812l1.14345,-0.13721l1.31646,-0.27841l1.43976,-0.82329l1.00027,-1.03408l0.39176,-2.78406l0.80141,-0.64829l0.55482,0.43352l1.11363,-0.02983l2.04032,-1.00027l1.87129,-0.01989c0,0 1.26675,0.04972 1.68237,0.19091c0.41562,0.14119 1.70226,-0.13721 1.88123,0c0.17898,0.13721 1.11959,0 1.11959,0l2.00055,0.61448l1.37215,0.46733l1.30652,0.52102l1.88123,1.33635l2.00453,1.87725l1.41987,0.98437c0,0 0.00994,0.78352 0.24659,1.00823c0.24261,0.22869 0.68408,2.271 0.68408,2.271l0.45142,4.73291l-0.10341,1.52527l-1.27271,2.53946l0.64431,-0.36988l1.41987,-0.79545l0.43153,-0.97045l-0.10341,-0.75567c0,0 0.50909,-1.59089 0.50909,-1.69231c0,-0.10142 0.74772,-0.50113 0.74772,-0.50113l0.42556,0.16506c0,0 0.98039,0.66818 0.87698,0.39573c-0.10341,-0.27244 0.85113,0 0.85113,0l0.60454,0.4534l0.99033,0.23863l0.42556,0.94062l0.15312,0.92073c0,0 0.10341,1.47754 0,1.59885c-0.1054,0.12131 -0.88692,1.27669 -0.88692,1.27669l-1.46561,0.82329l-2.11987,1.52129l-4.18405,2.84173l-0.64829,1.46163l0.16903,1.42783l-0.86704,2.89543l-0.76761,1.59487l-0.40568,1.25681l0.20284,0.90681l0.71192,-0.19091c0,0 1.77186,-0.11335 1.97072,-0.14716c0.19886,-0.03381 1.58493,-0.57073 1.58493,-0.57073c0,0 2.16759,-0.36988 2.37043,-0.33608c0.20284,0.03381 1.07982,0.55085 1.07982,0.55085l0.64431,1.02812l0.09943,1.28664l-0.5946,0.90283l-1.12357,1.63862c0,0 -1.90112,2.10595 -1.99061,2.1835c-0.08949,0.08352 -1.58891,1.24289 -1.58891,1.24289c0,0 -1.40993,0.73977 -1.49942,0.76959c-0.08949,0.02784 -1.66845,0.15511 -1.66845,0.15511l-1.95083,-0.91079l-0.55482,-1.91106l-0.82726,-0.60056l-0.98437,-0.03381h-2.77213l-1.98066,0.16506l-2.59912,0.16506l-1.0838,0.6284l-0.97045,0.49318l-1.86731,0.43948l-0.9267,0.49318l-0.3321,1.27271l1.49942,0.67215l1.12357,0.97045v2.17952c0,0 -1.35027,0.45738 -2.96503,0.74573c-1.61476,0.28835 -5.39114,-0.43352 -6.10903,-0.64829c-0.71789,-0.2088 -0.17699,-1.34431 -0.05369,-2.98293c0.12329,-1.63663 0,-4.59172 0,-4.59172z" fill="#f0efef"/><path d="M182.41208,339.74998c0,0 0.6284,2.66674 -0.40568,3.8082c-1.0301,1.14147 -2.08009,3.01673 -1.8514,4.35905c0.22869,1.34232 0.36591,4.33916 0.36591,4.96359c0,0.62443 -0.15312,3.39855 -0.15312,3.39855c0,0 0.08352,1.74601 2.42015,2.01248c2.33663,0.26846 -3.76843,-0.37983 -3.76843,-0.37983v-3.69087l0.04375,-3.16389l-0.37187,-2.31475l-0.24261,-2.16362l0.12926,-1.50141l1.46959,-2.05225l0.10341,-1.80765l0.2088,-1.47158l2.0443,-0.20483" fill="#979797"/><path d="M182.41407,335.60968l3.39059,0.61846l2.52952,3.86189l3.47014,4.58774c0,0 -1.02414,-0.14517 -3.06446,-0.7159c-2.04032,-0.57073 -2.31276,-2.14572 -2.87156,-4.1582c-0.55482,-2.01845 -3.45622,-4.192 -3.45622,-4.192z" fill="#979797"/><path d="M201.15479,335.50826l1.17328,-0.35596l-1.66845,5.8704l-1.37612,0.30625l1.67839,-5.09881l0.08352,-0.25454" fill="#979797"/><path d="M200.00736,343.44483l-0.47528,2.39429l-1.43578,2.74827h-0.38181l1.8176,-4.79257z" fill="#979797"/><path d="M181.59078,318.80587c0,0 -0.05966,0.03977 -0.15909,0.11136c-0.58465,0.43948 -2.57526,2.12981 -2.45992,4.86615c0.13324,3.20366 0.31619,4.77666 1.5551,6.68772c1.23692,1.91106 1.66248,2.38833 5.09484,4.17808c0,0 -2.92128,-0.8392 -4.39087,-1.98862c-1.46959,-1.15141 -3.0048,-3.49599 -3.13804,-4.90393c-0.1392,-1.40794 -0.55482,-4.29541 -0.36193,-5.8346c0.1929,-1.54118 0.97442,-3.02668 1.75794,-3.07042" fill="#979797"/><path d="M179.51665,331.11541c0,0 2.07015,3.49997 6.10505,4.49427c4.0349,0.99431 5.25194,1.12556 5.25194,1.12556c0,0 -6.94027,-0.26846 -9.28286,-2.0085c-2.33663,-1.74004 -3.49997,-2.24714 -3.57951,-3.20366c-0.07954,-0.95454 0.31221,-2.49571 0.31221,-2.49571l1.38607,2.09203" fill="#979797"/><path d="M207.38314,351.1368c0,0 2.47583,-3.44627 1.58891,-4.24172c-0.88692,-0.79545 -3.55962,1.42385 -3.55962,1.42385l-2.33265,2.35452l-0.42159,-0.68806c0,0 4.24769,-4.57183 4.80251,-4.52808c0.55482,0.04375 2.09998,-1.75595 3.30309,1.12556z" fill="#ffffff"/><path d="M211.51748,330.93643c0,0 1.33635,-2.79401 0.65823,-3.86985c-0.67812,-1.07783 -1.89515,0 -1.89515,0c0,0 -0.24659,0.5946 -0.87698,-0.34204c-0.6284,-0.93664 0,-2.01248 0,-2.01248c0,0 0.36591,0.69204 1.39203,0.57073c1.02414,-0.12131 4.5599,2.15964 0.72187,5.65563z" fill="#ffffff"/><path d="M205.96725,329.62792c0,0 0.28636,1.78976 -2.02043,4.48035c-2.3068,2.6906 -12.5442,2.62299 -12.5442,2.62299c0,0 3.4065,-0.48721 6.9701,-1.223c3.5636,-0.73579 8.35219,-3.88576 4.21786,-2.33464c-4.13831,1.54913 -9.33656,0.75965 -9.33656,0.75965c6.89056,0.63238 12.71323,-4.30536 12.71323,-4.30536z" fill="#ffffff"/><path d="M198.68493,345.2684l-1.3622,3.31502l-2.39032,1.07186c0,0 2.07413,-0.81334 3.75252,-4.38689z" fill="#ffffff"/></g><g><path d="M204.04425,330.47706c0,0 -1.02016,0.67215 -2.32668,1.41391c-1.30652,0.73977 -2.16362,0.84715 -4.2974,1.40794c-2.13379,0.56079 -3.54372,0.04375 -6.22238,0c-2.67867,-0.04375 -6.42522,-1.70226 -7.31215,-2.17952c-0.88692,-0.47727 -2.45594,-2.15367 -2.79202,-3.20764c-0.33608,-1.05198 -0.56874,-2.59316 -0.56874,-2.59316l0.95454,-3.06645l2.95111,-3.69485l3.60934,-2.74429l4.84626,-1.54516c0,0 4.73887,-0.42358 6.05534,-0.16506c1.31249,0.25852 2.88151,1.68237 3.94144,2.80793c1.05993,1.12556 1.76191,3.144 2.26702,4.97154c0.50511,1.8335 0.15312,4.81245 -0.10937,6.42522c-0.2625,1.61476 -0.99431,2.16958 -0.99431,2.16958z" fill="#f2b65e"/><path d="M178.60785,344.4988l0.31221,0.11733c0.31221,0.11733 -0.70795,3.3011 -0.70795,3.3011c0,0 -1.33038,0 -2.61304,-0.15511c-1.28266,-0.15511 -3.83207,-0.71192 -6.16869,-1.65254c-2.3406,-0.94062 -3.87979,-2.84173 -4.74683,-3.89968c-0.86704,-1.05794 -2.57526,-4.1582 -2.67867,-5.75705c-0.10937,-1.59885 0.58863,-2.72043 0.58863,-2.72043c0,0 0.70198,-1.16931 3.54372,-1.61873c2.84173,-0.44744 4.99938,3.39855 4.99938,3.39855c0,0 -0.35199,0.16704 -1.57896,0.53693c-1.22698,0.37187 -1.04402,1.45368 -1.04402,1.45368c0,0 -0.41761,0.70198 1.91504,3.35877c2.33066,2.65679 4.27155,1.12556 4.27155,1.12556l4.02894,2.59316" fill="#f2b65e"/><path d="M183.87371,313.44257c0.10341,1.50538 -0.47528,2.10992 -1.08976,3.12412c-0.61448,1.00425 -3.30309,1.05397 -3.30309,1.05397c0,0 0.30625,-3.32895 1.04402,-4.97751c0.73778,-1.64657 3.34684,-4.11843 3.34684,-4.11843l0.37585,3.05253l-0.37585,1.86731z" fill="#f2b65e"/><path d="M201.68774,314.10279l-4.26757,-1.92498v-2.85168l0.57869,-0.53693c0,0 1.19317,1.70226 2.13776,2.50566c0.94459,0.8034 1.54913,2.80793 1.54913,2.80793z" fill="#f2b65e"/><path d="M200.91815,315.11698c0,0 -9.27292,-2.08606 -14.49105,2.94912c-5.21813,5.03518 -3.3369,10.09621 -3.3369,10.09621c0,0 0.66818,3.85195 4.6991,4.50024c0,0 -3.85593,-0.64431 -5.19825,-2.49174c-1.34232,-1.84345 -2.18748,-2.6031 -2.21731,-4.61757c-0.02983,-2.01447 0.23665,-2.68662 1.8176,-4.84029c1.57896,-2.15566 4.06473,-4.27553 6.80704,-5.59597c2.7423,-1.32044 9.27292,-2.25708 11.92176,0" fill="#e49a2b"/><path d="M203.31841,330.93643c0,0 1.3622,-1.82356 1.14942,-6.23034c-0.21875,-4.4028 -3.41644,-9.56525 -3.41644,-9.56525c0,0 2.00055,1.65254 2.51958,2.70054c0.51903,1.05397 1.58891,2.74031 1.71817,4.88007c0.12926,2.13975 -0.09347,6.15676 -0.49914,6.95221c-0.40568,0.79545 -1.46959,1.26277 -1.46959,1.26277z" fill="#fdd29e"/><path d="M197.42216,321.05499c0,0 0.74175,-2.54543 2.82185,-1.89117c2.08009,0.65227 2.28691,3.04656 2.28691,3.04656c0,0 0.20284,1.7301 -0.18892,2.50566l-4.92183,-3.66104z" fill="#fdd29e"/><path d="M190.89353,314.28176c0,0 -0.38181,-1.78976 -2.21333,-2.24714c-2.09004,-0.52698 3.80621,-0.98039 5.07893,-0.36591c1.27271,0.61448 2.65878,2.15964 2.65878,2.15964z" fill="#577c8e"/><path d="M180.52687,334.66907l-4.53007,1.1355l-1.68834,-1.08777c0,0 0.60454,-8.12748 0.92073,-10.48598c0.31619,-2.36049 2.17754,-2.87156 2.17754,-2.87156l0.57869,7.66413c0,0 -0.07954,1.97867 -0.15909,2.75423c-0.07954,0.78153 2.69855,2.89145 2.69855,2.89145z" fill="#577c8e"/><path d="M179.98199,340.11987c0,0 0.24659,1.73606 -0.15909,2.36844c-0.41164,0.6284 -0.30625,1.30652 -0.30625,1.30652c0,0 -3.89172,-2.56929 -2.79202,-3.74457c1.09971,-1.17925 3.25735,0.06761 3.25735,0.06761z" fill="#577c8e"/><path d="M203.99653,334.53384l-0.81732,6.30392c0,0 0.16903,0.71192 -0.85113,1.14544c-1.02016,0.43352 -3.3369,1.27271 -3.3369,1.27271l-0.2963,-0.97045l1.77782,-1.26277l2.06418,-6.34767z" fill="#577c8e"/><path d="M201.04542,343.10279l-1.39004,4.43263l-1.05993,0.51704l1.8176,-4.94967z" fill="#577c8e"/><path d="M195.23269,345.45533c-0.5946,0.51306 -1.3622,-1.28664 -1.3622,-1.28664l-1.04999,0.76562l0.43153,0.64431l0.51505,1.58493l0.56477,2.83179l-0.84715,0.0875l-0.32216,-2.16958l-0.83124,-2.45793l-1.06988,-1.78379l-2.99486,-1.16533c0,0 -1.51533,-3.54769 -2.19344,-4.72297c-0.68011,-1.17925 -2.59515,-1.80765 -2.59515,-1.80765l4.019,0.57073l3.29713,4.41274l1.01419,0.65227c0,0 2.70253,0.60454 2.44998,1.29658c-0.25255,0.69204 0.97045,2.54941 0.97045,2.54941z" fill="#577c8e"/><path d="M179.51665,356.31516v-4.97154h5.79682v4.97154z" fill="#577c8e"/><path d="M199.2835,349.98539c0.93465,-2.01248 3.62326,-4.37695 3.62326,-4.37695" fill="#577c8e"/><path d="M199.28152,352.74361c-0.38977,0 -0.7855,-0.08153 -1.16334,-0.25057c-1.40595,-0.63437 -2.02441,-2.26901 -1.3801,-3.65309c1.14544,-2.46589 3.98519,-5.00535 4.30536,-5.28574c1.1534,-1.01419 2.92327,-0.91675 3.95337,0.21875c1.0301,1.1355 0.93067,2.87554 -0.22074,3.88974v0c-0.93863,0.82925 -2.47384,2.45395 -2.94514,3.47014c-0.4713,1.01221 -1.4855,1.61078 -2.54742,1.61078z" fill="#577c8e"/><path d="M178.6874,340.59316l-3.15792,-1.68635c0.19488,-0.36591 -0.04574,-1.44175 -0.38579,-2.12384l3.19173,-1.61873c0.26449,0.51903 1.52726,3.22554 0.35,5.42892z" fill="#577c8e"/><path d="M180.01182,340.66674l-3.62525,-1.73606c0.21079,-0.42755 -0.02983,-1.6068 -0.38579,-2.37839l3.65906,-1.66646c0.2625,0.55482 1.50936,3.43633 0.35199,5.78091z" fill="#9f1d21"/><path d="M207.42093,332.27676c-0.06364,-0.3142 -0.85113,-0.96249 -1.55908,-1.28664l1.66646,-3.61531c0.55284,0.2446 3.33093,1.59487 3.84599,4.12041l-3.95138,0.77954z" fill="#9f1d21"/><path d="M208.53256,331.6583c-0.13324,-0.56477 -1.20908,-1.38805 -1.92299,-1.73209l1.54714,-3.22753c0.54289,0.26051 3.28122,1.68436 3.85991,4.13831l-3.48406,0.81931z" fill="#577c8e"/><path d="M183.58536,344.37551c-0.95851,0 -2.31873,-0.14119 -3.84797,-0.71988l1.26874,-3.34684c1.82555,0.69204 3.27128,0.44545 3.2852,0.44147l0.7159,3.50792c-0.11136,0.02187 -0.6284,0.11932 -1.42186,0.11932z" fill="#9f1d21"/><path d="M183.84985,346.04197c-1.18124,0 -2.86361,-0.18494 -4.68319,-0.97045l1.61675,-3.63519c2.08805,0.90084 3.93746,0.5767 3.95536,0.57272l0.79744,3.89172c-0.13721,0.02784 -0.75766,0.14318 -1.68635,0.14318z" fill="#577c8e"/><path d="M194.25429,338.60852c0,-0.83469 0.68734,-1.51135 1.53521,-1.51135c0.84787,0 1.53521,0.67665 1.53521,1.51135c0,0.83469 -0.68734,1.51135 -1.53521,1.51135c-0.84787,0 -1.53521,-0.67665 -1.53521,-1.51135z" fill="#9f1d21"/><path d="M179.25415,354.21319v-3.96928h6.71755v3.96928z" fill="#9f1d21"/><path d="M204.31272,333.65089l-0.72187,8.12151l-4.59967,1.47754c0,0 2.91531,-1.59885 3.3369,-1.74601c0.4196,-0.14517 0.57869,-1.38408 0.57869,-1.38408l0.68408,-5.58603z" fill="#77a8c2"/><path d="M195.79348,343.37125c0,-0.46897 0.38551,-0.84914 0.86107,-0.84914c0.47556,0 0.86107,0.38017 0.86107,0.84914c0,0.46897 -0.38551,0.84914 -0.86107,0.84914c-0.47556,0 -0.86107,-0.38017 -0.86107,-0.84914z" fill="#77a8c2"/><path d="M193.60998,343.10279l-3.71275,-0.98437c0,0 -0.85113,-0.18096 -1.19317,-1.09772c-0.34204,-0.91675 -1.39601,-3.45622 -2.28293,-4.06473c-0.88692,-0.60852 1.72214,1.02812 2.11987,1.78976c0.39176,0.75965 0.6284,2.77412 1.21703,2.76418c0.58863,-0.00994 4.10451,1.07783 4.10451,1.07783l0.03381,0.51704h-0.28636v0z" fill="#77a8c2"/><path d="M177.57974,327.80038c-0.97442,0.61051 -0.68806,3.72468 -0.68806,3.72468l-0.42556,-0.21477c0,0 -0.14915,-1.16533 0,-2.43804c0.14915,-1.27271 0.92073,-1.52527 0.92073,-1.52527z" fill="#77a8c2"/><path d="M177.40673,322.6081c-0.88295,-0.175 -1.16931,1.17925 -1.16931,1.17925c0,0 -0.53096,5.92807 -0.85709,6.27409c-0.32613,0.34602 -0.5588,1.29658 -0.5588,1.29658v-0.88295c0,0 0.64033,-5.29768 0.87698,-7.08743c0.23665,-1.78777 1.88123,-1.72015 1.88123,-1.72015c0,0 0.70795,1.11561 -0.17301,0.94062z" fill="#77a8c2"/><path d="M175.10391,332.23301l-0.28238,2.8656l-0.65227,-0.37585l0.5588,-3.91956l0.30227,0.11733z" fill="#77a8c2"/><path d="M178.20217,346.7181l0.38181,1.36021l-1.30652,-0.16506c-8.82747,0.66818 -13.12885,-5.86443 -14.37174,-7.28828c-1.24686,-1.42385 -0.45539,-6.09312 -0.45539,-6.09312c2.72441,10.94535 15.75382,12.18823 15.75382,12.18823z" fill="#e49a2b"/><path d="M186.55506,324.43201c-0.67915,-3.09153 0.386,-5.95266 2.37908,-6.3905c1.99308,-0.43784 4.15936,1.7134 4.83851,4.80493c0.67915,3.09153 -0.386,5.95266 -2.37908,6.3905c-1.99308,0.43784 -4.15936,-1.7134 -4.83851,-4.80493z" fill="#f5d8b9"/><path d="M183.0902,316.29027c-0.81533,1.27271 -4.11843,1.58493 -4.11843,1.58493l0.50909,-2.7602c0,0 2.99486,-7.66811 3.144,-5.32353c0.14915,2.34458 0.46534,6.4988 0.46534,6.4988" fill="#e49a2b"/><path d="M199.01703,312.83007l-2.06418,-1.04402l0.46534,-2.45594l1.59885,3.49997" fill="#e49a2b"/></g><g><path d="M202.84114,316.28629c-0.01989,-0.0358 -1.9747,-3.5119 -3.98121,-5.96187c-0.69005,-0.84119 -1.05397,-1.04005 -1.17925,-1.08578c-0.02187,0.04972 -0.04176,0.12528 -0.04574,0.18295l-0.1392,2.1835c-0.0179,0.2963 -0.27841,0.52102 -0.5767,0.50113c-0.30028,-0.0179 -0.52897,-0.27244 -0.50909,-0.56874l0.1392,-2.19146c0.02983,-0.42755 0.25255,-0.98635 0.78352,-1.14942c0.65426,-0.20284 1.38607,0.24659 2.3764,1.45567c2.06617,2.52356 4.00507,5.97182 4.0886,6.11699c0.14517,0.25852 0.04972,0.58465 -0.21278,0.72783c-0.08352,0.04574 -0.17301,0.06761 -0.2625,0.06761c-0.19091,0 -0.37784,-0.09943 -0.47727,-0.27642zM197.63494,309.41761z" fill="#d07f2a"/><path d="M179.15074,318.1536c-0.29829,-0.02187 -0.52499,-0.27642 -0.50511,-0.57272c0.00597,-0.0875 0.1571,-2.15168 0.99033,-4.69512c0.71391,-2.18947 3.14202,-4.54001 4.08661,-4.88007c0.30426,-0.10937 0.51903,-0.04176 0.64431,0.0358c0.00199,0.00199 0.00597,0.00398 0.00597,0.00398c0.2267,0.14318 0.30824,0.38579 0.41363,0.91079c0.07557,0.37784 0.14716,0.84715 0.19488,1.17527c0.09347,0.66022 0.22273,1.70027 0.21079,1.94487c-0.01591,0.29432 -0.27045,0.52301 -0.57073,0.50909c-0.29829,-0.01392 -0.52897,-0.2625 -0.51704,-0.55681c0.00199,-0.27045 -0.20483,-1.93691 -0.36988,-2.79401c-0.31221,0.22869 -0.77158,0.62443 -1.28067,1.17925c-0.87101,0.95056 -1.50339,1.94487 -1.7818,2.79997c-0.78948,2.41219 -0.94062,4.4207 -0.94062,4.44058c-0.01989,0.28238 -0.25852,0.49914 -0.54289,0.49914c-0.01193,0 -0.02585,0 -0.03778,0z" fill="#d07f2a"/><path d="M178.64166,348.85387c-0.00398,0 -0.00597,0 -0.00795,0c-1.96475,-0.02386 -3.86786,-0.26647 -5.65364,-0.7159c-2.08009,-0.52499 -4.01104,-1.33635 -5.73517,-2.41418c-3.65906,-2.28492 -5.56415,-6.44511 -5.95392,-8.68429c-0.30028,-1.73407 0.28437,-3.01474 0.82528,-3.78235c0.5588,-0.79346 1.18919,-1.21505 1.27073,-1.26874c0.13125,-0.0875 1.68635,-1.07584 3.85394,-0.62443c0.98635,0.20483 1.98066,0.99033 2.95906,2.33464c0.69602,0.95652 1.12755,1.84941 1.14544,1.8872c0.12727,0.26846 0.01193,0.58664 -0.26051,0.71391c-0.27244,0.12528 -0.59659,0.01193 -0.72585,-0.25653c-0.43352,-0.90681 -1.88322,-3.32696 -3.34287,-3.62923c-1.74402,-0.36193 -2.96901,0.43153 -3.01872,0.46335c-0.00398,0.00398 -0.00597,0.00398 -0.01193,0.00795c-0.08551,0.05369 -2.07015,1.36419 -1.62072,3.97326c0.35596,2.04828 2.10396,5.86045 5.46273,7.95845c3.0227,1.8872 6.76329,2.91332 10.82007,2.96304c0.30028,0.00398 0.5409,0.24659 0.53693,0.54289c-0.00398,0.29432 -0.24659,0.52897 -0.54488,0.52897z" fill="#d07f2a"/><path d="M170.21788,336.12672c-0.94062,0.64829 -1.69828,1.8335 -1.69828,1.8335c-3.58747,1.88521 -3.34088,5.06898 -3.34088,5.06898l-3.34088,-5.41103c1.41987,-5.58205 6.68772,-4.67922 6.68772,-4.67922c0,0 2.64287,2.53549 1.69231,3.18775z" fill="#d07f2a"/><path d="M169.06249,339.59885l2.07413,1.91106c-1.77385,1.9747 -1.15936,4.59768 -1.15936,4.59768l-3.68888,-1.74601c0.46534,-3.92354 2.77213,-4.76274 2.77213,-4.76274z" fill="#d07f2a"/><path d="M177.40076,343.48858c-2.28691,2.5156 -0.90084,4.59172 -0.90084,4.59172l-3.61332,-0.52102c-1.4159,-4.34712 2.21731,-5.78091 2.21731,-5.78091" fill="#d07f2a"/><path d="M178.9658,344.68175c-0.11733,-0.03778 -2.87156,-0.9426 -4.33519,-3.12014c-0.16704,-0.24659 -0.09744,-0.58068 0.15312,-0.74374c0.25255,-0.16307 0.59062,-0.09545 0.75567,0.15113c1.24885,1.85936 3.73263,2.68264 3.76445,2.69259c0.28437,0.09148 0.44147,0.39375 0.34801,0.67613c-0.07358,0.2267 -0.28835,0.36988 -0.51704,0.36988c-0.05568,0 -0.11335,-0.00795 -0.16903,-0.02585z" fill="#d07f2a"/><path d="M180.70385,324.84132l1.77186,0.873l-1.77186,1.15539z" fill="#d07f2a"/><path d="M180.55073,327.14812c-0.10341,-0.05568 -0.16903,-0.16307 -0.16903,-0.27841v-2.02839c0,-0.10937 0.05767,-0.21278 0.15312,-0.27045c0.09545,-0.05767 0.21278,-0.06364 0.31221,-0.01392l1.77186,0.873c0.10341,0.04972 0.17102,0.15113 0.17699,0.26449c0.00795,0.11335 -0.04773,0.22074 -0.14318,0.28437l-1.77186,1.15539c-0.05369,0.0358 -0.11534,0.0517 -0.17699,0.0517c-0.0517,0 -0.1054,-0.01193 -0.15312,-0.03778zM181.02601,325.35438v0.92471l0.80937,-0.52698z" fill="#d07f2a"/><path d="M180.92658,328.16629h2.16362l-1.07982,1.72214l-1.0838,-1.72214" fill="#d07f2a"/><path d="M181.73794,330.05547l-1.0838,-1.72015c-0.06165,-0.09744 -0.06364,-0.22074 -0.00795,-0.32017c0.05767,-0.10142 0.16506,-0.16307 0.2804,-0.16307h2.16362c0.11733,0 0.22471,0.06165 0.2804,0.16307c0.05767,0.09943 0.05369,0.22273 -0.00795,0.32017l-1.07982,1.72015c-0.05767,0.09347 -0.16108,0.15113 -0.27443,0.15113v0c-0.11136,0 -0.21477,-0.05767 -0.27443,-0.14915zM181.50527,328.48447l0.50511,0.80141l0.50312,-0.80141z" fill="#d07f2a"/><path d="M197.23324,313.94569l-0.52301,1.77584l-1.38209,-1.61873z" fill="#d07f2a"/><path d="M196.46365,315.92436l-1.38209,-1.61873c-0.07756,-0.09148 -0.09744,-0.21676 -0.0517,-0.32613c0.04574,-0.10937 0.15113,-0.18494 0.27045,-0.19488l1.9051,-0.15511c0.1054,-0.00795 0.2088,0.03381 0.27642,0.11534c0.06761,0.08153 0.08949,0.18892 0.05966,0.28835l-0.52499,1.77385c-0.03381,0.11136 -0.12727,0.19687 -0.24261,0.22074c-0.02187,0.00398 -0.04375,0.00597 -0.06562,0.00597c-0.09347,0 -0.18494,-0.03977 -0.24659,-0.11335zM195.97445,314.36727l0.5946,0.69602l0.22471,-0.76363z" fill="#d07f2a"/><path d="M194.57645,313.94569l-0.31818,2.34458l-2.14373,-1.87527l2.46191,-0.46931v0" fill="#d07f2a"/><path d="M194.04549,316.5289l-2.14373,-1.87725c-0.09148,-0.07954 -0.12926,-0.20483 -0.09744,-0.32017c0.03182,-0.11534 0.12926,-0.20483 0.24858,-0.2267l2.45992,-0.46733c0.10142,-0.01989 0.20682,0.00994 0.28238,0.08153c0.07557,0.0696 0.11136,0.17102 0.09744,0.27244l-0.31619,2.34458c-0.01591,0.11534 -0.09545,0.21477 -0.20682,0.25454c-0.0358,0.01392 -0.07358,0.01989 -0.11136,0.01989c-0.07756,0 -0.15312,-0.02784 -0.21477,-0.07954zM192.81652,314.60392l1.20311,1.05397l0.17699,-1.31646l-1.38209,0.2625z" fill="#d07f2a"/><path d="M191.39665,314.64767l-0.35596,1.91106l-1.74203,-1.44175z" fill="#d07f2a"/><path d="M190.83387,316.80134l-1.74203,-1.44374c-0.09347,-0.07756 -0.13523,-0.20085 -0.1054,-0.31818c0.02983,-0.11733 0.12329,-0.20682 0.24261,-0.23466l2.09998,-0.46733c0.1054,-0.02386 0.21676,0.00597 0.29432,0.07954c0.07756,0.07358 0.11335,0.18096 0.09347,0.28636l-0.35596,1.91106c-0.01989,0.11136 -0.09943,0.20284 -0.20682,0.24062c-0.0358,0.01193 -0.07159,0.0179 -0.10937,0.0179c-0.07557,0 -0.14915,-0.02585 -0.20682,-0.07358zM190.00064,315.28403l0.82329,0.6821l0.16903,-0.90283z" fill="#d07f2a"/><path d="M205.38259,323.76548l0.00597,0.09744l-0.00597,0.84715l-0.69204,-0.30227l0.17301,-0.19488l0.51903,-0.44744" fill="#d07f2a"/><path d="M205.33288,324.82143l-0.69403,-0.30227c-0.0358,-0.01591 -0.06165,-0.04773 -0.07159,-0.08551c-0.00795,-0.03778 0,-0.07756 0.02784,-0.10739l0.17301,-0.19488c0,0 0.00795,-0.00795 0.01193,-0.01193l0.51903,-0.44943c0.0358,-0.02983 0.08551,-0.03778 0.12926,-0.01989c0.04375,0.0179 0.07358,0.05966 0.07557,0.1054l0.00398,0.09744c0,0 0,0.00398 0,0.00597l-0.00398,0.84914c0,0.04176 -0.02187,0.07954 -0.05568,0.10142c-0.01989,0.01392 -0.04375,0.01989 -0.06761,0.01989c-0.0179,0 -0.03381,-0.00398 -0.04972,-0.00994zM204.95106,324.29843l-0.05767,0.06364l0.36591,0.15909v-0.49318l-0.31022,0.26846z" fill="#d07f2a"/><path d="M205.31299,325.3345v1.05198l-0.84516,-0.73977l0.84516,-0.36591" fill="#d07f2a"/><path d="M205.23146,326.47795l-0.84715,-0.74175c-0.03182,-0.02784 -0.04574,-0.0696 -0.03977,-0.10937c0.00597,-0.03977 0.03381,-0.07557 0.07159,-0.09347l0.84715,-0.36591c0.06165,-0.02784 0.13523,0 0.16307,0.06364c0.01193,0.02386 0.01392,0.0517 0.00795,0.07557c0,0.00795 0.00398,0.0179 0.00398,0.02784v1.05397c0,0.04773 -0.02784,0.09148 -0.07358,0.11136c-0.01591,0.00795 -0.03381,0.00994 -0.04972,0.00994c-0.02983,0 -0.05966,-0.00994 -0.08153,-0.02983zM204.69453,325.68052l0.49715,0.43352v-0.64829z" fill="#d07f2a"/><path d="M199.45651,331.1691c0,0 -4.64939,-1.49743 -6.27806,-1.90112c-1.6247,-0.40369 1.89515,0.21477 3.4065,-0.95454c1.50936,-1.16931 2.52952,1.15539 4.93575,-0.97045c0,0 0.65823,0.2446 0.15909,0.94062c-0.49517,0.698 -1.04402,2.46191 -2.22327,2.88548z" fill="#984332"/><path d="M187.4572,328.43873c0,0 2.39628,0.39971 5.53034,0.71192c3.13406,0.31221 6.29198,1.76987 6.29198,1.76987c-7.3022,3.67496 -11.82233,-2.48179 -11.82233,-2.48179z" fill="#d06950"/><path d="M201.87268,328.23987c0,0 -2.69855,1.65254 -8.86128,1.43379l-1.58891,-0.10142c0,0 -0.1392,0.44943 -0.48522,0.49318c-0.34602,0.04375 -0.44147,-0.58465 -0.44147,-0.58465c0,0 -1.95481,-0.42358 -2.7085,-0.64431c-0.7517,-0.21875 0.38579,-0.39573 0.38579,-0.39573c0,0 2.87156,0.77954 4.80649,0.59062c1.93492,-0.19091 3.20764,-0.54687 3.84599,-1.05397c0,0 2.03038,0.35596 2.98094,0c0.95454,-0.35596 2.28691,-0.88692 2.28691,-0.88692c0,0 0.68806,0.61448 -0.22273,1.15141" fill="#ffffff"/><path d="M201.68575,324.4436c0.40568,0.46733 -3.46019,1.11561 -3.46019,1.11561l-0.70795,-2.9352c0,0 0.07954,-3.28122 2.23719,-2.85764c2.15964,0.42358 1.93095,4.67524 1.93095,4.67524" fill="#ffffff"/><path d="M188.39781,326.54159c0,0 0.23267,0.22869 0,0c-0.23267,-0.22869 -0.99431,-2.58321 -0.87101,-4.65535c0.12329,-2.07214 2.25708,-2.11589 2.25708,-2.11589l2.01447,1.15141c2.01646,1.14942 1.84743,5.16245 1.84743,5.16245c1.05993,0.43352 -5.24796,0.45738 -5.24796,0.45738z" fill="#ffffff"/><path d="M180.37176,317.5431c0.00398,-2.16958 0.57272,-3.63718 1.01419,-4.70905c0.44545,-1.07186 1.53521,-1.91106 0.92073,-0.65823c-0.61249,1.25283 0.16903,4.38291 0.16903,4.38291c-0.03381,0.63835 -2.10396,0.98437 -2.10396,0.98437z" fill="#d07f2a"/><path d="M180.29221,317.63656c-0.02784,-0.02386 -0.04375,-0.05767 -0.04375,-0.09347c0.00597,-2.27498 0.64232,-3.82809 1.02414,-4.75478c0.27045,-0.65227 0.82726,-1.32442 1.12357,-1.35823c0.07358,-0.00795 0.1392,0.0179 0.17898,0.07358c0.05966,0.08153 0.0875,0.23267 -0.15511,0.72585c-0.58664,1.19914 0.16903,4.26956 0.17699,4.30138c0.00199,0.01193 0.00398,0.02386 0.00398,0.0358c-0.03778,0.69999 -1.84544,1.03806 -2.20736,1.09772c-0.00597,0 -0.01392,0 -0.01989,0c-0.02983,0 -0.05767,-0.00994 -0.07954,-0.02983zM182.19731,312.12411c0.11136,-0.22869 0.15113,-0.35795 0.16506,-0.42358c-0.18892,0.11733 -0.61647,0.59659 -0.85908,1.18124c-0.36591,0.8909 -0.97243,2.36844 -1.00425,4.51814c0.79147,-0.15113 1.80566,-0.48323 1.85339,-0.82925c-0.07159,-0.29432 -0.76164,-3.20565 -0.15511,-4.44456z" fill="#d07f2a"/></g><g><path d="M192.98555,326.39045c-0.45142,-0.45738 -4.58973,0.14716 -4.58973,0.14716c0,0 -0.60852,-1.19317 -0.24659,-2.7781c0.36591,-1.57896 1.65851,-1.82356 1.65851,-1.82356c0,0 1.49544,-0.37983 2.67867,0.91675c1.18323,1.29658 0.49914,3.53974 0.49914,3.53974z" fill="#000000"/><path d="M200.77298,324.73195l-2.40623,0.82329l-0.49914,-1.01419c0,0 -0.61448,-1.30652 -0.22869,-2.17952c0.38778,-0.873 1.35226,-0.91675 1.35226,-0.91675c0,0 1.16732,-0.0875 1.7818,1.02812c0.61448,1.11561 0,2.25708 0,2.25708z" fill="#000000"/><path d="M198.05852,325.86347c-0.04176,-0.0696 -1.04005,-1.74601 -0.9267,-3.42042c0.12727,-1.90708 1.17726,-3.25537 2.49571,-3.20764c1.90112,0.07159 2.32867,2.59912 2.35651,2.77412c0.03778,0.20284 0.29829,1.6426 0.09744,2.52157c0.71988,0.04574 1.09573,0.23466 1.14147,0.25852c0.14517,0.07756 0.19886,0.25454 0.12131,0.39772c-0.07756,0.14119 -0.25653,0.19687 -0.4017,0.11932c-0.00398,-0.00199 -0.40369,-0.20085 -1.1872,-0.20085c-0.67215,0.00398 -1.79373,0.15909 -3.31502,0.873c-0.04176,0.01989 -0.08551,0.02784 -0.12727,0.02784c-0.10142,0 -0.20085,-0.0517 -0.25454,-0.14318zM201.3974,322.11294c0,0 0,-0.00795 0,-0.00994c-0.00398,-0.02187 -0.35199,-2.22725 -1.79174,-2.28094c-0.97045,-0.0358 -1.77782,1.10965 -1.88123,2.66276c-0.07756,1.1534 0.46534,2.35651 0.71789,2.85168c1.08777,-0.48323 2.10197,-0.7517 3.02469,-0.8034c0.2088,-0.58068 0.02386,-1.92896 -0.06761,-2.41617z" fill="#855827"/><path d="M188.05975,326.83193c-0.02983,-0.07159 -0.76761,-1.78379 -0.90482,-2.56929l-0.00994,-0.05966c-0.1392,-0.78153 -0.32812,-1.8514 0.24062,-3.1977c0.54488,-1.30056 1.80566,-1.57101 2.4102,-1.53124c0.20483,-0.00199 1.72811,0.04972 3.01077,2.03634c1.30254,2.01447 1.31845,4.77865 1.31845,4.89598h-0.5946c0,-0.02784 -0.01591,-2.71446 -1.22499,-4.58177c-1.1534,-1.78379 -2.45196,-1.76788 -2.50367,-1.76589h-0.0179h-0.0179c-0.01193,0 -1.30652,-0.08153 -1.83152,1.1713c-0.50113,1.18919 -0.33806,2.12384 -0.20483,2.87355l0.00994,0.05966c0.12727,0.71988 0.85908,2.42412 0.86704,2.44202l-0.54687,0.22869z" fill="#855827"/><path d="M186.8109,327.6393c-0.11733,0 -0.2267,-0.0696 -0.27443,-0.18295c-0.06165,-0.14915 0.01193,-0.32017 0.16307,-0.38181c3.60139,-1.44771 7.03374,-0.87101 7.17891,-0.84516c0.16108,0.02983 0.26846,0.18096 0.24062,0.34005c-0.02784,0.15909 -0.18295,0.26449 -0.34403,0.23665c-0.03381,-0.00597 -3.4065,-0.57471 -6.85079,0.81136c-0.0358,0.01392 -0.07358,0.02187 -0.11136,0.02187z" fill="#855827"/><path d="M196.66052,327.0288c-0.06364,0 -0.13324,-0.00597 -0.20284,-0.02187c-0.43352,-0.09744 -1.1713,-0.6463 -1.31448,-0.75567c-0.12926,-0.09744 -0.15312,-0.28238 -0.05369,-0.40966c0.10142,-0.12727 0.28835,-0.15113 0.41761,-0.0517c0.31221,0.23863 0.85709,0.59857 1.08181,0.64829c0.17898,0.03977 0.31619,-0.0875 0.34602,-0.11733l0.45937,-0.68607c0.08949,-0.13523 0.27443,-0.17301 0.41164,-0.08352c0.13523,0.08949 0.17301,0.27045 0.08352,0.40568l-0.4713,0.70198c-0.00597,0.00795 -0.01193,0.01591 -0.0179,0.02386c-0.11733,0.14318 -0.38977,0.34801 -0.74175,0.34801z" fill="#855827"/><path d="M192.84635,332.2867c-2.2014,-0.53892 -4.07667,-1.4318 -6.08119,-4.04087c-0.04773,-0.06364 -0.0696,-0.14318 -0.05568,-0.22074c0.01193,-0.07756 0.05767,-0.14915 0.12329,-0.19488c0.12727,-0.0875 0.24858,-0.04375 0.29432,-0.02784c0.42954,0.15312 1.97669,0.67016 3.81814,0.91874c1.70424,0.23068 4.05877,0.27244 5.72722,-0.79744l-0.16307,-1.16135c-0.02187,-0.15909 0.09148,-0.30824 0.25454,-0.33011c0.16307,-0.02187 0.31221,0.08949 0.33409,0.25057l0.16108,1.14743c2.23521,0.53096 4.72098,-0.86903 4.74683,-0.88295c0.09545,-0.05568 0.21477,-0.05369 0.30824,0.00597c0.09347,0.05767 0.14716,0.16307 0.13721,0.27045c-0.00795,0.09347 -0.21278,2.29685 -2.15566,3.62923c-1.4159,0.97243 -2.9531,1.39402 -3.01673,1.41192h-0.00398c-0.05966,0.01591 -1.04204,0.25852 -2.33663,0.25852c-0.64431,0 -1.36618,-0.05966 -2.09004,-0.23665zM199.95566,330.37365c1.15141,-0.78948 1.61476,-1.9568 1.79572,-2.64088c-0.92471,0.42159 -2.85963,1.12158 -4.70507,0.65028c-1.46561,0.96647 -3.5457,1.2747 -6.18261,0.91874c-1.18919,-0.16108 -2.25907,-0.42954 -3.00281,-0.64829c1.66447,1.89913 3.22554,2.60111 5.12864,3.06645c2.00055,0.4892 4.0528,0 4.13433,-0.0179c0.07159,-0.01989 1.52527,-0.42954 2.83179,-1.32641z" fill="#855827"/><path d="M184.99131,327.96743c-0.12926,-0.72187 -0.01989,-1.2747 0.32414,-1.6426c0.44346,-0.47329 1.07584,-0.42954 1.14544,-0.42358c0.20483,0.0179 0.35596,0.19687 0.33608,0.39772c-0.0179,0.20085 -0.20085,0.34801 -0.40369,0.33011c-0.00398,0 -0.33409,-0.01989 -0.53096,0.19091c-0.17699,0.19091 -0.22471,0.54289 -0.1392,1.02016c0.0358,0.19886 -0.09744,0.38778 -0.30028,0.42358c-0.02187,0.00597 -0.04375,0.00597 -0.06562,0.00597c-0.17699,0 -0.33409,-0.12528 -0.36591,-0.30227z" fill="#855827"/><path d="M199.50623,318.11979c-0.22273,0.09347 -0.43153,0.19886 -0.62443,0.32216c-0.1929,0.12329 -0.37187,0.24858 -0.52499,0.38579c-0.07954,0.06761 -0.1392,0.15511 -0.1929,0.23863c-0.05369,0.08352 -0.11932,0.14517 -0.20284,0.19488c-0.08352,0.04773 -0.17699,0.09148 -0.28636,0.14119c-0.11335,0.04574 -0.23267,0.09744 -0.40568,0.14716l-0.08352,-0.03977c-0.07358,-0.16108 -0.08949,-0.32017 -0.0696,-0.46733l0.00994,-0.05369c0.00398,-0.01989 0.00994,-0.03381 0.01392,-0.05369c0.00597,-0.03977 0.01591,-0.07358 0.02983,-0.10739c0.02386,-0.06761 0.05369,-0.13721 0.09347,-0.19488c0.03977,-0.06364 0.08551,-0.11534 0.1392,-0.16506c0.05568,-0.04375 0.11534,-0.0875 0.17898,-0.11733c0.12926,-0.06364 0.26846,-0.10739 0.39176,-0.16108c0.25255,-0.10341 0.51107,-0.16704 0.76761,-0.19091c0.25653,-0.02585 0.50909,-0.02585 0.76164,0.02386z" fill="#855827"/><path d="M193.02731,319.75643l-0.09347,0.02386c-0.15909,-0.18494 -0.34602,-0.34204 -0.54488,-0.4534c-0.19886,-0.11335 -0.4017,-0.18494 -0.60454,-0.23466c-0.10341,-0.02386 -0.21278,-0.0179 -0.31619,-0.01392c-0.05369,0.00597 -0.10341,0 -0.15312,-0.00398c-0.02386,0 -0.04972,-0.00398 -0.07358,-0.01392c-0.02386,-0.00994 -0.04972,-0.01392 -0.07358,-0.02386c-0.10341,-0.0358 -0.2088,-0.08352 -0.32216,-0.14716c-0.05568,-0.02983 -0.11534,-0.06364 -0.17898,-0.10739c-0.02983,-0.01989 -0.05966,-0.03977 -0.09347,-0.06364l-0.04972,-0.03977c-0.01591,-0.01392 -0.02983,-0.02983 -0.04972,-0.04375l-0.00994,-0.09347c0.00994,-0.01989 0.02585,-0.03381 0.03977,-0.05369l0.04375,-0.04972c0.02983,-0.02983 0.05966,-0.05966 0.08949,-0.08352c0.06562,-0.04972 0.12926,-0.09347 0.19886,-0.12727c0.1392,-0.06364 0.28238,-0.10739 0.43153,-0.11733c0.14915,-0.01591 0.2963,0.01392 0.43551,0.07756c0.1392,0.06364 0.2625,0.15113 0.39176,0.22471c0.12329,0.07756 0.24261,0.16506 0.35199,0.2625c0.10937,0.09744 0.20284,0.20483 0.28238,0.32216c0.15312,0.23466 0.26846,0.48721 0.30227,0.75567z" fill="#855827"/><path d="M198.69487,322.72543c0,-0.28775 0.23683,-0.52102 0.52897,-0.52102c0.29214,0 0.52897,0.23327 0.52897,0.52102c0,0.28775 -0.23683,0.52102 -0.52897,0.52102c-0.29214,0 -0.52897,-0.23327 -0.52897,-0.52102z" fill="#ffffff"/><path d="M190.34666,323.24247c0,-0.28555 0.23505,-0.51704 0.52499,-0.51704c0.28995,0 0.52499,0.23149 0.52499,0.51704c0,0.28555 -0.23505,0.51704 -0.52499,0.51704c-0.28995,0 -0.52499,-0.23149 -0.52499,-0.51704z" fill="#ffffff"/></g><g fill="#505051"><path d="M191.34296,334.04464c-4.01104,-0.46534 -7.86299,-1.88521 -9.36639,-3.45224c-1.65254,-1.72811 -2.05225,-3.58747 -2.096,-4.84427c-0.04375,-1.26675 0.25057,-2.1835 0.30625,-2.3406c0.08949,-0.32216 1.07186,-3.494 5.66358,-7.03573c2.69656,-2.08009 6.0275,-2.76219 8.34821,-2.96702c2.49969,-0.22074 4.34911,0.03977 4.42666,0.0517c0.00398,0 0.00795,0 0.01193,0c0.13721,0.02386 3.36872,0.58863 5.74909,2.89145c1.04005,1.00624 1.75794,2.19543 2.13577,3.53775c0.80738,2.85963 0.60454,5.41103 0.29233,7.04567c-0.35994,1.89117 -1.42584,3.54173 -3.00082,4.64939c-2.99685,2.11191 -6.67181,2.63293 -9.56724,2.63293c-1.10766,0 -2.10197,-0.07557 -2.8994,-0.16903zM194.26026,314.37722c-2.17952,0.19488 -5.30165,0.83323 -7.79936,2.76219c-4.44854,3.43235 -5.31358,6.50477 -5.32154,6.53261c-0.00398,0.01591 -0.00795,0.02983 -0.01392,0.04574c-0.01193,0.03381 -1.18124,3.32895 1.573,6.20647c1.14544,1.19516 4.5241,2.66077 8.76185,3.15196c2.73435,0.31619 7.90078,0.44147 11.7746,-2.2889v0c1.36618,-0.9605 2.29089,-2.39429 2.6031,-4.03689c0.29432,-1.53322 0.48522,-3.92553 -0.27244,-6.6042c-0.33011,-1.17527 -0.9605,-2.21731 -1.87527,-3.10224c-2.10992,-2.04231 -5.07097,-2.59912 -5.21614,-2.62497c-0.11932,-0.01591 -1.89515,-0.25057 -4.21388,-0.04176z"/><path d="M193.31169,337.34574c-1.30453,0 -2.85565,-0.0517 -4.77268,-0.14716c-4.11644,-0.20483 -6.73346,-1.42186 -8.20305,-2.40623c-1.75993,-1.17726 -2.62895,-2.48776 -2.83975,-3.25338c-0.30028,-1.11164 0.1054,-2.07214 0.32414,-2.47782c-1.88322,-7.19482 0.71789,-10.43229 0.83124,-10.56751c0.10739,-0.12926 0.27443,-0.19488 0.44346,-0.175c1.92896,0.23466 3.43434,-0.12329 4.4724,-1.06192c1.73209,-1.56504 1.64657,-4.27752 1.64657,-4.30337c-0.00994,-0.20085 0.10937,-0.38778 0.29829,-0.46733c0.09943,-0.04375 2.48577,-1.04005 5.73716,-1.3284c1.91703,-0.16903 3.7386,-0.05369 5.40904,0.34204c2.10197,0.49914 3.97127,1.44572 5.55421,2.81389c0.00597,0.00398 0.01591,0.01392 0.01591,0.01392l1.77782,1.67243c0.19687,0.18693 0.20483,0.49517 0.01591,0.69005c-0.18892,0.19488 -0.50312,0.20284 -0.69999,0.01591l-1.76987,-1.66447c-2.65282,-2.2889 -6.08119,-3.26929 -10.18371,-2.91134c-2.45992,0.21477 -4.44058,0.87101 -5.16643,1.13948c-0.03182,0.87897 -0.27841,3.1798 -1.95879,4.70507c-1.2051,1.09374 -2.87554,1.54714 -4.96757,1.34828c-0.20483,0.32613 -0.58266,1.03209 -0.84715,2.14572c-0.34801,1.47357 -0.56278,3.97723 0.4017,7.54282c0.0358,0.13523 0.01193,0.27841 -0.06761,0.39573c-0.00597,0.00795 -0.58068,0.88295 -0.31022,1.88322c0.12329,0.45142 0.79346,1.59885 2.44003,2.70054c1.36419,0.91476 3.8082,2.0443 7.69595,2.23918c7.51697,0.37585 9.25304,0.00597 12.2996,-1.14345c1.21107,-0.4534 2.27896,-1.07385 3.08832,-1.78777c0.96846,-0.85908 1.96873,-2.2193 1.23692,-3.8261c-0.11335,-0.24659 0,-0.53494 0.24858,-0.64431c0.24858,-0.11136 0.54289,-0.00199 0.65426,0.2446c0.76164,1.67243 0.23665,3.43036 -1.47754,4.94967c-0.89885,0.79545 -2.07413,1.47754 -3.39656,1.9747c-2.50367,0.94459 -4.22979,1.35226 -7.92862,1.35226z"/><path d="M173.34199,342.43263c-0.99829,0 -2.07413,-0.51107 -3.43832,-1.62271c-1.11363,-0.9088 -1.68436,-1.8693 -1.69629,-2.85168c-0.01193,-0.88295 0.44943,-1.51533 0.72187,-1.74799c0.53494,-0.45738 1.75595,-0.75369 2.54344,-0.90482c-0.10341,-0.30625 -0.15909,-0.6642 -0.02386,-0.96249c0.11733,-0.25852 0.35,-0.43153 0.65624,-0.48721c0.2963,-0.05568 0.83323,-0.01392 2.37043,0.78352c0.5767,0.29829 1.09772,0.60255 1.35425,0.75567l5.13859,-0.96846c0.26846,-0.04972 0.52698,0.12329 0.57869,0.38778c0.0517,0.26449 -0.12528,0.52102 -0.39375,0.57073l-5.32751,1.00425c-0.12131,0.02187 -0.24858,0 -0.35397,-0.06562c-0.00597,-0.00597 -0.67016,-0.41164 -1.42186,-0.8034c-1.05993,-0.55284 -1.5193,-0.67414 -1.68635,-0.69999c0.02983,0.15312 0.13324,0.40767 0.25255,0.60056c0.08551,0.1392 0.09545,0.31221 0.02585,0.46136c-0.0696,0.14915 -0.21079,0.25255 -0.37585,0.27642c-0.88493,0.12926 -2.30282,0.45937 -2.68861,0.78749c-0.08352,0.0696 -0.38778,0.44545 -0.38181,1.00027c0.00795,0.67414 0.4713,1.40396 1.33834,2.11191c1.28266,1.04601 2.21134,1.47357 3.01077,1.38805c0.7159,-0.07756 1.41788,-0.58068 2.20935,-1.58095c0.08352,-0.10739 0.21079,-0.175 0.34801,-0.18693l6.33176,-0.53693c0.27045,-0.02386 0.51107,0.175 0.53494,0.44346c0.02187,0.26846 -0.17898,0.50312 -0.45142,0.52698l-6.11897,0.51903c-0.91675,1.11363 -1.79373,1.68038 -2.74628,1.78379c-0.10142,0.00994 -0.20483,0.01591 -0.31022,0.01591z"/><path d="M204.64879,336.29973c-0.14716,0 -0.29432,-0.06562 -0.39176,-0.18892c-0.16903,-0.21278 -0.12926,-0.51903 0.0875,-0.68408l6.19852,-4.72893c0.08153,-0.06165 0.18295,-0.09744 0.28636,-0.10142c0.91476,-0.02983 1.51334,-0.91278 1.72811,-1.2926c0.36789,-0.64033 0.41164,-2.92923 -0.57869,-3.53974c-0.88891,-0.54687 -1.72612,0.3142 -1.75993,0.35c-0.14318,0.15312 -0.36988,0.19886 -0.56278,0.11534c-0.19488,-0.08153 -0.31221,-0.27841 -0.2963,-0.48522c0.02187,-0.25852 -0.03778,-0.61051 -0.14716,-0.69403c-0.04176,-0.03182 -0.15312,-0.02386 -0.29233,0.02187c-0.53096,0.17301 -0.56278,1.66447 -0.38181,2.67469c0.02784,0.16108 -0.02585,0.32414 -0.14517,0.4375l-2.09004,1.9747c-0.19687,0.18693 -0.51107,0.18096 -0.69999,-0.01392c-0.18892,-0.19488 -0.18295,-0.50312 0.01392,-0.69005l1.9051,-1.7997c-0.03778,-0.29034 -0.0875,-0.78153 -0.0696,-1.30056c0.04176,-1.22897 0.42954,-1.97072 1.1534,-2.20736c0.60454,-0.19886 0.9963,-0.0358 1.21902,0.13721c0.2088,0.16307 0.33806,0.3838 0.41562,0.61051c0.60852,-0.3142 1.4318,-0.46931 2.26106,0.04176c1.49345,0.91874 1.52726,3.7744 0.91675,4.84228c-0.59261,1.04402 -1.45567,1.68436 -2.39231,1.77981l-6.0792,4.63746c-0.08949,0.06761 -0.19687,0.10142 -0.30227,0.10142z"/><path d="M198.99913,344.05335c-0.20284,0 -0.39176,-0.12329 -0.46534,-0.32017c-0.09347,-0.25454 0.03778,-0.53295 0.29432,-0.62641c0.02386,-0.00795 2.41219,-0.873 3.50394,-1.36021c0.79545,-0.35994 0.76562,-1.2747 0.76562,-1.3105c-0.00199,-0.02784 -0.00199,-0.05568 0.00199,-0.08352l0.78153,-6.47494c0.03381,-0.26647 0.2804,-0.45738 0.55085,-0.42556c0.27244,0.03182 0.46534,0.27443 0.43352,0.5409l-0.77755,6.43914c0.00199,0.27841 -0.05568,1.61675 -1.34629,2.19941c-1.12755,0.50312 -3.47411,1.35226 -3.57354,1.38805c-0.05767,0.01989 -0.11534,0.02983 -0.17102,0.02983z"/><path d="M198.03068,342.30933c-0.10739,-0.24858 0.00994,-0.53494 0.26051,-0.64033c0.2446,-0.10142 2.40424,-1.00624 2.95707,-1.12755c0.08949,-0.01989 0.10937,-0.25653 0.10937,-0.31221c-0.00398,-0.02784 -0.00199,-0.04574 0,-0.07358l0.47528,-4.92779c0.02585,-0.26846 0.26647,-0.46534 0.53892,-0.43948c0.27244,0.02585 0.4713,0.2625 0.44545,0.53096l-0.4713,4.89598c0.01591,0.52102 -0.24659,1.13152 -0.87698,1.27669c-0.35397,0.07756 -1.89913,0.69999 -2.79003,1.07385c-0.06165,0.02784 -0.12727,0.03977 -0.1929,0.03977c-0.1929,0 -0.37585,-0.11136 -0.45539,-0.2963z"/><path d="M194.10117,343.44483c0,-1.3284 1.09772,-2.40822 2.446,-2.40822c1.34828,0 2.446,1.07982 2.446,2.40822c0,1.3284 -1.09772,2.40822 -2.446,2.40822c-1.34828,0 -2.446,-1.07982 -2.446,-2.40822zM194.69378,343.44483c0,1.00624 0.83124,1.82356 1.8514,1.82356c1.02016,0 1.8514,-0.81732 1.8514,-1.82356c0,-1.00624 -0.83124,-1.82356 -1.8514,-1.82356c-1.02016,0 -1.8514,0.81732 -1.8514,1.82356z"/><path d="M195.99234,345.85106c-1.02016,0 -1.57697,-0.44346 -1.87328,-0.85312c-0.59659,-0.82528 -0.53892,-2.08805 -0.13721,-2.83179c0.66022,-1.22101 2.446,-1.14544 2.52157,-1.14147c0.10937,0.00597 0.1929,0.09744 0.18693,0.20483c-0.00597,0.10739 -0.09943,0.18892 -0.2088,0.18494c-0.01591,-0.00199 -1.60879,-0.0696 -2.15168,0.93465c-0.33608,0.62641 -0.38977,1.7301 0.11136,2.42412c0.41164,0.57073 1.14743,0.79346 2.12384,0.64232c0.10739,-0.01591 0.2088,0.05767 0.2267,0.16307c0.01591,0.1054 -0.05767,0.20682 -0.16506,0.22273c-0.23068,0.0358 -0.44147,0.0517 -0.63636,0.0517z"/><path d="M194.13299,342.97552l-3.88576,-0.99829c-0.18892,-0.0358 -0.79147,-0.20682 -1.18522,-1.02215c-0.0358,-0.07756 -0.08352,-0.18096 -0.1392,-0.30426c-0.39375,-0.87101 -1.43976,-3.18378 -2.41617,-3.66701c-0.2446,-0.12131 -0.34403,-0.41363 -0.22074,-0.65426c0.12131,-0.24062 0.4196,-0.33806 0.6642,-0.21676c1.14147,0.56278 2.09401,2.4102 2.87753,4.14229c0.05369,0.11733 0.09744,0.21676 0.13125,0.28636c0.18096,0.37784 0.40568,0.46136 0.45738,0.47528c0.02784,0 0.02784,0.00398 0.06165,0.01193l3.90564,1.00425c0.26449,0.06761 0.42358,0.33409 0.35397,0.5946c-0.05966,0.21875 -0.25852,0.36392 -0.47926,0.36392c-0.04176,0 -0.08352,-0.00597 -0.12528,-0.01591z"/><path d="M194.20259,344.8309l-5.04512,-1.36618c-0.21875,-0.04773 -1.14743,-0.34204 -1.82555,-1.94487c-0.06364,-0.14915 -0.13125,-0.3142 -0.20284,-0.4892c-0.60255,-1.46362 -1.60879,-3.9136 -3.00878,-4.33121c-0.2625,-0.07756 -0.40966,-0.35 -0.33011,-0.60852c0.07954,-0.25852 0.35596,-0.40369 0.61647,-0.32613c1.85339,0.55085 2.92724,3.16787 3.63917,4.89796c0.07159,0.17102 0.13721,0.33409 0.19886,0.47926c0.47727,1.12755 1.04204,1.34033 1.1176,1.36419c0.01989,0 0.01591,0.00398 0.04176,0.00994l5.05904,1.37016c0.26449,0.07159 0.4196,0.34005 0.34602,0.59857c-0.05966,0.21676 -0.26051,0.35795 -0.47727,0.35795c-0.04375,0 -0.0875,-0.00597 -0.13125,-0.0179zM189.35434,342.51018z"/><path d="M183.74644,359.0515c-0.56278,0 -1.0838,-0.02585 -1.54118,-0.06364c-1.68834,-0.13721 -3.0923,-0.46931 -3.41843,-0.64829c-0.37784,-0.2088 -0.49715,-0.72386 -0.42556,-1.83748c0.0358,-0.56278 0.10937,-1.09374 0.12926,-1.22499l0.11335,-3.65309c0,-0.10739 -0.01989,-1.5551 -0.43948,-3.18378c-0.4713,-1.83152 -0.0875,-3.85195 0.98238,-5.14654c0.64232,-0.77556 0.66221,-2.59912 0.61647,-3.23548v0c-0.01989,-0.26846 0.18494,-0.50113 0.45738,-0.52102c0.27045,-0.0179 0.50909,0.18295 0.52897,0.45142c0.01989,0.27443 0.16903,2.71049 -0.83721,3.92155c-0.86306,1.04601 -1.18124,2.77014 -0.78948,4.29144c0.46534,1.80765 0.4713,3.36474 0.4713,3.43036c0,0.00398 0,0.01392 0,0.01392l-0.11335,3.69087c-0.00199,0.01989 -0.00398,0.03778 -0.00597,0.05767c-0.13324,0.873 -0.18096,1.80368 -0.11335,2.12583c0.7338,0.23068 4.78064,1.12953 8.30446,0.01193c0.08551,-0.32812 0.19687,-1.00027 -0.09943,-1.60283c-0.25852,-0.52301 -0.78153,-0.90681 -1.55908,-1.13948l-0.79942,-0.17699c-0.13721,-0.02983 -0.25653,-0.11534 -0.32414,-0.23665c-0.06761,-0.12131 -0.08153,-0.26449 -0.0358,-0.39573l0.65823,-1.90112c0.07358,-0.21278 0.28636,-0.34801 0.51306,-0.32812c0.0358,0.00398 3.60735,0.28437 5.34739,-3.19571c0.11932,-0.24261 0.41761,-0.34204 0.66221,-0.22273c0.2446,0.11932 0.34602,0.41164 0.22471,0.65227c-1.06391,2.12782 -2.72242,3.03065 -3.92752,3.41446c-0.83721,0.26846 -1.573,0.32613 -2.00254,0.3321l-0.36392,1.048l0.27841,0.06165c0.01193,0.00199 0.02187,0.00398 0.03381,0.00795c1.06192,0.31221 1.79572,0.86903 2.18151,1.65254c0.60454,1.22698 0.08949,2.53549 0.06761,2.59117c-0.05369,0.13125 -0.16108,0.23267 -0.2963,0.2804c-1.51135,0.52301 -3.11616,0.67613 -4.48234,0.67613z"/><path d="M190.49779,351.15669c-0.25852,0 -0.47727,-0.19886 -0.49318,-0.45738c-0.0179,-0.26846 0.19091,-0.50113 0.46335,-0.51704c4.75279,-0.29034 8.26072,-1.71618 10.14394,-4.12439c1.40993,-1.80368 1.4318,-3.55167 1.4318,-3.56758c-0.00199,-0.26846 0.22074,-0.4892 0.49318,-0.4892v0c0.27244,0 0.49517,0.21676 0.49517,0.48522c0,0.08352 -0.00994,2.05026 -1.59487,4.11047c-0.91874,1.19715 -2.18151,2.17952 -3.75252,2.92327c-1.93294,0.91476 -4.33916,1.46561 -7.15703,1.63663c-0.01193,0 -0.02187,0 -0.03182,0z"/><path d="M202.83319,354.31263c-0.54687,0 -1.00823,-0.11733 -1.37215,-0.26449c-0.92471,-0.37386 -1.42385,-1.01817 -1.44572,-1.04601c-0.01591,-0.01989 -0.03182,-0.04375 -0.04375,-0.06761c-0.12329,-0.23267 -0.68408,-1.32243 -0.80539,-2.02441c-0.21676,-0.06562 -0.82329,-0.19488 -2.43009,-0.27045c-1.1355,-0.05369 -2.19742,-0.05369 -2.20736,-0.05369c-0.27443,0 -0.49517,-0.21875 -0.49517,-0.48721c0,-0.26846 0.22273,-0.48721 0.49517,-0.48721c0.01392,0 1.30652,0.00199 2.58321,0.07358c0.75965,0.04375 1.37016,0.10142 1.81163,0.17699c0.42159,0.07159 1.20908,0.20483 1.20908,0.81334c0,0.27443 0.35596,1.12158 0.69403,1.76987c0.20284,0.23863 1.62271,1.73805 4.06672,0.22471c2.80196,-1.73606 4.43263,-4.39286 5.12864,-5.52637l0.09347,-0.15113c0.26449,-0.43153 0.23863,-1.10169 -0.06562,-1.63464c-0.19488,-0.34204 -0.67812,-0.91675 -1.72413,-0.91675c-1.97867,0 -3.10224,0.9426 -3.11219,0.95056c-0.09347,0.08153 -0.21477,0.12329 -0.34005,0.12329c-1.03209,-0.02386 -1.4676,0.40369 -1.51334,0.4534c-0.14119,0.18494 -0.3838,0.22869 -0.59659,0.12727l-0.88692,-0.42358c-0.24659,-0.11932 -0.34801,-0.40966 -0.22869,-0.65227c0.11932,-0.24062 0.41562,-0.34204 0.66221,-0.22471l0.59062,0.28238c0.32017,-0.23068 0.90283,-0.52102 1.81362,-0.53693c0.42159,-0.30625 1.67243,-1.07186 3.61133,-1.07186c1.13152,0 2.07413,0.51306 2.58719,1.41192c0.47727,0.8392 0.49715,1.89117 0.04773,2.61901l-0.09148,0.14915c-0.73181,1.19317 -2.44799,3.98718 -5.44881,5.84653c-0.99431,0.61448 -1.86731,0.8213 -2.59117,0.8213z"/><path d="M174.04596,335.46252c-0.01392,0 -0.02784,-0.00199 -0.04375,-0.00199c-0.27244,-0.02386 -0.47329,-0.26051 -0.44943,-0.52897c0.03182,-0.34403 0.76959,-8.4377 1.26277,-11.24762c0.1929,-1.10567 0.64829,-1.9051 1.34828,-2.37242c0.8909,-0.5946 1.84146,-0.40369 1.88123,-0.39573c0.26846,0.05568 0.44147,0.31619 0.3838,0.57869c-0.05568,0.2625 -0.31818,0.43153 -0.58465,0.37585c-0.02386,-0.00597 -0.60056,-0.10937 -1.1355,0.25454c-0.46335,0.3142 -0.77158,0.89488 -0.91675,1.72413c-0.48721,2.77014 -1.24487,11.08455 -1.25283,11.16807c-0.02386,0.25255 -0.24062,0.44346 -0.49318,0.44346z"/><path d="M180.11324,334.52191c-0.04574,0 -0.08949,-0.01591 -0.12727,-0.04574l-3.81218,-3.15395c-0.04176,-0.0358 -0.06761,-0.0875 -0.0696,-0.14119c-0.00597,-0.12131 -0.12329,-2.99287 0.89488,-3.97127c0.25653,-0.24659 0.56278,-0.35994 0.91079,-0.33608c0.10739,0.00795 0.19091,0.10142 0.18295,0.2088c-0.00795,0.10739 -0.10142,0.18892 -0.21079,0.18096c-0.23267,-0.01591 -0.43153,0.05966 -0.60653,0.2267c-0.8034,0.77357 -0.78948,3.11616 -0.77755,3.59144l3.74457,3.09827c0.08352,0.0696 0.09347,0.1929 0.02386,0.27443c-0.03778,0.04574 -0.09545,0.0696 -0.15113,0.0696z"/><path d="M178.60388,335.30343c-0.02585,-0.02187 -2.68861,-2.18549 -3.144,-2.56134c-0.50113,-0.41562 -0.65624,-1.07584 -0.4892,-2.0781c0.16903,-1.01022 1.24289,-1.21902 1.28862,-1.22698c0.10739,-0.01989 0.21079,0.04972 0.23068,0.15511c0.01989,0.1054 -0.04972,0.2088 -0.1571,0.22869c-0.03381,0.00597 -0.84715,0.16903 -0.97045,0.90681c-0.14318,0.85511 -0.03182,1.39999 0.35199,1.71618c0.4534,0.37386 3.11616,2.53549 3.14202,2.55736c0.08352,0.06761 0.09545,0.19091 0.02585,0.27443c-0.03977,0.04773 -0.09545,0.07159 -0.15312,0.07159c-0.04375,0 -0.0875,-0.01392 -0.12528,-0.04375z"/><path d="M175.09794,331.55489c-0.01989,0 -0.03778,-0.00199 -0.05767,-0.00795c-0.10341,-0.02983 -0.16307,-0.1392 -0.13125,-0.24261c0.30028,-0.96846 1.06192,-1.08181 1.42385,-1.00624c0.10739,0.02187 0.175,0.12329 0.15312,0.22869c-0.02187,0.1054 -0.12528,0.17301 -0.23267,0.15312c-0.07159,-0.01392 -0.70198,-0.10937 -0.96448,0.73778c-0.02585,0.08352 -0.10341,0.13721 -0.18892,0.13721z"/><path d="M175.19539,332.40403c-0.04176,-0.50511 0.06562,-0.89488 0.32017,-1.15738c0.32613,-0.33806 0.77158,-0.32613 0.78948,-0.32613c0.10937,0.00398 0.19488,0.09347 0.19091,0.20085c-0.00398,0.10739 -0.09545,0.1929 -0.20483,0.18892c-0.00199,0 -0.28636,-0.00398 -0.4892,0.20483c-0.17301,0.17898 -0.2446,0.46733 -0.21278,0.85709c0.00994,0.10739 -0.07159,0.20284 -0.18096,0.21079c-0.00597,0 -0.01591,0 -0.01591,0c-0.10142,0 -0.18892,-0.07756 -0.19687,-0.17898z"/><path d="M175.92521,333.06425c-0.09347,-0.46733 -0.02983,-0.84715 0.18494,-1.13351c0.2963,-0.39176 0.76761,-0.44346 0.78749,-0.44346c0.10937,-0.00994 0.20682,0.06761 0.21676,0.175c0.01193,0.10739 -0.06761,0.20284 -0.17699,0.21278c-0.00398,0 -0.32017,0.03778 -0.50909,0.28835c-0.14517,0.1929 -0.18295,0.4713 -0.11335,0.82528c0.01989,0.1054 -0.04972,0.2088 -0.1571,0.22869c-0.01193,0.00398 -0.02585,0.00398 -0.03778,0.00398c-0.09347,0 -0.17699,-0.06364 -0.19488,-0.1571z"/><path d="M176.74651,333.7364c-0.10142,0 -0.18892,-0.07756 -0.19687,-0.18096c-0.10142,-1.37016 0.99431,-1.51533 1.00624,-1.51533c0.10937,-0.01193 0.2088,0.06364 0.22074,0.17102c0.01392,0.10739 -0.06364,0.20483 -0.17301,0.21676c-0.02983,0.00199 -0.73181,0.09545 -0.65823,1.09772c0.00795,0.10739 -0.07358,0.20085 -0.18295,0.2088c-0.00398,0 -0.01392,0 -0.01392,0z"/><path d="M178.78086,319.19365c-0.13324,0 -0.26051,-0.06364 -0.33608,-0.18096c-0.03778,-0.05966 -0.36591,-0.59857 -0.09148,-1.08976c0.20682,-0.36988 0.66818,-0.55681 1.36817,-0.55681c1.52129,0 2.95111,-0.73579 3.55764,-1.82953c0.2963,-0.53494 0.37386,-1.22698 0.44346,-1.83748c0.09148,-0.81931 0.17102,-1.52726 0.74971,-1.80566c0.36591,-0.175 0.65624,-0.11136 0.83522,-0.02784c0.50909,0.24062 0.67812,0.9088 0.69602,0.98437c0.04773,0.21079 -0.08551,0.4196 -0.29829,0.46733c-0.21477,0.04972 -0.42556,-0.08153 -0.47528,-0.29233c-0.03182,-0.13324 -0.14517,-0.39772 -0.26449,-0.4534c-0.01193,-0.00597 -0.04773,-0.02386 -0.14517,0.02386c-0.18693,0.08949 -0.25653,0.69999 -0.31221,1.19118c-0.07756,0.6821 -0.16506,1.45567 -0.53494,2.12583c-0.75369,1.35823 -2.42214,2.23521 -4.25365,2.23521c-0.46534,0 -0.64431,0.09943 -0.67414,0.15312c-0.03381,0.05966 0.0179,0.21875 0.06761,0.29829c0.11733,0.18295 0.06165,0.42358 -0.12329,0.53892c-0.06562,0.03977 -0.1392,0.05966 -0.21079,0.05966z"/><path d="M194.00571,338.6821c0,-0.98039 0.81136,-1.77981 1.80765,-1.77981c0.9963,0 1.80765,0.79744 1.80765,1.77981c0,0.98238 -0.81136,1.77981 -1.80765,1.77981c-0.9963,0 -1.80765,-0.79744 -1.80765,-1.77981zM194.40145,338.6821c0,0.76562 0.63238,1.39004 1.41192,1.39004c0.77755,0 1.41192,-0.62244 1.41192,-1.39004c0,-0.76562 -0.63238,-1.39004 -1.41192,-1.39004c-0.77755,0 -1.41192,0.62244 -1.41192,1.39004z"/><path d="M194.35969,350.1246l-0.15113,-0.12727v0l-0.19687,-0.01392c0.00199,-0.02585 0.15312,-2.55736 -1.89117,-6.08517c-0.05369,-0.09347 -0.02187,-0.21278 0.07358,-0.26647c0.09545,-0.0517 0.21676,-0.01989 0.27045,0.07358c1.09573,1.89316 1.56504,3.49997 1.76589,4.51416c0.11534,0.5767 0.1571,1.0301 0.17102,1.30851c0.02784,0.51306 -0.00199,0.54687 -0.04176,0.5946z"/><path d="M193.60799,350.1942c-0.09545,0 -0.17898,-0.0696 -0.19488,-0.16506c-0.00597,-0.04972 -0.79147,-4.86615 -2.50765,-6.43516c-0.07954,-0.07358 -0.08352,-0.19687 -0.00994,-0.27642c0.07557,-0.07954 0.20085,-0.08352 0.2804,-0.00994c1.8176,1.6605 2.59912,6.45704 2.63094,6.65988c0.01591,0.1054 -0.05767,0.20682 -0.16506,0.22273c-0.01193,0.00199 -0.02187,0.00199 -0.03182,0.00199z"/><path d="M197.84573,349.08853c-0.04574,0 -0.09347,-0.01591 -0.13125,-0.04972c-0.08153,-0.07159 -0.08949,-0.19488 -0.01591,-0.27443c1.2926,-1.41788 2.31674,-5.66358 2.32668,-5.70534c0.02585,-0.1054 0.13125,-0.16903 0.23863,-0.14517c0.1054,0.02585 0.17301,0.12926 0.14716,0.23466c-0.04176,0.17699 -1.05596,4.3849 -2.41617,5.87636c-0.03977,0.04375 -0.09347,0.06562 -0.14716,0.06562z"/><path d="M199.52612,348.01468c-0.02784,0 -0.05568,-0.00597 -0.08352,-0.0179c-0.09943,-0.04574 -0.14318,-0.16108 -0.09744,-0.25852c0.6284,-1.34033 1.6764,-5.03717 1.68635,-5.07495c0.02983,-0.10341 0.1392,-0.16307 0.2446,-0.13523c0.1054,0.02983 0.16704,0.13721 0.13721,0.24062c-0.04176,0.15312 -1.0659,3.76644 -1.70822,5.13461c-0.03182,0.07159 -0.10341,0.11335 -0.17898,0.11335z"/><path d="M200.41105,341.41644c-0.0179,0 -0.03778,-0.00199 -0.05568,-0.00795c-0.10341,-0.03182 -0.16506,-0.1392 -0.13324,-0.24261l1.67839,-5.61188c0.03182,-0.10341 0.14119,-0.16108 0.24659,-0.13125c0.10341,0.03182 0.16506,0.1392 0.13324,0.24261l-1.67839,5.61188c-0.02386,0.08352 -0.10341,0.1392 -0.18892,0.1392z"/><path d="M190.87563,341.43633l-2.94514,-4.37297c-0.05966,-0.08949 -0.0358,-0.21079 0.05568,-0.27045c0.09148,-0.05767 0.21477,-0.03381 0.27443,0.05568l2.94514,4.37297c0.05966,0.08949 0.0358,0.21079 -0.05568,0.27045c-0.03381,0.02187 -0.07159,0.03182 -0.10937,0.03182c-0.06364,0 -0.12727,-0.03182 -0.16506,-0.0875z"/><path d="M186.53846,345.64822c-2.17157,0 -4.85819,-0.24659 -7.09737,-1.20311c-0.10142,-0.04375 -0.14716,-0.1571 -0.10341,-0.25653c0.04375,-0.09943 0.16108,-0.14517 0.26051,-0.10142c2.60111,1.11363 5.84852,1.23891 8.11356,1.14743c2.4639,-0.09744 4.3332,-0.46733 4.35109,-0.4713c0.1054,-0.01989 0.21079,0.04773 0.23267,0.15312c0.02187,0.1054 -0.04773,0.2088 -0.15511,0.23068c-0.01989,0.00398 -1.91504,0.37784 -4.40876,0.47926c-0.37585,0.01392 -0.77755,0.02386 -1.19914,0.02386z"/><path d="M185.70722,334.86395c-0.00994,0 -0.01989,-0.00199 -0.02983,-0.00199c-0.05568,-0.00795 -1.38408,-0.20682 -2.94713,-1.00624c-1.44572,-0.73778 -3.36474,-2.15168 -4.28348,-4.68717c-0.03778,-0.10142 0.01591,-0.21278 0.11932,-0.24858c0.10341,-0.03778 0.21676,0.01591 0.25255,0.11733c0.87499,2.4102 2.70253,3.75849 4.08263,4.46643c1.50339,0.76959 2.81588,0.97045 2.83577,0.97243c0.10739,0.01591 0.18295,0.11335 0.16704,0.22074c-0.01392,0.09744 -0.09744,0.16704 -0.19488,0.16704z"/><path d="M202.44938,350.20215c-0.11534,-0.11534 -0.11534,-0.30028 0.00199,-0.41363l4.21388,-4.09456c0.42556,-0.41164 0.94658,-0.69999 1.50737,-0.83124c0.64431,-0.14915 1.21703,-0.06761 1.65652,0.23665c0.54886,0.37784 0.88692,1.08976 1.00425,2.11589c0.0179,0.16108 -0.09943,0.30625 -0.2625,0.32414c-0.16307,0.0179 -0.31022,-0.09744 -0.32812,-0.25852c-0.09943,-0.85113 -0.35397,-1.42584 -0.75567,-1.70424c-0.30028,-0.2088 -0.69602,-0.25653 -1.17726,-0.14517c-0.45539,0.10739 -0.87897,0.34204 -1.22698,0.68011l-4.21388,4.09456c-0.05767,0.05568 -0.13324,0.08352 -0.2088,0.08352c-0.07557,0 -0.15312,-0.02983 -0.21079,-0.0875z"/><path d="M192.81851,344.96811c-0.09347,0 -0.17699,-0.06562 -0.19488,-0.15909c-0.01989,-0.1054 0.0517,-0.20682 0.15909,-0.2267l1.0838,-0.19488c0.10739,-0.01989 0.21079,0.0517 0.23068,0.1571c0.01989,0.1054 -0.0517,0.20682 -0.15909,0.2267l-1.0838,0.19488c-0.01193,0.00398 -0.02386,0.00398 -0.0358,0.00398z"/><path d="M177.44451,334.30515c-0.0875,0 -0.16704,-0.05767 -0.19091,-0.14517c-0.10142,-0.38579 -0.05568,-0.71192 0.13523,-0.96846c0.34403,-0.45937 1.02812,-0.49914 1.05794,-0.49914c0.10937,-0.00398 0.20085,0.07756 0.20682,0.18494c0.00398,0.10739 -0.07954,0.19886 -0.18892,0.20483c-0.00597,0 -0.52897,0.03381 -0.75766,0.34005c-0.11733,0.1571 -0.1392,0.37187 -0.0696,0.63835c0.02784,0.1054 -0.0358,0.21079 -0.14119,0.23863c-0.01591,0.00398 -0.03381,0.00597 -0.04972,0.00597z"/><path d="M178.20615,334.91963c-0.08153,0 -0.15909,-0.0517 -0.18693,-0.13324c-0.11534,-0.33806 -0.09148,-0.63636 0.07159,-0.88692c0.32812,-0.5071 1.10965,-0.5946 1.14345,-0.59857c0.10937,-0.00994 0.20682,0.06562 0.21875,0.17301c0.01193,0.10739 -0.06562,0.20284 -0.175,0.21477c-0.175,0.01989 -0.66818,0.13324 -0.85511,0.42159c-0.09545,0.14716 -0.1054,0.32812 -0.02983,0.55085c0.03381,0.10142 -0.02187,0.21278 -0.12528,0.24659c-0.02187,0.00597 -0.04176,0.00994 -0.06364,0.00994z"/><path d="M176.18969,335.70116c-0.00398,0 -0.00597,0 -0.00994,0c-0.10937,-0.00398 -0.19488,-0.09545 -0.18892,-0.20284l0.10937,-2.3406c0.00398,-0.10739 0.09545,-0.19091 0.20682,-0.18494c0.10937,0.00398 0.19488,0.09545 0.18892,0.20284l-0.10937,2.3406c-0.00398,0.1054 -0.09148,0.18693 -0.19687,0.18693z"/><path d="M180.15897,342.14627c-0.00795,0 -0.0179,0 -0.02585,0c-1.17726,-0.14915 -1.75396,-0.69204 -2.03038,-1.12158c-0.30426,-0.4713 -0.32017,-0.91079 -0.32017,-0.92868c-0.00398,-0.1054 0.08153,-0.19488 0.19091,-0.19886c0.10937,-0.00398 0.20085,0.08153 0.20483,0.18892c0.00199,0.05767 0.07557,1.42783 2.00651,1.67442c0.10937,0.01392 0.18494,0.11136 0.17102,0.21875c-0.01392,0.09744 -0.09943,0.16903 -0.19687,0.16903z"/><path d="M179.97801,342.91586c-0.01392,0 -0.02585,-0.00199 -0.03977,-0.00398c-1.59089,-0.31221 -2.28094,-1.00027 -2.58122,-1.52328c-0.33608,-0.58465 -0.27244,-1.09573 -0.27045,-1.1176c0.01392,-0.1054 0.11335,-0.18096 0.22074,-0.16704c0.10937,0.01392 0.18494,0.10937 0.17301,0.21676c-0.00795,0.06761 -0.16903,1.67839 2.53549,2.20736c0.10739,0.01989 0.17699,0.12329 0.15511,0.22869c-0.01989,0.09347 -0.10142,0.1571 -0.19488,0.1571z"/><path d="M179.12092,343.86443c-0.03381,0 -0.06761,-0.00795 -0.09943,-0.02585c-2.74031,-1.56106 -2.69656,-3.47014 -2.69259,-3.54968c0.00398,-0.10739 0.09545,-0.18892 0.20483,-0.18693c0.10937,0.00398 0.19488,0.09347 0.19091,0.20085c0,0.00398 -0.00994,0.44147 0.28835,1.04999c0.27642,0.56477 0.88493,1.39402 2.20538,2.14771c0.09347,0.05369 0.12727,0.17301 0.07159,0.26647c-0.0358,0.06165 -0.10341,0.09744 -0.17102,0.09744z"/><path d="M204.79993,330.2086l-0.28835,-0.07159c1.69629,-6.53658 0.16903,-10.50984 -1.41192,-12.69334c-1.71021,-2.36447 -3.85195,-3.19968 -3.87383,-3.20764l0.05369,-0.13721l-0.05369,0.13721l0.10739,-0.27244c0.08949,0.0358 2.23521,0.86903 3.99911,3.29713c1.03607,1.42385 1.71817,3.10224 2.03038,4.98745c0.38778,2.35055 0.19886,5.02921 -0.56278,7.96242z"/><path d="M193.43299,338.6821c0,-1.18323 1.00425,-2.14572 2.23719,-2.14572c1.23294,0 2.23719,0.96249 2.23719,2.14572c0,1.18323 -1.00425,2.14572 -2.23719,2.14572c-1.23294,0 -2.23719,-0.96249 -2.23719,-2.14572zM193.82873,338.6821c0,0.96846 0.82528,1.75595 1.84146,1.75595c1.01618,0 1.84146,-0.78749 1.84146,-1.75595c0,-0.96846 -0.82528,-1.75595 -1.84146,-1.75595c-1.01618,0 -1.84146,0.78749 -1.84146,1.75595z"/></g></g></g></svg>