<svg version="1.1" xmlns="http://www.w3.org/2000/svg" xmlns:xlink="http://www.w3.org/1999/xlink" width="51.11572" height="50.34411" viewBox="0,0,51.11572,50.34411"><g transform="translate(-161.94213,-308.32794)"><g data-paper-data="{&quot;isPaintingLayer&quot;:true}" fill-rule="nonzero" stroke="none" stroke-width="0" stroke-linecap="butt" stroke-linejoin="miter" stroke-miterlimit="10" stroke-dasharray="" stroke-dashoffset="0" style="mix-blend-mode: normal"><g data-paper-data="{&quot;index&quot;:null}"><path d="M197.97528,312.31483l-1.55163,6.12706c0,0 1.575,5.89104 1.16606,9.22798c-0.40894,3.33693 -1.16606,6.29531 -1.16606,6.29531l9.12049,2.66861c0,0 3.57295,1.86242 2.73404,3.58697c-0.83657,1.72689 -1.22915,2.47466 -4.05433,1.63809c0,0 -2.04703,0.5398 -2.60786,-0.21498c-0.56083,-0.75712 -0.30612,-1.94421 -0.30612,-1.94421l-5.02643,0.52344l2.74573,4.54506l0.46268,1.1941c0,0 2.39755,-0.13086 4.1221,-1.51658c1.72455,-1.38571 4.79042,-2.79947 4.79042,-2.79947l0.89265,-0.90667c0,0 3.61034,1.77362 3.52154,3.54257c-0.0888,1.76895 -1.63108,8.60406 -6.79071,8.40543c-5.15963,-0.19862 -6.53834,0.41829 -6.53834,0.41829l-1.89981,4.71798l-2.01431,0.2033l-1.27822,0.19395l-1.36702,-0.76179c0,0 -2.29239,-1.5306 -1.34599,-2.32511c0.94873,-0.79451 1.9629,-1.32262 1.9629,-1.32262l-0.70571,-0.83891c0,0 -4.73668,-0.24302 -5.38163,-1.23382c-0.64496,-0.99313 -3.79261,-0.21498 -5.51249,-0.7244c-1.71988,-0.50942 -4.89791,-1.52359 -4.89791,-1.52359c0,0 -2.9537,0.17994 -4.09873,1.52359c-1.14736,1.34365 -2.33679,0.2734 -2.33679,0.2734l-5.24843,-5.53352c0,0 -0.48606,-3.45378 1.27822,-3.45378c1.76428,0 3.34161,0.96977 3.34161,0.96977l2.76442,-0.19162l-1.24317,-4.16416l-4.95166,-5.79524c0,0 -4.05667,-2.92566 -4.05667,-5.11991c0,-2.19425 1.76428,-3.40237 3.2201,-2.90697c1.45582,0.4954 1.32262,0 1.32262,0l2.94436,2.57748c0,0 -2.23865,-12.75653 10.81466,-18.26902l-1.95122,4.45392c0,0 5.08252,-2.73405 11.96203,-0.92537l1.36702,0.46502l5.79524,-1.0796" fill="#f2b65e"/><path d="M180.03106,309.54104c-13.43887,7.29546 -7.23937,24.47787 -7.23937,24.47787c-9.78181,-15.80838 7.23937,-24.47787 7.23937,-24.47787z" fill="#fdd29d"/><path d="M185.64402,351.00036c0,0 -13.15846,2.58683 -14.52548,-15.83642c0,0 3.24347,15.57937 14.20301,14.32218l0.32248,1.51424z" fill="#fdd29d"/><path d="M185.9595,344.65832c0,0 0.96042,10.0552 9.06207,5.75551c0,0 -1.42311,2.5471 -4.86286,2.01665c-3.43976,-0.53045 -5.19235,-3.83467 -4.20155,-7.77216z" fill="#fdd29d"/><path d="M173.13286,344.30079c0,0 -2.74105,-0.39258 -3.09391,0.53279c-0.35286,0.92536 -3.30656,-2.77611 -4.58712,-0.30846c0,0 -1.14736,-2.08675 0.92537,-2.01431c2.07273,0.07244 2.9537,1.48386 2.9537,1.48386l3.61735,-0.48605l0.18461,0.78983z" fill="#fdd29d"/><path d="M185.05516,348.6589l0.84592,1.94187c0.04207,0.0958 -0.02336,0.2033 -0.12852,0.20797c-0.60055,0.02571 -2.33912,0.09114 -3.77625,-0.01168c-1.65912,-0.11917 -3.38601,-2.08208 -3.59165,-2.32043c-0.01402,-0.01402 -0.02805,-0.0257 -0.04674,-0.03505c-0.19862,-0.10048 -1.56331,-0.90901 -3.47013,-5.11757c-1.85775,-4.09639 0.04907,-6.8538 0.14254,-6.98466c0.00234,-0.00234 0.00467,-0.00701 0.00701,-0.00935c2.07741,-2.51205 5.47977,-1.28523 5.68541,-1.20812c0.00701,0.00234 0.01168,0.00701 0.01869,0.00935c0.18227,0.10282 3.04718,1.74324 2.7691,5.42135c-0.28743,3.79962 1.54228,8.10632 1.54228,8.10632z" fill="#fdd29d"/><path d="M164.52646,325.71397c0,0 -1.46516,3.46078 1.6194,7.03607c0,0 -2.03768,-0.02103 -2.67562,-1.76428c-0.64028,-1.74091 -1.18943,-4.69929 -0.30846,-5.2718c0.88097,-0.57251 1.23382,-0.46502 1.36702,0z" fill="#fdd29d"/><path d="M207.88795,338.22514c1.07025,5.82795 -2.48167,3.83233 -4.89324,3.68044c-2.41157,-0.15189 -1.95356,-1.99328 -1.95356,-1.51424c0,0.47905 0.57485,0.69403 1.48152,0.69403c0.90667,0 0.59121,-0.8389 2.48868,-0.39725c1.89747,0.44165 2.87892,-2.46298 2.87892,-2.46298" fill="#fdd29d"/><path d="M178.58226,319.65233c-4.15715,-2.02834 -6.09902,0.52811 -6.09902,0.52811l0.24536,-0.88097c0,0 0.17759,-1.01183 2.1662,-1.58668c1.9886,-0.57485 3.68745,1.93954 3.68745,1.93954z" fill="#fdd29d"/><path d="M198.30942,311.98064l-7.40996,3.56828c0,0 -2.49336,-2.3695 -6.49394,-2.62421c-4.00058,-0.25471 7.37725,0.83891 7.37725,0.83891l6.50329,-1.61005" fill="#fdd29d"/><path d="M208.25246,341.38214c0.07011,-0.60523 1.48854,0 1.48854,0c0,0 -1.3343,4.06601 -5.19468,5.32788c-3.86038,1.26187 -4.76004,1.09362 -4.76004,1.09362v-2.255c0,0 2.9794,-0.56317 4.16883,-2.14985c1.18943,-1.58668 4.22959,-1.41376 4.29736,-2.01665z" fill="#fdd29d"/><path d="M179.14775,328.06011l0.06777,-1.49555c0,0 0.34118,-0.05374 1.13101,0.35286c0.78983,0.4066 3.05652,0.08179 3.74821,0.48605c0.68936,0.40426 -1.04454,2.42792 -1.04454,2.42792l-3.90478,-1.77129z" fill="#984332"/><path d="M182.7067,329.86877c-1.15671,1.56565 -4.87221,0.56317 -4.87221,0.56317l0.89265,-2.60085c2.39287,-0.30845 3.97955,2.04002 3.97955,2.04002z" fill="#d06950"/><path d="M174.94414,327.21418c-2.03868,-0.2847 -3.33091,-3.09658 -2.88627,-6.2805c0.44464,-3.18392 2.45777,-5.5342 4.49645,-5.2495c2.03868,0.2847 3.33091,3.09658 2.88627,6.2805c-0.44464,3.18392 -2.45777,5.5342 -4.49645,5.2495z" fill="#fbe6c9"/></g><g data-paper-data="{&quot;index&quot;:null}"><path d="M186.35675,317.43472c0,0 -1.01417,0.25237 -1.67548,0.81554c-0.66131,0.56317 -1.07024,0.39726 -1.23382,0.21966c-0.16591,-0.1776 -0.24302,-0.79451 0.51877,-1.0352c0.76179,-0.24303 2.97006,-0.19395 2.39287,0z" fill="#855827"/><path d="M179.03559,318.35776c-0.29443,0.46969 -0.85292,0.41127 -1.10296,-0.19162c-0.25004,-0.60289 -1.48386,-1.51424 -1.71988,-1.61706c-0.23602,-0.10282 -0.05842,-0.20564 -0.05842,-0.20564c0,0 0.44165,-0.13086 1.85307,0.38323c1.41142,0.51409 1.02819,1.63108 1.02819,1.63108z" fill="#855827"/><path d="M190.8878,321.62925l0.42296,3.157c0.09347,0.70338 -0.59355,1.30393 -1.41376,1.23149l-4.33241,-0.37856c-0.71506,-0.06309 -1.23149,-0.61457 -1.15204,-1.22915c0.10749,-0.82956 0.28509,-1.9629 0.52344,-2.82518c0.42763,-1.53761 2.26435,-2.96071 4.09639,-2.35081c1.68716,0.56083 1.83438,2.07975 1.84606,2.3181c0.00234,0.02571 0.00467,0.04908 0.00701,0.07478z" fill="#ffffff"/><path d="M190.02552,326.47809c-0.05609,0 -0.11451,-0.00234 -0.17059,-0.00701l-4.33241,-0.37856c-0.50008,-0.0444 -0.95575,-0.27808 -1.24785,-0.64262c-0.25471,-0.31781 -0.36921,-0.71039 -0.3178,-1.10063c0.10749,-0.82255 0.28742,-1.99094 0.53746,-2.88827c0.27106,-0.9721 1.03052,-1.8928 1.98393,-2.39988c0.86462,-0.46035 1.8227,-0.55382 2.69666,-0.26172c0.81788,0.2734 1.44414,0.79217 1.81335,1.50489c0.28976,0.55849 0.33883,1.0796 0.34584,1.22214c0.00233,0.01169 0.00467,0.02571 0.00467,0.03973v0l0.42296,3.157c0.05842,0.43464 -0.09113,0.87396 -0.4066,1.20578c-0.33416,0.35052 -0.82021,0.54915 -1.32963,0.54915zM190.43443,321.69235v0c-0.00701,-0.03739 -0.01168,-0.07478 -0.01168,-0.11217c-0.01402,-0.23836 -0.14722,-1.44648 -1.53527,-1.90916c-0.8132,-0.27107 -1.52592,-0.03973 -1.97926,0.20096c-0.74076,0.39258 -1.32729,1.09829 -1.53293,1.83672c-0.23602,0.84359 -0.40894,1.96758 -0.51176,2.76209c-0.02337,0.17993 0.05375,0.32248 0.12385,0.40894c0.13787,0.17058 0.36221,0.28275 0.61458,0.30378l4.33241,0.37856c0.29444,0.02571 0.57953,-0.07244 0.75946,-0.26172c0.0888,-0.09114 0.18928,-0.24537 0.16124,-0.45334l-0.42296,-3.157z" fill="#855827"/><path d="M178.01907,324.93815l-5.53819,-0.39725c0,0 0.07011,-3.21309 0.79685,-4.49131c0.72908,-1.27823 2.46532,-1.86944 3.88141,-1.05857c2.44896,1.39974 0.99314,5.94947 0.99314,5.94947" fill="#ffffff"/><path d="M178.15461,325.37045c-0.02337,0 -0.0444,0 -0.06777,-0.00467c-0.03038,0.00467 -0.06309,0.00467 -0.09581,0.00467l-5.53819,-0.39725c-0.23134,-0.01635 -0.4066,-0.21031 -0.40193,-0.44165c0.00234,-0.13554 0.07945,-3.33928 0.85293,-4.69695c0.42296,-0.74077 1.1497,-1.29926 1.99562,-1.5306c0.84358,-0.23135 1.72222,-0.11918 2.477,0.31079c2.72003,1.5563 1.25252,6.25792 1.18943,6.45655c-0.05841,0.18461 -0.229,0.30145 -0.41127,0.30145zM175.76876,319.04944c-0.21265,0 -0.42763,0.02804 -0.64028,0.08646c-0.62626,0.17059 -1.16372,0.58186 -1.47218,1.124c-0.47904,0.84358 -0.67065,2.81115 -0.7244,3.87673l4.89791,0.35286c0.25938,-1.00482 0.88798,-4.11041 -0.88331,-5.12458c-0.36454,-0.20797 -0.76647,-0.31313 -1.17774,-0.31313z" fill="#855827"/><path d="M180.57086,326.26077c-0.11684,0 -0.23134,-0.0444 -0.3178,-0.12852l-1.09128,-1.05857c-0.17994,-0.17526 -0.18461,-0.46268 -0.00935,-0.64495c0.17526,-0.17994 0.46268,-0.18461 0.64495,-0.00935l0.8576,0.8319l1.43012,-0.71973c0.22433,-0.11217 0.49774,-0.02103 0.61224,0.2033c0.11217,0.22433 0.02103,0.50007 -0.2033,0.61224l-1.71988,0.86461c-0.06543,0.03271 -0.13554,0.04907 -0.20564,0.04907z" fill="#855827"/><path d="M180.46337,327.2025c-0.19862,-0.01636 -0.34818,-0.18928 -0.33182,-0.38791l0.0888,-1.12633c0.01636,-0.19862 0.18695,-0.34818 0.38791,-0.33182c0.19862,0.01636 0.34818,0.18928 0.33182,0.38791l-0.0888,1.12633c-0.01636,0.18928 -0.17293,0.33182 -0.35987,0.33182c-0.00935,0 -0.01869,0 -0.02804,0z" fill="#855827"/><path d="M179.79739,331.45312c-0.52811,0 -1.03987,-0.04673 -1.46049,-0.08412c-0.14021,-0.01169 -0.27107,-0.02337 -0.38791,-0.03272c-0.28743,-0.02103 -0.53513,-0.18694 -0.66599,-0.44399c-0.13086,-0.25704 -0.11684,-0.55615 0.03505,-0.79918c0.39492,-0.63094 1.61005,-2.75274 0.88798,-3.80196c-0.02337,-0.03037 -0.03972,-0.05374 -0.04907,-0.0701c-0.11217,-0.18695 -0.05608,-0.42764 0.12385,-0.54915c0.17993,-0.11917 0.42296,-0.07945 0.55382,0.09581c0.00701,0.00934 0.01168,0.01635 0.01869,0.0257c0.07478,0.08646 0.88798,0.90668 4.30904,0.83891c0.27574,-0.02103 1.50957,-0.06309 1.76194,0.6987c0.21265,0.64028 -0.10515,1.37871 -0.94406,2.19425c-0.57953,0.5655 -1.39273,1.14503 -2.17789,1.54929c-0.57251,0.29677 -1.30393,0.37856 -2.0073,0.37856zM184.15549,327.59275c-0.07478,-0.09113 -0.51877,-0.17526 -0.93939,-0.14488c-0.00701,0 -0.01636,0 -0.02337,0c-1.68716,0.03272 -3.01445,-0.13319 -3.94917,-0.49306c0.06543,1.23849 -0.67767,2.67796 -1.22915,3.5636c0.11918,0.00935 0.25238,0.02103 0.39492,0.03505c0.88564,0.08179 2.22696,0.2033 3.01913,-0.20564c1.46049,-0.75479 2.93267,-2.09143 2.72236,-2.75508z" fill="#855827"/></g><g data-paper-data="{&quot;index&quot;:null}" fill="#e49a2b"><path d="M197.90517,312.15593l-0.22901,2.61487l-0.91135,3.95618l0.56083,3.92581l-0.54681,11.20724l4.5731,2.0517l-5.84665,-1.3273c0,0 -3.28086,1.0796 -1.56098,-4.47729c1.71988,-5.55689 -0.44165,-12.34994 -1.32262,-12.96685c-0.88331,-0.61925 -0.1776,-1.54462 -0.1776,-1.54462l3.71316,-1.80868l1.74325,-1.63108z"/><path d="M211.05894,343.67453c0.18928,-0.55616 0.93238,-0.6543 1.2642,-0.16825c2.21762,3.23879 -3.6267,7.48707 -4.5988,8.16007c-0.08646,0.06076 -0.1846,0.10048 -0.28976,0.11684l-3.80429,0.62392c-0.09347,0.01635 -0.18928,0.01168 -0.28041,-0.00935l-2.24098,-0.53512c-0.26405,-0.06309 -0.46735,-0.27106 -0.52811,-0.53512l-0.13553,-0.59822c-0.09113,-0.39025 0.16124,-0.77582 0.55382,-0.85527l0.42997,-0.08646c0.11216,-0.02337 0.229,-0.0187 0.33883,0.01402c5.91909,1.76895 8.46619,-3.68511 9.29108,-6.12706z"/><path d="M198.95907,346.69832c3.76924,2.57047 0.22199,7.55951 -1.05857,9.63692c-1.28056,2.07741 -2.08442,0.69403 -2.08442,0.69403c3.37432,-3.83701 1.50723,-7.02906 1.50723,-7.02906l1.63575,-3.30188z"/><path d="M176.78526,349.23141c-1.53994,-0.13787 -5.59661,2.20827 -5.59661,2.20827l-5.47042,-5.32788l-0.26406,-1.27822c3.1313,-0.61925 5.68775,4.93763 6.79071,3.79728c1.10297,-1.14035 3.35797,-1.47451 3.35797,-1.47451"/><path d="M200.69763,339.46598l-4.11509,0.77581c0,0 0.77815,2.21995 1.97692,5.77187c1.19877,3.55192 -2.64525,5.01942 -2.64525,5.01942c3.47247,-2.85556 -1.25719,-12.4621 -1.25719,-12.4621l5.98686,-0.66131z"/></g><g data-paper-data="{&quot;index&quot;:null}" fill="#d07f2a"><path d="M173.20062,335.95843c-0.18694,0 -0.36921,-0.08179 -0.49306,-0.24069c-3.25047,-4.16182 -3.4304,-8.1367 -3.43975,-8.54564c-0.32482,-2.52373 -0.16825,-4.93997 0.46268,-7.18095c0.54214,-1.92318 1.43479,-3.73185 2.65693,-5.37929c2.49335,-3.36264 5.60362,-5.0872 6.82576,-5.67373c0.45801,-0.21966 0.87863,-0.39024 1.2198,-0.4954c0.3879,-0.11917 0.82722,-0.21965 1.13334,0.09815c0.19863,0.20563 0.24069,0.51643 0.10282,0.77581c-0.24303,0.46035 -0.84358,1.70352 -1.24551,2.54009c6.16912,-0.60056 10.66511,0.79918 11.64656,1.14035l5.89806,-1.83438c0.25004,-0.07712 0.51409,-0.02805 0.70571,0.13553c0.20798,0.17526 0.30612,0.46502 0.26406,0.7688c-0.229,1.66379 -0.94173,3.86738 -1.41142,5.32554c-0.13787,0.42296 -0.27807,0.85761 -0.33182,1.05857c1.32963,3.91646 1.25486,7.94508 0.95341,10.64641c-0.32948,2.95137 -0.97444,4.954 -1.00248,5.03812c-0.10749,0.32715 -0.46035,0.50708 -0.7875,0.39959c-0.32949,-0.10749 -0.50942,-0.46035 -0.40193,-0.7875c0.00701,-0.02103 0.63794,-1.98861 0.95107,-4.8208c0.28742,-2.59383 0.35753,-6.46823 -0.93939,-10.19541c-0.02804,-0.08179 -0.04206,-0.16592 -0.04206,-0.25004c0,-0.19395 0.06777,-0.41594 0.40894,-1.47451c0.36921,-1.14269 0.95107,-2.94669 1.24317,-4.41653l-5.29283,1.6451c-0.16358,0.04907 -0.33182,0.0444 -0.4954,-0.01402c-0.50007,-0.18461 -5.06148,-1.78531 -11.53439,-1.09362c-0.01169,0.00234 -0.03272,0.00234 -0.03272,0.00234l-0.54681,0.03038c-0.27107,0.01402 -0.53279,-0.1145 -0.68468,-0.34117c-0.15189,-0.22433 -0.17292,-0.51643 -0.05608,-0.76179c0.12852,-0.2734 0.59121,-1.23616 1.00482,-2.08675c-1.45115,0.66833 -3.99358,2.20593 -6.11071,4.81379c-2.80882,3.46079 -3.92814,7.58289 -3.32291,12.25413c0.00234,0.00935 0.00234,0.02103 0.00234,0.03038c0.00234,0.02103 0.00234,0.04207 0.00234,0.06076c0.00234,0.15423 0.07478,3.84635 3.1757,7.81656c0.21265,0.27107 0.16358,0.66365 -0.10749,0.8763c-0.1145,0.0888 -0.25004,0.1332 -0.38557,0.1332zM169.25846,327.14174v0c0,-0.00234 0,-0.00701 0,-0.00701c0,0.00467 0,0.00701 0,0.00701z"/><path d="M165.90986,333.76887c-0.82723,0 -1.69418,-0.45567 -2.57982,-1.35767c-0.34117,-0.34819 -0.70571,-0.9651 -0.85059,-1.43713c-0.58654,-1.92318 -0.87162,-4.47262 0.09347,-5.85366c0.14722,-0.21498 0.33883,-0.39492 0.56784,-0.53746c0.61925,-0.38557 1.43713,-0.34584 2.03301,0.10282l0.44866,0.3365c0.15189,-0.17526 0.35519,-0.33416 0.62392,-0.451c0.75945,-0.32949 1.4675,0.09113 1.81101,0.62392l2.17789,3.14298c0.19629,0.28276 0.12385,0.673 -0.1589,0.86929c-0.28276,0.19629 -0.673,0.12385 -0.86929,-0.1589l-2.1849,-3.15233c-0.00935,-0.01168 -0.00935,-0.01168 -0.01402,-0.02103c-0.0257,-0.03505 -0.15189,-0.20797 -0.26639,-0.1589c-0.20564,0.0888 -0.2477,0.23135 -0.25705,0.28743c0.00934,0.23835 -0.11684,0.43931 -0.32949,0.55148c-0.21499,0.11684 -0.47671,0.07244 -0.67066,-0.07478l-1.0609,-0.79918c-0.18461,-0.13788 -0.43465,-0.15657 -0.62159,-0.03973c-0.08412,0.05141 -0.15189,0.1145 -0.2033,0.18928c-0.56551,0.81086 -0.53279,2.77377 0.07711,4.77406c0.08413,0.28042 0.34585,0.71973 0.54681,0.92537c0.65898,0.66832 1.26187,1.00715 1.74325,0.98145c0.33416,-0.0187 0.64495,-0.21732 0.95107,-0.60523c0.21498,-0.27107 0.60756,-0.31547 0.87863,-0.10282c0.27107,0.21498 0.31547,0.60756 0.10282,0.87863c-0.53513,0.67767 -1.16139,1.03987 -1.86476,1.0796c-0.03972,0.00234 -0.07945,0.00234 -0.12151,0.00234z"/><path d="M171.24006,339.55945c-0.18694,0 -0.37155,-0.08413 -0.4954,-0.24303l-4.46561,-5.79758c-0.21031,-0.27341 -0.1589,-0.66599 0.1145,-0.8763c0.27341,-0.21031 0.66599,-0.1589 0.8763,0.1145l4.46561,5.79758c0.21031,0.27341 0.1589,0.66599 -0.1145,0.8763c-0.11451,0.0888 -0.2477,0.13086 -0.3809,0.13086z"/><path d="M184.66958,351.65467c-3.19439,0 -5.97283,-0.96743 -8.27457,-2.88827c-2.928,-2.44194 -4.52169,-5.99854 -5.34424,-8.55265c-0.88565,-2.74807 -1.08661,-4.90259 -1.09362,-4.99372c-0.03272,-0.34351 0.22199,-0.64729 0.5655,-0.67767c0.34117,-0.03038 0.64729,0.22199 0.67767,0.5655c0.00467,0.04207 0.40426,4.22258 2.46765,8.17643c2.70834,5.18767 6.88418,7.56185 12.41069,7.0571c0.34585,-0.03272 0.64963,0.22199 0.68001,0.5655c0.03272,0.34351 -0.22199,0.64963 -0.5655,0.68001c-0.51876,0.04673 -1.02818,0.0701 -1.52592,0.0701z"/><path d="M171.58124,352.38841c-0.15891,0 -0.31547,-0.06309 -0.43231,-0.17526l-5.86534,-5.64568c-0.0187,-0.01869 -0.03739,-0.03739 -0.05375,-0.05842c-0.11918,-0.14956 -1.15204,-1.48153 -0.902,-2.77611c0.11684,-0.60055 0.49073,-1.09362 1.08427,-1.42544c1.6708,-0.93471 3.50285,0.1075 4.30904,0.68001c1.02351,-0.55616 2.68964,-0.21265 3.06353,-0.12619c0.3365,0.07711 0.54681,0.41361 0.46736,0.75011c-0.07711,0.3365 -0.41361,0.54681 -0.75011,0.46736c-0.88798,-0.20564 -2.05404,-0.21499 -2.28538,0.08412c-0.10515,0.13553 -0.26405,0.22199 -0.43464,0.23835c-0.17058,0.01636 -0.34351,-0.03739 -0.47203,-0.15189c-0.0187,-0.01636 -1.89047,-1.63341 -3.28553,-0.85059c-0.35753,0.20097 -0.43932,0.42063 -0.46736,0.57018c-0.11684,0.59355 0.40426,1.43713 0.62626,1.72689l5.34891,5.14795c0.3622,-0.39492 0.93705,-0.92537 1.70819,-1.3717c1.29926,-0.75011 3.41873,-1.39974 6.15277,-0.22667c0.31547,0.13553 0.46268,0.50241 0.32715,0.82021c-0.13553,0.31547 -0.50241,0.46268 -0.82021,0.32715c-1.79465,-0.77114 -3.4748,-0.72441 -4.99138,0.13553c-1.16373,0.65898 -1.80401,1.575 -1.80868,1.58201c-0.10516,0.15423 -0.27107,0.25238 -0.45334,0.27107c-0.02337,0.00234 -0.0444,0.00234 -0.06543,0.00234z"/><path d="M194.58693,358.66504c-0.2477,0 -0.451,-0.05842 -0.60289,-0.12619c-0.27107,-0.12152 -0.46969,-0.30846 -0.6099,-0.49073c-0.31079,0.05375 -0.70805,0.05608 -1.1053,-0.12385c-0.54681,-0.2477 -0.92537,-0.75946 -1.12166,-1.51658c-0.20564,-0.79451 0.02804,-1.34599 0.26172,-1.66847c0.37388,-0.51643 0.96976,-0.78049 1.45348,-0.91602l-0.15656,-0.4954c-0.51643,0.06309 -1.0095,0.09581 -1.47919,0.09581c-1.99328,0 -3.56594,-0.57252 -4.68994,-1.71287c-2.47934,-2.51439 -1.75961,-6.80707 -1.72689,-6.98934c0.06075,-0.33883 0.38557,-0.56784 0.7244,-0.50708c0.33883,0.06075 0.56784,0.38323 0.50708,0.7244c-0.00701,0.03739 -0.64495,3.83467 1.38572,5.89572c1.17774,1.19643 3.0682,1.59369 5.61764,1.18475c0.30379,-0.04907 0.60056,0.13553 0.69403,0.42997l0.53045,1.67548c0.05842,0.18227 0.02804,0.3809 -0.07945,0.5398c-0.10749,0.1589 -0.28275,0.25938 -0.47437,0.2734c-0.2477,0.0187 -1.0165,0.15423 -1.29224,0.5398c-0.0701,0.09815 -0.15422,0.27107 -0.06309,0.62159c0.06543,0.25705 0.19396,0.58186 0.4253,0.69169c0.2477,0.1145 0.57952,-0.02337 0.61224,-0.03739c0.16124,-0.08412 0.34584,-0.0888 0.51643,-0.02103c0.17059,0.06777 0.29444,0.21265 0.35286,0.38791c0.00701,0.0257 0.10049,0.22433 0.22901,0.28275c0.07712,0.03505 0.18928,0.01869 0.3365,-0.0444c0.36921,-0.15891 0.55148,-0.26172 0.63794,-0.31547c0.02804,-0.04673 0.06075,-0.08879 0.10048,-0.12852c0.22901,-0.22433 0.59121,-0.24069 0.83891,-0.03505c0.03505,0.02804 0.06543,0.06076 0.09347,0.09581c0.07477,0.08179 0.27807,0.2477 0.39725,0.23835c0.06543,-0.00467 0.19162,-0.09814 0.33416,-0.34584c0.75244,-1.29458 2.21761,-4.84884 2.27603,-4.99138c0.03505,-0.09347 1.03753,-2.7317 -0.20564,-4.31371l-0.94406,-1.02819c-0.23368,-0.25471 -0.21732,-0.64963 0.03739,-0.88331c0.25471,-0.23368 0.64963,-0.21732 0.88331,0.03739l0.95808,1.04454c0.00935,0.01169 0.01869,0.02104 0.02804,0.03272c1.72923,2.16387 0.45801,5.43771 0.40193,5.57558c-0.00234,0.00234 -0.00234,0.00701 -0.00234,0.00701c-0.0631,0.15189 -1.54696,3.7599 -2.35315,5.14795c-0.4323,0.7431 -0.95341,0.93472 -1.31561,0.96276c-0.39492,0.03272 -0.73609,-0.11216 -0.9908,-0.28041c-0.17526,0.09814 -0.39492,0.2033 -0.67066,0.32481c-0.27808,0.12385 -0.53046,0.16825 -0.74544,0.16825z"/><path d="M196.01002,351.92572c-0.19629,0 -0.38791,-0.09113 -0.50942,-0.26172c-0.20096,-0.28041 -0.13553,-0.67066 0.14488,-0.87162c0.00935,-0.00467 0.91369,-0.65663 1.60304,-1.79465c0.902,-1.48853 0.99547,-3.05185 0.27574,-4.65021c-0.68234,-1.51424 -1.17306,-2.60786 -1.46049,-3.24814c-0.11917,-0.26406 -0.18694,-0.41595 -0.22433,-0.50241c-0.02104,-0.04439 -0.03272,-0.07477 -0.03973,-0.09113c-0.16124,-0.37856 0.03739,-0.71272 0.30612,-0.83657c0.27808,-0.12852 0.66832,-0.04206 0.83657,0.32014l-0.5655,0.26406l-0.56784,0.26172c0.14488,0.29911 0.50942,0.42997 0.81554,0.2921c0.30612,-0.13553 0.451,-0.4954 0.32481,-0.80152c0.01869,0.0444 0.19629,0.45334 1.71754,3.83c0.88565,1.96758 0.76647,3.97722 -0.34584,5.8116c-0.82021,1.35533 -1.89981,2.13348 -1.94421,2.1662c-0.10983,0.07945 -0.23601,0.11684 -0.3622,0.11684z"/><path d="M196.15491,340.47079c-0.0444,-0.34351 0.19629,-0.65664 0.5398,-0.70104l3.57295,-0.46268c0.34351,-0.0444 0.65664,0.19629 0.70104,0.5398c0.0444,0.34351 -0.19629,0.65664 -0.5398,0.70104l-3.57295,0.46268c-0.02804,0.00467 -0.05609,0.00467 -0.08179,0.00467c-0.30846,0 -0.57952,-0.229 -0.61925,-0.54447z"/><path d="M205.90166,343.2609c-1.13568,0 -2.22463,-0.4954 -2.7247,-0.75946c-0.95341,0.34351 -1.72222,0.27808 -2.28772,-0.19395c-0.59354,-0.4954 -0.87162,-1.39039 -0.82722,-2.65927c0.03038,-0.85293 0.19629,-1.58434 0.2033,-1.61472c0.07945,-0.33416 0.41361,-0.54447 0.75011,-0.46736c0.33649,0.07945 0.5468,0.41361 0.46969,0.75011c-0.22199,0.96977 -0.31079,2.60552 0.20564,3.03549c0.28976,0.24303 0.85994,0.07478 1.28757,-0.10983c0.18928,-0.07945 0.40427,-0.06309 0.57719,0.0444c0.44633,0.27575 1.83438,0.93706 2.8836,0.66599c0.46035,-0.11917 0.80853,-0.40426 1.07025,-0.87162c0.32949,-0.58887 0.41128,-1.1497 0.2477,-1.7152c-0.38089,-1.32496 -1.96757,-2.25267 -2.28304,-2.42559c-0.69403,-0.3809 -5.90975,-1.74792 -9.03637,-2.51906c-0.3365,-0.08412 -0.5398,-0.42296 -0.45801,-0.75712c0.08412,-0.3365 0.42296,-0.5398 0.75712,-0.45801c0.84358,0.20798 8.27223,2.0517 9.33781,2.6359c0.54915,0.29911 2.37885,1.41843 2.8836,3.1757c0.25471,0.89032 0.13553,1.78764 -0.35753,2.67095c-0.42997,0.77114 -1.05155,1.26654 -1.8484,1.47218c-0.28041,0.07244 -0.5655,0.10282 -0.84825,0.10282z"/><path d="M199.26986,346.42027c-0.34117,0 -0.55149,-0.0257 -0.57018,-0.0257c-0.34117,-0.03973 -0.58654,-0.35052 -0.54681,-0.69169c0.03973,-0.34118 0.34818,-0.58654 0.69169,-0.54915c0.00934,0.00234 0.93939,0.10048 2.07273,-0.18928c1.46984,-0.37856 2.58449,-1.20812 3.31123,-2.46999c0.17059,-0.29911 0.55382,-0.40193 0.85293,-0.22901c0.29911,0.17059 0.40193,0.55382 0.22901,0.85293c-0.89966,1.5563 -2.32744,2.6172 -4.13378,3.0682c-0.76881,0.19162 -1.45582,0.23368 -1.90916,0.23368z"/><path d="M204.25189,353.36285c-1.36703,0 -2.81116,-0.29911 -4.30437,-0.89265c-0.32248,-0.12619 -0.47904,-0.49073 -0.35052,-0.81087c0.12619,-0.32248 0.49073,-0.47904 0.81087,-0.35052c6.70191,2.66394 10.00146,-2.04703 10.85439,-3.55426c0.06543,-0.11917 0.11917,-0.24536 0.15656,-0.37622c0.59121,-2.08442 0.51409,-3.67577 -0.23368,-4.732c-0.85993,-1.21513 -2.38118,-1.33431 -2.4139,-1.33431c-0.34351,-0.0187 -0.60756,-0.31313 -0.58887,-0.65664c0.01636,-0.34585 0.31313,-0.6099 0.65664,-0.59121c0.08646,0.00468 2.13115,0.1332 3.35329,1.84373c0.98612,1.38105 1.131,3.3346 0.42763,5.8116c-0.06543,0.22667 -0.15657,0.44633 -0.27107,0.64963c-0.40426,0.71506 -1.55864,2.50504 -3.56594,3.72718c-1.15204,0.70104 -2.41391,1.11465 -3.75055,1.23149c-0.25938,0.02104 -0.5211,0.03272 -0.78516,0.03272z"/><path d="M201.04113,345.79633c0,0 2.77845,2.50037 1.18943,6.23923l-1.18943,-0.27574c0,0 0.56317,-3.32993 -1.4231,-5.6784z"/><path d="M201.04114,345.79633l2.51439,-0.96042c0,0 4.20155,1.14736 3.14298,7.19965l-2.25033,0.39725c0,0 0.69403,-4.28333 -3.10793,-6.65751"/><path d="M203.95512,343.90354l1.4862,-1.10063l1.10998,0.29444c4.78107,2.34613 3.35563,6.98466 3.35563,6.98466l-2.21528,1.35767c1.35533,-5.85132 -3.73653,-7.53381 -3.73653,-7.53381z"/><path d="M202.9947,335.48642l-2.44195,1.16606l-0.20564,-1.88112z"/><path d="M199.62037,334.58208l-1.71988,1.80634v-1.80634"/><path d="M197.32331,327.68855l-2.33445,-1.81802l2.33445,-0.42997z"/><path d="M197.32331,328.19329c-0.10983,0 -0.21966,-0.03739 -0.31079,-0.10749l-2.33445,-1.81802c-0.15656,-0.12385 -0.22667,-0.32482 -0.17993,-0.51877c0.04907,-0.19161 0.2033,-0.34117 0.39959,-0.37622l2.33445,-0.42997c0.14722,-0.02804 0.29911,0.01168 0.41361,0.10749c0.1145,0.09581 0.18227,0.23836 0.18227,0.38791v2.25033c0,0.19162 -0.10983,0.36922 -0.28275,0.45334c-0.07011,0.03505 -0.14722,0.05141 -0.222,0.05141zM196.18529,326.16263l0.63327,0.49306v-0.6099z"/><path d="M196.58487,331.32693l-2.35548,-1.52125l2.94202,-0.52811z"/><path d="M196.58488,331.83167c-0.0958,0 -0.19161,-0.02804 -0.2734,-0.08179l-2.35548,-1.52125c-0.17526,-0.11217 -0.26173,-0.32014 -0.222,-0.52344c0.04206,-0.2033 0.2033,-0.35986 0.4066,-0.39725l2.94436,-0.53045c0.17292,-0.03038 0.34818,0.03038 0.46502,0.1589c0.11684,0.12853 0.1589,0.30846 0.10983,0.47671l-0.58887,2.0517c-0.0444,0.15423 -0.15891,0.27808 -0.30846,0.33416c-0.05842,0.02104 -0.11684,0.03272 -0.1776,0.03272zM195.57772,330.07675l0.70805,0.45801l0.1776,-0.61691z"/><path d="M170.34741,327.19315l1.68249,1.19176l-1.45115,0.46035z"/><path d="M170.57641,329.35001c-0.09347,0 -0.18694,-0.0257 -0.26873,-0.07711c-0.12618,-0.07945 -0.21031,-0.21031 -0.23134,-0.35753l-0.23134,-1.65211c-0.02804,-0.20096 0.06543,-0.39725 0.23835,-0.50241c0.17059,-0.10516 0.39024,-0.09815 0.55382,0.01869l1.68249,1.19176c0.15656,0.11217 0.23601,0.30145 0.20797,0.49073c-0.02804,0.18928 -0.16357,0.34584 -0.34584,0.40426l-1.45115,0.46035c-0.04907,0.01636 -0.10048,0.02337 -0.15189,0.02337z"/><path d="M170.08335,322.65043l1.58668,2.25033l-1.58668,-0.66131l-0.2477,-1.58902"/><path d="M171.67003,325.40317c-0.06543,0 -0.13086,-0.01403 -0.19395,-0.03973l-1.58668,-0.66131c-0.16124,-0.06777 -0.27574,-0.21499 -0.30378,-0.38791l-0.2477,-1.58668c-0.0444,-0.27574 0.14488,-0.53513 0.42062,-0.57719c0.06776,-0.01168 0.13787,-0.00701 0.20096,0.00935c0.19863,-0.04907 0.41361,0.02337 0.53746,0.19863l1.58668,2.25033c0.12853,0.18461 0.12152,0.43231 -0.01869,0.60757c-0.09815,0.12151 -0.24537,0.18928 -0.39492,0.18928z"/><path d="M196.77416,341.66255l-2.54476,0.97678l1.92551,-1.95122z"/><path d="M193.80644,342.91507c-0.13086,-0.19862 -0.10516,-0.46268 0.06309,-0.63093l1.92785,-1.94888c0.10983,-0.10983 0.26172,-0.16358 0.41361,-0.14722c0.15189,0.01636 0.28976,0.10048 0.37155,0.23134l0.61925,0.97444c0.08179,0.12852 0.10049,0.28509 0.05375,0.42997c-0.04907,0.14488 -0.15657,0.25938 -0.29911,0.31313l-2.5471,0.97444c-0.05842,0.02104 -0.11917,0.03272 -0.17993,0.03272c-0.16591,0 -0.32715,-0.08179 -0.42296,-0.22901z"/><path d="M197.65046,343.10202c0,0 0.87864,1.02819 0.25004,2.17555c-0.6286,1.14503 -2.5915,0.92537 -2.5915,0.92537c1.23616,-0.61925 2.34146,-3.10326 2.34146,-3.10326z"/><path d="M195.68989,346.72171c-0.24303,0 -0.40894,-0.01869 -0.43231,-0.02103c-0.22433,-0.0257 -0.40192,-0.19395 -0.44165,-0.41361c-0.03972,-0.21966 0.07011,-0.43932 0.27107,-0.5398c0.87864,-0.43932 1.81802,-2.21061 2.10545,-2.85556v0c0.07011,-0.15891 0.21732,-0.26874 0.38791,-0.29444c0.17058,-0.02337 0.3435,0.04206 0.45567,0.17292c0.0444,0.05141 1.09596,1.31094 0.30846,2.74573c-0.58186,1.0609 -1.95356,1.20578 -2.65927,1.20578zM197.6154,344.27743c-0.22199,0.39492 -0.50942,0.85526 -0.84124,1.27355c0.28976,-0.10282 0.54681,-0.2664 0.68468,-0.51877c0.14488,-0.26406 0.17759,-0.52344 0.15656,-0.75245z"/><path d="M194.98885,317.93245l-1.97225,-2.07273l3.13831,-1.54462z"/><path d="M194.98652,318.43954c-0.13553,0 -0.26873,-0.05608 -0.36454,-0.15656l-1.97225,-2.07273c-0.10983,-0.11684 -0.1589,-0.27808 -0.13086,-0.43698c0.02804,-0.1589 0.12852,-0.29444 0.2734,-0.36454l3.14065,-1.54462c0.18227,-0.09114 0.39959,-0.0631 0.55382,0.0701c0.15189,0.1332 0.21264,0.34351 0.14955,0.53746l-1.16606,3.61735c-0.05608,0.16825 -0.19629,0.29677 -0.36921,0.3365c-0.03739,0.00701 -0.07478,0.01168 -0.11217,0.01168zM193.85551,316.00928l0.91368,0.96042l0.5398,-1.67548z"/><path d="M189.89933,313.03688l-3.98423,1.27822l0.83891,-1.804z"/><path d="M185.9151,314.82219c-0.14254,0 -0.28041,-0.06076 -0.37856,-0.17059c-0.1332,-0.14956 -0.16357,-0.36454 -0.07945,-0.54681l0.83657,-1.804c0.09581,-0.20564 0.31781,-0.32248 0.54214,-0.28509l3.14532,0.52578c0.229,0.03739 0.40426,0.22901 0.42062,0.46035c0.0187,0.23134 -0.12618,0.44633 -0.34818,0.51643l-3.98423,1.27822c-0.05141,0.01636 -0.10282,0.02337 -0.15423,0.02337zM187.76351,313.18878l-0.71506,-0.11918l-0.19162,0.41127l0.90667,-0.28976z"/><path d="M184.90094,312.51111c-0.1332,0.12852 -2.20593,1.804 -2.20593,1.804l0.44165,-1.9816z"/><path d="M182.69732,314.81751c-0.09347,0 -0.1846,-0.02337 -0.26639,-0.07478c-0.18227,-0.1145 -0.27341,-0.32949 -0.22667,-0.5398l0.44165,-1.9816c0.05375,-0.25004 0.28743,-0.41828 0.54214,-0.39258l1.76428,0.1776c0.19396,0.02103 0.35987,0.15189 0.4253,0.3365c0.06543,0.1846 0.01636,0.39024 -0.12385,0.52811c-0.13553,0.13086 -1.61238,1.3273 -2.24098,1.83672c-0.09347,0.07478 -0.20563,0.11217 -0.3178,0.11217zM183.53157,312.88032l-0.02804,0.12852c0.04907,-0.03973 0.09814,-0.07711 0.14488,-0.11684z"/><path d="M181.42379,312.62326c0.04674,0 -3.00044,1.62874 -2.77844,1.50022l0.70571,-1.804l2.07273,0.30612z"/><path d="M178.64068,314.63524c-0.20097,0 -0.38791,-0.11917 -0.46736,-0.31079c-0.05608,-0.13787 -0.05375,-0.31079 0.03505,-0.45567l0.67767,-1.7339c0.08646,-0.21966 0.31079,-0.35052 0.54447,-0.31547l2.06572,0.30378c0.222,0.03038 0.40193,0.20563 0.43231,0.43464c0.0444,0.34351 -0.21732,0.49073 -0.37155,0.57719c-0.07711,0.04206 -0.18694,0.10282 -0.3178,0.17526c-0.30145,0.16591 -0.68702,0.37155 -0.95575,0.51643c-1.43012,0.7688 -1.44881,0.77348 -1.51658,0.79217c-0.0444,0.01169 -0.08646,0.01636 -0.13086,0.01636zM179.67587,312.87564l-0.06543,0.16591c0.08412,-0.04674 0.17059,-0.09113 0.25471,-0.13787z"/></g><g data-paper-data="{&quot;index&quot;:null}"><path d="M166.35528,320.79327l0.10849,-1.65089l29.86518,1.9627l-0.10849,1.65089z" fill="#000000"/><path d="M182.04693,323.05166l0.11708,-1.78146l12.61016,0.82872l-0.11708,1.78146z" fill="#000000"/><path d="M168.39837,322.15131l0.1019,-1.55062l11.03389,0.72513l-0.1019,1.55062z" fill="#000000"/><path d="M182.9608,324.37059l0.10482,-1.59492l10.52556,0.69173l-0.10482,1.59492z" fill="#000000"/><path d="M169.47033,323.48533l0.09547,-1.45269l8.73011,0.57373l-0.09547,1.45269z" fill="#000000"/><path d="M183.89464,325.45946l0.08152,-1.2405l8.33604,0.54783l-0.08152,1.2405z" fill="#000000"/><path d="M170.35813,324.56927l0.08152,-1.2405l6.37503,0.41896l-0.08152,1.2405z" fill="#000000"/><path d="M184.67339,326.50435l0.08965,-1.36408l5.7781,0.37973l-0.08965,1.36408z" fill="#000000"/><path d="M170.96374,325.60234l0.07585,-1.15422l4.53294,0.2979l-0.07585,1.15422z" fill="#000000"/><path d="M169.21818,321.42875l0.06727,-1.02364l1.02364,0.06727l-0.06727,1.02364z" fill="#ffffff"/><path d="M170.21109,323.03737l0.06727,-1.02364l1.02364,0.06727l-0.06727,1.02364z" fill="#ffffff"/><path d="M171.48618,324.39867l0.06727,-1.02364l1.02364,0.06727l-0.06727,1.02364z" fill="#ffffff"/><path d="M182.72692,322.44797l0.06727,-1.02364l1.02364,0.06727l-0.06727,1.02364z" fill="#ffffff"/><path d="M183.71983,324.05893l0.06727,-1.02364l1.02364,0.06727l-0.06727,1.02364z" fill="#ffffff"/><path d="M184.99726,325.41789l0.06727,-1.02364l1.02364,0.06727l-0.06727,1.02364z" fill="#ffffff"/></g></g></g></svg>