<svg version="1.1" xmlns="http://www.w3.org/2000/svg" xmlns:xlink="http://www.w3.org/1999/xlink" width="52.16905" height="50.05796" viewBox="0,0,52.16905,50.05796"><g transform="translate(-161.41547,-308.47102)"><g data-paper-data="{&quot;isPaintingLayer&quot;:true}" fill-rule="nonzero" stroke-linecap="butt" stroke-linejoin="miter" stroke-miterlimit="10" stroke-dasharray="" stroke-dashoffset="0" style="mix-blend-mode: normal"><g><path d="M185.32292,313.52851c3.32183,-1.5719 13.29136,-0.2023 13.29136,-0.2023l0.90228,-3.91458c0,0 1.6508,2.2476 3.73857,5.8749c2.08778,3.62933 1.8086,7.93638 1.94414,11.33508c0.13554,3.3987 -0.49767,5.36914 -2.51868,7.92424c-2.02102,2.5551 -9.76723,3.12155 -15.68462,2.18084c-5.91536,-0.93869 -6.83382,-5.59572 -7.54593,-8.59589c-0.71211,-3.00017 0,-10.40853 0,-10.40853l-2.41348,-4.39404" fill="#f2b65e" stroke="#855827" stroke-width="0.75"/><path d="M176.79177,313.53054l0.52194,-0.69593l8.00921,0.69593" fill="#f2b65e" stroke="#855827" stroke-width="0.75"/><path d="M174.97103,336.12383c0,0 2.30829,0.41675 2.70278,2.29615c0.39449,1.8794 0.68379,2.92329 0,3.13166c-0.68379,0.20837 -1.90368,0.10924 -1.90368,-0.43293c0,-0.54217 -2.19095,1.89559 -3.89637,0.81528c-1.70744,-1.07828 -1.81062,-3.21258 0.7991,-5.01714c2.60972,-1.80455 2.29615,-0.79505 2.29615,-0.79505z" fill="#f2b65e" stroke="#855827" stroke-width="0.75"/><path d="M207.43271,331.29888c0,0 -1.07019,-3.50593 -0.65142,-4.69952c0.41675,-1.19562 1.01557,-3.54841 2.50654,-3.40477c1.49098,0.14364 3.95099,-0.78292 3.7406,2.49036c-0.2104,3.27328 -0.25288,4.68738 -1.39387,5.01107c-1.14099,0.32571 -3.67586,1.34532 -3.67586,1.34532z" fill="#f2b65e" stroke="#855827" stroke-width="0.75"/><path d="M177.67381,344.20182l0.2367,-0.47946l0.17398,3.71228l-0.89823,1.35746c0,0 -0.89418,0 -3.54032,1.0095c-2.64816,1.0095 -7.16763,0.17398 -10.16374,-2.54094c-2.9941,-2.71492 -0.70604,-5.04343 0.62916,-5.80005c1.33521,-0.75662 3.84782,0.10924 5.7778,1.34532c1.92998,1.23608 7.78465,1.39792 7.78465,1.39792z" fill="#f2b65e" stroke="#855827" stroke-width="0.75"/><path d="M195.86093,321.43253c0,-2.76977 1.64846,-5.01511 3.68193,-5.01511c2.03347,0 3.68193,2.24534 3.68193,5.01511c0,2.76977 -1.64846,5.01511 -3.68193,5.01511c-2.03347,0 -3.68193,-2.24534 -3.68193,-5.01511z" fill="#fbe6c9" stroke="none" stroke-width="0"/><path d="M199.54286,310.36651c4.55791,2.82012 5.55931,10.02416 5.9093,13.2246c0.34999,3.20045 -0.51587,8.72536 -1.11469,10.02618c-0.59882,1.30081 -8.62219,4.59432 -4.7946,2.54094c3.82759,-2.05338 4.41832,-5.60382 4.6631,-6.96128c0.24479,-1.35746 0.17398,-7.10086 -0.41675,-10.4409c-0.59275,-3.34004 -4.24636,-8.38752 -4.24636,-8.38752z" fill="#fdd29d" stroke="none" stroke-width="0"/><path d="M176.78974,312.94386l9.63573,0.58466c7.52368,-1.39792 13.77689,0.5624 9.63573,0c-4.14116,-0.5624 -12.3203,1.53751 -12.3203,1.53751l-6.94914,-2.12217z" fill="#fdd29d" stroke="none" stroke-width="0"/><path d="M176.79177,312.94386l5.87086,2.85451c0,0 -3.04872,12.33649 1.36757,16.62938c0.23063,0.22456 0.73841,0.8254 0.97915,1.03984c0.82945,0.73841 3.67586,3.53223 10.8536,3.4513c8.83259,-0.09913 -9.28372,2.74729 -13.6373,-2.50452c-4.35358,-5.25181 -3.49379,-10.35189 -3.18224,-12.92924c0.31357,-2.57735 -2.25164,-8.54127 -2.25164,-8.54127z" fill="#e49a2b" stroke="none" stroke-width="0"/><path d="M162.64871,343.08511c0,0 4.98881,7.44883 15.02308,4.31514l0.18612,0.05867l-1.40399,1.61236c0,0 -2.79382,1.09244 -5.26597,0.80112c-2.47215,-0.29334 -6.58904,-0.59073 -8.24793,-3.31778c-1.65889,-2.72706 -0.28929,-3.46951 -0.28929,-3.46951z" fill="#e49a2b" stroke="none" stroke-width="0"/><path d="M170.87843,340.88606c0,0 2.17881,0.82945 3.1175,0c0.93869,-0.82945 2.38314,-1.72363 2.65423,-0.98117c0.27109,0.74246 1.43636,-0.16184 1.43636,-0.16184c0,0 0.03035,2.13026 -1.04996,2.15858c-1.0803,0.0263 -2.03518,-0.03641 -3.28339,0.13959c-1.24821,0.176 -2.64209,-0.11329 -2.87474,-1.15313z" fill="#e49a2b" stroke="none" stroke-width="0"/><path d="M207.17174,326.59734c0,0 0.38842,3.67991 1.28665,3.78308c0.89823,0.1052 3.14785,-0.05665 3.84377,-1.33521c0.69795,-1.27856 0.88204,-0.09508 0.5705,0.63726c-0.31357,0.73234 -4.11081,3.33194 -4.91396,2.35684c-0.80315,-0.97713 -1.52537,-4.91396 -1.17741,-5.444c0.34796,-0.52801 0.39045,0 0.39045,0z" fill="#e49a2b" stroke="none" stroke-width="0"/><path d="M163.17267,342.08977c0,0 2.17881,-1.86322 5.43995,0c3.26114,1.86322 7.56414,1.92796 8.43202,1.78027c0.86788,-0.14566 1.04186,0.3338 1.04186,0.3338l-0.08497,1.40803c0,0 -5.57752,0.55431 -9.32823,-1.66091c-3.75071,-2.2132 -5.49862,-1.86322 -5.49862,-1.86322" fill="#fdd29d" stroke="none" stroke-width="0"/></g><g><path d="M180.97946,333.56469c3.85187,4.03798 8.77189,4.4082 12.97172,4.02382c4.19983,-0.3864 8.70109,-2.07564 10.01202,-3.28137c1.31093,-1.20573 2.12217,-7.71182 2.12217,-7.71182l0.05058,6.61129l-1.66901,7.60865l0.98522,3.56257c0,0 1.91582,-1.66091 4.69345,-1.50312c2.77763,0.15982 2.2476,3.66777 1.78634,4.74605c-0.46125,1.07828 -2.70076,2.88283 -5.54919,3.8114c-2.84844,0.92857 -3.93279,-1.40399 -3.93279,-1.40399c0,0 -1.98055,-1.98258 -5.60786,-0.77685c-3.62731,1.20573 -8.09013,0.98522 -8.09013,0.98522c0,0 0.18005,-0.33987 0,-0.20837c-1.88345,1.37567 -4.33942,1.35746 -4.33942,1.35746l-1.75195,1.34532c0,0 0.42686,2.60972 -0.42888,4.23624c-0.85575,1.62652 -3.71228,0.59073 -4.73391,0c-1.01961,-0.59073 -0.74246,-2.43372 -0.55634,-4.9787c0.18612,-2.54498 1.85108,-4.45473 1.85108,-4.45473l0.24883,-5.61595c0,0 -0.19623,-1.11267 -0.46125,-2.64411c-0.26299,-1.53144 -3.46142,-3.87007 -3.46142,-3.87007l5.86074,-1.83692z" fill="#262730" stroke="#855827" stroke-width="0.75"/><path d="M201.90981,335.81026c0,0 -2.63197,3.073 -3.25709,5.00904c-0.62714,1.93807 -0.62714,2.07564 -0.62714,2.07564l-0.45316,-2.41753c0,0 -1.43838,0.50374 -2.68053,4.6449c0,0 0.70199,-4.78853 2.03315,-6.47372l0.61096,-0.86991l0.64333,1.0095l1.22192,-2.14442l2.50452,-0.83551z" fill="#196b36" stroke="#855827" stroke-width="0.75"/><path d="M187.74247,336.91888h1.61236l1.6771,2.06755l0.64333,-1.0095l0.61096,0.86991c1.33116,1.68519 2.03315,6.47372 2.03315,6.47372c-1.24215,-4.14116 -2.68053,-4.6449 -2.68053,-4.6449l-0.45316,2.41753c0,0 0,-0.13757 -0.62714,-2.07564c-0.62714,-1.93807 -2.82012,-4.09868 -2.82012,-4.09868z" fill="#196b36" stroke="#855827" stroke-width="0.75"/><path d="M178.86134,339.9413c-0.29941,-3.26721 -2.85046,-4.16746 -2.87676,-4.17757l0.24276,-0.71818c0.03237,0.01012 0.78696,0.27109 1.57999,0.99938c0.72627,0.6676 1.63057,1.87333 1.8086,3.82759l-0.75662,0.06878z" fill="#196b36" stroke="none" stroke-width="0"/><path d="M206.78129,332.98205c-0.24074,0 -0.47137,-0.13757 -0.57657,-0.37224l-1.20168,-2.66434c-0.14364,-0.31762 -0.00202,-0.6939 0.31559,-0.83754c0.31762,-0.14364 0.6939,-0.00202 0.83754,0.31559l1.20168,2.66434c0.14364,0.31762 0.00202,0.6939 -0.31559,0.83754c-0.08497,0.03844 -0.17196,0.05665 -0.25895,0.05665z" fill="#196b36" stroke="none" stroke-width="0"/><path d="M202.29217,350.24868c-0.30143,0 -0.56645,-0.21444 -0.62107,-0.52194c-0.00809,-0.04451 -0.19219,-1.12481 0.10924,-2.43776c0.40663,-1.76611 1.493,-3.12762 3.1438,-3.93481c0.31357,-0.15375 0.69188,-0.02428 0.84563,0.28929c0.15375,0.31357 0.02428,0.69188 -0.28929,0.84563c-1.30081,0.63726 -2.12621,1.65889 -2.45597,3.04063c-0.2549,1.07019 -0.10722,1.97044 -0.1052,1.97853c0.05867,0.34392 -0.17196,0.67165 -0.51587,0.73032c-0.03641,0.00607 -0.07283,0.01012 -0.10924,0.01012z" fill="#196b36" stroke="none" stroke-width="0"/><path d="M181.01385,353.79709c-0.52397,0 -1.01557,-0.12543 -1.46873,-0.37629c-2.08171,-1.14909 -2.48227,-4.56195 -2.49845,-4.70761c-0.03844,-0.34796 0.21242,-0.65951 0.55836,-0.69795c0.34796,-0.03844 0.65951,0.2104 0.69795,0.55836v0c0.09104,0.80719 0.60287,3.05074 1.85513,3.7406c0.60489,0.3338 1.33318,0.28323 2.22939,-0.1497c0.31357,-0.15173 0.69188,-0.02023 0.84563,0.29334c0.15173,0.31357 0.02023,0.69188 -0.29334,0.84563c-0.68176,0.32976 -1.32509,0.49564 -1.92391,0.49564z" fill="#196b36" stroke="none" stroke-width="0"/><path d="M207.43271,331.76014l-1.56381,1.58202c0,0 -1.39185,7.03006 -1.18348,7.78061c0.20837,0.75055 0.41675,3.87816 0.21849,2.89294c-0.19826,-0.98522 -1.22798,-1.97449 -1.74993,-2.56521c-0.52194,-0.59073 0.13757,-1.56583 0.76471,-3.58482c0.62714,-2.01899 0.75864,-5.10413 0.75864,-5.10413l2.75538,-1.00343" fill="#363742" stroke="none" stroke-width="0"/><path d="M204.41433,346.0792c0,0 1.78837,-2.30626 4.81079,-3.19033c3.0204,-0.88204 3.27732,2.23546 3.27732,2.23546c0,0 -3.52818,-3.36229 -8.08811,0.95285z" fill="#363742" stroke="none" stroke-width="0"/><path d="M185.44633,350.90213c0,0 -0.27513,0.42888 -2.7837,0.84968c-2.50857,0.42079 -2.9941,-2.36695 -2.9941,-2.36695c1.95021,2.7837 5.7778,1.51728 5.7778,1.51728z" fill="#363742" stroke="none" stroke-width="0"/><path d="M177.05881,353.31763c0,0 0.69593,3.72441 3.41084,3.30564c0,0 1.56583,0.01416 2.29615,-2.20309c0,0 0.41675,2.20309 -1.39185,2.96982c-1.81062,0.76673 -4.55386,0.03237 -4.31514,-4.07238z" fill="#363742" stroke="none" stroke-width="0"/></g><g stroke="none" stroke-width="0"><path d="M170.60532,350.65936c-0.3864,0 -0.76066,-0.01821 -1.11065,-0.06271c-3.80736,-0.4653 -6.37055,-1.87333 -7.61472,-4.18567c-0.63928,-1.18752 -0.61703,-2.78168 0.05665,-3.96718c0.65142,-1.14706 1.81467,-1.81264 3.27328,-1.87333c1.87738,-0.0789 3.57269,0.50981 5.85467,2.03518c1.14706,0.76673 2.90306,0.88609 4.17555,0.85372c1.3696,-0.03641 2.57128,-0.26704 2.86462,-0.35403l0.87193,-0.65344l-0.18612,5.45613l-1.48086,1.56381l-0.11127,0.04451c-0.49564,0.2023 -3.8721,1.14302 -6.59308,1.14302zM165.56593,341.67707c-0.1052,0 -0.20837,0.00202 -0.30952,0.00607c-1.3615,0.05867 -2.02911,0.7465 -2.35279,1.31295c-0.4916,0.86384 -0.50778,2.02506 -0.04451,2.8889c1.06412,1.97651 3.34206,3.19033 6.77111,3.6091c2.38516,0.29132 6.23703,-0.69795 7.0422,-0.96904l1.01759,-1.07423l0.10722,-3.13571c-0.07485,0.01416 -0.1578,0.02832 -0.24681,0.04248c-0.46934,0.07688 -1.21382,0.17803 -2.09789,0.2104c-1.49503,0.05665 -3.57673,-0.07688 -5.01107,-1.03377c-2.33863,-1.56381 -3.75071,-1.85513 -4.87957,-1.85513z" fill="#d07f2a"/><path d="M173.64594,349.80159c-2.7837,-3.34206 0.53408,-5.85063 0.53408,-5.85063l2.01899,0.24681c-3.57066,1.95021 -0.95285,5.36105 -0.95285,5.36105z" fill="#d07f2a"/><path d="M168.46292,349.55883c-2.50654,-4.24636 1.42624,-6.7529 1.42624,-6.7529l1.9846,1.14504c-3.15594,2.43574 -0.41877,5.85063 -0.41877,5.85063z" fill="#d07f2a"/><path d="M166.13238,348.79007l-2.64816,-1.53144c-1.18348,-3.65361 1.35948,-5.74138 2.01899,-5.80005c0.65749,-0.05665 2.61174,0.58061 2.61174,0.58061c-4.31716,1.95021 -1.9846,6.7529 -1.9846,6.7529z" fill="#d07f2a"/><path d="M195.35112,326.82595l1.92391,0.10924l-0.37022,2.88688l-4.76223,-0.07283l-1.01961,-2.22737c2.57937,1.05198 4.22815,-0.69593 4.22815,-0.69593z" fill="#994334"/><path d="M196.921,329.8423h-0.01618l-4.77437,-0.07283l-1.04591,-2.28199l0.04451,0.01821c0.59275,0.24074 1.13492,0.3338 1.62045,0.3338c1.56988,0 2.53284,-0.97106 2.58544,-1.02568l0.00607,-0.00607h0.00809l1.94616,0.10924v0.02023l-0.37426,2.90306zM192.15472,329.73103l4.73189,0.07283l0.36617,-2.85046l-1.89559,-0.10722c-0.12745,0.12947 -1.74184,1.68721 -4.1978,0.71211z" fill="#855827"/><path d="M197.21232,327.35396c0,0 -1.15111,0.62714 -3.83163,0.66153c0,0 -0.11531,0.46328 -0.45316,0.39449c-0.33785,-0.06878 -0.32571,-0.41675 -0.32571,-0.41675c0,0 -0.39854,0.03439 -1.38983,-0.02428l-0.15375,-0.80112c0,0 2.92329,0.615 3.96718,0c1.04389,-0.615 2.12217,-0.27918 2.12217,-0.27918l0.06069,0.46328" fill="#ffffff"/><path d="M196.57506,331.25235c-0.35808,0.38235 -1.52335,0.2549 -2.63602,-0.12745c-1.11267,-0.38438 -1.99472,-1.90368 -1.99472,-1.90368c3.41084,-1.18348 4.8998,0.27918 4.8998,0.27918c0.37426,0.66153 0.08901,1.3696 -0.26906,1.75195z" fill="#d06950"/></g><g stroke="none" stroke-width="0"><path d="M197.52387,324.46506c0,0 -1.97246,-3.77094 0.13959,-5.71913c2.11205,-1.94819 3.61922,-0.9043 3.94492,-0.46328c0.32571,0.44102 1.30081,1.77218 1.04996,3.36431c-0.25086,1.59213 -0.36415,1.9846 -0.36415,1.9846c0,0 -1.68317,-0.54622 -4.7683,0.83551z" fill="#ffffff"/><path d="M184.83132,323.66394c0,0 -1.06816,-3.03456 0.20837,-4.34751c1.27654,-1.31295 2.88485,-1.4404 3.84377,-0.86586c0.95892,0.57454 2.23546,1.41208 2.76954,3.1964c0.53408,1.78432 0.41675,3.02849 0.41675,3.02849l-7.12312,-0.83956l-0.11531,-0.16994z" fill="#ffffff"/><path d="M201.2058,318.90777c1.20168,0.88407 1.51728,3.0204 0.3864,4.17757c-0.86788,0.88811 -2.25366,0.85777 -3.0204,0.5705c-0.21242,-0.08092 -0.33987,-0.16589 -0.37426,-0.19017c-0.87598,-0.60893 -0.83349,-1.94616 -0.82742,-2.13633c0.02832,-0.89014 0.47137,-2.38314 1.76409,-2.78168c1.09042,-0.33785 2.03518,0.33582 2.07361,0.36415z" fill="#232323"/><path d="M187.3763,319.41556c0.03844,-0.02832 0.9832,-0.70199 2.07361,-0.36415c1.29272,0.39854 1.73577,1.89154 1.76409,2.78168c0.00607,0.19017 0.04855,1.52739 -0.82742,2.13633c-0.03439,0.02428 -0.16184,0.10924 -0.37426,0.19017c-0.76673,0.28727 -2.15251,0.31762 -3.0204,-0.5705c-1.13088,-1.15718 -0.81528,-3.29351 0.3864,-4.17757z" fill="#232323"/><path d="M188.15517,320.84382c0,-0.53071 0.43023,-0.96094 0.96094,-0.96094c0.53071,0 0.96094,0.43023 0.96094,0.96094c0,0.53071 -0.43023,0.96094 -0.96094,0.96094c-0.53071,0 -0.96094,-0.43023 -0.96094,-0.96094z" fill="#ffffff"/><path d="M199.1079,320.27737c0,-0.53071 0.43023,-0.96094 0.96094,-0.96094c0.53071,0 0.96094,0.43023 0.96094,0.96094c0,0.53071 -0.43023,0.96094 -0.96094,0.96094c-0.53071,0 -0.96094,-0.43023 -0.96094,-0.96094z" fill="#ffffff"/></g><g stroke="none" stroke-width="0"><path d="M172.63847,342.7776c-2.00483,0 -2.53689,-1.21585 -2.64209,-1.54156c-0.08497,-0.1841 -0.31357,-0.77078 -0.23872,-1.56988c0.0789,-0.82945 0.51385,-2.05541 2.14442,-3.1964c2.53082,-1.77016 8.46844,-3.58482 8.7193,-3.6617c0.29334,-0.08901 0.60489,0.07688 0.6939,0.37022c0.08901,0.29334 -0.07688,0.60489 -0.37022,0.6939c-0.03844,0.01214 -2.50452,0.76471 -4.89778,1.74588c1.32307,0.77078 2.11408,2.10396 2.15454,2.17477c0.11531,0.2023 1.1066,1.99067 0.55431,3.31374c-0.29132,0.69593 -0.89418,1.28058 -1.57392,1.52739c-0.44911,0.16184 -0.88811,0.15173 -1.2381,-0.03035c-0.28929,-0.1497 -0.4916,-0.37022 -0.62916,-0.61096c-0.44102,0.31559 -1.08637,0.62916 -1.98258,0.73841c-0.24883,0.03035 -0.47946,0.04451 -0.6939,0.04451zM171.05645,340.90022c0.03035,0.09306 0.35605,0.94476 2.14037,0.72829c1.3696,-0.16589 1.89963,-0.92655 1.94212,-0.99129c0.12947,-0.22456 0.39449,-0.32773 0.64333,-0.25086c0.24883,0.07688 0.40865,0.31762 0.3864,0.57859c0,0 -0.01214,0.49969 0.28727,0.65546c0.0526,0.02832 0.17196,0.03439 0.34594,-0.02832c0.31964,-0.11531 0.73032,-0.44305 0.92655,-0.91037c0.29132,-0.69593 -0.27109,-1.94414 -0.4916,-2.32649c-0.00809,-0.01416 -1.05198,-1.76409 -2.5733,-2.09991c-0.01618,-0.00405 -0.03035,-0.00809 -0.04653,-0.01214c-0.80517,0.37426 -1.53549,0.76269 -2.07968,1.14302c-2.39123,1.67305 -1.53953,3.37645 -1.53144,3.39264c0.02428,0.04855 0.03844,0.07485 0.04855,0.12543zM171.05848,340.90629v0z" fill="#232323"/><path d="M179.97603,358.52089c-0.37426,0 -0.75055,-0.05058 -1.10863,-0.1578c-1.20371,-0.35605 -2.04731,-1.25833 -2.38112,-2.53689c-0.69188,-2.66434 -0.27311,-5.00702 -0.22051,-5.27608c0.03237,-0.24479 0.30952,-1.94212 1.756,-3.01433c-0.04451,-1.24619 -0.13554,-5.78589 0.76269,-7.64911c0.13352,-0.27716 0.46732,-0.39247 0.74246,-0.25895c0.27716,0.13352 0.39247,0.46732 0.25895,0.74246c-0.74852,1.54965 -0.71616,5.883 -0.6413,7.42253c0.01012,0.2023 -0.09104,0.39247 -0.26097,0.49969c-1.30891,0.81326 -1.51526,2.39528 -1.51526,2.41146c0,0.01416 -0.00405,0.03237 -0.00809,0.04653c-0.00405,0.02225 -0.45114,2.28199 0.2023,4.7946c0.29536,1.13695 1.04389,1.57999 1.62045,1.74993c0.89418,0.26502 1.95628,0.04855 2.58342,-0.52397c1.09244,-0.99938 0.87598,-3.47963 0.69997,-4.35156c-0.04653,-0.23265 0.05867,-0.46934 0.26299,-0.59073l1.60022,-0.93869c0.07688,-0.04451 0.16387,-0.07081 0.2549,-0.07688c2.85653,-0.14364 3.61112,-0.98522 3.688,-1.08435c0.1052,-0.21849 0.31964,-0.30346 0.5624,-0.26704c4.44462,0.66356 7.991,-0.75055 8.02539,-0.76471c0.01416,-0.00607 0.02832,-0.01012 0.04248,-0.01416c0.2023,-0.06474 4.97061,-1.54358 6.28153,1.27047c0.27513,0.59275 0.6494,0.96094 1.14099,1.12683c1.21585,0.40865 3.04872,-0.43495 4.31919,-1.10458c2.40539,-1.26845 3.42298,-3.8721 3.33801,-4.54374c-0.10924,-0.878 -0.37224,-1.84501 -2.10598,-2.17881c-1.89761,-0.36819 -4.08856,1.11469 -4.10879,1.13088c-0.17196,0.11734 -0.39449,0.12947 -0.57859,0.03237c-0.1841,-0.09913 -0.29739,-0.29132 -0.29334,-0.49767c0.02428,-1.64271 -1.05198,-2.63197 -1.0621,-2.64209c-0.17803,-0.15982 -0.23265,-0.41675 -0.13757,-0.63726c1.82073,-4.17151 1.42422,-7.39825 1.42017,-7.43062c-0.03439,-0.26906 0.12745,-0.52397 0.3864,-0.60489c2.06957,-0.6413 5.61595,-1.9583 6.32604,-2.76145c0.38842,-0.439 0.63523,-1.50312 0.64333,-2.77965c0.00809,-1.20371 -0.19421,-2.38921 -0.50576,-2.95161c-0.08294,-0.1497 -0.18814,-0.23265 -0.34189,-0.27311c-0.55634,-0.14364 -1.45861,0.3075 -1.7297,0.47744c-0.14364,0.08901 -0.31762,0.11734 -0.47744,0.06069c-0.1578,-0.05665 -0.2812,-0.17398 -0.33582,-0.33178c-0.03035,-0.06878 -0.12138,-0.21444 -0.23063,-0.25288c-0.10924,-0.03844 -0.26299,0.0263 -0.37224,0.08699c-0.55229,0.30548 -0.7728,1.6245 -0.79101,2.21523c-0.00607,0.17398 -0.09306,0.3338 -0.23265,0.43495l-1.46266,1.03984c-0.25086,0.17803 -0.59882,0.11936 -0.77685,-0.1315c-0.17803,-0.25086 -0.11936,-0.59882 0.1315,-0.77685l1.24619,-0.88609c0.06069,-0.67772 0.31155,-2.29817 1.34734,-2.87069c0.56847,-0.31357 1.01961,-0.25895 1.29677,-0.15577c0.23265,0.08497 0.41068,0.22456 0.54622,0.36819c0.52194,-0.24681 1.37364,-0.54824 2.12217,-0.35403c0.44911,0.11734 0.80719,0.39854 1.0358,0.81326c0.81731,1.47682 0.98927,5.57549 -0.27918,7.0078c-1.0014,1.13088 -5.01107,2.50048 -6.40292,2.95161c0.05462,1.0621 0.01821,3.80331 -1.39792,7.21618c0.3338,0.39652 0.87193,1.17134 1.07221,2.25366c0.94071,-0.48958 2.57735,-1.14504 4.15734,-0.83956c2.67041,0.51587 2.90913,2.41753 2.99814,3.13369c0.14364,1.14504 -1.11267,4.18364 -3.92469,5.66653c-1.57595,0.83147 -3.59089,1.71554 -5.19314,1.17539c-0.78494,-0.26502 -1.3878,-0.83956 -1.79444,-1.71149c-0.85777,-1.84299 -4.6368,-0.76875 -4.92003,-0.68379c-0.3601,0.14364 -3.8195,1.45254 -8.28232,0.86788c-0.45518,0.43495 -1.59213,1.1592 -4.1978,1.31295l-1.15515,0.67772c0.13959,1.0095 0.34594,3.66777 -1.10458,4.9969c-0.65546,0.59882 -1.59415,0.92857 -2.54094,0.92857zM188.26644,349.73888z" fill="#232323"/><path d="M207.9587,332.34884c-2.16465,-2.80191 -1.46873,-5.82433 -1.46873,-5.82433" fill="#262730"/><path d="M207.9587,332.90518c-0.16589,0 -0.33178,-0.07485 -0.44102,-0.21647c-2.29817,-2.97589 -1.60022,-6.15611 -1.56988,-6.28963c0.06878,-0.29941 0.36819,-0.48553 0.6676,-0.41675c0.29941,0.06878 0.48553,0.36819 0.41675,0.6676c-0.00607,0.0263 -0.60084,2.81405 1.36555,5.35903c0.18814,0.24276 0.14364,0.59275 -0.10115,0.78089c-0.10115,0.0789 -0.22051,0.11531 -0.33987,0.11531z" fill="#232323"/></g><g stroke="none" stroke-width="0"><path d="M192.04345,337.91827c-3.32992,0 -6.14194,-0.42484 -8.07799,-1.23405c-2.23141,-0.93464 -3.78915,-3.24698 -5.05153,-7.50143c-1.17336,-3.95302 -0.46934,-9.91896 -0.31964,-11.05388l-2.88688,-5.45613c-0.09913,-0.18814 -0.08294,-0.41472 0.04248,-0.58668c0.12543,-0.17196 0.33582,-0.25693 0.54622,-0.22051l7.86557,1.37162c2.70076,-0.67974 5.27608,-1.03782 7.66125,-1.06412c1.94616,-0.02225 3.77297,0.176 5.42377,0.5887c0.24074,0.06069 0.47137,0.12341 0.69188,0.18814l0.73234,-4.0218c0.03844,-0.21647 0.2023,-0.38842 0.41472,-0.44102c0.21444,-0.0526 0.43698,0.0263 0.57252,0.20028c0.15173,0.19421 3.71834,4.81079 4.93621,7.38814c1.12481,2.37707 1.24215,5.78184 1.35746,9.07535c0.01416,0.39045 0.0263,0.78089 0.04248,1.16325c0.16589,4.22208 -0.86991,6.55262 -1.77016,7.76442c-0.64535,0.86991 -1.85513,1.71554 -3.40275,2.38112c-1.79241,0.77078 -3.94088,1.24821 -6.2087,1.38376c-0.88407,0.0526 -1.73981,0.0789 -2.56521,0.0789zM177.22268,313.15425l2.43978,4.6105c0.05462,0.10317 0.07485,0.22253 0.05867,0.33987c-0.01012,0.06676 -0.94274,6.70435 0.26097,10.76054c1.15718,3.90446 2.51868,5.99831 4.41427,6.79134c1.30891,0.54824 4.36976,1.41613 10.14756,1.07221c2.14037,-0.12745 4.15937,-0.57657 5.83444,-1.29474c1.35139,-0.58061 2.42562,-1.317 2.94959,-2.02102c1.12076,-1.51121 1.67103,-4.01775 1.55167,-7.05838c-0.01618,-0.3864 -0.02832,-0.77685 -0.04248,-1.16932c-0.11127,-3.18022 -0.22456,-6.46765 -1.25024,-8.63837c-0.83551,-1.76611 -2.91722,-4.65703 -4.0481,-6.17634l-0.51587,2.8363c-0.00607,0.03237 -0.01416,0.06474 -0.0263,0.09306c1.66901,0.62916 2.48227,1.2907 2.52677,1.32711c0.2367,0.19623 0.26906,0.54622 0.07283,0.78292c-0.19623,0.2367 -0.54622,0.26906 -0.78292,0.07485c-0.02225,-0.01821 -1.28463,-1.02568 -3.91863,-1.66698c-2.45192,-0.59882 -6.62343,-0.99129 -12.57318,0.52397c-0.07688,0.02023 -0.15577,0.02225 -0.23265,0.00809l-6.86417,-1.19764z" fill="#d07f2a"/><path d="M188.16124,313.32823v1.73981l-2.33256,-1.21787z" fill="#d07f2a"/><path d="M188.16124,315.3452c-0.04451,0 -0.08901,-0.01012 -0.12947,-0.03237l-2.33256,-1.21787c-0.10317,-0.05462 -0.16184,-0.16791 -0.14768,-0.28323c0.01416,-0.11531 0.10115,-0.2104 0.21444,-0.23467l2.33256,-0.52194c0.08294,-0.01821 0.16791,0 0.23467,0.05462c0.06676,0.0526 0.1052,0.13352 0.1052,0.21647v1.73981c0,0.09711 -0.05058,0.18814 -0.13352,0.23872c-0.04451,0.0263 -0.09508,0.04046 -0.14364,0.04046zM186.63183,313.95538l1.25024,0.65344v-0.93262z" fill="#d07f2a"/><path d="M192.26801,313.08345c0.03439,0.80112 -0.52194,1.9846 -0.52194,1.9846l-1.94819,-1.9846c0,0 2.43574,-0.80112 2.47013,0z" fill="#d07f2a"/><path d="M191.74607,315.3452c-0.07485,0 -0.14566,-0.03035 -0.19826,-0.08294l-1.94819,-1.9846c-0.06676,-0.06878 -0.09508,-0.16791 -0.07283,-0.26097c0.02225,-0.09306 0.09306,-0.16791 0.1841,-0.19826c0.45923,-0.1497 1.99876,-0.61096 2.58342,-0.20635c0.15577,0.10722 0.24479,0.27109 0.25288,0.45923c0.03844,0.85979 -0.52397,2.0635 -0.54824,2.11408c-0.03844,0.08294 -0.11531,0.13959 -0.20433,0.15577c-0.01618,0.00202 -0.03035,0.00405 -0.04653,0.00405zM190.31983,313.21899l1.33116,1.35544c0.15173,-0.39247 0.35808,-1.01759 0.33785,-1.47884c0,-0.01618 0,-0.01821 -0.01416,-0.0263c-0.19826,-0.13757 -0.94274,-0.04046 -1.65687,0.1497z" fill="#d07f2a"/><path d="M194.39827,312.83259l2.04731,0.31155c0,0 -0.38438,2.23546 -0.59275,1.74791c-0.20837,-0.48553 -1.45456,-2.05743 -1.45456,-2.05743z" fill="#d07f2a"/><path d="M195.92162,315.24203c-0.08092,0 -0.23467,-0.03035 -0.32369,-0.23872c-0.15982,-0.37224 -1.07626,-1.56583 -1.41613,-1.99472c-0.07081,-0.08901 -0.08092,-0.21444 -0.02225,-0.31155c0.05665,-0.09913 0.16994,-0.15375 0.28323,-0.13554l2.04731,0.31155c0.07485,0.01214 0.13959,0.0526 0.1841,0.11329c0.04451,0.06069 0.06069,0.13554 0.04855,0.2104c-0.00405,0.01821 -0.0789,0.46125 -0.1841,0.91441c-0.19421,0.84765 -0.32571,1.10053 -0.58061,1.13088c-0.00809,0 -0.02023,0 -0.03439,0zM195.04564,313.21494c0.27311,0.3601 0.615,0.82135 0.84361,1.17943c0.07485,-0.26906 0.16184,-0.64737 0.23063,-1.01759l-1.07626,-0.16387z" fill="#d07f2a"/><path d="M204.79871,321.64494l-0.83551,-0.38235l0.83551,-0.73032z" fill="#d07f2a"/><path d="M204.79871,321.92412c-0.03844,0 -0.0789,-0.00809 -0.11531,-0.02428l-0.83551,-0.38235c-0.08497,-0.03844 -0.14566,-0.11936 -0.15982,-0.21242c-0.01416,-0.09306 0.02023,-0.18814 0.09306,-0.24883l0.83551,-0.73032c0.08294,-0.07283 0.19826,-0.08901 0.29739,-0.04451c0.09913,0.04451 0.16387,0.14364 0.16387,0.25288v1.11267c0,0.09508 -0.04855,0.18207 -0.12745,0.23467c-0.04653,0.02832 -0.09711,0.04451 -0.1497,0.04451zM204.46896,321.18976l0.05058,0.02225v-0.06676z" fill="#d07f2a"/><path d="M204.97269,325.0922l-1.0095,-0.55836l0.83551,-0.69593z" fill="#d07f2a"/><path d="M204.97269,325.36936c-0.04653,0 -0.09306,-0.01214 -0.13352,-0.03439l-1.0095,-0.55634c-0.08092,-0.04451 -0.13352,-0.12543 -0.14161,-0.21647c-0.00809,-0.09104 0.02832,-0.18207 0.09913,-0.24074l0.83551,-0.69593c0.07688,-0.06474 0.1841,-0.08294 0.27918,-0.04653c0.09508,0.03641 0.16184,0.12138 0.176,0.22051l0.17398,1.25226c0.01416,0.1052 -0.03035,0.20837 -0.11734,0.26704c-0.04653,0.03237 -0.10317,0.04855 -0.1578,0.04855zM204.45277,324.48731l0.16589,0.09104l-0.02832,-0.20635z" fill="#d07f2a"/><path d="M179.04139,323.48996l2.33256,0.76673l-2.33256,0.97308z" fill="#d07f2a"/><path d="M179.04139,325.50895c-0.05462,0 -0.10722,-0.01618 -0.15375,-0.04653c-0.07688,-0.05058 -0.12341,-0.13757 -0.12341,-0.23063v-1.73981c0,-0.08901 0.04248,-0.17398 0.11531,-0.22456c0.07283,-0.0526 0.16589,-0.06676 0.25086,-0.03844l2.33256,0.76673c0.11127,0.03641 0.18612,0.13757 0.19219,0.25288c0.00405,0.11531 -0.06271,0.22253 -0.16994,0.26704l-2.33256,0.9751c-0.03439,0.01416 -0.07081,0.02225 -0.10722,0.02225zM179.32057,323.87433v0.93869l1.25631,-0.52599z" fill="#d07f2a"/><path d="M179.28617,327.59672l2.57533,-0.24276l-2.08778,1.84501z" fill="#d07f2a"/><path d="M179.77373,329.47613c-0.0263,0 -0.05058,-0.00405 -0.07485,-0.01012c-0.09104,-0.0263 -0.16184,-0.09711 -0.19017,-0.18612l-0.48755,-1.60225c-0.02428,-0.08092 -0.01214,-0.16589 0.03439,-0.2367c0.04653,-0.06878 0.12138,-0.11329 0.20433,-0.12138l2.57533,-0.24276c0.11936,-0.01214 0.23265,0.05665 0.2812,0.16589c0.04855,0.10924 0.02023,0.23872 -0.07081,0.31964l-2.08778,1.84501c-0.05058,0.04451 -0.11734,0.06878 -0.1841,0.06878zM179.65234,327.84151l0.26299,0.86181l1.12279,-0.99129l-1.38578,0.1315z" fill="#d07f2a"/><path d="M182.66263,325.68293c-0.45316,-0.38235 0,-1.21787 0,-1.21787" fill="#d07f2a"/><path d="M182.66263,325.96211c-0.06271,0 -0.12745,-0.02225 -0.18005,-0.06676c-0.49362,-0.41675 -0.27311,-1.17943 -0.06474,-1.56381c0.07283,-0.13554 0.24276,-0.18612 0.37629,-0.11127c0.13554,0.07283 0.18612,0.24074 0.11329,0.37629v0c-0.08901,0.16589 -0.29132,0.68176 -0.06474,0.87395c0.11734,0.09913 0.1315,0.27513 0.03237,0.39247c-0.05462,0.06474 -0.13352,0.09913 -0.21242,0.09913z" fill="#d07f2a"/><path d="M187.70808,326.9008c-0.11531,0 -0.22456,-0.07283 -0.26299,-0.18814c-0.24681,-0.73032 -0.21849,-1.25631 0.08901,-1.56583c0.44102,-0.44507 1.21787,-0.20837 1.30486,-0.18005c0.14566,0.04855 0.22658,0.20433 0.17803,0.34999c-0.04855,0.14566 -0.20433,0.22658 -0.34999,0.17803c-0.17196,-0.05462 -0.58061,-0.11734 -0.73841,0.04248c-0.13959,0.14161 -0.12341,0.50374 0.04248,0.99533c0.04855,0.14566 -0.02832,0.30346 -0.17398,0.35201c-0.03035,0.01012 -0.06069,0.01416 -0.08901,0.01416z" fill="#d07f2a"/><path d="M178.79255,314.42674l3.64349,1.57595l-0.94274,2.32852z" fill="#d07f2a"/><path d="M181.49331,318.66096c-0.10722,0 -0.20837,-0.0526 -0.27109,-0.14161l-2.70076,-3.90446c-0.08294,-0.12138 -0.07688,-0.2812 0.01618,-0.39652c0.09306,-0.11329 0.25086,-0.15173 0.38438,-0.09306l3.64349,1.57595c0.16387,0.07081 0.24074,0.25895 0.17398,0.42484l-0.94274,2.32852c-0.04451,0.11127 -0.14768,0.19017 -0.26906,0.20433c-0.01214,0 -0.02428,0 -0.03641,0zM179.71708,315.18538l1.69935,2.45799l0.59275,-1.4667l-2.29413,-0.99331z" fill="#d07f2a"/><path d="M192.14056,325.24191c-0.02832,0 -0.05665,-0.00405 -0.08294,-0.01214c-0.05462,-0.01618 -5.39544,-1.68924 -7.20404,-0.76471c-0.30548,0.18612 -0.66963,0.42484 -0.7465,0.49969c-0.08294,0.11531 -0.24479,0.1497 -0.36819,0.07485c-0.1315,-0.0789 -0.17398,-0.25086 -0.09508,-0.38235c0.03035,-0.05058 0.10115,-0.16994 0.87193,-0.63928c-0.1578,-0.39652 -1.47075,-3.8903 0.63523,-5.49457c2.00685,-1.52739 4.18769,-0.50981 5.05962,0.24276c0.4916,0.42282 1.39792,1.3696 1.96032,2.97184c0.48148,1.3696 0.2549,3.18426 0.24479,3.25911c-0.01012,0.08092 -0.05665,0.15375 -0.12543,0.19826c-0.04451,0.02832 -0.09711,0.04451 -0.1497,0.04451zM184.11921,324.94452v0zM186.44166,323.63764c1.99067,0 4.54577,0.6939 5.45209,0.96094c0.04046,-0.56847 0.07283,-1.75802 -0.24883,-2.67446c-0.51992,-1.48086 -1.34937,-2.34875 -1.79848,-2.73515c-0.07081,-0.06069 -0.7202,-0.60287 -1.6771,-0.81731c-0.97106,-0.21849 -1.87333,-0.01821 -2.68255,0.5968c-1.74993,1.33318 -0.59882,4.47294 -0.45923,4.83506c0.40461,-0.11734 0.89014,-0.16589 1.4141,-0.16589z" fill="#855827"/><path d="M197.38428,324.95261c-0.09508,0 -0.18814,-0.04855 -0.24074,-0.13757c-0.06878,-0.11936 -1.68721,-2.93745 -0.27716,-5.57145c0.23872,-0.44709 0.54824,-0.95083 1.0277,-1.29879c0.68783,-0.50171 2.09182,-1.19157 3.77499,-0.17398c0.05058,0.03035 1.20775,0.76066 1.28261,2.89294c0.06069,1.73981 -0.38033,3.00826 -0.39854,3.06086c-0.03035,0.08901 -0.09913,0.15982 -0.18814,0.18207c-0.08901,0.02225 -0.17803,0.00405 -0.24681,-0.05665c-0.06676,-0.04451 -1.21382,-0.71818 -4.60444,1.07221c-0.04046,0.02225 -0.08497,0.03237 -0.12947,0.03237zM199.90296,317.79915c-0.68176,0 -1.25631,0.28323 -1.68114,0.59275c-0.38842,0.28323 -0.64535,0.70199 -0.86384,1.11267c-1.04186,1.94616 -0.19017,4.09261 0.14566,4.79258c2.66636,-1.35948 4.02989,-1.25226 4.61253,-1.06007c0.12138,-0.45721 0.31964,-1.40399 0.27918,-2.55712c-0.06271,-1.81264 -0.97915,-2.41348 -1.01759,-2.43776c-0.53004,-0.31964 -1.0277,-0.44305 -1.47682,-0.44305z" fill="#855827"/><path d="M195.28841,325.4341c-0.04046,0 -0.08092,-0.00809 -0.12138,-0.02832l-1.00545,-0.48351c-0.13757,-0.06676 -0.19623,-0.23265 -0.12947,-0.37224c0.06676,-0.13757 0.23265,-0.19623 0.37224,-0.12947l0.80922,0.38842l0.63523,-0.76066c0.09913,-0.11734 0.27311,-0.13352 0.39247,-0.03641c0.11734,0.09913 0.13352,0.27311 0.03641,0.39247l-0.7728,0.92857c-0.05462,0.06474 -0.13352,0.09913 -0.21444,0.09913z" fill="#855827"/><path d="M193.14601,327.86174c-0.58466,0 -1.22394,-0.11127 -1.90773,-0.33785c-1.3878,-0.45721 -2.46811,-1.20978 -2.51261,-1.24215c-0.12543,-0.08901 -0.15577,-0.26299 -0.06676,-0.38842c0.08901,-0.12543 0.26097,-0.15577 0.38842,-0.06676v0c0.04046,0.02832 4.01371,2.77561 6.1642,0.69997l-0.19623,-1.32914c-0.02225,-0.15173 0.08294,-0.29334 0.23467,-0.31559c0.15173,-0.02225 0.29334,0.08294 0.31559,0.23467l0.21647,1.4667c0.01214,0.08497 -0.01416,0.16994 -0.07283,0.23265c-0.65749,0.69593 -1.52537,1.04591 -2.56117,1.04591z" fill="#855827"/><path d="M196.5872,327.1031c-0.33582,0 -0.72627,-0.06069 -1.17539,-0.21849c-0.14566,-0.05058 -0.22051,-0.2104 -0.16994,-0.35403c0.05058,-0.14566 0.2104,-0.22051 0.35403,-0.16994c1.66698,0.5887 2.32043,-0.39652 2.34672,-0.439c0.08294,-0.12947 0.25288,-0.16791 0.38235,-0.08699c0.12947,0.08092 0.16994,0.25086 0.08901,0.38033c-0.02428,0.03844 -0.24479,0.38033 -0.72829,0.63119c-0.25895,0.13352 -0.62512,0.25693 -1.10256,0.25693z" fill="#855827"/><path d="M195.74561,331.924c-0.41675,0 -0.90834,-0.07688 -1.47479,-0.23265c-2.88283,-0.79303 -3.68395,-4.40011 -3.71632,-4.55386c-0.03237,-0.1497 0.06474,-0.29739 0.21444,-0.32976c0.1497,-0.03237 0.29739,0.06271 0.32976,0.21444v0c0.00809,0.03439 0.76471,3.43107 3.31981,4.13307c1.38578,0.38235 1.93402,0.16589 2.13835,0.00405c0.18814,-0.1497 0.2023,-0.34392 0.2023,-0.37022c-0.01012,-0.11531 -0.08901,-1.00545 -0.03844,-1.97449c0.07485,-1.46468 0.38842,-2.32043 0.96094,-2.61377c0.13757,-0.07081 0.30346,-0.01618 0.37426,0.12138c0.07081,0.13757 0.01618,0.30346 -0.12138,0.37426c-0.70199,0.35808 -0.75257,2.67446 -0.62107,4.05012c0,0.00405 0,0.01012 0,0.01416c0.00809,0.18207 -0.06878,0.56038 -0.41068,0.83349c-0.27513,0.22051 -0.66356,0.32976 -1.1592,0.32976z" fill="#855827"/><path d="M189.82216,316.92924c-0.09306,-0.03439 -0.06271,-0.17398 0.03641,-0.16387c0.7465,0.07688 1.91582,0.30346 2.40944,0.9569c0.58264,0.7728 -0.15982,0.69997 -0.52397,0.62714c-0.08901,-0.01821 -0.15982,-0.08901 -0.17196,-0.17803c-0.03439,-0.23063 -0.29132,-0.72222 -1.75195,-1.24417z" fill="#855827"/><path d="M197.80709,316.58735c-0.66963,0.23265 -0.97915,1.3696 -1.3615,1.09042c-0.38235,-0.27918 0,-0.69593 0,-0.69593c0.61703,-0.7202 2.02911,-0.62714 1.3615,-0.39449z" fill="#855827"/></g></g></g></svg>