<svg version="1.1" xmlns="http://www.w3.org/2000/svg" xmlns:xlink="http://www.w3.org/1999/xlink" width="54.38678" height="49.61934" viewBox="0,0,54.38678,49.61934"><g transform="translate(-160.3066,-308.69034)"><g data-paper-data="{&quot;isPaintingLayer&quot;:true}" fill-rule="nonzero" stroke="none" stroke-width="0" stroke-linecap="butt" stroke-linejoin="miter" stroke-miterlimit="10" stroke-dasharray="" stroke-dashoffset="0" style="mix-blend-mode: normal"><path d="M201.42442,319.68889c2.59247,1.03971 2.0697,4.93813 2.0697,4.93813" data-paper-data="{&quot;index&quot;:null}" fill="#cd4b55"/><g data-paper-data="{&quot;index&quot;:null}"><path d="M188.82937,353.60668l-0.45475,-1.61883c0,0 -3.88481,-1.92783 -5.42008,-1.64604c-1.53527,0.28179 -4.79626,-0.35758 -6.85624,-1.24376c-2.05998,-0.88618 -3.83623,-0.7929 -6.13136,-0.2196c-2.29319,0.5733 -3.62441,0.15936 -4.63885,0c-1.01444,-0.15936 -3.86927,-4.90509 -4.33179,-5.61054c-0.46252,-0.70544 0.59662,-1.92783 1.13105,-2.71684c0.53443,-0.78901 1.13299,-0.53249 2.15132,-0.73654c1.01639,-0.20406 3.63412,1.29623 3.63412,1.29623l1.41284,-0.55969l-0.7346,-5.46478c0,0 -4.33763,-4.54362 -4.62719,-4.48338c-0.28956,0.0583 -1.93754,-0.15158 -2.60218,-1.16214c-0.66464,-1.00862 -0.0583,-3.72546 0.44309,-5.0936c0.5014,-1.36814 2.75766,0.03498 2.75766,0.03498c0,0 -0.37895,-1.36425 0.92894,-1.03193c1.3079,0.33426 0.61994,2.56526 0.61994,2.56526l1.38174,0.77541c0,0 0.21183,0.56747 0.47807,-6.35679c0.26625,-6.92426 7.11277,-10.26882 7.11277,-10.26882l0.53443,3.59331c0,0 -1.08441,1.26319 3.29791,0.31871c4.38232,-0.94448 10.52145,1.12133 10.52145,1.12133l5.22769,-3.19492l-1.13299,6.06529" fill="#f2b65e"/><path d="M193.16309,313.05422c0,0 -0.61799,1.37979 0.50334,4.86816c1.12133,3.48837 -0.48001,14.0895 -0.48001,14.0895c0,0 4.10831,2.61578 7.50339,3.44172c3.39703,0.82594 2.68575,5.59888 1.72961,6.81349c-0.95614,1.21267 -2.89952,-0.11272 -3.9334,0.3226c-1.03388,0.43531 -2.01723,-1.37786 -2.01723,-1.37786l-1.89285,0.06996l1.2049,2.96948c0,0 3.73907,0.31094 5.07028,0.10494c1.33122,-0.206 4.19965,-1.92589 5.11692,-2.56915c0.91727,-0.64325 2.55749,-1.39728 4.82541,-1.05525c2.26987,0.34398 2.23489,3.00835 1.21073,5.0489c-1.02416,2.04055 -5.53474,4.19964 -8.306,4.3143c-2.77126,0.11466 -7.76575,-0.67435 -7.4276,0.13215c0.33815,0.80651 0.39451,3.40675 -0.73848,5.30543c-1.13299,1.89674 -3.76433,2.22322 -6.19938,1.51389c-2.43505,-0.70934 -0.46835,-3.35039 -0.46835,-3.35039" fill="#f2b65e"/><path d="M173.85565,323.78942c-2.35696,0 -4.26766,-1.76887 -4.26766,-3.95089c0,-2.18202 1.9107,-3.95089 4.26766,-3.95089c2.35696,0 4.26766,1.76887 4.26766,3.95089c0,2.18202 -1.9107,3.95089 -4.26766,3.95089z" fill="#f5dbbe"/><path d="M177.29542,320.68586c-2.03083,3.59913 -7.12443,-0.3537 -7.12443,-0.3537l0.52083,0.01749l6.60555,0.3362z" fill="#ffffff"/><path d="M189.35604,321.07841c-2.01917,2.16881 -5.57555,1.65187 -6.44813,1.3934c-0.87258,-0.25847 -2.03083,-1.66936 -2.03083,-1.66936l8.47896,0.27596" fill="#ffffff"/><path d="M194.5779,312.38373c0,0 -0.93088,6.31987 -0.27596,9.42345c0.65297,3.10552 -0.8959,10.31934 -0.8959,10.31934l-2.46809,1.43421c0,0 1.2632,-3.844 1.50418,-8.93371c0.24292,-5.08971 -0.412,-8.73938 -0.412,-8.73938l2.54583,-3.50391z" fill="#e49a2b"/><path d="M202.1357,336.50884c0,0 -5.62414,-1.90062 -11.19775,0.32066c-5.57361,2.22128 4.67577,-3.09192 4.67577,-3.09192c0,0 5.5775,1.2632 6.52198,2.77126" fill="#e49a2b"/><path d="M186.57895,337.61074c0,0 0.76569,2.75377 0.17685,3.80902c-0.58884,1.05525 -3.84789,-1.22433 -3.84789,-1.22433c0,0 1.56053,-3.27265 3.67104,-2.58469z" fill="#e49a2b"/><path d="M180.40677,337.99552c0,0 2.91313,-1.16797 1.03388,0.92116c-1.87924,2.08914 -5.34429,1.06692 -5.34429,1.06692z" fill="#e49a2b"/><path d="M212.55222,342.24957c1.21656,10.33101 -13.1936,8.04948 -15.28856,7.28962c-2.09497,-0.7618 -1.55665,-1.91617 -1.55665,-1.91617c14.31493,4.55334 16.84715,-5.37344 16.84715,-5.37344" fill="#e49a2b"/><path d="M163.53824,346.27043c0,0 -0.81233,-2.86649 1.81706,-3.44367c2.62745,-0.57718 3.23573,2.43894 3.23573,2.43894h2.8762l2.26987,2.25238c0,0 -4.45034,2.08525 -5.35207,2.08136c-0.90172,-0.00389 -4.73795,-2.06387 -4.84484,-3.32901" fill="#e49a2b"/><path d="M191.53456,339.146c5.35013,2.87037 4.17244,8.97258 4.17244,8.97258c0,0 1.24376,3.62634 0.7618,6.25379c-0.48195,2.62745 -3.71185,2.69547 -3.71185,2.69547c3.65356,-2.4778 1.57803,-6.42481 1.09607,-7.80072c-0.48196,-1.37591 -0.5733,-2.24849 -0.1477,-5.01586c0.4256,-2.76737 -2.17075,-5.10331 -2.17075,-5.10331z" fill="#e49a2b"/><path d="M175.08193,310.71825c0,0 -5.39871,5.7524 -5.39288,10.53506c0.00583,4.78266 1.1019,9.94038 0.75792,16.12033c0,0 0.49167,8.9376 5.6494,11.72441c5.15773,2.78681 -3.92368,-0.58107 -5.48033,-5.64357c-1.55665,-5.06251 -2.02889,-13.59977 -2.02889,-13.59977c0,0 -4.22296,-13.49288 6.49283,-19.13645z" fill="#fdd29e"/><path d="M170.08161,330.22202c0,0 2.38647,3.0064 4.5203,3.64772c2.13383,0.64326 -4.32985,-1.99585 -4.89537,-2.40979c-0.56553,-0.41394 0.37507,-1.23988 0.37507,-1.23988z" fill="#fdd29e"/><path d="M162.46161,324.0032c0.59661,-0.06997 1.67519,0.62382 1.67519,0.62382c0,0 -1.16991,0.68407 -1.16991,2.22128c0,1.53722 0.32066,3.25905 0.80262,3.47671c0.48196,0.21765 -1.65187,-0.01166 -2.06581,-0.8376c-0.412,-0.82593 -0.59662,-1.97253 -0.206,-3.28042c0.39062,-1.30789 0.3673,-2.13383 0.96392,-2.20379z" fill="#fdd29e"/><path d="M201.82282,336.41361c1.64022,0.52665 1.82484,3.28431 1.38952,5.18882c-0.43532,1.90452 -3.76238,0.11466 -4.12968,0.64715c-0.3673,0.53249 -1.64604,0.19434 -1.78985,-0.55192c-0.14381,-0.74626 0.3673,-3.23767 0.27596,-1.97642c-0.09134,1.2632 1.03193,1.85982 1.19323,1.11356c0.1613,-0.74625 0.94059,-1.06691 1.42255,-0.6005c0.48196,0.46641 1.44587,0.28956 1.95115,-0.62771c0.50528,-0.91728 -0.31094,-3.19103 -0.31094,-3.19103z" fill="#fdd29e"/><path d="M190.44046,357.29522c-3.57971,0.79873 -2.33206,-3.1405 -2.33206,-3.1405l0.4392,-2.44283l-4.6816,-1.60912c-2.20184,0.42171 -3.32317,0.41005 -7.9387,-1.45559c-4.61552,-1.86565 -3.76238,-4.19576 -3.76238,-4.19576c2.58275,4.60193 9.84516,5.0217 9.22522,4.09276c-0.618,-0.92893 -0.412,-1.65187 -0.412,-1.65187c0,0 0.41394,-1.82289 3.61469,1.22822c3.20075,3.05305 5.16356,2.90341 5.16356,2.90341v3.02973l0.18462,1.03193c0,0 0.98723,-0.86092 1.43421,0c0.44892,0.85897 -0.92894,2.20962 -0.92894,2.20962z" fill="#fdd29e"/><path d="M182.9079,347.0264c-1.42255,5.28599 -7.75214,0.59662 -7.75214,0.59662c0,0 -1.19518,-4.23073 -0.93282,-5.92536c0.26236,-1.69463 2.45449,-4.08692 6.02448,-1.90451c3.56999,2.18242 2.66049,7.23326 2.66049,7.23326z" fill="#fdd29e"/><path d="M211.99252,341.10882c0,0 -2.53611,-0.51888 -5.64357,1.79957c-3.10941,2.31846 -8.11167,2.65855 -9.8782,1.34288c-1.76653,-1.31761 1.63633,1.53138 7.02532,-1.21267c5.38899,-2.74406 5.869,-2.74406 8.49645,-1.92978" fill="#fdd29e"/></g><g data-paper-data="{&quot;index&quot;:null}" fill="#d07f2a"><path d="M203.38335,350.88791c-1.97836,0 -4.32985,-0.33815 -7.11277,-1.01833c-0.03692,-0.00777 -0.0719,-0.02137 -0.10494,-0.03692l-0.67241,-0.31871c-0.27596,-0.1302 -0.39257,-0.45863 -0.26236,-0.73265c0.1302,-0.27596 0.45863,-0.39257 0.73265,-0.26236l0.62188,0.29539c8.59557,2.09107 10.99953,0.42365 13.32381,-1.18935c0.07385,-0.05053 0.1477,-0.103 0.22155,-0.15353c1.34871,-0.92893 2.29513,-2.49335 2.35732,-3.8887c0.02527,-0.59274 -0.09911,-1.42839 -0.84731,-2.05027c-1.64993,-1.37202 -3.04139,-1.04165 -7.4412,1.75876c-3.64383,2.31845 -6.67162,1.57608 -8.12721,1.22044c-0.2468,-0.06024 -0.52665,-0.12826 -0.62382,-0.12826h-0.00583c-0.30123,0 -0.54804,-0.24292 -0.54998,-0.54609c-0.00194,-0.30316 0.24292,-0.55192 0.54609,-0.55386c0.2332,0.00194 0.50916,0.06802 0.89395,0.1613c1.40895,0.34398 4.02668,0.98529 7.27407,-1.08052c2.12411,-1.35065 3.70797,-2.25432 5.0489,-2.58081c1.38952,-0.33815 2.52639,-0.06025 3.68659,0.90367c0.85508,0.71127 1.29623,1.75681 1.24376,2.94616c-0.07773,1.75098 -1.18934,3.61274 -2.8315,4.74573c-0.0719,0.05052 -0.14575,0.10105 -0.2196,0.15158c-1.18158,0.82011 -2.52057,1.74904 -4.68549,2.14938c-0.7482,0.13798 -1.57025,0.20794 -2.46809,0.20794z"/><path d="M197.39775,349.06113c0,0 1.37785,-2.14938 -0.92894,-4.80792l2.63911,0.21183c0,0 2.60024,1.97253 0.7035,5.33846z"/><path d="M202.83921,349.95508c0,0 1.78985,-3.15216 -1.57608,-5.50754l2.5089,-0.99501c0,0 3.39508,1.54499 2.38647,6.13525z"/><path d="M208.37783,348.80849c0,0 1.22433,-5.12469 -3.10552,-6.33347l2.54,-1.50223c0,0 3.50392,0.89201 3.9781,5.25101l-3.48837,2.58469"/></g><path d="M181.83906,351.14249c-0.29345,0 -0.6044,-0.01166 -0.93477,-0.03692c-1.92394,-0.15353 -4.84679,-0.87258 -7.85125,-3.43395c-1.70823,-1.45754 -3.01029,-3.62052 -3.87121,-6.43259c-1.40118,-4.5786 -1.18546,-9.3496 -1.14465,-10.03367c-0.95031,-4.65245 -0.62771,-9.14749 -0.61411,-9.33794c0,-0.00194 0,-0.00583 0,-0.00583c0.19433,-2.28736 0.72099,-4.35511 1.56636,-6.14691c0.68018,-1.44394 1.56831,-2.71296 2.63911,-3.77016c1.83649,-1.81511 3.57193,-2.37675 3.64578,-2.40007c0.16324,-0.05247 0.34009,-0.02526 0.48001,0.07191c0.13992,0.09717 0.22738,0.25264 0.23515,0.42366l0.206,4.12968c0.01555,0.30316 -0.2196,0.56163 -0.52277,0.57718c-0.30316,0.01555 -0.56163,-0.2196 -0.57718,-0.52277l-0.16713,-3.34067c-0.60634,0.30316 -1.54693,0.87257 -2.52834,1.84232c-1.54304,1.52555 -3.46893,4.36289 -3.88287,9.22522c-0.00777,0.12438 -0.31872,4.61358 0.61022,9.10279c0.00972,0.04858 0.01361,0.09911 0.00972,0.14964c-0.00195,0.04859 -0.32843,5.06251 1.09412,9.71107c0.79873,2.60608 1.98613,4.59804 3.53306,5.91565c2.21546,1.88702 4.62719,2.95393 7.16913,3.16965c1.90062,0.1613 3.16576,-0.24098 3.17742,-0.24487c0.28956,-0.09522 0.6005,0.06219 0.69573,0.34981c0.09522,0.28956 -0.06025,0.6005 -0.34981,0.69573c-0.05053,0.01555 -1.04748,0.33815 -2.62162,0.33815z" data-paper-data="{&quot;index&quot;:null}" fill="#d07f2a"/><path d="M191.53069,358.30968c-0.2643,0 -0.53249,-0.01749 -0.80456,-0.05053c-1.44199,-0.17685 -2.47976,-0.76958 -2.52251,-0.79484c-0.02138,-0.0136 -0.04276,-0.0272 -0.06219,-0.04275c-0.51888,-0.40228 -0.81427,-0.93088 -0.85897,-1.53138c-0.07773,-1.05526 0.62771,-2.04444 0.97752,-2.46615l-0.10689,-0.91922c-3.23572,-0.60439 -6.30238,-4.14329 -6.43647,-4.3007c-0.19629,-0.23126 -0.17102,-0.57719 0.06024,-0.77541c0.22932,-0.19823 0.57719,-0.17296 0.77541,0.0583c0.0311,0.03692 3.20075,3.69048 6.15274,3.98587c0.25652,0.02526 0.46252,0.22737 0.49167,0.4839l0.18268,1.58385c0.01749,0.1613 -0.03692,0.32454 -0.14964,0.44309c-0.23903,0.24875 -0.90561,1.11744 -0.85314,1.82483c0.01943,0.28179 0.14964,0.51111 0.40422,0.71905c0.16907,0.09134 1.01055,0.515 2.11245,0.64326c1.59357,0.18657 2.97337,-0.309 4.10442,-1.47308c1.11744,-1.15048 1.45753,-2.64882 1.0125,-4.45228c-0.34787,-1.41089 -1.06692,-2.48558 -1.07275,-2.4953c-0.08745,-0.13021 -0.1166,-0.28957 -0.07968,-0.44115c0.00778,-0.03693 0.89979,-3.77405 -0.75014,-6.38789l-2.5089,-2.62356c-0.20989,-0.2196 -0.20211,-0.56747 0.01749,-0.77735c0.2196,-0.20989 0.56747,-0.20211 0.77735,0.01749l2.54583,2.66243c0.02332,0.02526 0.0447,0.05247 0.06413,0.08162c1.7024,2.63911 1.1602,6.12164 0.97169,7.05641c0.24681,0.40811 0.78513,1.38563 1.09218,2.60996c0.54803,2.18047 0.10494,4.08887 -1.28263,5.51725c-1.17963,1.21462 -2.64105,1.84427 -4.26183,1.84427z" data-paper-data="{&quot;index&quot;:null}" fill="#d07f2a"/><path d="M196.68452,341.65685l-2.44671,-0.27596c-0.30316,-0.03304 -0.51888,-0.30706 -0.48584,-0.60828c0.03304,-0.30316 0.30706,-0.51888 0.60828,-0.48584l2.44671,0.27596c0.30316,0.03304 0.51888,0.30706 0.48584,0.60828c-0.03109,0.28179 -0.27013,0.48973 -0.54609,0.48973c-0.02138,0 -0.04081,-0.00195 -0.06219,-0.00389z" data-paper-data="{&quot;index&quot;:null}" fill="#d07f2a"/><path d="M198.3811,343.38256c-0.28568,0 -0.6316,-0.07968 -1.02805,-0.31677c-1.74321,-1.04554 -0.75986,-3.8751 -0.71711,-3.99559c0.103,-0.28762 0.41782,-0.43726 0.7035,-0.33426c0.28762,0.103 0.43532,0.41782 0.33426,0.7035c-0.19239,0.5422 -0.56164,2.19602 0.24681,2.68186c0.24486,0.14576 0.44503,0.1924 0.59467,0.13604c0.24875,-0.09522 0.41588,-0.46446 0.45475,-0.58301c0.05442,-0.17491 0.19046,-0.31095 0.36536,-0.36536c0.1749,-0.05441 0.36535,-0.01749 0.50722,0.09717c0.27208,0.2196 1.20295,0.79873 1.89674,0.60439c0.39257,-0.11077 0.70156,-0.47613 0.92311,-1.08635c0.43726,-1.20878 0.35953,-2.43894 -0.2196,-3.45921c-0.78318,-1.38369 -2.40979,-2.35149 -4.70298,-2.80041l-4.87399,-0.9542c-0.07385,-0.00972 -0.14381,-0.03304 -0.20794,-0.06802c-0.23904,-0.13021 -0.34592,-0.41589 -0.25264,-0.67047c0.05053,-0.13798 0.15158,-0.24681 0.27596,-0.30705c0.04081,-0.0894 0.10883,-0.27985 0.18462,-0.64909c0.00195,-0.00388 0.00389,-0.00971 0.00389,-0.0136c0.01943,-0.08162 1.91228,-8.2924 0.48584,-13.53175c-0.02138,-0.07968 -0.02526,-0.1613 -0.01166,-0.24098l0.9678,-5.49199l-4.93813,2.79652c-0.14381,0.08162 -0.31482,0.09328 -0.46835,0.03498c-0.01555,-0.00583 -1.73932,-0.6588 -4.38815,-0.99112c-2.44672,-0.30705 -6.18578,-0.38867 -10.10363,0.96392c-0.28762,0.09911 -0.60051,-0.05247 -0.69962,-0.34009c-0.09911,-0.28762 0.05247,-0.60051 0.34009,-0.69962c4.11802,-1.42061 8.03782,-1.3351 10.59919,-1.01444c2.21739,0.2779 3.80708,0.76763 4.39592,0.9678l5.73686,-3.24933c0.18462,-0.10494 0.41394,-0.09328 0.58884,0.02915c0.1749,0.12244 0.26235,0.33427 0.22543,0.54415l-1.14854,6.52198c0.60245,2.30873 0.70351,5.34235 0.29734,9.02505c-0.29928,2.71879 -0.76764,4.75934 -0.80456,4.92064c-0.04081,0.19823 -0.08357,0.37313 -0.13021,0.52666l4.1394,0.81039c3.30764,0.64715 4.78849,2.1727 5.44924,3.33873c0.74043,1.30401 0.84537,2.85871 0.29734,4.37455c-0.34787,0.96586 -0.90756,1.56053 -1.66159,1.77236c-0.87258,0.24487 -1.77042,-0.12243 -2.32817,-0.4392c-0.1749,0.25069 -0.43337,0.51111 -0.79484,0.65103c-0.14186,0.05442 -0.31871,0.09717 -0.53054,0.09717z" data-paper-data="{&quot;index&quot;:null}" fill="#d07f2a"/><path d="M192.3819,358.24166c-0.206,0 -0.40423,-0.1166 -0.49751,-0.31677c-0.52083,-1.10384 0.25847,-2.12412 0.80067,-2.55166c0.23903,-0.18851 0.58495,-0.1477 0.77346,0.09134c0.18851,0.23903 0.1477,0.58495 -0.09134,0.77346c-0.00778,0.00583 -0.76569,0.62771 -0.48779,1.22044c0.12826,0.27596 0.01166,0.60244 -0.2643,0.73265c-0.0758,0.03498 -0.15547,0.05247 -0.23321,0.05247z" data-paper-data="{&quot;index&quot;:null}" fill="#d07f2a"/><path d="M189.43959,357.92877c-0.01943,0 -0.04081,-0.00195 -0.06024,-0.00389c-0.28762,-0.03304 -0.49556,-0.29345 -0.46252,-0.58107c0.15547,-1.3798 1.23405,-1.97448 1.28069,-1.99974l0.49751,0.92311h0.00389c-0.02721,0.01555 -0.64715,0.37507 -0.74043,1.19518c-0.02916,0.26819 -0.25653,0.46641 -0.52083,0.46641z" data-paper-data="{&quot;index&quot;:null}" fill="#d07f2a"/><path d="M187.88297,356.72192c-0.07385,0 -0.14964,-0.01555 -0.22155,-0.04664c-0.2779,-0.12243 -0.40422,-0.44698 -0.28179,-0.72488c0.3226,-0.73459 1.01638,-1.05525 1.37591,-1.1291c0.29734,-0.06024 0.58885,0.13215 0.64909,0.42949c0.06024,0.29734 -0.13215,0.58885 -0.42949,0.64909c-0.00583,0 -0.41782,0.10105 -0.58884,0.49167c-0.0894,0.206 -0.29151,0.32843 -0.50334,0.32843z" data-paper-data="{&quot;index&quot;:null}" fill="#d07f2a"/><path d="M167.33176,350.14746c-2.09108,0 -3.17743,-1.52361 -3.90425,-2.96171c-0.53054,-1.04942 -1.16214,-1.64993 -1.71989,-2.18047c-0.48391,-0.46058 -0.94254,-0.8959 -1.21656,-1.51778c-0.49362,-1.1155 0.10494,-2.02694 0.60633,-2.46226c0.23515,-0.81038 0.95031,-1.13687 1.54693,-1.1874c0.50139,-0.59273 1.27097,-0.64715 1.71017,-0.56941c3.10163,0.31872 4.80208,3.80125 4.87399,3.94895c0.13215,0.27402 0.01555,0.60245 -0.25847,0.7346c-0.27402,0.13215 -0.60439,0.01555 -0.7346,-0.25847c-0.01555,-0.03109 -1.50612,-3.08803 -4.01308,-3.33095c-0.02138,-0.00194 -0.03304,-0.00388 -0.05247,-0.00777c-0.06802,-0.01166 -0.54998,-0.07579 -0.75403,0.29734c-0.10494,0.19433 -0.31677,0.30511 -0.53637,0.28373c-0.00194,0 -0.19045,-0.01166 -0.37896,0.05053c-0.2196,0.07191 -0.32843,0.20406 -0.3673,0.44115c-0.02333,0.14964 -0.10883,0.28179 -0.23321,0.3673c-0.02915,0.01943 -0.73071,0.50722 -0.40228,1.24959c0.18462,0.41977 0.53054,0.7482 0.9678,1.16408c0.59273,0.56164 1.32927,1.2632 1.94532,2.4817c0.94059,1.85787 1.99002,2.86065 4.32013,2.11051c0.49362,-0.15936 0.91339,-0.309 1.28263,-0.44115c1.61495,-0.57524 2.50502,-0.89395 5.16939,-0.40228c0.29928,0.05442 0.49556,0.34204 0.44115,0.64132c-0.05442,0.29928 -0.34204,0.49556 -0.64132,0.44115c-2.37287,-0.43726 -3.02584,-0.20406 -4.59998,0.35758c-0.37896,0.13409 -0.8065,0.28762 -1.31567,0.45086c-0.64715,0.20794 -1.22044,0.29928 -1.73544,0.29928z" data-paper-data="{&quot;index&quot;:null}" fill="#d07f2a"/><path d="M168.38697,335.25922c-0.14187,0 -0.28373,-0.05441 -0.39062,-0.16324l-3.9198,-3.95089c-1.26125,0.19434 -2.51473,-0.50917 -3.1541,-1.37397c-0.52277,-0.70739 -0.41783,-2.3165 -0.34981,-2.97531c0.06996,-0.6588 0.30511,-2.27764 1.00278,-3.05499c0.52083,-0.58107 1.30984,-0.71905 2.22323,-0.38673c0.08357,0.0311 0.16324,0.06219 0.24098,0.09717c0.06025,-0.20406 0.16519,-0.39839 0.34398,-0.54609c0.23126,-0.19045 0.64909,-0.35563 1.32927,-0.06024c1.31956,0.57135 1.30013,2.38258 1.22822,3.14827l1.30206,0.97946c0.24292,0.18268 0.29151,0.5286 0.10883,0.77152c-0.18268,0.24292 -0.5286,0.29151 -0.77152,0.10883l-1.55859,-1.16991c-0.16519,-0.12438 -0.24681,-0.33038 -0.21183,-0.53443c0.08745,-0.4975 0.17296,-1.98419 -0.53637,-2.29124c-0.08745,-0.03887 -0.14964,-0.05636 -0.19045,-0.06413c-0.02138,0.11077 -0.01555,0.31677 0.01749,0.47418c0.04858,0.22349 -0.04859,0.45475 -0.24098,0.57913c-0.19239,0.12438 -0.44309,0.11466 -0.62771,-0.02332c-0.01166,-0.00971 -1.31178,-0.9367 -1.84038,-0.34786c-0.31871,0.35758 -0.61216,1.3351 -0.72682,2.43505c-0.12632,1.2049 0.00777,2.02889 0.13992,2.20574c0.46447,0.62771 1.45171,1.13688 2.29902,0.89784c0.1924,-0.05441 0.40034,0 0.54026,0.14187l4.12968,4.16466c0.21377,0.21766 0.21183,0.56553 -0.00389,0.7793c-0.10688,0.10689 -0.24681,0.15936 -0.38673,0.15936z" data-paper-data="{&quot;index&quot;:null}" fill="#d07f2a"/><path d="M194.12898,325.00209l-2.54777,-1.30789l2.54777,-0.46058z" data-paper-data="{&quot;index&quot;:null}" fill="#d07f2a"/><path d="M194.12899,325.55399c-0.08551,0 -0.17102,-0.01943 -0.2507,-0.06024l-2.54583,-1.30789c-0.20988,-0.10883 -0.32843,-0.33814 -0.29345,-0.57135c0.03498,-0.2332 0.21572,-0.41783 0.44698,-0.46058l2.54583,-0.46058c0.1613,-0.02915 0.32648,0.01361 0.45086,0.11855c0.12631,0.103 0.19822,0.25847 0.19822,0.42171v1.76848c0,0.1924 -0.10106,0.37119 -0.2643,0.4703c-0.0894,0.05247 -0.18851,0.07968 -0.28762,0.07968zM193.27778,323.94683l0.29928,0.15353v-0.20794z" data-paper-data="{&quot;index&quot;:null}" fill="#d07f2a"/><path d="M193.54402,329.13177l-2.85871,-1.8773h3.16771z" data-paper-data="{&quot;index&quot;:null}" fill="#d07f2a"/><path d="M193.54792,329.68369c-0.10689,0 -0.21183,-0.0311 -0.30317,-0.09134l-2.85677,-1.8773c-0.20405,-0.13409 -0.29539,-0.38478 -0.22543,-0.61799c0.06997,-0.2332 0.28374,-0.39256 0.52666,-0.39256h3.16576c0.1613,0 0.31483,0.07191 0.41977,0.19434c0.103,0.12243 0.14964,0.28567 0.12243,0.44503l-0.309,1.8773c-0.03109,0.18268 -0.15158,0.34009 -0.3226,0.41394c-0.07191,0.03109 -0.14576,0.04664 -0.22155,0.04664zM192.5257,327.80445l0.61216,0.40228l0.06607,-0.40228z" data-paper-data="{&quot;index&quot;:null}" fill="#d07f2a"/><path d="M167.96914,321.90436l0.2507,0.11077l1.36814,0.61216l-1.48085,0.60633" data-paper-data="{&quot;index&quot;:null}" fill="#d07f2a"/><path d="M168.10712,323.78164c-0.21572,0 -0.42172,-0.12826 -0.50917,-0.34203c-0.11466,-0.27985 0.01943,-0.60245 0.30122,-0.71711l0.29151,-0.11855l-0.44503,-0.19822c-0.2779,-0.12437 -0.40228,-0.44892 -0.2779,-0.72682c0.12437,-0.2779 0.44892,-0.40228 0.72682,-0.2779l1.61689,0.72294c0.20211,0.0894 0.33038,0.29151 0.32649,0.51111c-0.00388,0.22154 -0.13798,0.41782 -0.34203,0.50139l-1.48085,0.60633c-0.06802,0.02721 -0.13798,0.04081 -0.20794,0.04081z" data-paper-data="{&quot;index&quot;:null}" fill="#d07f2a"/><path d="M167.96915,325.13813l0.1749,0.0583l1.82289,0.59662l-1.58385,0.8959" data-paper-data="{&quot;index&quot;:null}" fill="#d07f2a"/><path d="M168.38307,327.23891c-0.19239,0 -0.37895,-0.10106 -0.48001,-0.27985c-0.14964,-0.2643 -0.05636,-0.6005 0.20794,-0.75014l0.49751,-0.28179l-0.81039,-0.26624c-0.28956,-0.09329 -0.44698,-0.40423 -0.35175,-0.69379c0.09329,-0.28956 0.40423,-0.44698 0.69379,-0.35175l1.99585,0.65298c0.20795,0.06801 0.35564,0.25069 0.37702,0.46835c0.02332,0.21766 -0.08551,0.42754 -0.27596,0.53443l-1.58385,0.8959c-0.08551,0.04859 -0.17879,0.07191 -0.27013,0.07191z" data-paper-data="{&quot;index&quot;:null}" fill="#d07f2a"/><path d="M194.12897,340.55107l0.515,-1.40312l0.37896,1.40312" data-paper-data="{&quot;index&quot;:null}" fill="#d07f2a"/><path d="M194.12704,340.85228c-0.03304,0 -0.06802,-0.00777 -0.103,-0.01943c-0.15547,-0.05636 -0.23515,-0.22932 -0.17879,-0.38479l0.51694,-1.40312c0.04469,-0.12243 0.16518,-0.20211 0.29539,-0.19628c0.13021,0.00583 0.24098,0.09523 0.27596,0.22155l0.37896,1.40312c0.04275,0.15936 -0.05247,0.32455 -0.21183,0.3673c-0.15936,0.04275 -0.32455,-0.05247 -0.3673,-0.21183l-0.13215,-0.49167l-0.19045,0.51694c-0.0447,0.12049 -0.15936,0.19628 -0.28179,0.19628z" data-paper-data="{&quot;index&quot;:null}" fill="#d07f2a"/><path d="M192.44213,339.14795l0.89395,-0.68796l-0.3226,1.52361" data-paper-data="{&quot;index&quot;:null}" fill="#d07f2a"/><path d="M193.01737,340.28095c-0.01944,0 -0.04081,-0.00194 -0.06219,-0.00583c-0.1613,-0.03498 -0.26624,-0.19434 -0.23126,-0.35564l0.15353,-0.72877l-0.24875,0.19239c-0.13215,0.10106 -0.32065,0.07774 -0.42171,-0.05441c-0.10106,-0.13215 -0.07774,-0.32065 0.05441,-0.42171l0.89395,-0.68796c0.09911,-0.07579 0.23514,-0.08162 0.34203,-0.01555c0.10688,0.06802 0.15935,0.19434 0.13409,0.31677l-0.3226,1.52555c-0.02915,0.14187 -0.15547,0.23904 -0.29345,0.23904z" data-paper-data="{&quot;index&quot;:null}" fill="#d07f2a"/><path d="M195.44464,345.86038c-1.50612,0.27596 -4.44839,-0.44698 -3.17548,-0.48196c1.27292,-0.03498 2.75377,-1.58385 2.75377,-1.58385c0.75791,0.55192 0.42171,2.06581 0.42171,2.06581z" data-paper-data="{&quot;index&quot;:null}" fill="#d07f2a"/><path d="M194.63621,346.22184c-0.5286,0 -1.04554,-0.06025 -1.37203,-0.10689c-0.60634,-0.08745 -1.3662,-0.24098 -1.53916,-0.46641c-0.07774,-0.10105 -0.09134,-0.23126 -0.03887,-0.34203c0.09717,-0.20211 0.33621,-0.22543 0.5733,-0.23126c1.13104,-0.03109 2.52445,-1.46919 2.54388,-1.49057c0.10495,-0.10883 0.27208,-0.12438 0.39451,-0.03498c0.90562,0.65881 0.55387,2.30291 0.53832,2.37287c-0.02527,0.11854 -0.12049,0.20988 -0.23904,0.23126c-0.27013,0.04859 -0.56747,0.06802 -0.86092,0.06802zM192.09815,345.69325zM195.18617,345.59414c0.05442,-0.38285 0.07385,-1.00278 -0.16907,-1.37397c-0.35564,0.33037 -1.09023,0.9542 -1.88702,1.26708c0.62772,0.10495 1.43422,0.17685 2.0561,0.10689z" data-paper-data="{&quot;index&quot;:null}" fill="#d07f2a"/><path d="M195.44271,346.89038c0,0 0.30123,1.27486 -0.21377,1.44782c-0.51694,0.1749 -4.61164,-1.06886 -2.95977,-1.03388c1.65381,0.03498 3.17548,-0.412 3.17548,-0.412z" data-paper-data="{&quot;index&quot;:null}" fill="#d07f2a"/><path d="M195.08512,348.65108c-0.412,0 -1.09607,-0.16324 -1.64993,-0.31677c-0.55581,-0.15352 -1.52361,-0.4528 -1.75487,-0.70933c-0.103,-0.11272 -0.12826,-0.25653 -0.06996,-0.38479c0.10494,-0.22932 0.38673,-0.24292 0.66658,-0.23709c1.58385,0.03303 3.06859,-0.39645 3.08414,-0.40034v0c0.07968,-0.02332 0.16324,-0.01166 0.23515,0.02915c0.07191,0.04081 0.12244,0.11077 0.14187,0.19045c0.06024,0.25847 0.32648,1.55276 -0.412,1.80151c-0.06219,0.01943 -0.14575,0.02915 -0.24292,0.02915zM195.13565,348.05251c0.08745,-0.03887 0.12243,-0.38867 0.06996,-0.78901c-0.42755,0.10494 -1.23793,0.27208 -2.1727,0.32649c0.80456,0.25264 1.86564,0.50722 2.10468,0.46252z" data-paper-data="{&quot;index&quot;:null}" fill="#d07f2a"/><path d="M169.58799,339.84951l2.23683,1.50029l-1.94921,0.25264z" data-paper-data="{&quot;index&quot;:null}" fill="#d07f2a"/><path d="M169.87755,341.90172c-0.14381,0 -0.27207,-0.10495 -0.29539,-0.2507l-0.28956,-1.75487c-0.01944,-0.11854 0.03303,-0.23709 0.13409,-0.30122c0.10105,-0.06413 0.23126,-0.06218 0.33037,0.00389l2.23683,1.50223c0.103,0.06996 0.15353,0.19628 0.12438,0.31871c-0.02915,0.12243 -0.1302,0.21377 -0.25458,0.22932l-1.94921,0.25264c-0.01361,0.00194 -0.02527,0.00194 -0.03887,0.00194zM169.9961,340.485l0.12826,0.78318l0.87063,-0.11272z" data-paper-data="{&quot;index&quot;:null}" fill="#d07f2a"/><path d="M170.44891,342.58967l1.89285,0.37896l-1.63633,0.82594z" data-paper-data="{&quot;index&quot;:null}" fill="#d07f2a"/><path d="M170.70543,344.09191c-0.0447,0 -0.0894,-0.00972 -0.13021,-0.02915c-0.08356,-0.04081 -0.14381,-0.1166 -0.16324,-0.20794l-0.25847,-1.2049c-0.02138,-0.09912 0.00972,-0.20211 0.07968,-0.27402c0.06996,-0.07191 0.17296,-0.103 0.27207,-0.08357l1.89285,0.37896c0.12632,0.02526 0.22155,0.12826 0.23904,0.25458c0.01749,0.12827 -0.04664,0.2507 -0.1613,0.309l-1.63438,0.82594c-0.04276,0.02138 -0.0894,0.03304 -0.13604,0.03304zM170.83758,342.97446l0.08162,0.37702l0.51111,-0.25847z" data-paper-data="{&quot;index&quot;:null}" fill="#d07f2a"/><path d="M185.1564,314.10945l-2.24849,1.97836v-1.97836z" data-paper-data="{&quot;index&quot;:null}" fill="#d07f2a"/><path d="M182.78353,316.35988c-0.10689,-0.04859 -0.17685,-0.15547 -0.17685,-0.27402v-1.97836c0,-0.16519 0.13409,-0.29928 0.29928,-0.29928h2.24849c0.12632,0 0.23709,0.07774 0.28179,0.19434c0.0447,0.11855 0.01166,0.2507 -0.08162,0.33232l-2.24849,1.97836c-0.05635,0.04859 -0.12631,0.07385 -0.19822,0.07385c-0.04276,0 -0.08551,-0.00972 -0.12438,-0.02721zM183.20914,314.40873v1.01444l1.15242,-1.01444z" data-paper-data="{&quot;index&quot;:null}" fill="#d07f2a"/><path d="M181.80601,314.10945l-1.85787,1.97836v-1.97836z" data-paper-data="{&quot;index&quot;:null}" fill="#d07f2a"/><path d="M179.95008,316.3871c-0.03692,0 -0.07579,-0.00778 -0.11077,-0.02138c-0.11466,-0.04664 -0.19045,-0.15742 -0.19045,-0.27985v-1.97836c0,-0.16519 0.13409,-0.29928 0.29928,-0.29928h1.85787c0.12049,0 0.22932,0.06996 0.27596,0.18073c0.04858,0.10882 0.02526,0.23709 -0.05636,0.32454l-1.85787,1.97836c-0.0583,0.06219 -0.13798,0.09523 -0.2196,0.09523zM180.24743,314.40873v0.91922l0.8648,-0.91922z" data-paper-data="{&quot;index&quot;:null}" fill="#d07f2a"/><path d="M177.91731,314.10945l-0.86092,1.63438l-0.3809,-1.40506z" data-paper-data="{&quot;index&quot;:null}" fill="#d07f2a"/><path d="M177.05445,316.04118c-0.01166,0 -0.02138,0 -0.03304,0c-0.12244,-0.0136 -0.22349,-0.10105 -0.25653,-0.2196l-0.37896,-1.40312c-0.02332,-0.08163 -0.00972,-0.16713 0.03498,-0.23904c0.0447,-0.07191 0.11855,-0.12049 0.20017,-0.13604l1.24182,-0.22932c0.11466,-0.02138 0.22932,0.02332 0.29734,0.1166c0.06802,0.09328 0.07773,0.21765 0.02332,0.31871l-0.86092,1.63438c-0.05247,0.09912 -0.15547,0.15936 -0.26624,0.15936zM177.36538,314.51561l-0.31288,0.0583l0.09523,0.3537l0.21572,-0.41005z" data-paper-data="{&quot;index&quot;:null}" fill="#d07f2a"/><path d="M167.91085,327.93466l-0.83565,0.68018v-1.36037z" data-paper-data="{&quot;index&quot;:null}" fill="#d07f2a"/><path d="M167.0752,328.91605c-0.04275,0 -0.08745,-0.00972 -0.12826,-0.02915c-0.10495,-0.05052 -0.17102,-0.15547 -0.17102,-0.27207v-1.36037c0,-0.1166 0.06608,-0.22154 0.17102,-0.27207c0.10494,-0.04858 0.22931,-0.03498 0.31871,0.03887l0.83565,0.68018c0.06996,0.05831 0.11077,0.14187 0.11077,0.23321c0,0.09134 -0.04081,0.17685 -0.11077,0.23321l-0.83565,0.68018c-0.05636,0.0447 -0.12243,0.06802 -0.19045,0.06802zM167.37448,327.88606v0.09717l0.06024,-0.04858z" data-paper-data="{&quot;index&quot;:null}" fill="#d07f2a"/><path d="M165.1632,346.77894c-0.69496,-1.20371 -0.75575,-2.46967 -0.13577,-2.82762c0.61998,-0.35794 1.68595,0.32768 2.38091,1.53139c0.69496,1.20371 0.75575,2.46967 0.13577,2.82762c-0.61998,0.35794 -1.68595,-0.32768 -2.38091,-1.53139z" data-paper-data="{&quot;index&quot;:null}" fill="#d07f2a"/><path d="M164.9025,346.93118c-0.35952,-0.62383 -0.57329,-1.28652 -0.6005,-1.86759c-0.03109,-0.65298 0.17296,-1.14077 0.57524,-1.37203c0.77346,-0.44697 1.99973,0.27402 2.79069,1.64216v0c0.35952,0.62383 0.57329,1.28652 0.6005,1.86759c0.03109,0.65298 -0.17296,1.14077 -0.57524,1.37203c-0.15547,0.0894 -0.32843,0.13215 -0.51305,0.13215c-0.73654,0 -1.64604,-0.68019 -2.27764,-1.77431zM165.17651,344.2124c-0.19434,0.11272 -0.29539,0.412 -0.27596,0.82205c0.02332,0.48778 0.20795,1.05331 0.52083,1.59551c0.65298,1.13299 1.56248,1.6577 1.97059,1.42255c0.19434,-0.11272 0.29539,-0.412 0.27596,-0.82205c-0.02332,-0.48778 -0.20795,-1.05331 -0.52083,-1.59551c-0.65298,-1.13299 -1.56248,-1.6577 -1.97059,-1.42255z" data-paper-data="{&quot;index&quot;:null}" fill="#d07f2a"/><path d="M164.53891,342.17688c-0.33483,-0.29375 -0.41462,-0.75033 -0.17821,-1.01981c0.23641,-0.26948 0.6995,-0.24981 1.03433,0.04393c0.33483,0.29375 0.41462,0.75033 0.17821,1.01981c-0.23641,0.26948 -0.6995,0.24981 -1.03433,-0.04393z" data-paper-data="{&quot;index&quot;:null}" fill="#d07f2a"/><path d="M162.71473,342.7505c-0.33483,-0.29375 -0.41462,-0.75033 -0.17821,-1.01981c0.23641,-0.26948 0.6995,-0.24981 1.03433,0.04393c0.33483,0.29375 0.41462,0.75033 0.17821,1.01981c-0.23641,0.26948 -0.6995,0.24981 -1.03433,-0.04393z" data-paper-data="{&quot;index&quot;:null}" fill="#d07f2a"/><path d="M161.87861,344.12299c-0.33483,-0.29375 -0.41462,-0.75033 -0.17821,-1.01981c0.23641,-0.26948 0.6995,-0.24981 1.03433,0.04393c0.33483,0.29375 0.41462,0.75033 0.17821,1.01981c-0.23641,0.26948 -0.6995,0.24981 -1.03433,-0.04393z" data-paper-data="{&quot;index&quot;:null}" fill="#d07f2a"/><path d="M192.65978,317.11975l-2.13383,-0.39062l3.00641,-2.86843z" data-paper-data="{&quot;index&quot;:null}" fill="#d07f2a"/><path d="M192.65978,317.27133c-0.00972,0 -0.02721,-0.00194 -0.02721,-0.00194l-2.13383,-0.39062c-0.05441,-0.00971 -0.10105,-0.05053 -0.1166,-0.10494c-0.01555,-0.05441 0,-0.11271 0.04081,-0.15158l3.00641,-2.86843c0.04858,-0.04664 0.12243,-0.05636 0.18073,-0.02138c0.0583,0.03304 0.08551,0.103 0.06802,0.16713l-0.87258,3.25905c-0.01943,0.06607 -0.07968,0.11077 -0.14575,0.11077zM190.84273,316.6339l1.70823,0.31288l0.69767,-2.60801z" data-paper-data="{&quot;index&quot;:null}" fill="#d07f2a"/><path d="M174.49696,321.56232c-0.36385,0 -0.65881,-0.29496 -0.65881,-0.65881c0,-0.36385 0.29496,-0.65881 0.65881,-0.65881c0.36385,0 0.65881,0.29496 0.65881,0.65881c0,0.36385 -0.29496,0.65881 -0.65881,0.65881z" data-paper-data="{&quot;index&quot;:null}" fill="#000000"/><path d="M184.31491,322.00152c-0.36385,0 -0.65881,-0.29496 -0.65881,-0.65881c0,-0.36385 0.29496,-0.65881 0.65881,-0.65881c0.36385,0 0.65881,0.29496 0.65881,0.65881c0,0.36385 -0.29496,0.65881 -0.65881,0.65881z" data-paper-data="{&quot;index&quot;:null}" fill="#000000"/><path d="M184.68416,323.06453c-0.38284,0 -0.75597,-0.04081 -1.11744,-0.12243c-1.97253,-0.44698 -2.86843,-1.94921 -2.90535,-2.01334c-0.04664,-0.07968 -0.04664,-0.17684 0,-0.25458c0.04664,-0.07968 0.13409,-0.12437 0.22349,-0.12243l8.47896,0.27596c0.10688,0.00388 0.20017,0.07773 0.23126,0.18073c0.0311,0.103 -0.00971,0.21572 -0.09911,0.27596c-1.73544,1.18547 -3.34845,1.78014 -4.81181,1.78014zM181.38819,321.07064c0.38284,0.44115 1.13687,1.12522 2.29707,1.38563c1.42644,0.31871 3.05694,-0.06996 4.85845,-1.15437z" data-paper-data="{&quot;index&quot;:null}" fill="#855827"/><path d="M174.51055,322.42128c-0.68018,0 -1.31372,-0.14381 -1.85204,-0.33232c-1.53333,-0.53831 -2.6119,-1.52944 -2.6566,-1.57219c-0.07579,-0.06996 -0.09911,-0.18073 -0.06024,-0.2779c0.03887,-0.09717 0.13604,-0.15936 0.23904,-0.15547l7.74437,0.25264c0.09911,0.00195 0.18657,0.06413 0.22349,0.15353c0.03693,0.08939 0.01749,0.19433 -0.04858,0.26624c-1.18157,1.2632 -2.4506,1.66548 -3.58942,1.66548zM170.92115,320.60811c0.44503,0.31677 1.11355,0.73071 1.90451,1.00861c1.70434,0.59856 3.21435,0.33038 4.49698,-0.80067z" data-paper-data="{&quot;index&quot;:null}" fill="#855827"/><path d="M178.91427,323.30939c-0.11077,0 -0.22349,-0.0136 -0.33232,-0.04275c-0.41005,-0.10882 -0.71322,-0.41782 -0.89978,-0.91727c-0.04664,-0.13021 0.01749,-0.27402 0.1477,-0.3226c0.13021,-0.04664 0.27402,0.01749 0.3226,0.1477c0.12826,0.34204 0.31094,0.54221 0.55969,0.60828c0.53443,0.14381 1.28846,-0.35175 1.53527,-0.55386v0c0.10688,-0.08745 0.2643,-0.07385 0.35175,0.03304c0.08745,0.10688 0.07385,0.2643 -0.03304,0.35175c-0.03887,0.0311 -0.84926,0.69379 -1.64993,0.69379z" data-paper-data="{&quot;index&quot;:null}" fill="#855827"/><path d="M178.73353,324.59787c-0.13798,-0.01166 -0.24098,-0.13215 -0.22932,-0.27013l0.09134,-1.11356c0.01166,-0.13798 0.13215,-0.24098 0.27013,-0.22932c0.13798,0.01166 0.24098,0.13215 0.22932,0.27013l-0.09134,1.11356c-0.00971,0.13021 -0.12049,0.22932 -0.24875,0.22932c-0.00778,0 -0.01361,0 -0.02138,0z" data-paper-data="{&quot;index&quot;:null}" fill="#855827"/><path d="M182.51922,325.38883c-0.02137,0 -0.04081,-0.00388 -0.06024,-0.00777c-4.2113,-1.02611 -7.13609,-0.16325 -7.16524,-0.15353v0c-0.13215,0.04081 -0.27207,-0.03304 -0.31288,-0.16519c-0.04081,-0.13215 0.03304,-0.27207 0.16519,-0.31288c0.12438,-0.03693 3.07637,-0.91339 7.42954,0.14575c0.13409,0.03304 0.21766,0.16908 0.18462,0.30317c-0.0272,0.11466 -0.1302,0.19045 -0.24292,0.19045z" data-paper-data="{&quot;index&quot;:null}" fill="#855827"/><path d="M174.23266,325.13425c-0.12243,0 -0.22932,-0.09134 -0.24681,-0.21572c-0.09912,-0.69378 0.32648,-0.9678 0.56552,-1.01444c0.13604,-0.02721 0.26624,0.06024 0.29345,0.19628c0.02721,0.13409 -0.06024,0.26624 -0.19628,0.29345c-0.00971,0.00195 -0.22737,0.04859 -0.16907,0.45281c0.01943,0.13798 -0.07579,0.2643 -0.21183,0.28373c-0.01166,0.00194 -0.02332,0.00194 -0.03498,0.00194z" data-paper-data="{&quot;index&quot;:null}" fill="#855827"/><path d="M167.91085,342.23988c-0.22932,0 -0.44309,-0.14187 -0.52083,-0.37119c-0.09912,-0.28762 0.05441,-0.60051 0.34203,-0.69962l1.79568,-0.61605c0.28762,-0.09912 0.60051,0.05441 0.69962,0.34203c0.09912,0.28762 -0.05441,0.60051 -0.34203,0.69962l-1.79568,0.61605c-0.06024,0.01943 -0.12049,0.02915 -0.17879,0.02915z" data-paper-data="{&quot;index&quot;:null}" fill="#d07f2a"/><g data-paper-data="{&quot;index&quot;:null}"><path d="M212.00226,336.0094c-0.59662,0.59662 -2.01917,0.89395 -3.47282,1.03582c-2.01917,0.19823 -4.09859,0.10106 -4.09859,0.10106c0,0 -1.37786,-1.87342 -3.00641,-2.75766c-1.6305,-0.88424 -5.34624,-0.86091 -7.29739,0.32066c-1.95116,1.18157 -8.57808,2.69741 -8.57808,2.69741l-0.20988,0.75597c0.82788,2.15715 -0.54998,2.94811 -0.54998,2.94811c0,0 -1.02222,-0.58301 -1.88119,-0.91533c-0.85897,-0.33231 -1.83649,-2.58469 -1.83649,-2.58469h-0.66464c-1.20879,1.88313 -4.47561,2.18241 -4.31042,1.53721c0.16518,-0.6452 1.19906,-1.74321 1.19906,-1.74321c0,0 -3.59331,-0.34592 -4.69715,-0.66658c-1.10384,-0.3226 -3.63218,-1.83649 -3.63218,-1.83649l-0.18851,-3.10941c0,0 4.93036,2.25626 8.69274,3.55638c3.76044,1.30012 10.51951,-0.84925 11.17249,-0.83565c0.65298,0.01554 7.61805,-2.54777 10.95289,-3.35039c3.33484,-0.80262 6.08278,0.62965 7.94842,2.18047c1.86564,1.54887 4.45811,2.66437 4.45811,2.66437z" fill="#68a7d9"/><path d="M197.88942,332.1926c0,0 4.86428,0.21377 6.90871,1.88508c2.04444,1.67131 4.39981,2.86454 5.77378,2.62162c1.37396,-0.24292 -4.04223,0.67435 -5.2996,0.33815c-1.25736,-0.33814 -4.55917,-3.64772 -5.86706,-3.69436c-1.30789,-0.04664 -2.43311,-1.14854 -2.43311,-1.14854l0.22932,-0.18268l0.68601,0.18073z" fill="#2aa0cf"/><path d="M189.43765,336.40974c-1.62855,1.21656 -4.7399,0.88424 -4.7399,0.88424l-1.51195,-1.60912l3.10941,-0.74626c0,0 -0.9095,0.28567 -0.42754,1.08246c0.48196,0.79678 3.56999,0.38673 3.56999,0.38673z" fill="#2aa0cf"/><path d="M176.67352,338.16266c-0.01749,0 -0.03692,-0.00194 -0.05441,-0.00194c-4.2735,-0.41783 -8.13499,-2.50113 -8.29629,-2.58858c-0.17685,-0.09717 -0.28762,-0.28179 -0.28762,-0.4839v-3.92368c0,-0.20794 0.11855,-0.39839 0.30317,-0.49167c0.18656,-0.09329 0.40811,-0.07385 0.57524,0.04858c0.04276,0.0311 4.28515,3.13467 9.12028,4.19576c4.88565,1.07274 12.67277,-1.72378 15.01649,-2.78681c2.61579,-1.18935 4.37455,-0.08357 4.59221,0.06607l1.5275,0.95614c0.20794,0.13021 0.30316,0.3809 0.23709,0.61605c-0.06607,0.23515 -0.27984,0.40034 -0.52471,0.40034c-0.0311,0.00194 -3.09192,0.04275 -6.1644,1.83066c-3.31929,1.92978 -7.91732,2.06581 -8.11166,2.0697c-0.30317,0.00778 -0.55581,-0.2332 -0.56358,-0.53637c-0.00778,-0.30317 0.2332,-0.55581 0.53637,-0.56358c0.0447,0 4.5067,-0.13021 7.58501,-1.92006c1.90451,-1.10579 3.78376,-1.59357 5.06833,-1.80929l-0.18462,-0.1166c-0.00971,-0.00778 -0.02137,-0.01361 -0.03109,-0.02138c-0.0136,-0.00972 -1.3487,-0.95032 -3.50974,0.03109c-1.36619,0.61993 -3.97227,1.58968 -6.82709,2.27958c-3.63606,0.88035 -6.62304,1.07469 -8.8793,0.57913c-3.78182,-0.83176 -7.12832,-2.78875 -8.6597,-3.7857v2.54388c0.96003,0.48001 4.18604,1.97836 7.59084,2.31262c0.30123,0.02915 0.52277,0.29733 0.49362,0.6005c-0.02915,0.28568 -0.26818,0.49751 -0.54803,0.49751z" fill="#3883c4"/><path d="M185.52176,341.66072c-0.02721,0 -0.05441,-0.00194 -0.08162,-0.00583c-0.10689,-0.01554 -2.58859,-0.41005 -3.90814,-2.25043c-0.26042,-0.36535 -0.45864,-0.75986 -0.59079,-1.18157c-0.63354,0.72488 -1.50417,1.28652 -2.58275,1.65965c-1.26514,0.43726 -2.37287,0.46058 -2.41951,0.46058c-0.18268,0.00389 -0.3537,-0.08356 -0.45864,-0.23126c-0.10494,-0.1477 -0.12826,-0.33815 -0.06607,-0.50917c0.82594,-2.22711 2.39425,-3.32512 3.56416,-3.85372c1.26126,-0.56941 2.334,-0.61605 2.3787,-0.61605c0.03109,-0.00194 0.06219,0 0.09328,0.00389c0.05247,0.00778 1.28457,0.18268 2.46809,1.00473c1.11355,0.77346 2.38841,2.26987 2.15326,5.01586c-0.0136,0.15158 -0.08939,0.29151 -0.20794,0.38479c-0.09717,0.07774 -0.21766,0.11855 -0.34009,0.11855zM182.42401,338.75733c0.69378,0.97169 1.86175,1.44976 2.57303,1.66159c-0.04858,-2.78487 -2.10274,-3.74878 -3.12884,-4.05778c-0.10105,0.93088 0.08551,1.73738 0.55581,2.39619zM180.75659,336.44082c0.00195,-0.03886 0.00583,-0.07773 0.00972,-0.1166c-0.97169,0.19822 -2.83539,0.82982 -3.9334,2.8179c1.1874,-0.20794 3.19491,-0.83177 3.92368,-2.70324z" fill="#3883c4"/><path d="M183.18581,339.4511c-0.2779,0 -0.55192,-0.13215 -0.72099,-0.37896l-1.30984,-1.90451l-2.25238,1.29623c-0.41782,0.23904 -0.95225,0.09717 -1.19323,-0.3226c-0.24098,-0.41782 -0.09523,-0.95225 0.3226,-1.19323l2.95199,-1.69851c0.39451,-0.22737 0.89784,-0.11271 1.15631,0.26236l1.76653,2.56915c0.27402,0.3984 0.17296,0.94254 -0.22543,1.21656c-0.15158,0.103 -0.32454,0.15353 -0.49556,0.15353z" fill="#3883c4"/><path d="M206.1624,337.9547c-1.5683,0 -2.17658,-0.32649 -2.38258,-0.66464c-0.19628,-0.26624 -2.23877,-2.92479 -4.94007,-3.12301c-0.30317,-0.02137 -0.53055,-0.28567 -0.50917,-0.58884c0.02137,-0.30317 0.28567,-0.53055 0.58884,-0.50917c3.23573,0.23709 5.52697,3.26682 5.75629,3.5797c0.10883,0.06025 0.78902,0.36147 3.2299,0.09523c2.17075,-0.23709 3.3154,-0.55775 4.18215,-0.94448c-0.35953,-0.06607 -0.74432,-0.15935 -1.15437,-0.2779c-2.025,-0.5869 -3.12495,-1.45948 -4.09664,-2.22906c-1.19712,-0.94837 -2.22906,-1.76653 -4.83513,-1.97253c-2.69936,-0.21377 -7.37513,1.43033 -7.42177,1.44782c-0.28762,0.103 -0.60244,-0.04858 -0.7035,-0.33426c-0.10106,-0.28762 0.04858,-0.60244 0.33426,-0.7035c0.20017,-0.0719 4.94396,-1.73932 7.87652,-1.50806c2.94033,0.23126 4.20547,1.23599 5.43174,2.20768c0.93476,0.74237 1.90062,1.50806 3.71768,2.03472c0.75403,0.21766 1.40312,0.33815 1.93172,0.35564c0.35758,0.01166 0.65297,0.25264 0.73848,0.59856c0.08551,0.34592 -0.06607,0.69768 -0.37507,0.87258c-1.12522,0.64132 -2.31651,1.19907 -5.50754,1.54693c-0.73654,0.07968 -1.35065,0.11466 -1.8637,0.11466zM204.74566,336.76537zM204.74566,336.76537c-0.00194,0 -0.00194,-0.00389 -0.00194,-0.00389c0.00194,0 0.00194,0.00389 0.00194,0.00389zM204.74177,336.75954zM204.74177,336.75954zM204.65821,336.63905z" fill="#3883c4"/><path d="M212.55804,337.82062c-0.16519,0 -0.33426,-0.01943 -0.50139,-0.06024c-0.18462,-0.0447 -4.55528,-1.12133 -7.88818,-4.45811c-0.83565,-0.83566 -0.83565,-2.19019 0,-3.0239c0.83566,-0.83565 2.19019,-0.83565 3.0239,0c2.45644,2.45643 5.82431,3.31346 5.86901,3.32512c1.1427,0.27985 1.84815,1.43033 1.57219,2.57692c-0.23515,0.9814 -1.11161,1.64021 -2.07747,1.64021z" fill="#3883c4"/></g><g data-paper-data="{&quot;index&quot;:null}"><g><path d="M194.39717,319.20499c1.95698,0.58107 -0.26819,0.82594 -0.26819,0.82594l-26.21813,-1.14659l0.47224,-1.55082c0,0 6.67745,-0.65103 12.02369,-0.55969c5.34623,0.09328 13.98844,2.43311 13.98844,2.43311z" fill="#cd4b55"/><path d="M194.39522,318.32853c0,0 -0.06025,-2.42534 2.8762,-4.46783c2.93645,-2.04249 2.14355,-4.71852 2.14355,-4.71852l5.38316,1.16214c0,0 -0.55775,3.98198 -4.06749,5.1072c-3.51168,1.12522 -4.98671,1.80734 -5.89038,3.39897" fill="#cd4b55"/><g><path d="M195.66619,319.34494c0,0 1.63244,-0.99501 3.67104,-0.412c2.0386,0.58302 3.3601,1.75293 3.3601,1.75293c0,0 0.75792,1.26319 0.79679,2.31456c0.04082,1.05136 0.24876,1.86758 -0.46252,1.88313c-0.71128,0.01554 -2.68575,-0.25653 -2.68575,-0.25653c0,0 0.5286,-4.29487 -4.56694,-4.93813c0,0 -0.2779,-0.04664 -0.11466,-0.34398z" fill="#cd4b55"/><path d="M203.61462,313.05421c-0.22543,0.37507 -1.46919,1.80346 -2.60024,2.437c-1.13105,0.63354 -3.71574,0.50528 -5.0936,2.06581c-1.37591,1.56053 -1.42255,1.01444 -1.42255,1.01444c0,0 -0.10494,-1.36425 0.30511,-2.48364c0.40811,-1.11939 3.81291,-3.90036 2.07164,-2.01917c-0.99696,1.07857 -1.04554,2.69935 -1.04554,2.69935c0,0 0.79873,-1.75099 3.25905,-2.19408c1.61883,-0.2915 4.52807,-1.51972 4.52807,-1.51972z" fill="#b73949"/><path d="M202.90334,321.06287c-5.52308,-3.56027 -2.7149,1.79373 -3.34261,0.6005c-0.62771,-1.19323 -3.94506,-1.88119 -3.94506,-1.88119l-0.07968,-0.54998c0,0 -4.36678,1.35259 0.25458,-0.1613c4.61941,-1.51584 7.11082,1.99196 7.11082,1.99196z" fill="#b73949"/></g></g><path d="M194.83831,320.61978c-0.00583,0 -0.01555,0 -0.01555,0l-27.34529,-1.07858c-0.11466,-0.00583 -0.2196,-0.06025 -0.28762,-0.15353c-0.06801,-0.09328 -0.08939,-0.20989 -0.06024,-0.32066l0.46835,-1.72961c0.03498,-0.12826 0.13604,-0.22932 0.2643,-0.2643c0.05247,-0.0136 5.48421,-1.4517 12.79715,-0.91727c7.28961,0.53249 14.57145,2.62745 14.64336,2.64883c0.09329,0.0272 0.17297,0.08939 0.22155,0.1749c0.27013,0.47419 0.31289,0.87452 0.13021,1.18935c-0.25458,0.4392 -0.81622,0.45086 -0.81622,0.45086zM194.81499,319.86963zM194.93936,319.4829c-1.08246,-0.30317 -7.70744,-2.09302 -14.33436,-2.57692c-6.38206,-0.46641 -11.29298,0.59078 -12.34046,0.84148l-0.28762,1.06109l26.85167,1.05914c0.06996,-0.00972 0.1613,-0.04276 0.17879,-0.07774c0.01555,-0.02915 0.0175,-0.12632 -0.06607,-0.30705z" fill="#a81f23"/><path d="M203.49413,325.51319c-0.00972,0 -0.01943,0 -0.02915,0l-3.33095,-0.25653c-0.11272,-0.00972 -0.21572,-0.06802 -0.27985,-0.1613c-0.06413,-0.09328 -0.08162,-0.20988 -0.05053,-0.31871c0.00389,-0.01554 0.45281,-1.59162 -0.43726,-2.84899c-0.68406,-0.9678 -1.98613,-1.51 -3.86732,-1.61106c-0.206,-0.01166 -0.36536,-0.18851 -0.3537,-0.39451c0.00583,-0.08939 0.04081,-0.16907 0.09717,-0.23126c-0.04469,-0.01944 -0.08551,-0.04859 -0.12243,-0.08551c-0.14187,-0.14964 -0.13604,-0.38867 0.0136,-0.53054c0.08163,-0.07968 2.06582,-1.89868 6.05946,-0.06996c2.12606,0.97363 2.73628,2.63133 2.87426,3.84983c0.14575,1.29818 -0.20017,2.35926 -0.21572,2.40396c-0.05053,0.15353 -0.19434,0.25653 -0.35564,0.25653zM196.91967,319.04563c-0.67824,0.14769 -1.08441,0.42365 -1.22239,0.53054c2.0386,0.13798 3.47864,0.78319 4.28126,1.91812c0.78707,1.11356 0.73654,2.38647 0.63743,3.04722l2.59635,0.20017c0.08163,-0.36147 0.1924,-1.03777 0.10689,-1.80346c-0.16713,-1.49251 -0.98918,-2.58663 -2.44088,-3.25127c-1.0708,-0.48973 -2.09302,-0.74043 -3.00835,-0.74043c-0.33232,0 -0.64909,0.03304 -0.95031,0.09911z" fill="#a81f23"/><path d="M194.85578,319.44404c-0.07385,0 -0.1477,-0.02137 -0.21377,-0.06607c-0.14769,-0.10106 -0.19822,-0.28956 -0.13409,-0.44892c-0.02138,0.00583 -0.04081,0.01166 -0.06219,0.0136c-0.20599,0.02721 -0.3945,-0.1166 -0.42171,-0.3226c0,-0.00972 -0.0136,-0.11077 -0.01749,-0.28179c-0.0136,-0.70739 0.14964,-3.14439 2.84122,-4.79626c2.72656,-1.67131 1.89868,-4.24628 1.86176,-4.35317c-0.0447,-0.12827 -0.01555,-0.27013 0.07385,-0.37119c0.0894,-0.103 0.22738,-0.1477 0.35953,-0.11855l5.73686,1.23793c0.17684,0.03887 0.30122,0.19822 0.29539,0.3809c-0.00194,0.04081 -0.04275,1.00278 -0.46058,2.11051c-0.56552,1.4964 -1.5547,2.54194 -2.86065,3.02195c-0.82594,0.30317 -1.52361,0.45086 -2.13966,0.58107c-1.61883,0.34398 -2.68963,0.56941 -4.55139,3.25322c-0.07385,0.10494 -0.19045,0.1613 -0.309,0.1613zM204.39586,310.6036l-4.84096,-1.04554c0.04664,0.32843 0.0719,0.76569 0.00777,1.25931c-0.12632,0.96197 -0.6316,2.32817 -2.32234,3.36593c-2.35149,1.44199 -2.49336,3.53307 -2.4817,4.1394c0.00194,0.12826 0.01166,0.20211 0.01166,0.20211v0c0,0.00583 0,0.01166 0,0.01749c1.90646,-2.63328 3.1852,-2.90341 4.78849,-3.2435c0.61994,-0.13215 1.26126,-0.26624 2.03472,-0.55192c2.1863,-0.80456 2.68964,-3.27071 2.80041,-4.14523z" fill="#a81f23"/><path d="M171.46334,316.79715c8.47508,-1.63244 23.73449,2.37092 23.73449,2.37092l0.00389,0.9542l-19.98182,-0.64909c0,0 14.61033,0.37313 14.43348,-0.72294c-0.17685,-1.09607 -18.18809,-1.95504 -18.18809,-1.95504z" fill="#b73949"/></g></g></g></svg>