<svg version="1.1" xmlns="http://www.w3.org/2000/svg" xmlns:xlink="http://www.w3.org/1999/xlink" width="52.58144" height="51.103" viewBox="0,0,52.58144,51.103"><g transform="translate(-161.20928,-307.9485)"><g data-paper-data="{&quot;isPaintingLayer&quot;:true}" fill-rule="nonzero" stroke="none" stroke-width="0" stroke-linecap="butt" stroke-linejoin="miter" stroke-miterlimit="10" stroke-dasharray="" stroke-dashoffset="0" style="mix-blend-mode: normal"><g data-paper-data="{&quot;index&quot;:null}"><path d="M196.02826,350.32743c0,0 -0.12329,2.95509 0,4.59172c0.1233,1.63862 0.6642,2.77413 -0.05369,2.98293c-0.71789,0.21477 -4.49427,0.93664 -6.10903,0.64829c-1.61476,-0.28835 -2.96503,-0.74573 -2.96503,-0.74573v-2.17952l1.12357,-0.97045l1.49942,-0.67215l-0.3321,-1.27271l-0.9267,-0.49318l-1.86731,-0.43948l-0.97045,-0.49318l-1.0838,-0.6284l-2.59912,-0.16506l-1.98066,-0.16506h-2.77213l-0.98437,0.03381l-0.82726,0.60056l-0.55482,1.91106l-1.95083,0.91079c0,0 -1.57896,-0.12727 -1.66845,-0.15511c-0.08949,-0.02982 -1.49942,-0.76959 -1.49942,-0.76959c0,0 -1.49942,-1.15937 -1.58891,-1.24289c-0.08949,-0.07755 -1.99061,-2.1835 -1.99061,-2.1835l-1.12357,-1.63862l-0.5946,-0.90283l0.09943,-1.28664l0.64431,-1.02812c0,0 0.87698,-0.51704 1.07982,-0.55085c0.20284,-0.0338 2.37043,0.33608 2.37043,0.33608c0,0 1.38607,0.53692 1.58493,0.57073c0.19886,0.03381 1.97072,0.14716 1.97072,0.14716l0.71192,0.19091l0.20284,-0.90681l-0.40568,-1.25681l-0.76761,-1.59487l-0.86704,-2.89543l0.16903,-1.42783l-0.64829,-1.46163l-4.18405,-2.84173l-2.11987,-1.52129l-1.46561,-0.82329c0,0 -0.78152,-1.15538 -0.88692,-1.27669c-0.10341,-0.12131 0,-1.59885 0,-1.59885l0.15312,-0.92073l0.42556,-0.94062l0.99033,-0.23863l0.60454,-0.4534c0,0 0.95454,-0.27244 0.85113,0c-0.10341,0.27245 0.87698,-0.39573 0.87698,-0.39573l0.42556,-0.16506c0,0 0.74772,0.39971 0.74772,0.50113c0,0.10142 0.50909,1.69231 0.50909,1.69231l-0.10341,0.75567l0.43153,0.97045l1.41987,0.79545l0.64431,0.36988l-1.27271,-2.53946l-0.10341,-1.52527l0.45142,-4.73291c0,0 0.44147,-2.04231 0.68408,-2.271c0.23665,-0.22471 0.24659,-1.00823 0.24659,-1.00823l1.41987,-0.98437l2.00453,-1.87725l1.88123,-1.33635l1.30652,-0.52102l1.37215,-0.46733l2.00055,-0.61448c0,0 0.94061,0.13721 1.11959,0c0.17897,-0.13721 1.46561,0.14119 1.88123,0c0.41562,-0.14119 1.68237,-0.19091 1.68237,-0.19091l1.87129,0.01989l2.04032,1.00027l1.11363,0.02983l0.55482,-0.43352l0.80141,0.64829l0.39176,2.78406l1.00027,1.03408l1.43976,0.82329l1.31646,0.27841l1.14345,0.13721l0.38579,0.67812l-0.11335,0.77954l1.05993,2.80395l0.89687,-0.5946l1.1534,1.44771l0.50511,2.56333l0.10341,3.24145l0.34602,2.98293c0,0 0.71789,1.56902 0.5946,1.71021c-0.12329,0.14119 0.17301,1.39004 0.17301,1.39004l1.31249,-0.52102l0.6642,0.17102l0.00398,1.18919l2.34259,0.65823l1.04402,1.11164l-0.61448,1.75993l-1.30652,1.60879l-2.61304,0.92073h-1.42982l-1.11363,-0.75567l-0.10937,-0.3321l-0.38579,-0.38977l-0.49517,-0.02983l-0.19886,-0.27244l0.03381,1.23891l-0.42159,1.05397l-0.98039,0.74573l-0.82726,0.62443l-0.16307,0.14119l0.54886,2.20339v2.08606l-0.39176,2.23719z" fill="#f0efef"/><path d="M192.59586,339.54117l2.0443,0.20483l0.2088,1.47158l0.10341,1.80765l1.46959,2.05225l0.12926,1.50141l-0.24261,2.16362l-0.37187,2.31475l0.04375,3.16389v3.69087c0,0 -6.10506,0.64829 -3.76843,0.37983c2.33663,-0.26647 2.42015,-2.01248 2.42015,-2.01248c0,0 -0.15312,-2.77412 -0.15312,-3.39855c0,-0.62443 0.13722,-3.62127 0.36591,-4.96359c0.22869,-1.34232 -0.8213,-3.21758 -1.8514,-4.35905c-1.03408,-1.14146 -0.40568,-3.8082 -0.40568,-3.8082" fill="#979797"/><path d="M192.58792,335.61167c0,0 -2.9014,2.17355 -3.45622,4.192c-0.5588,2.01248 -0.83124,3.58747 -2.87156,4.1582c-2.04032,0.57073 -3.06446,0.7159 -3.06446,0.7159l3.47014,-4.58774l2.52952,-3.86189l3.39059,-0.61846z" fill="#979797"/><path d="M173.95459,335.9756l0.08352,0.25454l1.67839,5.09881l-1.37612,-0.30625l-1.66845,-5.8704l1.17328,0.35596" fill="#979797"/><path d="M175.46791,343.79482l1.8176,4.79257h-0.38181l-1.43578,-2.74827l-0.47528,-2.39429z" fill="#979797"/><path d="M195.51119,318.85161c0.78352,0.04374 1.56504,1.52924 1.75794,3.07042c0.19289,1.53919 -0.22273,4.42666 -0.36193,5.8346c-0.13324,1.40794 -1.66845,3.75252 -3.13804,4.90393c-1.46959,1.14942 -4.39087,1.98862 -4.39087,1.98862c3.43236,-1.78975 3.85792,-2.26702 5.09484,-4.17808c1.23891,-1.91106 1.42186,-3.48406 1.5551,-6.68772c0.11534,-2.73634 -1.87527,-4.42667 -2.45992,-4.86615c-0.09943,-0.07159 -0.15909,-0.11136 -0.15909,-0.11136" fill="#979797"/><path d="M195.29045,331.1194l1.38607,-2.09203c0,0 0.39175,1.54117 0.31221,2.49571c-0.07954,0.95652 -1.24288,1.46362 -3.57951,3.20366c-2.34259,1.74004 -9.28286,2.0085 -9.28286,2.0085c0,0 1.21704,-0.13125 5.25194,-1.12556c4.0349,-0.9943 6.10505,-4.49427 6.10505,-4.49427" fill="#979797"/><path d="M164.23621,346.58287c1.20311,-2.88151 2.74827,-1.08181 3.30309,-1.12556c0.55482,-0.04375 4.80251,4.52808 4.80251,4.52808l-0.42159,0.68806l-2.33265,-2.35452c0,0 -2.6727,-2.2193 -3.55962,-1.42385c-0.88692,0.79545 1.58891,4.24172 1.58891,4.24172z" fill="#ffffff"/><path d="M163.48252,330.93842c-3.83803,-3.49599 -0.30227,-5.77694 0.72187,-5.65563c1.02612,0.12131 1.39203,-0.57073 1.39203,-0.57073c0,0 0.6284,1.07584 0,2.01248c-0.63039,0.93664 -0.87698,0.34204 -0.87698,0.34204c0,0 -1.21703,-1.07783 -1.89515,0c-0.67812,1.07584 0.65823,3.86985 0.65823,3.86985z" fill="#ffffff"/><path d="M169.03275,329.62791c0,0 5.82267,4.93774 12.71323,4.30536c0,0 -5.19825,0.78948 -9.33656,-0.75965c-4.13433,-1.55112 0.65426,1.59885 4.21786,2.33464c3.5636,0.73579 6.9701,1.223 6.9701,1.223c0,0 -10.2374,0.06761 -12.5442,-2.62299c-2.30679,-2.69059 -2.02043,-4.48035 -2.02043,-4.48035z" fill="#ffffff"/><path d="M176.31507,345.26839c1.67839,3.57355 3.75252,4.38689 3.75252,4.38689l-2.39032,-1.07186l-1.3622,-3.31502z" fill="#ffffff"/></g><g data-paper-data="{&quot;index&quot;:null}"><path d="M170.95375,330.47705c0,0 -0.73181,-0.55482 -0.99431,-2.16958c-0.26249,-1.61277 -0.61448,-4.59172 -0.10937,-6.42522c0.50511,-1.82754 1.20709,-3.84598 2.26702,-4.97154c1.05993,-1.12556 2.62895,-2.54941 3.94144,-2.80793c1.31647,-0.25852 6.05534,0.16506 6.05534,0.16506l4.84626,1.54516l3.60934,2.74429l2.95111,3.69485l0.95454,3.06645c0,0 -0.23266,1.54118 -0.56874,2.59316c-0.33608,1.05397 -1.9051,2.73037 -2.79202,3.20764c-0.88693,0.47726 -4.63348,2.13577 -7.31215,2.17952c-2.67866,0.04375 -4.08859,0.56079 -6.22238,0c-2.13378,-0.56079 -2.99088,-0.66817 -4.2974,-1.40794c-1.30652,-0.74176 -2.32668,-1.41391 -2.32668,-1.41391z" fill="#f2b65e"/><path d="M196.27084,344.58034l4.02894,-2.59316c0,0 1.94089,1.53123 4.27155,-1.12556c2.33265,-2.65679 1.91504,-3.35877 1.91504,-3.35877c0,0 0.18296,-1.08181 -1.04402,-1.45368c-1.22697,-0.36989 -1.57896,-0.53693 -1.57896,-0.53693c0,0 2.15765,-3.84599 4.99938,-3.39855c2.84174,0.44942 3.54372,1.61873 3.54372,1.61873c0,0 0.698,1.12158 0.58863,2.72043c-0.10341,1.59885 -1.81163,4.69911 -2.67867,5.75705c-0.86704,1.05795 -2.40623,2.95906 -4.74683,3.89968c-2.33662,0.94062 -4.88603,1.49743 -6.16869,1.65254c-1.28266,0.15511 -2.61304,0.15511 -2.61304,0.15511c0,0 -1.02016,-3.18377 -0.70795,-3.3011l0.31221,-0.11733" fill="#f2b65e"/><path d="M191.12828,313.44456l-0.37585,-1.86731l0.37585,-3.05253c0,0 2.60906,2.47186 3.34684,4.11843c0.73777,1.64856 1.04402,4.97751 1.04402,4.97751c0,0 -2.68861,-0.04972 -3.30309,-1.05397c-0.61448,-1.0142 -1.19317,-1.61874 -1.08976,-3.12412z" fill="#f2b65e"/><path d="M173.31425,314.10279c0,0 0.60454,-2.00453 1.54913,-2.80793c0.94459,-0.8034 2.13776,-2.50566 2.13776,-2.50566l0.57869,0.53693v2.85168l-4.26757,1.92498z" fill="#f2b65e"/><path d="M174.07986,315.11698c2.64884,-2.25708 9.17946,-1.32044 11.92176,0c2.74231,1.32044 5.22808,3.44031 6.80704,5.59597c1.58095,2.15367 1.84743,2.82582 1.8176,4.84029c-0.02983,2.01447 -0.87499,2.77412 -2.21731,4.61757c-1.34232,1.84743 -5.19825,2.49174 -5.19825,2.49174c4.03092,-0.64829 4.6991,-4.50024 4.6991,-4.50024c0,0 1.88123,-5.06103 -3.3369,-10.09621c-5.21813,-5.03518 -14.49105,-2.94912 -14.49105,-2.94912" fill="#e49a2b"/><path d="M171.67959,330.93643c0,0 -1.06391,-0.46732 -1.46959,-1.26277c-0.40567,-0.79545 -0.6284,-4.81246 -0.49914,-6.95221c0.12926,-2.13976 1.19914,-3.8261 1.71817,-4.88007c0.51903,-1.048 2.51958,-2.70054 2.51958,-2.70054c0,0 -3.19769,5.16245 -3.41644,9.56525c-0.21278,4.40678 1.14942,6.23034 1.14942,6.23034z" fill="#fdd29e"/><path d="M177.57983,321.055l-4.92183,3.66104c-0.39176,-0.77556 -0.18892,-2.50566 -0.18892,-2.50566c0,0 0.20682,-2.39429 2.28691,-3.04656c2.0801,-0.65426 2.82185,1.89117 2.82185,1.89117z" fill="#fdd29e"/><path d="M178.58209,313.82835c0,0 1.38607,-1.54516 2.65878,-2.15964c1.27272,-0.61448 7.16897,-0.16107 5.07893,0.36591c-1.83152,0.45738 -2.21333,2.24714 -2.21333,2.24714z" fill="#577c8e"/><path d="M194.47512,334.66907c0,0 2.77809,-2.10992 2.69855,-2.89145c-0.07955,-0.77556 -0.15909,-2.75423 -0.15909,-2.75423l0.57869,-7.66413c0,0 1.86135,0.51107 2.17754,2.87156c0.31619,2.3585 0.92073,10.48598 0.92073,10.48598l-1.68834,1.08777l-4.53007,-1.1355z" fill="#577c8e"/><path d="M195.01802,340.11787c0,0 2.15764,-1.24686 3.25735,-0.06761c1.0997,1.17528 -2.79202,3.74457 -2.79202,3.74457c0,0 0.10539,-0.67812 -0.30625,-1.30652c-0.40568,-0.63238 -0.15909,-2.36844 -0.15909,-2.36844z" fill="#577c8e"/><path d="M172.46312,334.67502l2.06418,6.34767l1.77782,1.26277l-0.2963,0.97045c0,0 -2.31674,-0.83919 -3.3369,-1.27271c-1.02016,-0.43352 -0.85113,-1.14544 -0.85113,-1.14544l-0.81732,-6.30392z" fill="#577c8e"/><path d="M174.58695,343.10279l1.8176,4.94967l-1.05993,-0.51704l-1.39004,-4.43263z" fill="#577c8e"/><path d="M179.77128,345.45732c0,0 1.223,-1.85737 0.97045,-2.54941c-0.25255,-0.69204 2.44998,-1.29658 2.44998,-1.29658l1.01419,-0.65227l3.29713,-4.41274l4.019,-0.57073c0,0 -1.91504,0.6284 -2.59515,1.80765c-0.67811,1.17528 -2.19344,4.72297 -2.19344,4.72297l-2.99486,1.16533l-1.06988,1.78379l-0.83124,2.45793l-0.32216,2.16958l-0.84715,-0.0875l0.56477,-2.83179l0.51505,-1.58493l0.43153,-0.64431l-1.04999,-0.76562c0,0 -0.7676,1.7997 -1.3622,1.28664z" fill="#577c8e"/><path d="M189.68653,356.31516v-4.97154h5.79682v4.97154z" fill="#577c8e"/><path d="M172.09324,345.60844c0,0 2.68861,2.36447 3.62326,4.37695" fill="#577c8e"/><path d="M175.71649,352.74362c-1.06192,0 -2.07612,-0.59857 -2.54742,-1.61078c-0.4713,-1.01619 -2.00651,-2.64089 -2.94514,-3.47014v0c-1.15141,-1.0142 -1.25084,-2.75424 -0.22074,-3.88974c1.0301,-1.1355 2.79997,-1.23294 3.95337,-0.21875c0.32017,0.28039 3.15992,2.81985 4.30536,5.28574c0.64431,1.38408 0.02585,3.01872 -1.3801,3.65309c-0.37784,0.16904 -0.77357,0.25057 -1.16334,0.25057z" fill="#577c8e"/><path d="M196.31458,340.59316c-1.17726,-2.20338 0.08551,-4.90989 0.35,-5.42892l3.19173,1.61873c-0.34005,0.68209 -0.58067,1.75793 -0.38579,2.12384l-3.15792,1.68635z" fill="#577c8e"/><path d="M194.98817,340.66674c-1.15737,-2.34458 0.08949,-5.22609 0.35199,-5.78091l3.65906,1.66646c-0.35596,0.77159 -0.59658,1.95084 -0.38579,2.37839l-3.62525,1.73606z" fill="#9f1d21"/><path d="M167.57708,332.27476l-3.95138,-0.77954c0.51506,-2.52554 3.29315,-3.87581 3.84599,-4.12041l1.66646,3.61531c-0.70795,0.32415 -1.49544,0.97244 -1.55908,1.28664z" fill="#9f1d21"/><path d="M166.46744,331.6563l-3.48406,-0.81931c0.57869,-2.45395 3.31702,-3.8778 3.85991,-4.13831l1.54714,3.22753c-0.71391,0.34404 -1.78975,1.16732 -1.92299,1.73209z" fill="#577c8e"/><path d="M191.41463,344.3775c-0.79346,0 -1.3105,-0.09745 -1.42186,-0.11932l0.7159,-3.50792c0.01392,0.00398 1.45965,0.25057 3.2852,-0.44147l1.26874,3.34684c-1.52924,0.57869 -2.88946,0.71988 -3.84797,0.71988z" fill="#9f1d21"/><path d="M191.15014,346.04395c-0.92869,0 -1.54914,-0.11534 -1.68635,-0.14318l0.79744,-3.89172c0.0179,0.00398 1.86731,0.32812 3.95536,-0.57272l1.61675,3.63519c-1.81958,0.78551 -3.50195,0.97045 -4.68319,0.97045z" fill="#577c8e"/><path d="M179.2105,340.11987c-0.84787,0 -1.53521,-0.67666 -1.53521,-1.51135c0,-0.8347 0.68734,-1.51135 1.53521,-1.51135c0.84787,0 1.53521,0.67666 1.53521,1.51135c0,0.8347 -0.68734,1.51135 -1.53521,1.51135z" fill="#9f1d21"/><path d="M189.0283,354.21319v-3.96928h6.71755v3.96928z" fill="#9f1d21"/><path d="M171.40915,334.53382l0.68408,5.58603c0,0 0.15909,1.23891 0.57869,1.38408c0.42159,0.14716 3.3369,1.74601 3.3369,1.74601l-4.59967,-1.47754l-0.72187,-8.12151z" fill="#77a8c2"/><path d="M178.34545,344.22039c-0.47556,0 -0.86107,-0.38017 -0.86107,-0.84914c0,-0.46897 0.38551,-0.84914 0.86107,-0.84914c0.47556,0 0.86107,0.38017 0.86107,0.84914c0,0.46897 -0.38551,0.84914 -0.86107,0.84914z" fill="#77a8c2"/><path d="M181.39001,343.10478v0h-0.28636l0.03381,-0.51704c0,0 3.51588,-1.08777 4.10451,-1.07783c0.58863,0.00994 0.82527,-2.00453 1.21703,-2.76418c0.39773,-0.76164 3.00679,-2.39828 2.11987,-1.78976c-0.88692,0.60851 -1.94089,3.14798 -2.28293,4.06473c-0.34204,0.91676 -1.19317,1.09772 -1.19317,1.09772l-3.71275,0.98437z" fill="#77a8c2"/><path d="M197.61315,327.34698c0,0 0.77158,0.25256 0.92073,1.52527c0.14915,1.27271 0,2.43804 0,2.43804l-0.42556,0.21477c0,0 0.28636,-3.11417 -0.68806,-3.72468z" fill="#77a8c2"/><path d="M197.59327,322.60811c-0.88096,0.17499 -0.17301,-0.94062 -0.17301,-0.94062c0,0 1.64458,-0.06762 1.88123,1.72015c0.23665,1.78975 0.87698,7.08743 0.87698,7.08743v0.88295c0,0 -0.23267,-0.95056 -0.5588,-1.29658c-0.32613,-0.34602 -0.85709,-6.27409 -0.85709,-6.27409c0,0 -0.28636,-1.35425 -1.16931,-1.17925z" fill="#77a8c2"/><path d="M199.96967,330.92053l0.30227,-0.11733l0.5588,3.91956l-0.65227,0.37585l-0.28238,-2.8656z" fill="#77a8c2"/><path d="M196.79585,346.72008c0,0 13.02941,-1.24288 15.75382,-12.18823c0,0 0.79147,4.66927 -0.45539,6.09312c-1.24289,1.42385 -5.54427,7.95646 -14.37174,7.28828l-1.30652,0.16506l0.38181,-1.36021z" fill="#e49a2b"/><path d="M183.60643,329.23694c-1.99308,-0.43784 -3.05823,-3.29897 -2.37908,-6.3905c0.67915,-3.09153 2.84543,-5.24277 4.83851,-4.80493c1.99308,0.43784 3.05823,3.29897 2.37908,6.3905c-0.67915,3.09153 -2.84543,5.24277 -4.83851,4.80493z" fill="#f5d8b9"/><path d="M191.9098,316.29027c0,0 0.31619,-4.15422 0.46534,-6.4988c0.14914,-2.34458 3.144,5.32353 3.144,5.32353l0.50909,2.7602c0,0 -3.3031,-0.31222 -4.11843,-1.58493" fill="#e49a2b"/><path d="M175.98296,312.83008l1.59885,-3.49997l0.46534,2.45594l-2.06418,1.04402" fill="#e49a2b"/></g><g data-paper-data="{&quot;index&quot;:null}"><path d="M172.15488,316.28828c-0.09943,0.17699 -0.28636,0.27642 -0.47727,0.27642c-0.08949,0 -0.17898,-0.02187 -0.2625,-0.06761c-0.2625,-0.14318 -0.35795,-0.46931 -0.21278,-0.72783c0.08353,-0.14517 2.02243,-3.59343 4.0886,-6.11699c0.99033,-1.20908 1.72214,-1.65851 2.3764,-1.45567c0.53097,0.16307 0.75369,0.72187 0.78352,1.14942l0.1392,2.19146c0.01988,0.2963 -0.20881,0.55084 -0.50909,0.56874c-0.29829,0.01989 -0.5588,-0.20483 -0.5767,-0.50113l-0.1392,-2.1835c-0.00398,-0.05767 -0.02387,-0.13323 -0.04574,-0.18295c-0.12528,0.04573 -0.4892,0.24459 -1.17925,1.08578c-2.00651,2.44997 -3.96132,5.92607 -3.98121,5.96187zM177.36506,309.41761z" fill="#d07f2a"/><path d="M195.84926,318.15361c-0.01193,0 -0.02585,0 -0.03778,0c-0.28437,0 -0.523,-0.21676 -0.54289,-0.49914c0,-0.01988 -0.15114,-2.02839 -0.94062,-4.44058c-0.27841,-0.8551 -0.91079,-1.84941 -1.7818,-2.79997c-0.50909,-0.55482 -0.96846,-0.95056 -1.28067,-1.17925c-0.16505,0.8571 -0.37187,2.52356 -0.36988,2.79401c0.01193,0.29431 -0.21875,0.54289 -0.51704,0.55681c-0.30028,0.01392 -0.55482,-0.21477 -0.57073,-0.50909c-0.01194,-0.2446 0.11732,-1.28465 0.21079,-1.94487c0.04772,-0.32812 0.11931,-0.79743 0.19488,-1.17527c0.10539,-0.525 0.18693,-0.76761 0.41363,-0.91079c0,0 0.00398,-0.00199 0.00597,-0.00398c0.12528,-0.07756 0.34005,-0.14517 0.64431,-0.0358c0.94459,0.34006 3.3727,2.6906 4.08661,4.88007c0.83323,2.54344 0.98436,4.60762 0.99033,4.69512c0.01988,0.2963 -0.20682,0.55085 -0.50511,0.57272z" fill="#d07f2a"/><path d="M196.36032,348.85188c-0.29829,0 -0.5409,-0.23465 -0.54488,-0.52897c-0.00397,-0.2963 0.23665,-0.53891 0.53693,-0.54289c4.05678,-0.04972 7.79737,-1.07584 10.82007,-2.96304c3.35877,-2.098 5.10677,-5.91017 5.46273,-7.95845c0.44943,-2.60907 -1.53521,-3.91957 -1.62072,-3.97326c-0.00596,-0.00397 -0.00795,-0.00397 -0.01193,-0.00795c-0.04971,-0.03182 -1.2747,-0.82528 -3.01872,-0.46335c-1.45965,0.30227 -2.90935,2.72242 -3.34287,3.62923c-0.12926,0.26846 -0.45341,0.38181 -0.72585,0.25653c-0.27244,-0.12727 -0.38778,-0.44545 -0.26051,-0.71391c0.01789,-0.03779 0.44942,-0.93068 1.14544,-1.8872c0.9784,-1.34431 1.97271,-2.12981 2.95906,-2.33464c2.16759,-0.45141 3.72269,0.53693 3.85394,0.62443c0.08154,0.05369 0.71193,0.47528 1.27073,1.26874c0.54091,0.76761 1.12556,2.04828 0.82528,3.78235c-0.38977,2.23918 -2.29486,6.39937 -5.95392,8.68429c-1.72413,1.07783 -3.65508,1.88919 -5.73517,2.41418c-1.78578,0.44943 -3.68889,0.69204 -5.65364,0.7159c-0.00198,0 -0.00397,0 -0.00795,0z" fill="#d07f2a"/><path d="M204.78213,336.1267c-0.95056,-0.65226 1.69231,-3.18775 1.69231,-3.18775c0,0 5.26785,-0.90283 6.68772,4.67922l-3.34088,5.41103c0,0 0.24659,-3.18377 -3.34088,-5.06898c0,0 -0.75766,-1.18521 -1.69828,-1.8335z" fill="#d07f2a"/><path d="M205.93949,339.59884c0,0 2.30679,0.8392 2.77213,4.76274l-3.68888,1.74601c0,0 0.61449,-2.62298 -1.15936,-4.59768l2.07413,-1.91106z" fill="#d07f2a"/><path d="M199.89609,341.77837c0,0 3.63321,1.43379 2.21731,5.78091l-3.61332,0.52102c0,0 1.38607,-2.07612 -0.90084,-4.59172" fill="#d07f2a"/><path d="M196.03421,344.68175c-0.05568,0.0179 -0.11335,0.02585 -0.16903,0.02585c-0.22869,0 -0.44346,-0.14318 -0.51704,-0.36988c-0.09346,-0.28238 0.06364,-0.58465 0.34801,-0.67613c0.03182,-0.00995 2.5156,-0.83323 3.76445,-2.69259c0.16505,-0.24658 0.50312,-0.3142 0.75567,-0.15113c0.25056,0.16306 0.32016,0.49715 0.15312,0.74374c-1.46363,2.17754 -4.21786,3.08236 -4.33519,3.12014z" fill="#d07f2a"/><path d="M194.29615,326.86971l-1.77186,-1.15539l1.77186,-0.873z" fill="#d07f2a"/><path d="M194.29615,327.1859c-0.06165,0 -0.1233,-0.0159 -0.17699,-0.0517l-1.77186,-1.15539c-0.09545,-0.06363 -0.15113,-0.17102 -0.14318,-0.28437c0.00597,-0.11336 0.07358,-0.21477 0.17699,-0.26449l1.77186,-0.873c0.09943,-0.04972 0.21676,-0.04375 0.31221,0.01392c0.09545,0.05767 0.15312,0.16108 0.15312,0.27045v2.02839c0,0.11534 -0.06562,0.22273 -0.16903,0.27841c-0.04772,0.02585 -0.10142,0.03778 -0.15312,0.03778zM193.16462,325.75211l0.80937,0.52698v-0.92471z" fill="#d07f2a"/><path d="M194.07342,328.16629l-1.0838,1.72214l-1.07982,-1.72214h2.16362" fill="#d07f2a"/><path d="M193.26602,330.05745c-0.05966,0.09148 -0.16307,0.14915 -0.27443,0.14915v0c-0.11335,0 -0.21676,-0.05766 -0.27443,-0.15113l-1.07982,-1.72015c-0.06164,-0.09744 -0.06562,-0.22074 -0.00795,-0.32017c0.05569,-0.10142 0.16307,-0.16307 0.2804,-0.16307h2.16362c0.11534,0 0.22273,0.06165 0.2804,0.16307c0.05569,0.09943 0.0537,0.22273 -0.00795,0.32017l-1.0838,1.72015zM192.4865,328.48447l0.50312,0.80141l0.50511,-0.80141z" fill="#d07f2a"/><path d="M179.67186,314.1028l-1.38209,1.61873l-0.52301,-1.77584z" fill="#d07f2a"/><path d="M178.53832,315.92041c-0.06165,0.07358 -0.15312,0.11335 -0.24659,0.11335c-0.02187,0 -0.04375,-0.00199 -0.06562,-0.00597c-0.11534,-0.02387 -0.2088,-0.10938 -0.24261,-0.22074l-0.52499,-1.77385c-0.02983,-0.09943 -0.00795,-0.20682 0.05966,-0.28835c0.06762,-0.08153 0.17102,-0.12329 0.27642,-0.11534l1.9051,0.15511c0.11932,0.00994 0.22471,0.08551 0.27045,0.19488c0.04574,0.10937 0.02586,0.23465 -0.0517,0.32613l-1.38209,1.61873zM178.20624,314.29966l0.22471,0.76363l0.5946,-0.69602z" fill="#d07f2a"/><path d="M180.42355,313.94569v0l2.46191,0.46931l-2.14373,1.87527l-0.31818,-2.34458" fill="#d07f2a"/><path d="M180.9565,316.53089c-0.06165,0.0517 -0.13721,0.07954 -0.21477,0.07954c-0.03778,0 -0.07556,-0.00597 -0.11136,-0.01989c-0.11137,-0.03977 -0.19091,-0.1392 -0.20682,-0.25454l-0.31619,-2.34458c-0.01392,-0.10142 0.02187,-0.20284 0.09744,-0.27244c0.07556,-0.07159 0.18096,-0.10142 0.28238,-0.08153l2.45992,0.46733c0.11932,0.02187 0.21676,0.11136 0.24858,0.2267c0.03182,0.11534 -0.00596,0.24063 -0.09744,0.32017l-2.14373,1.87725zM182.18547,314.60393l-1.38209,-0.2625l0.17699,1.31646l1.20311,-1.05397z" fill="#d07f2a"/><path d="M185.70134,315.11698l-1.74203,1.44175l-0.35596,-1.91106z" fill="#d07f2a"/><path d="M184.16215,316.79933c-0.05767,0.04773 -0.13125,0.07358 -0.20682,0.07358c-0.03778,0 -0.07357,-0.00597 -0.10937,-0.0179c-0.10739,-0.03778 -0.18693,-0.12926 -0.20682,-0.24062l-0.35596,-1.91106c-0.01988,-0.1054 0.01591,-0.21278 0.09347,-0.28636c0.07756,-0.07357 0.18892,-0.1034 0.29432,-0.07954l2.09998,0.46733c0.11932,0.02784 0.21278,0.11733 0.24261,0.23466c0.02983,0.11733 -0.01193,0.24062 -0.1054,0.31818l-1.74203,1.44374zM184.00704,315.0633l0.16903,0.90283l0.82329,-0.6821z" fill="#d07f2a"/><path d="M169.61741,323.76548l0.51903,0.44744l0.17301,0.19488l-0.69204,0.30227l-0.00597,-0.84715l0.00597,-0.09744" fill="#d07f2a"/><path d="M169.66911,324.81945c-0.01591,0.00596 -0.03182,0.00994 -0.04972,0.00994c-0.02386,0 -0.04772,-0.00597 -0.06761,-0.01989c-0.03381,-0.02188 -0.05568,-0.05966 -0.05568,-0.10142l-0.00398,-0.84914c0,-0.00199 0,-0.00597 0,-0.00597l0.00398,-0.09744c0.00199,-0.04574 0.03182,-0.0875 0.07557,-0.1054c0.04375,-0.01789 0.09346,-0.00994 0.12926,0.01989l0.51903,0.44943c0.00398,0.00398 0.01193,0.01193 0.01193,0.01193l0.17301,0.19488c0.02784,0.02983 0.03579,0.06961 0.02784,0.10739c-0.00994,0.03778 -0.03579,0.0696 -0.07159,0.08551l-0.69403,0.30227zM170.05092,324.29644l-0.31022,-0.26846v0.49318l0.36591,-0.15909l-0.05767,-0.06364z" fill="#d07f2a"/><path d="M169.68701,325.2808l0.84516,0.36591l-0.84516,0.73977v-1.05198" fill="#d07f2a"/><path d="M169.76655,326.47994c-0.02187,0.01989 -0.0517,0.02983 -0.08153,0.02983c-0.01591,0 -0.03381,-0.00199 -0.04972,-0.00994c-0.04574,-0.01988 -0.07358,-0.06363 -0.07358,-0.11136v-1.05397c0,-0.00994 0.00398,-0.01989 0.00398,-0.02784c-0.00597,-0.02387 -0.00398,-0.05171 0.00795,-0.07557c0.02784,-0.06364 0.10142,-0.09148 0.16307,-0.06364l0.84715,0.36591c0.03778,0.0179 0.06562,0.0537 0.07159,0.09347c0.00597,0.03977 -0.00795,0.08153 -0.03977,0.10937l-0.84715,0.74175zM169.80832,325.46575v0.64829l0.49715,-0.43352z" fill="#d07f2a"/><path d="M175.54348,331.16909c-1.17925,-0.42357 -1.7281,-2.18748 -2.22327,-2.88548c-0.49914,-0.69602 0.15909,-0.94062 0.15909,-0.94062c2.40623,2.12584 3.42639,-0.19886 4.93575,0.97045c1.51135,1.16931 5.0312,0.55085 3.4065,0.95454c-1.62867,0.40369 -6.27806,1.90112 -6.27806,1.90112z" fill="#984332"/><path d="M187.54281,328.43873c0,0 -4.52013,6.15675 -11.82233,2.48179c0,0 3.15792,-1.45766 6.29198,-1.76987c3.13406,-0.31221 5.53034,-0.71192 5.53034,-0.71192z" fill="#d06950"/><path d="M173.12931,328.24187c-0.91079,-0.53693 -0.22273,-1.15141 -0.22273,-1.15141c0,0 1.33237,0.53096 2.28691,0.88692c0.95056,0.35596 2.98094,0 2.98094,0c0.63835,0.5071 1.91107,0.86306 3.84599,1.05397c1.93493,0.18892 4.80649,-0.59062 4.80649,-0.59062c0,0 1.13749,0.17698 0.38579,0.39573c-0.75369,0.22073 -2.7085,0.64431 -2.7085,0.64431c0,0 -0.09545,0.6284 -0.44147,0.58465c-0.34602,-0.04375 -0.48522,-0.49318 -0.48522,-0.49318l-1.58891,0.10142c-6.16273,0.21875 -8.86128,-1.43379 -8.86128,-1.43379" fill="#ffffff"/><path d="M173.31425,324.44161c0,0 -0.22869,-4.25166 1.93095,-4.67524c2.15765,-0.42358 2.23719,2.85764 2.23719,2.85764l-0.70795,2.9352c0,0 -3.86587,-0.64828 -3.46019,-1.11561" fill="#ffffff"/><path d="M186.60218,326.54159c0,0 -6.30789,-0.02386 -5.24796,-0.45738c0,0 -0.16903,-4.01303 1.84743,-5.16245l2.01447,-1.15141c0,0 2.13379,0.04375 2.25708,2.11589c0.1233,2.07214 -0.63834,4.42666 -0.87101,4.65535c-0.23267,0.22869 0,0 0,0z" fill="#ffffff"/><path d="M194.62825,317.5431c0,0 -2.07015,-0.34602 -2.10396,-0.98437c0,0 0.78152,-3.13008 0.16903,-4.38291c-0.61448,-1.25283 0.47528,-0.41363 0.92073,0.65823c0.44147,1.07187 1.01021,2.53947 1.01419,4.70905z" fill="#d07f2a"/><path d="M194.70578,317.63458c-0.02187,0.01989 -0.04971,0.02983 -0.07954,0.02983c-0.00597,0 -0.01392,0 -0.01989,0c-0.36192,-0.05966 -2.16958,-0.39773 -2.20736,-1.09772c0,-0.01194 0.00199,-0.02387 0.00398,-0.0358c0.00796,-0.03182 0.76363,-3.10224 0.17699,-4.30138c-0.24261,-0.49318 -0.21477,-0.64432 -0.15511,-0.72585c0.03978,-0.05568 0.1054,-0.08153 0.17898,-0.07358c0.29631,0.03381 0.85312,0.70596 1.12357,1.35823c0.38182,0.92669 1.01817,2.4798 1.02414,4.75478c0,0.0358 -0.01591,0.06961 -0.04375,0.09347zM192.80268,312.1261c0.60653,1.23891 -0.08352,4.15024 -0.15511,4.44456c0.04773,0.34602 1.06192,0.67812 1.85339,0.82925c-0.03182,-2.1497 -0.63834,-3.62724 -1.00425,-4.51814c-0.24261,-0.58465 -0.67016,-1.06391 -0.85908,-1.18124c0.01393,0.06563 0.0537,0.19489 0.16506,0.42358z" fill="#d07f2a"/></g><g data-paper-data="{&quot;index&quot;:null}"><path d="M182.01445,326.39244c0,0 -0.68409,-2.24316 0.49914,-3.53974c1.18323,-1.29658 2.67867,-0.91675 2.67867,-0.91675c0,0 1.2926,0.2446 1.65851,1.82356c0.36193,1.58493 -0.24659,2.7781 -0.24659,2.7781c0,0 -4.13831,-0.60454 -4.58973,-0.14716z" fill="#000000"/><path d="M174.22702,324.72998c0,0 -0.61448,-1.14147 0,-2.25708c0.61448,-1.11562 1.7818,-1.02812 1.7818,-1.02812c0,0 0.96448,0.04375 1.35226,0.91675c0.38579,0.873 -0.22869,2.17952 -0.22869,2.17952l-0.49914,1.01419l-2.40623,-0.82329z" fill="#000000"/><path d="M176.94147,325.86347c-0.05369,0.09148 -0.15312,0.14318 -0.25454,0.14318c-0.04176,0 -0.08551,-0.00795 -0.12727,-0.02784c-1.52129,-0.71391 -2.64287,-0.86902 -3.31502,-0.873c-0.78351,0 -1.18322,0.19886 -1.1872,0.20085c-0.14517,0.07755 -0.32414,0.02187 -0.4017,-0.11932c-0.07755,-0.14318 -0.02386,-0.32016 0.12131,-0.39772c0.04574,-0.02386 0.42159,-0.21278 1.14147,-0.25852c-0.20085,-0.87897 0.05966,-2.31873 0.09744,-2.52157c0.02784,-0.175 0.45539,-2.70253 2.35651,-2.77412c1.31845,-0.04773 2.36844,1.30056 2.49571,3.20764c0.11335,1.67441 -0.88494,3.35082 -0.9267,3.42042zM173.6006,322.11693c-0.09147,0.48721 -0.27641,1.83549 -0.06761,2.41617c0.92272,0.0517 1.93692,0.32017 3.02469,0.8034c0.25255,-0.49517 0.79545,-1.69828 0.71789,-2.85168c-0.10341,-1.55311 -0.91078,-2.69856 -1.88123,-2.66276c-1.43975,0.05369 -1.78776,2.25907 -1.79174,2.28094c0,0.00199 0,0.00994 0,0.00994z" fill="#855827"/><path d="M186.94027,326.83392l-0.54687,-0.22869c0.00796,-0.0179 0.73977,-1.72214 0.86704,-2.44202l0.00994,-0.05966c0.13323,-0.74971 0.2963,-1.68436 -0.20483,-2.87355c-0.525,-1.25283 -1.81959,-1.1713 -1.83152,-1.1713h-0.0179h-0.0179c-0.05171,-0.00199 -1.35027,-0.0179 -2.50367,1.76589c-1.20908,1.86731 -1.22499,4.55393 -1.22499,4.58177h-0.5946c0,-0.11733 0.01591,-2.88151 1.31845,-4.89598c1.28266,-1.98662 2.80594,-2.03833 3.01077,-2.03634c0.60454,-0.03977 1.86532,0.23068 2.4102,1.53124c0.56874,1.3463 0.37982,2.41617 0.24062,3.1977l-0.00994,0.05966c-0.13721,0.7855 -0.87499,2.4977 -0.90482,2.56929z" fill="#855827"/><path d="M188.18711,327.63931c-0.03778,0 -0.07556,-0.00795 -0.11136,-0.02187c-3.44429,-1.38607 -6.81698,-0.81733 -6.85079,-0.81136c-0.16108,0.02784 -0.31619,-0.07756 -0.34403,-0.23665c-0.02784,-0.15909 0.07954,-0.31022 0.24062,-0.34005c0.14517,-0.02585 3.57752,-0.60255 7.17891,0.84516c0.15114,0.06164 0.22472,0.23266 0.16307,0.38181c-0.04773,0.11335 -0.1571,0.18295 -0.27443,0.18295z" fill="#855827"/><path d="M178.34147,327.0308c-0.35198,0 -0.62442,-0.20483 -0.74175,-0.34801c-0.00597,-0.00795 -0.01193,-0.01591 -0.0179,-0.02386l-0.4713,-0.70198c-0.08949,-0.13523 -0.05171,-0.31619 0.08352,-0.40568c0.13721,-0.08949 0.32215,-0.05171 0.41164,0.08352l0.45937,0.68607c0.02983,0.02983 0.16704,0.1571 0.34602,0.11733c0.22472,-0.04972 0.7696,-0.40966 1.08181,-0.64829c0.12926,-0.09943 0.31619,-0.07557 0.41761,0.0517c0.09943,0.12728 0.07557,0.31222 -0.05369,0.40966c-0.14318,0.10937 -0.88096,0.65823 -1.31448,0.75567c-0.0696,0.0159 -0.1392,0.02187 -0.20284,0.02187z" fill="#855827"/><path d="M182.15167,332.2867c-0.72386,0.17699 -1.44573,0.23665 -2.09004,0.23665c-1.29459,0 -2.27697,-0.24261 -2.33663,-0.25852h-0.00398c-0.06363,-0.0179 -1.60083,-0.43949 -3.01673,-1.41192c-1.94288,-1.33238 -2.14771,-3.53576 -2.15566,-3.62923c-0.00995,-0.10738 0.04374,-0.21278 0.13721,-0.27045c0.09347,-0.05966 0.21279,-0.06165 0.30824,-0.00597c0.02585,0.01392 2.51162,1.41391 4.74683,0.88295l0.16108,-1.14743c0.02188,-0.16108 0.17102,-0.27244 0.33409,-0.25057c0.16306,0.02187 0.27641,0.17102 0.25454,0.33011l-0.16307,1.16135c1.66845,1.06988 4.02298,1.02812 5.72722,0.79744c1.84145,-0.24858 3.3886,-0.76562 3.81814,-0.91874c0.04574,-0.01591 0.16705,-0.05966 0.29432,0.02784c0.06562,0.04573 0.11136,0.11732 0.12329,0.19488c0.01392,0.07756 -0.00795,0.1571 -0.05568,0.22074c-2.00452,2.60907 -3.87979,3.50195 -6.08119,4.04087zM175.04435,330.37564c1.30652,0.89687 2.7602,1.30652 2.83179,1.32641c0.08153,0.0179 2.13378,0.5071 4.13433,0.0179c1.9031,-0.46534 3.46417,-1.16732 5.12864,-3.06645c-0.74374,0.21875 -1.81362,0.48721 -3.00281,0.64829c-2.63691,0.35596 -4.717,0.04773 -6.18261,-0.91874c-1.84544,0.4713 -3.78036,-0.22869 -4.70507,-0.65028c0.18096,0.68408 0.64431,1.8514 1.79572,2.64088z" fill="#855827"/><path d="M189.64278,328.2697c-0.02187,0 -0.04375,0 -0.06562,-0.00597c-0.20284,-0.0358 -0.33608,-0.22472 -0.30028,-0.42358c0.08551,-0.47727 0.03779,-0.82925 -0.1392,-1.02016c-0.19687,-0.2108 -0.52698,-0.19091 -0.53096,-0.19091c-0.20284,0.0179 -0.38579,-0.12926 -0.40369,-0.33011c-0.01988,-0.20085 0.13125,-0.37982 0.33608,-0.39772c0.0696,-0.00596 0.70198,-0.04971 1.14544,0.42358c0.34403,0.3679 0.4534,0.92073 0.32414,1.6426c-0.03182,0.17699 -0.18892,0.30227 -0.36591,0.30227z" fill="#855827"/><path d="M175.49774,318.02233c0.25255,-0.04971 0.50511,-0.04971 0.76164,-0.02386c0.25654,0.02387 0.51506,0.0875 0.76761,0.19091c0.1233,0.05369 0.2625,0.09744 0.39176,0.16108c0.06364,0.02983 0.1233,0.07358 0.17898,0.11733c0.05369,0.04972 0.09943,0.10142 0.1392,0.16506c0.03978,0.05767 0.06961,0.12727 0.09347,0.19488c0.01392,0.03381 0.02386,0.06762 0.02983,0.10739c0.00398,0.01988 0.00994,0.0338 0.01392,0.05369l0.00994,0.05369c0.01989,0.14716 0.00398,0.30625 -0.0696,0.46733l-0.08352,0.03977c-0.17301,-0.04972 -0.29233,-0.10142 -0.40568,-0.14716c-0.10937,-0.04971 -0.20284,-0.09346 -0.28636,-0.14119c-0.08352,-0.04971 -0.14915,-0.11136 -0.20284,-0.19488c-0.0537,-0.08352 -0.11336,-0.17102 -0.1929,-0.23863c-0.15312,-0.13721 -0.33209,-0.2625 -0.52499,-0.38579c-0.1929,-0.1233 -0.4017,-0.22869 -0.62443,-0.32216z" fill="#855827"/><path d="M181.96873,319.75244c0.03381,-0.26846 0.14915,-0.52101 0.30227,-0.75567c0.07954,-0.11733 0.17301,-0.22472 0.28238,-0.32216c0.10938,-0.09744 0.2287,-0.18494 0.35199,-0.2625c0.12926,-0.07358 0.25256,-0.16107 0.39176,-0.22471c0.13921,-0.06364 0.28636,-0.09347 0.43551,-0.07756c0.14915,0.00994 0.29233,0.05369 0.43153,0.11733c0.0696,0.0338 0.13324,0.07755 0.19886,0.12727c0.02983,0.02386 0.05966,0.05369 0.08949,0.08352l0.04375,0.04972c0.01392,0.01988 0.02983,0.0338 0.03977,0.05369l-0.00994,0.09347c-0.01989,0.01392 -0.03381,0.02983 -0.04972,0.04375l-0.04972,0.03977c-0.03381,0.02387 -0.06364,0.04375 -0.09347,0.06364c-0.06364,0.04375 -0.1233,0.07756 -0.17898,0.10739c-0.11336,0.06364 -0.21875,0.11136 -0.32216,0.14716c-0.02386,0.00994 -0.04972,0.01392 -0.07358,0.02386c-0.02386,0.00994 -0.04972,0.01392 -0.07358,0.01392c-0.04971,0.00398 -0.09943,0.00995 -0.15312,0.00398c-0.10341,-0.00398 -0.21278,-0.00994 -0.31619,0.01392c-0.20284,0.04972 -0.40568,0.12131 -0.60454,0.23466c-0.19886,0.11136 -0.38579,0.26846 -0.54488,0.4534l-0.09347,-0.02386z" fill="#855827"/><path d="M175.77616,323.24645c-0.29214,0 -0.52897,-0.23327 -0.52897,-0.52102c0,-0.28775 0.23683,-0.52102 0.52897,-0.52102c0.29214,0 0.52897,0.23327 0.52897,0.52102c0,0.28775 -0.23683,0.52102 -0.52897,0.52102z" fill="#ffffff"/><path d="M184.12835,323.75951c-0.28994,0 -0.52499,-0.23149 -0.52499,-0.51704c0,-0.28555 0.23504,-0.51704 0.52499,-0.51704c0.28994,0 0.52499,0.23149 0.52499,0.51704c0,0.28555 -0.23504,0.51704 -0.52499,0.51704z" fill="#ffffff"/></g><g data-paper-data="{&quot;index&quot;:null}" fill="#505051"><path d="M183.65307,334.04464c-0.79743,0.09346 -1.79174,0.16903 -2.8994,0.16903c-2.89543,0 -6.57039,-0.52102 -9.56724,-2.63293c-1.57498,-1.10766 -2.64088,-2.75822 -3.00082,-4.64939c-0.31221,-1.63464 -0.51505,-4.18604 0.29233,-7.04567c0.37783,-1.34232 1.09572,-2.53151 2.13577,-3.53775c2.38037,-2.30282 5.61188,-2.86759 5.74909,-2.89145c0.00398,0 0.00795,0 0.01193,0c0.07755,-0.01193 1.92697,-0.27244 4.42666,-0.0517c2.32071,0.20483 5.65165,0.88693 8.34821,2.96702c4.59172,3.54173 5.57409,6.71357 5.66358,7.03573c0.05568,0.1571 0.35,1.07385 0.30625,2.3406c-0.04375,1.2568 -0.44346,3.11616 -2.096,4.84427c-1.5034,1.56703 -5.35535,2.9869 -9.36639,3.45224zM180.73974,314.37723c-2.31873,-0.20881 -4.09456,0.02585 -4.21388,0.04176c-0.14517,0.02585 -3.10622,0.58266 -5.21614,2.62497c-0.91477,0.88493 -1.54516,1.92697 -1.87527,3.10224c-0.75766,2.67867 -0.56676,5.07098 -0.27244,6.6042c0.31221,1.6426 1.23692,3.07639 2.6031,4.03689v0c3.87382,2.73037 9.04025,2.60509 11.7746,2.2889c4.23775,-0.49119 7.61641,-1.9568 8.76185,-3.15196c2.75424,-2.87752 1.58493,-6.17266 1.573,-6.20647c-0.00597,-0.01591 -0.00994,-0.02983 -0.01392,-0.04574c-0.00796,-0.02784 -0.873,-3.10026 -5.32154,-6.53261c-2.49771,-1.92896 -5.61984,-2.56731 -7.79936,-2.76219z"/><path d="M181.68634,337.34969c-3.69883,0 -5.42495,-0.40767 -7.92862,-1.35226c-1.32243,-0.49716 -2.49771,-1.17925 -3.39656,-1.9747c-1.71419,-1.51931 -2.23918,-3.27724 -1.47754,-4.94967c0.11137,-0.24659 0.40568,-0.35596 0.65426,-0.2446c0.24858,0.10937 0.36193,0.39772 0.24858,0.64431c-0.73181,1.6068 0.26846,2.96702 1.23692,3.8261c0.80936,0.71392 1.87725,1.33437 3.08832,1.78777c3.04656,1.14942 4.78263,1.5193 12.2996,1.14345c3.88775,-0.19488 6.33176,-1.32442 7.69595,-2.23918c1.64657,-1.10169 2.31674,-2.24912 2.44003,-2.70054c0.27046,-1.00027 -0.30425,-1.87527 -0.31022,-1.88322c-0.07954,-0.11732 -0.10341,-0.2605 -0.06761,-0.39573c0.96448,-3.56559 0.74971,-6.06925 0.4017,-7.54282c-0.26449,-1.11363 -0.64232,-1.81959 -0.84715,-2.14572c-2.09203,0.19886 -3.76247,-0.25454 -4.96757,-1.34828c-1.68038,-1.52527 -1.92697,-3.8261 -1.95879,-4.70507c-0.72585,-0.26847 -2.70651,-0.92471 -5.16643,-1.13948c-4.10252,-0.35795 -7.53089,0.62244 -10.18371,2.91134l-1.76987,1.66447c-0.19687,0.18693 -0.51107,0.17897 -0.69999,-0.01591c-0.18892,-0.19488 -0.18096,-0.50312 0.01591,-0.69005l1.77782,-1.67243c0,0 0.00994,-0.00994 0.01591,-0.01392c1.58294,-1.36817 3.45224,-2.31475 5.55421,-2.81389c1.67044,-0.39573 3.49201,-0.51107 5.40904,-0.34204c3.25139,0.28835 5.63773,1.28465 5.73716,1.3284c0.18892,0.07955 0.30823,0.26648 0.29829,0.46733c0,0.02585 -0.08552,2.73833 1.64657,4.30337c1.03806,0.93863 2.54344,1.29658 4.4724,1.06192c0.16903,-0.01988 0.33607,0.04574 0.44346,0.175c0.11335,0.13522 2.71446,3.37269 0.83124,10.56751c0.21874,0.40568 0.62442,1.36618 0.32414,2.47782c-0.2108,0.76562 -1.07982,2.07612 -2.83975,3.25338c-1.46959,0.98437 -4.08661,2.2014 -8.20305,2.40623c-1.91703,0.09546 -3.46815,0.14716 -4.77268,0.14716z"/><path d="M201.658,342.43063c-0.10539,0 -0.2088,-0.00597 -0.31022,-0.01591c-0.95255,-0.10341 -1.82953,-0.67016 -2.74628,-1.78379l-6.11897,-0.51903c-0.27244,-0.02386 -0.47329,-0.25852 -0.45142,-0.52698c0.02387,-0.26846 0.26449,-0.46732 0.53494,-0.44346l6.33176,0.53693c0.13722,0.01193 0.26449,0.07954 0.34801,0.18693c0.79147,1.00027 1.49345,1.50339 2.20935,1.58095c0.79943,0.08552 1.72811,-0.34204 3.01077,-1.38805c0.86704,-0.70795 1.33039,-1.43777 1.33834,-2.11191c0.00597,-0.55482 -0.29829,-0.93067 -0.38181,-1.00027c-0.38579,-0.32812 -1.80368,-0.65823 -2.68861,-0.78749c-0.16506,-0.02387 -0.30625,-0.12727 -0.37585,-0.27642c-0.0696,-0.14915 -0.05966,-0.32216 0.02585,-0.46136c0.11931,-0.19289 0.22272,-0.44744 0.25255,-0.60056c-0.16705,0.02585 -0.62642,0.14715 -1.68635,0.69999c-0.7517,0.39176 -1.41589,0.79743 -1.42186,0.8034c-0.10539,0.06562 -0.23266,0.08749 -0.35397,0.06562l-5.32751,-1.00425c-0.26847,-0.04971 -0.44545,-0.30624 -0.39375,-0.57073c0.05171,-0.26449 0.31023,-0.4375 0.57869,-0.38778l5.13859,0.96846c0.25653,-0.15312 0.77755,-0.45738 1.35425,-0.75567c1.5372,-0.79744 2.07413,-0.8392 2.37043,-0.78352c0.30624,0.05568 0.53891,0.22869 0.65624,0.48721c0.13523,0.29829 0.07955,0.65624 -0.02386,0.96249c0.78749,0.15113 2.0085,0.44744 2.54344,0.90482c0.27244,0.23266 0.7338,0.86504 0.72187,1.74799c-0.01193,0.98238 -0.58266,1.94288 -1.69629,2.85168c-1.36419,1.11164 -2.44003,1.62271 -3.43832,1.62271z"/><path d="M170.35519,336.29775c-0.1054,0 -0.21278,-0.03381 -0.30227,-0.10142l-6.0792,-4.63746c-0.93664,-0.09545 -1.7997,-0.73579 -2.39231,-1.77981c-0.61051,-1.06788 -0.5767,-3.92354 0.91675,-4.84228c0.82926,-0.51107 1.65254,-0.35596 2.26106,-0.04176c0.07756,-0.22671 0.20682,-0.44744 0.41562,-0.61051c0.22272,-0.17301 0.61448,-0.33607 1.21902,-0.13721c0.72386,0.23664 1.11164,0.97839 1.1534,2.20736c0.0179,0.51903 -0.03182,1.01022 -0.0696,1.30056l1.9051,1.7997c0.19687,0.18693 0.20284,0.49517 0.01392,0.69005c-0.18892,0.19488 -0.50312,0.20085 -0.69999,0.01392l-2.09004,-1.9747c-0.11932,-0.11336 -0.17301,-0.27642 -0.14517,-0.4375c0.18097,-1.01022 0.14915,-2.50168 -0.38181,-2.67469c-0.13921,-0.04573 -0.25057,-0.05369 -0.29233,-0.02187c-0.10938,0.08352 -0.16903,0.43551 -0.14716,0.69403c0.01591,0.20681 -0.10142,0.40369 -0.2963,0.48522c-0.1929,0.08352 -0.4196,0.03778 -0.56278,-0.11534c-0.03381,-0.0358 -0.87102,-0.89687 -1.75993,-0.35c-0.99033,0.61051 -0.94658,2.89941 -0.57869,3.53974c0.21477,0.37982 0.81335,1.26277 1.72811,1.2926c0.10341,0.00398 0.20483,0.03977 0.28636,0.10142l6.19852,4.72893c0.21676,0.16505 0.25653,0.4713 0.0875,0.68408c-0.09744,0.1233 -0.2446,0.18892 -0.39176,0.18892z"/><path d="M176.00284,344.04937c-0.05568,0 -0.11335,-0.00994 -0.17102,-0.02983c-0.09943,-0.03579 -2.44599,-0.88493 -3.57354,-1.38805c-1.29061,-0.58266 -1.34828,-1.921 -1.34629,-2.19941l-0.77755,-6.43914c-0.03182,-0.26647 0.16108,-0.50908 0.43352,-0.5409c0.27045,-0.03182 0.51704,0.15909 0.55085,0.42556l0.78153,6.47494c0.00398,0.02784 0.00398,0.05568 0.00199,0.08352c0,0.0358 -0.02983,0.95056 0.76562,1.3105c1.09175,0.48721 3.48008,1.35226 3.50394,1.36021c0.25654,0.09346 0.38779,0.37187 0.29432,0.62641c-0.07358,0.19688 -0.2625,0.32017 -0.46534,0.32017z"/><path d="M176.96932,342.30934c-0.07954,0.18494 -0.26249,0.2963 -0.45539,0.2963c-0.06563,0 -0.13125,-0.01193 -0.1929,-0.03977c-0.8909,-0.37386 -2.43606,-0.99629 -2.79003,-1.07385c-0.63039,-0.14517 -0.89289,-0.75567 -0.87698,-1.27669l-0.4713,-4.89598c-0.02585,-0.26846 0.17301,-0.50511 0.44545,-0.53096c0.27245,-0.02586 0.51307,0.17102 0.53892,0.43948l0.47528,4.92779c0.00199,0.02784 0.00398,0.04574 0,0.07358c0,0.05568 0.01988,0.29232 0.10937,0.31221c0.55283,0.12131 2.71247,1.02613 2.95707,1.12755c0.25057,0.10539 0.3679,0.39175 0.26051,0.64033z"/><path d="M178.45283,345.85305c-1.34828,0 -2.446,-1.07982 -2.446,-2.40822c0,-1.3284 1.09772,-2.40822 2.446,-2.40822c1.34828,0 2.446,1.07982 2.446,2.40822c0,1.3284 -1.09772,2.40822 -2.446,2.40822zM178.45482,341.62127c-1.02016,0 -1.8514,0.81732 -1.8514,1.82356c0,1.00624 0.83124,1.82356 1.8514,1.82356c1.02016,0 1.8514,-0.81732 1.8514,-1.82356c0,-1.00624 -0.83124,-1.82356 -1.8514,-1.82356z"/><path d="M179.00965,345.85304c-0.19489,0 -0.40568,-0.0159 -0.63636,-0.0517c-0.10739,-0.01591 -0.18097,-0.11733 -0.16506,-0.22273c0.0179,-0.1054 0.11931,-0.17898 0.2267,-0.16307c0.97641,0.15114 1.7122,-0.07159 2.12384,-0.64232c0.50113,-0.69402 0.44744,-1.79771 0.11136,-2.42412c-0.54289,-1.00425 -2.13577,-0.93664 -2.15168,-0.93465c-0.10937,0.00398 -0.20283,-0.07755 -0.2088,-0.18494c-0.00597,-0.10739 0.07756,-0.19886 0.18693,-0.20483c0.07557,-0.00397 1.86135,-0.07954 2.52157,1.14147c0.40171,0.74374 0.45938,2.00651 -0.13721,2.83179c-0.29631,0.40966 -0.85312,0.85312 -1.87328,0.85312z"/><path d="M180.86702,342.97551c-0.04176,0.00994 -0.08352,0.01591 -0.12528,0.01591c-0.22074,0 -0.4196,-0.14517 -0.47926,-0.36392c-0.06961,-0.26051 0.08948,-0.52699 0.35397,-0.5946l3.90564,-1.00425c0.03381,-0.00795 0.03381,-0.01193 0.06165,-0.01193c0.0517,-0.01392 0.27642,-0.09744 0.45738,-0.47528c0.03381,-0.0696 0.07756,-0.16903 0.13125,-0.28636c0.78352,-1.73209 1.73606,-3.57951 2.87753,-4.14229c0.2446,-0.1213 0.54289,-0.02386 0.6642,0.21676c0.12329,0.24063 0.02386,0.53295 -0.22074,0.65426c-0.97641,0.48323 -2.02242,2.796 -2.41617,3.66701c-0.05568,0.1233 -0.1034,0.2267 -0.1392,0.30426c-0.39375,0.81533 -0.9963,0.98635 -1.18522,1.02215l-3.88576,0.99829z"/><path d="M180.79941,344.82492c-0.04375,0.01193 -0.0875,0.0179 -0.13125,0.0179c-0.21676,0 -0.41761,-0.14119 -0.47727,-0.35795c-0.07358,-0.25852 0.08153,-0.52698 0.34602,-0.59857l5.05904,-1.37016c0.02585,-0.00596 0.02187,-0.00994 0.04176,-0.00994c0.07556,-0.02386 0.64033,-0.23664 1.1176,-1.36419c0.06165,-0.14517 0.12727,-0.30824 0.19886,-0.47926c0.71193,-1.73009 1.78578,-4.34711 3.63917,-4.89796c0.26051,-0.07756 0.53693,0.06761 0.61647,0.32613c0.07955,0.25852 -0.06761,0.53096 -0.33011,0.60852c-1.39999,0.41761 -2.40623,2.86759 -3.00878,4.33121c-0.07159,0.175 -0.1392,0.34005 -0.20284,0.4892c-0.67812,1.60283 -1.6068,1.89714 -1.82555,1.94487l-5.04512,1.36618zM185.64566,342.51018z"/><path d="M191.25755,359.04949c-1.36618,0 -2.97099,-0.15312 -4.48234,-0.67613c-0.13522,-0.04773 -0.24261,-0.14915 -0.2963,-0.2804c-0.02188,-0.05568 -0.53693,-1.36419 0.06761,-2.59117c0.38579,-0.78351 1.11959,-1.34033 2.18151,-1.65254c0.01194,-0.00397 0.02188,-0.00596 0.03381,-0.00795l0.27841,-0.06165l-0.36392,-1.048c-0.42954,-0.00597 -1.16533,-0.06364 -2.00254,-0.3321c-1.2051,-0.38381 -2.86361,-1.28664 -3.92752,-3.41446c-0.12131,-0.24063 -0.01989,-0.53295 0.22471,-0.65227c0.2446,-0.11931 0.54289,-0.01988 0.66221,0.22273c1.74004,3.48008 5.31159,3.19969 5.34739,3.19571c0.2267,-0.01989 0.43948,0.11534 0.51306,0.32812l0.65823,1.90112c0.04573,0.13124 0.03181,0.27442 -0.0358,0.39573c-0.06761,0.12131 -0.18693,0.20682 -0.32414,0.23665l-0.79942,0.17699c-0.77755,0.23267 -1.30056,0.61647 -1.55908,1.13948c-0.2963,0.60256 -0.18494,1.27471 -0.09943,1.60283c3.52382,1.1176 7.57066,0.21875 8.30446,-0.01193c0.06761,-0.32215 0.01989,-1.25283 -0.11335,-2.12583c-0.00199,-0.01989 -0.00398,-0.03778 -0.00597,-0.05767l-0.11335,-3.69087c0,0 0,-0.00994 0,-0.01392c0,-0.06562 0.00596,-1.62271 0.4713,-3.43036c0.39176,-1.5213 0.07358,-3.24543 -0.78948,-4.29144c-1.00624,-1.21106 -0.8571,-3.64712 -0.83721,-3.92155c0.01988,-0.26847 0.25852,-0.46932 0.52897,-0.45142c0.27244,0.01989 0.47727,0.25256 0.45738,0.52102v0c-0.04574,0.63636 -0.02585,2.45992 0.61647,3.23548c1.06988,1.29459 1.45368,3.31502 0.98238,5.14654c-0.41959,1.62868 -0.43948,3.07639 -0.43948,3.18378l0.11335,3.65309c0.01989,0.13125 0.09346,0.66221 0.12926,1.22499c0.07159,1.11362 -0.04772,1.62868 -0.42556,1.83748c-0.32613,0.17898 -1.73009,0.51108 -3.41843,0.64829c-0.45738,0.03779 -0.9784,0.06364 -1.54118,0.06364z"/><path d="M184.50419,351.15669c-0.00995,0 -0.01989,0 -0.03182,0c-2.81787,-0.17102 -5.22409,-0.72187 -7.15703,-1.63663c-1.57101,-0.74375 -2.83378,-1.72612 -3.75252,-2.92327c-1.58493,-2.06021 -1.59487,-4.02695 -1.59487,-4.11047c0,-0.26846 0.22273,-0.48522 0.49517,-0.48522v0c0.27244,0 0.49517,0.22074 0.49318,0.4892c0,0.01591 0.02187,1.7639 1.4318,3.56758c1.88322,2.40821 5.39115,3.83405 10.14394,4.12439c0.27244,0.01591 0.48125,0.24858 0.46335,0.51704c-0.01591,0.25852 -0.23466,0.45738 -0.49318,0.45738z"/><path d="M172.17078,354.31661c-0.72386,0 -1.59686,-0.20682 -2.59117,-0.8213c-3.00082,-1.85935 -4.717,-4.65336 -5.44881,-5.84653l-0.09148,-0.14915c-0.44942,-0.72784 -0.42954,-1.77981 0.04773,-2.61901c0.51306,-0.89886 1.45567,-1.41192 2.58719,-1.41192c1.9389,0 3.18974,0.76561 3.61133,1.07186c0.91079,0.01591 1.49345,0.30625 1.81362,0.53693l0.59062,-0.28238c0.24659,-0.11733 0.54289,-0.01591 0.66221,0.22471c0.11932,0.24261 0.0179,0.53295 -0.22869,0.65227l-0.88692,0.42358c-0.21279,0.10142 -0.4554,0.05767 -0.59659,-0.12727c-0.04574,-0.04971 -0.48125,-0.47726 -1.51334,-0.4534c-0.12528,0 -0.24658,-0.04176 -0.34005,-0.12329c-0.00995,-0.00796 -1.13352,-0.95056 -3.11219,-0.95056c-1.04601,0 -1.52925,0.57471 -1.72413,0.91675c-0.30425,0.53295 -0.33011,1.20311 -0.06562,1.63464l0.09347,0.15113c0.69601,1.13351 2.32668,3.79031 5.12864,5.52637c2.44401,1.51334 3.86388,0.01392 4.06672,-0.22471c0.33807,-0.64829 0.69403,-1.49544 0.69403,-1.76987c0,-0.60851 0.78749,-0.74175 1.20908,-0.81334c0.44147,-0.07557 1.05198,-0.13324 1.81163,-0.17699c1.27669,-0.07159 2.56929,-0.07358 2.58321,-0.07358c0.27244,0 0.49517,0.21875 0.49517,0.48721c0,0.26846 -0.22074,0.48721 -0.49517,0.48721c-0.00994,0 -1.07186,0 -2.20736,0.05369c-1.6068,0.07557 -2.21333,0.20483 -2.43009,0.27045c-0.12131,0.70198 -0.6821,1.79174 -0.80539,2.02441c-0.01193,0.02386 -0.02784,0.04772 -0.04375,0.06761c-0.02187,0.02784 -0.52101,0.67215 -1.44572,1.04601c-0.36392,0.14716 -0.82528,0.26449 -1.37215,0.26449z"/><path d="M200.95405,335.46053c-0.25256,0 -0.46932,-0.19091 -0.49318,-0.44346c-0.00796,-0.08352 -0.76562,-8.39793 -1.25283,-11.16807c-0.14517,-0.82925 -0.4534,-1.40993 -0.91675,-1.72413c-0.53494,-0.36391 -1.11164,-0.26051 -1.1355,-0.25454c-0.26647,0.05568 -0.52897,-0.11335 -0.58465,-0.37585c-0.05767,-0.2625 0.11534,-0.52301 0.3838,-0.57869c0.03977,-0.00796 0.99033,-0.19887 1.88123,0.39573c0.69999,0.46732 1.15538,1.26675 1.34828,2.37242c0.49318,2.80992 1.23095,10.90359 1.26277,11.24762c0.02386,0.26846 -0.17699,0.50511 -0.44943,0.52897c-0.01591,0 -0.02983,0.00199 -0.04375,0.00199z"/><path d="M194.88476,334.52388c-0.05568,0 -0.11335,-0.02386 -0.15113,-0.0696c-0.06961,-0.08153 -0.05966,-0.20483 0.02386,-0.27443l3.74457,-3.09827c0.01193,-0.47528 0.02585,-2.81787 -0.77755,-3.59144c-0.175,-0.16704 -0.37386,-0.24261 -0.60653,-0.2267c-0.10937,0.00796 -0.20284,-0.07357 -0.21079,-0.18096c-0.00796,-0.10738 0.07556,-0.20085 0.18295,-0.2088c0.34801,-0.02386 0.65426,0.08949 0.91079,0.33608c1.01817,0.9784 0.90085,3.84996 0.89488,3.97127c-0.00199,0.05369 -0.02784,0.10539 -0.0696,0.14119l-3.81218,3.15395c-0.03778,0.02983 -0.08153,0.04574 -0.12727,0.04574z"/><path d="M196.39611,335.30343c-0.03778,0.02983 -0.08153,0.04375 -0.12528,0.04375c-0.05767,0 -0.11335,-0.02386 -0.15312,-0.07159c-0.0696,-0.08352 -0.05767,-0.20682 0.02585,-0.27443c0.02586,-0.02187 2.68862,-2.1835 3.14202,-2.55736c0.38381,-0.31619 0.49517,-0.86107 0.35199,-1.71618c-0.1233,-0.73778 -0.93664,-0.90084 -0.97045,-0.90681c-0.10738,-0.01989 -0.17699,-0.12329 -0.1571,-0.22869c0.01989,-0.10539 0.12329,-0.175 0.23068,-0.15511c0.04573,0.00796 1.11959,0.21676 1.28862,1.22698c0.16704,1.00226 0.01193,1.66248 -0.4892,2.0781c-0.45539,0.37585 -3.11815,2.53947 -3.144,2.56134z"/><path d="M199.90008,331.55489c-0.08551,0 -0.16307,-0.05369 -0.18892,-0.13721c-0.2625,-0.84715 -0.89289,-0.7517 -0.96448,-0.73778c-0.10739,0.01989 -0.2108,-0.04772 -0.23267,-0.15312c-0.02188,-0.1054 0.04573,-0.20682 0.15312,-0.22869c0.36193,-0.07557 1.12357,0.03778 1.42385,1.00624c0.03182,0.10341 -0.02784,0.21278 -0.13125,0.24261c-0.01989,0.00596 -0.03778,0.00795 -0.05767,0.00795z"/><path d="M199.8046,332.40402c-0.00795,0.10142 -0.09545,0.17898 -0.19687,0.17898c0,0 -0.00994,0 -0.01591,0c-0.10937,-0.00795 -0.1909,-0.1034 -0.18096,-0.21079c0.03182,-0.38976 -0.03977,-0.67811 -0.21278,-0.85709c-0.20284,-0.20881 -0.48721,-0.20483 -0.4892,-0.20483c-0.10938,0.00398 -0.20085,-0.08153 -0.20483,-0.18892c-0.00397,-0.10738 0.08154,-0.19687 0.19091,-0.20085c0.0179,0 0.46335,-0.01193 0.78948,0.32613c0.25455,0.2625 0.36193,0.65227 0.32017,1.15738z"/><path d="M199.07479,333.06426c-0.01789,0.09346 -0.10141,0.1571 -0.19488,0.1571c-0.01193,0 -0.02585,0 -0.03778,-0.00398c-0.10738,-0.01989 -0.17699,-0.12329 -0.1571,-0.22869c0.0696,-0.35398 0.03182,-0.63238 -0.11335,-0.82528c-0.18892,-0.25057 -0.50511,-0.28835 -0.50909,-0.28835c-0.10938,-0.00994 -0.18892,-0.10539 -0.17699,-0.21278c0.00994,-0.10739 0.10739,-0.18494 0.21676,-0.175c0.01988,0 0.49119,0.0517 0.78749,0.44346c0.21477,0.28636 0.27841,0.66618 0.18494,1.13351z"/><path d="M198.25149,333.73441c0,0 -0.00994,0 -0.01392,0c-0.10937,-0.00795 -0.1909,-0.10141 -0.18295,-0.2088c0.07358,-1.00227 -0.6284,-1.09573 -0.65823,-1.09772c-0.10937,-0.01193 -0.18693,-0.10937 -0.17301,-0.21676c0.01194,-0.10738 0.11137,-0.18295 0.22074,-0.17102c0.01193,0 1.10766,0.14517 1.00624,1.51533c-0.00795,0.1034 -0.09545,0.18096 -0.19687,0.18096z"/><path d="M196.22112,319.19765c-0.07159,0 -0.14517,-0.01989 -0.21079,-0.05966c-0.18494,-0.11534 -0.24062,-0.35597 -0.12329,-0.53892c0.04971,-0.07954 0.10142,-0.23863 0.06761,-0.29829c-0.02983,-0.05369 -0.2088,-0.15312 -0.67414,-0.15312c-1.83151,0 -3.49996,-0.87698 -4.25365,-2.23521c-0.36988,-0.67016 -0.45738,-1.44373 -0.53494,-2.12583c-0.05568,-0.49119 -0.12528,-1.10169 -0.31221,-1.19118c-0.09744,-0.04772 -0.13324,-0.02983 -0.14517,-0.02386c-0.11932,0.05568 -0.23267,0.32016 -0.26449,0.4534c-0.04972,0.2108 -0.26051,0.34205 -0.47528,0.29233c-0.21278,-0.04773 -0.34602,-0.25654 -0.29829,-0.46733c0.0179,-0.07557 0.18693,-0.74375 0.69602,-0.98437c0.17898,-0.08352 0.46931,-0.14716 0.83522,0.02784c0.57869,0.2784 0.65823,0.98635 0.74971,1.80566c0.0696,0.6105 0.14716,1.30254 0.44346,1.83748c0.60653,1.09374 2.03635,1.82953 3.55764,1.82953c0.69999,0 1.16135,0.18693 1.36817,0.55681c0.27443,0.49119 -0.0537,1.0301 -0.09148,1.08976c-0.07557,0.11732 -0.20284,0.18096 -0.33608,0.18096z"/><path d="M179.18664,340.46191c-0.99629,0 -1.80765,-0.79743 -1.80765,-1.77981c0,-0.98237 0.81135,-1.77981 1.80765,-1.77981c0.99629,0 1.80765,0.79942 1.80765,1.77981c0,0.98237 -0.81135,1.77981 -1.80765,1.77981zM179.18663,337.29206c-0.77954,0 -1.41192,0.62442 -1.41192,1.39004c0,0.7676 0.63437,1.39004 1.41192,1.39004c0.77954,0 1.41192,-0.62442 1.41192,-1.39004c0,-0.7676 -0.63437,-1.39004 -1.41192,-1.39004z"/><path d="M180.6403,350.12262c-0.03977,-0.04773 -0.0696,-0.08154 -0.04176,-0.5946c0.01392,-0.27841 0.05568,-0.73181 0.17102,-1.30851c0.20085,-1.01419 0.67016,-2.621 1.76589,-4.51416c0.05369,-0.09347 0.175,-0.12528 0.27045,-0.07358c0.09545,0.05369 0.12727,0.173 0.07358,0.26647c-2.04429,3.52781 -1.89316,6.05932 -1.89117,6.08517l-0.19687,0.01392v0l-0.15113,0.12727z"/><path d="M181.39002,350.19222c-0.00995,0 -0.01989,0 -0.03182,-0.00199c-0.10739,-0.01591 -0.18097,-0.11733 -0.16506,-0.22273c0.03182,-0.20284 0.81334,-4.99938 2.63094,-6.65988c0.07955,-0.07358 0.20483,-0.0696 0.2804,0.00994c0.07358,0.07955 0.0696,0.20284 -0.00994,0.27642c-1.71618,1.56901 -2.50168,6.38544 -2.50765,6.43516c-0.0159,0.09546 -0.09943,0.16506 -0.19488,0.16506z"/><path d="M177.15229,349.09051c-0.05369,0 -0.10739,-0.02187 -0.14716,-0.06562c-1.36021,-1.49146 -2.37441,-5.69937 -2.41617,-5.87636c-0.02585,-0.1054 0.04176,-0.20881 0.14716,-0.23466c0.10738,-0.02386 0.21278,0.03977 0.23863,0.14517c0.00994,0.04176 1.03408,4.28746 2.32668,5.70534c0.07358,0.07955 0.06562,0.20284 -0.01591,0.27443c-0.03778,0.03381 -0.08551,0.04972 -0.13125,0.04972z"/><path d="M175.47388,348.01666c-0.07557,0 -0.14716,-0.04176 -0.17898,-0.11335c-0.64232,-1.36817 -1.66646,-4.98149 -1.70822,-5.13461c-0.02983,-0.10341 0.03181,-0.21079 0.13721,-0.24062c0.1054,-0.02784 0.21477,0.03182 0.2446,0.13523c0.00995,0.03778 1.05795,3.73462 1.68635,5.07495c0.04574,0.09744 0.00199,0.21278 -0.09744,0.25852c-0.02784,0.01193 -0.05568,0.0179 -0.08352,0.0179z"/><path d="M174.58696,341.41644c-0.08551,0 -0.16506,-0.05568 -0.18892,-0.1392l-1.67839,-5.61188c-0.03182,-0.10341 0.02983,-0.21079 0.13324,-0.24261c0.1054,-0.02983 0.21477,0.02784 0.24659,0.13125l1.67839,5.61188c0.03182,0.10341 -0.02983,0.21079 -0.13324,0.24261c-0.0179,0.00596 -0.03778,0.00795 -0.05568,0.00795z"/><path d="M183.95931,341.52383c-0.03778,0 -0.07556,-0.00995 -0.10937,-0.03182c-0.09148,-0.05966 -0.11534,-0.18096 -0.05568,-0.27045l2.94514,-4.37297c0.05966,-0.08949 0.18295,-0.11335 0.27443,-0.05568c0.09148,0.05966 0.11534,0.18096 0.05568,0.27045l-2.94514,4.37297c-0.03779,0.05568 -0.10142,0.0875 -0.16506,0.0875z"/><path d="M188.4675,345.65021c-0.42159,0 -0.82329,-0.00994 -1.19914,-0.02386c-2.49372,-0.10142 -4.38887,-0.47528 -4.40876,-0.47926c-0.10738,-0.02188 -0.17698,-0.12528 -0.15511,-0.23068c0.02188,-0.10539 0.12727,-0.17301 0.23267,-0.15312c0.01789,0.00397 1.88719,0.37386 4.35109,0.4713c2.26504,0.09148 5.51245,-0.0338 8.11356,-1.14743c0.09943,-0.04375 0.21676,0.00199 0.26051,0.10142c0.04375,0.09943 -0.00199,0.21278 -0.10341,0.25653c-2.23918,0.95652 -4.9258,1.20311 -7.09737,1.20311z"/><path d="M189.29079,334.86394c-0.09744,0 -0.18096,-0.0696 -0.19488,-0.16704c-0.01591,-0.10739 0.05965,-0.20483 0.16704,-0.22074c0.01989,-0.00198 1.33238,-0.20284 2.83577,-0.97243c1.3801,-0.70794 3.20764,-2.05623 4.08263,-4.46643c0.03579,-0.10142 0.14914,-0.15511 0.25255,-0.11733c0.10341,0.0358 0.1571,0.14716 0.11932,0.24858c-0.91874,2.53549 -2.83776,3.94939 -4.28348,4.68717c-1.56305,0.79942 -2.89145,0.99829 -2.94713,1.00624c-0.00994,0 -0.01989,0.00199 -0.02983,0.00199z"/><path d="M172.55061,350.20216c-0.05767,0.05767 -0.13522,0.0875 -0.21079,0.0875c-0.07556,0 -0.15113,-0.02784 -0.2088,-0.08352l-4.21388,-4.09456c-0.34801,-0.33807 -0.77159,-0.57272 -1.22698,-0.68011c-0.48124,-0.11136 -0.87698,-0.06363 -1.17726,0.14517c-0.4017,0.2784 -0.65624,0.85311 -0.75567,1.70424c-0.0179,0.16108 -0.16505,0.27642 -0.32812,0.25852c-0.16307,-0.01789 -0.2804,-0.16306 -0.2625,-0.32414c0.11733,-1.02613 0.45539,-1.73805 1.00425,-2.11589c0.43949,-0.30426 1.01221,-0.3858 1.65652,-0.23665c0.56079,0.13125 1.08181,0.4196 1.50737,0.83124l4.21388,4.09456c0.11733,0.11335 0.11733,0.29829 0.00199,0.41363z"/><path d="M182.18149,344.9701c-0.01194,0 -0.02387,0 -0.0358,-0.00398l-1.0838,-0.19488c-0.10739,-0.01988 -0.17898,-0.1213 -0.15909,-0.2267c0.01989,-0.1054 0.12329,-0.17699 0.23068,-0.1571l1.0838,0.19488c0.10739,0.01988 0.17898,0.1213 0.15909,0.2267c-0.01789,0.09347 -0.10141,0.15909 -0.19488,0.15909z"/><path d="M197.5535,334.30515c-0.01591,0 -0.03381,-0.00199 -0.04972,-0.00597c-0.10539,-0.02784 -0.16903,-0.13323 -0.14119,-0.23863c0.0696,-0.26648 0.04773,-0.48125 -0.0696,-0.63835c-0.22869,-0.30624 -0.75169,-0.34005 -0.75766,-0.34005c-0.10938,-0.00597 -0.1929,-0.09744 -0.18892,-0.20483c0.00597,-0.10738 0.09745,-0.18892 0.20682,-0.18494c0.02982,0 0.71391,0.03977 1.05794,0.49914c0.19091,0.25654 0.23665,0.58267 0.13523,0.96846c-0.02387,0.0875 -0.10341,0.14517 -0.19091,0.14517z"/><path d="M196.79585,334.91765c-0.02188,0 -0.04177,-0.00397 -0.06364,-0.00994c-0.10341,-0.03381 -0.15909,-0.14517 -0.12528,-0.24659c0.07557,-0.22273 0.06562,-0.40369 -0.02983,-0.55085c-0.18693,-0.28835 -0.68011,-0.4017 -0.85511,-0.42159c-0.10938,-0.01193 -0.18693,-0.10738 -0.175,-0.21477c0.01193,-0.10739 0.10938,-0.18295 0.21875,-0.17301c0.0338,0.00397 0.81533,0.09147 1.14345,0.59857c0.16307,0.25056 0.18693,0.54886 0.07159,0.88692c-0.02784,0.08154 -0.1054,0.13324 -0.18693,0.13324z"/><path d="M198.8103,335.70315c-0.10539,0 -0.19289,-0.08153 -0.19687,-0.18693l-0.10937,-2.3406c-0.00596,-0.10739 0.07955,-0.19886 0.18892,-0.20284c0.11137,-0.00597 0.20284,0.07755 0.20682,0.18494l0.10937,2.3406c0.00596,0.10739 -0.07955,0.19886 -0.18892,0.20284c-0.00397,0 -0.00596,0 -0.00994,0z"/><path d="M194.84103,342.14827c-0.09744,0 -0.18295,-0.07159 -0.19687,-0.16903c-0.01392,-0.10739 0.06165,-0.20483 0.17102,-0.21875c1.93094,-0.24659 2.00452,-1.61675 2.00651,-1.67442c0.00398,-0.10739 0.09546,-0.1929 0.20483,-0.18892c0.10938,0.00398 0.19489,0.09346 0.19091,0.19886c0,0.01789 -0.01591,0.45738 -0.32017,0.92868c-0.27642,0.42954 -0.85312,0.97243 -2.03038,1.12158c-0.00795,0 -0.0179,0 -0.02585,0z"/><path d="M195.02396,342.91387c-0.09346,0 -0.17499,-0.06363 -0.19488,-0.1571c-0.02188,-0.1054 0.04772,-0.2088 0.15511,-0.22869c2.70452,-0.52897 2.54344,-2.13975 2.53549,-2.20736c-0.01193,-0.10739 0.06364,-0.20284 0.17301,-0.21676c0.10739,-0.01392 0.20682,0.06164 0.22074,0.16704c0.00199,0.02187 0.06563,0.53295 -0.27045,1.1176c-0.30028,0.52301 -0.99033,1.21107 -2.58122,1.52328c-0.01392,0.00199 -0.02585,0.00398 -0.03977,0.00398z"/><path d="M195.88106,343.86443c-0.06761,0 -0.13522,-0.03579 -0.17102,-0.09744c-0.05568,-0.09346 -0.02188,-0.21278 0.07159,-0.26647c1.32045,-0.75369 1.92896,-1.58294 2.20538,-2.14771c0.29829,-0.60852 0.28835,-1.04601 0.28835,-1.04999c-0.00397,-0.10738 0.08154,-0.19687 0.19091,-0.20085c0.10938,-0.00199 0.20085,0.07954 0.20483,0.18693c0.00397,0.07954 0.04772,1.98862 -2.69259,3.54968c-0.03182,0.0179 -0.06562,0.02585 -0.09943,0.02585z"/><path d="M170.20007,330.21059c-0.76164,-2.93321 -0.95056,-5.61187 -0.56278,-7.96242c0.31221,-1.88521 0.99431,-3.5636 2.03038,-4.98745c1.7639,-2.4281 3.90962,-3.26133 3.99911,-3.29713l0.10739,0.27244l-0.05369,-0.13721l0.05369,0.13721c-0.02188,0.00796 -2.16362,0.84317 -3.87383,3.20764c-1.58095,2.1835 -3.10821,6.15676 -1.41192,12.69334l-0.28835,0.07159z"/><path d="M179.32982,340.82782c-1.23294,0 -2.23719,-0.96249 -2.23719,-2.14572c0,-1.18323 1.00425,-2.14572 2.23719,-2.14572c1.23294,0 2.23719,0.96249 2.23719,2.14572c0,1.18323 -1.00425,2.14572 -2.23719,2.14572zM179.32981,336.92615c-1.01618,0 -1.84146,0.78749 -1.84146,1.75595c0,0.96846 0.82528,1.75595 1.84146,1.75595c1.01618,0 1.84146,-0.78749 1.84146,-1.75595c0,-0.96846 -0.82528,-1.75595 -1.84146,-1.75595z"/></g></g></g></svg>