<svg version="1.1" xmlns="http://www.w3.org/2000/svg" xmlns:xlink="http://www.w3.org/1999/xlink" width="85.98" height="17.71" viewBox="0,0,85.98,17.71"><g transform="translate(-144.51,-324.645)"><g data-paper-data="{&quot;isPaintingLayer&quot;:true}" fill-rule="nonzero" stroke="none" stroke-width="0" stroke-linecap="butt" stroke-linejoin="miter" stroke-miterlimit="10" stroke-dasharray="" stroke-dashoffset="0" style="mix-blend-mode: normal"><g fill="#000000" opacity="0.75" style="mix-blend-mode: multiply"><path d="M151.38,331.815c0,0 -0.03,-0.95 -0.08,-2.7c-0.05,-1.75 -0.08,-2.64 -0.08,-2.68v-0.36l0.23,0.02c0.19,0.03 0.48,0.06 0.87,0.1c0.92,0.08 1.52,0.17 1.78,0.26c0.11,0.03 0.17,0.06 0.19,0.08c0.02,0.02 0.03,0.08 0.05,0.18v0.4c0,0.25 0,0.57 0.01,0.97c0,0.4 0.01,0.84 0.01,1.33v6.85c0,0.5 0,0.95 -0.01,1.36c0,0.41 -0.01,0.74 -0.01,0.98v0.4c-0.02,0.16 -0.07,0.26 -0.16,0.29c-0.27,0.1 -0.64,0.14 -1.13,0.14c-0.7,0 -1.14,-0.09 -1.31,-0.26c-0.06,-0.08 -0.13,-1.09 -0.21,-3.02l-0.07,-1.87c-1.02,0.06 -1.6,0.1 -1.74,0.1l-0.68,0.02v0.41c0,0.91 0,1.75 0.02,2.52c0,0.22 0,0.47 0.01,0.73c0,0.26 0.02,0.47 0.02,0.61c0,0.14 0.01,0.26 0.01,0.36c0,0.26 -0.02,0.4 -0.05,0.43c-0.09,0.1 -0.43,0.14 -1.01,0.14c-1.25,0 -1.9,-0.18 -1.95,-0.55c-0.03,-0.27 -0.16,-3.12 -0.4,-8.54c-0.03,-1.01 -0.08,-2.19 -0.14,-3.55c0,-0.13 0,-0.29 -0.01,-0.48c0,-0.19 -0.02,-0.33 -0.02,-0.42c0,-0.09 -0.01,-0.14 -0.01,-0.16c0,-0.06 0.3,-0.1 0.89,-0.1l2.02,0.07c0.17,0.03 0.27,0.06 0.28,0.07c0.05,0.05 0.09,0.98 0.14,2.78c0.03,1.3 0.05,2.02 0.07,2.18l0.02,0.79l0.82,0.02c0.56,0.05 1.08,0.07 1.55,0.07h0.07z" style="mix-blend-mode: normal"/><path d="M156.8,328.095c0.06,-0.02 0.16,-0.02 0.31,-0.02c0.33,0 0.6,0.11 0.82,0.34c0.22,0.22 0.33,0.5 0.33,0.82c0,0.35 -0.13,0.64 -0.39,0.88c-0.26,0.23 -0.55,0.35 -0.88,0.35c-0.3,0 -0.54,-0.09 -0.73,-0.26c-0.23,-0.22 -0.35,-0.5 -0.35,-0.84c0,-0.29 0.08,-0.55 0.25,-0.79c0.16,-0.24 0.38,-0.39 0.65,-0.46zM157.43,331.715c0,0 0.08,0 0.2,-0.01c0.12,0 0.21,-0.01 0.29,-0.01c0.22,0 0.36,0.02 0.41,0.06c0.05,0.04 0.09,0.15 0.11,0.32c0.16,1.57 0.23,3.5 0.23,5.78c0,0.91 -0.02,1.42 -0.07,1.51c-0.09,0.18 -0.43,0.26 -1.01,0.26c-0.55,0 -0.9,-0.07 -1.06,-0.22c-0.11,-0.11 -0.19,-0.65 -0.23,-1.61c0,-0.05 -0.05,-0.83 -0.14,-2.34c-0.09,-1.51 -0.14,-2.57 -0.14,-3.18c0,-0.21 0.02,-0.32 0.07,-0.34c0.22,-0.08 0.66,-0.16 1.34,-0.24z" style="mix-blend-mode: normal"/><path d="M162.03,329.125c0.48,-0.37 1.09,-0.55 1.83,-0.55c0.23,0 0.48,0.02 0.75,0.07c0.52,0.1 0.96,0.22 1.34,0.38l0.33,0.17l0.12,-0.17c0.2,-0.26 0.62,-0.38 1.24,-0.38c0.16,0 0.27,0 0.35,0.02c0.23,0.03 0.39,0.08 0.46,0.16c0.07,0.07 0.13,0.24 0.18,0.49c0.13,0.62 0.26,1.84 0.41,3.65c0.15,1.81 0.23,3.3 0.25,4.46v0.58c0,0.29 -0.02,0.58 -0.07,0.89c-0.17,0.86 -0.54,1.59 -1.1,2.17c-0.56,0.58 -1.28,0.98 -2.14,1.19c-0.25,0.06 -0.66,0.1 -1.24,0.1c-0.42,0 -0.73,-0.02 -0.92,-0.07c-1.36,-0.37 -2.21,-1.42 -2.56,-3.17c-0.05,-0.21 -0.07,-0.42 -0.07,-0.62c0,-0.14 0.04,-0.23 0.12,-0.26c0.22,-0.11 0.66,-0.18 1.34,-0.22h0.31c0.17,0 0.28,0.03 0.34,0.08c0.05,0.06 0.14,0.21 0.27,0.47c0.22,0.48 0.47,0.8 0.75,0.96c0.16,0.08 0.34,0.12 0.54,0.12c0.23,0 0.5,-0.05 0.8,-0.14c0.39,-0.11 0.66,-0.37 0.8,-0.78c0.14,-0.41 0.21,-1 0.21,-1.76c0,-0.7 0,-1.07 -0.02,-1.1c-0.02,-0.05 -0.12,0.02 -0.31,0.22c-0.27,0.27 -0.62,0.47 -1.06,0.6c-0.25,0.06 -0.63,0.1 -1.15,0.1c-0.52,0 -0.93,-0.04 -1.24,-0.12c-0.72,-0.21 -1.24,-0.47 -1.55,-0.79c-0.72,-0.74 -1.08,-1.72 -1.08,-2.95c0,-0.54 0.08,-1.06 0.23,-1.54c0.31,-0.99 0.83,-1.74 1.55,-2.23zM165.76,332.625c-0.06,-0.3 -0.23,-0.57 -0.52,-0.79c-0.28,-0.22 -0.59,-0.34 -0.91,-0.34c-0.25,0 -0.51,0.09 -0.77,0.26c-0.41,0.29 -0.61,0.66 -0.61,1.1c0,0.18 0.05,0.36 0.14,0.55c0.13,0.29 0.32,0.53 0.59,0.72c0.27,0.19 0.53,0.29 0.8,0.29c0.34,0 0.65,-0.16 0.92,-0.48c0.27,-0.32 0.4,-0.67 0.4,-1.06c0,-0.11 0,-0.2 -0.02,-0.26z" style="mix-blend-mode: normal"/><path d="M171.48,325.665c0.2,-0.02 0.56,-0.02 1.06,-0.02c0.5,0 0.77,0.02 0.82,0.05c0.05,0.02 0.09,0.08 0.12,0.19l0.05,3.17l0.02,3.05l0.26,-0.19c0.61,-0.43 1.2,-0.65 1.78,-0.65c0.23,0 0.45,0.03 0.63,0.1c0.78,0.21 1.38,0.68 1.81,1.43c0.43,0.75 0.63,1.68 0.63,2.8c0,0.35 -0.02,0.72 -0.07,1.1c-0.08,0.62 -0.2,1.2 -0.36,1.72c-0.16,0.52 -0.32,0.81 -0.46,0.88l-0.02,0.02h-0.07c-0.52,0 -1.02,-0.15 -1.53,-0.46c-0.16,-0.1 -0.23,-0.2 -0.23,-0.31c0,-0.11 0.05,-0.36 0.14,-0.74c0.2,-0.94 0.31,-1.65 0.31,-2.11c0,-0.94 -0.27,-1.54 -0.8,-1.78c-0.14,-0.05 -0.3,-0.07 -0.47,-0.07c-0.52,0 -0.99,0.19 -1.43,0.58l-0.21,0.19v2.14c0,1.5 0,2.3 -0.02,2.38c-0.02,0.13 -0.06,0.22 -0.12,0.26c-0.09,0.03 -0.38,0.05 -0.84,0.05c-0.83,0 -1.3,-0.02 -1.41,-0.07l-0.16,-0.05l-0.02,-1.42c-0.02,-0.7 -0.02,-2.73 -0.02,-6.07c0,-3.15 0,-4.89 0.02,-5.21c0.03,-0.56 0.05,-0.85 0.07,-0.86c0.02,-0.02 0.2,-0.04 0.54,-0.07z" style="mix-blend-mode: normal"/><path d="M188.99,325.785c0.09,-0.02 0.25,-0.02 0.47,-0.02c0.83,0 1.52,0.17 2.06,0.5c0.53,0.35 0.9,0.94 1.1,1.78c0.12,0.43 0.19,0.91 0.19,1.44c0,0.03 0,0.08 -0.01,0.14c0,0.06 -0.01,0.1 -0.01,0.12l-0.05,0.24c-0.55,0.21 -1.12,0.31 -1.71,0.31h-0.09c-0.2,0 -0.33,-0.03 -0.38,-0.1c-0.05,-0.06 -0.09,-0.28 -0.12,-0.65c-0.05,-0.53 -0.18,-0.86 -0.4,-0.98c-0.13,-0.06 -0.33,-0.1 -0.61,-0.1c-0.28,0 -0.48,0.03 -0.61,0.1c-0.42,0.22 -0.63,0.59 -0.63,1.1c0,0.22 0.04,0.42 0.13,0.6c0.09,0.18 0.24,0.33 0.47,0.47c0.23,0.14 0.41,0.24 0.54,0.3c0.13,0.06 0.37,0.17 0.72,0.31c1.13,0.46 1.89,0.93 2.3,1.39c0.56,0.64 0.84,1.5 0.84,2.59c0,1.09 -0.28,2.05 -0.84,2.83c-0.42,0.56 -0.95,0.95 -1.6,1.18c-0.42,0.14 -0.87,0.22 -1.34,0.22c-0.53,0 -1.03,-0.08 -1.5,-0.24c-1.25,-0.4 -2.1,-1.25 -2.56,-2.54c-0.16,-0.45 -0.23,-0.81 -0.23,-1.08c0,-0.16 0.23,-0.31 0.68,-0.44c0.45,-0.14 0.87,-0.2 1.24,-0.2c0.16,0 0.26,0.02 0.31,0.07c0.03,0.03 0.13,0.22 0.28,0.58c0.31,0.72 0.66,1.18 1.06,1.37c0.13,0.06 0.27,0.1 0.42,0.1c0.27,0 0.53,-0.09 0.79,-0.26c0.26,-0.18 0.45,-0.4 0.58,-0.67c0.08,-0.14 0.12,-0.33 0.12,-0.55c0,-0.22 -0.04,-0.41 -0.12,-0.55c-0.2,-0.43 -0.75,-0.83 -1.64,-1.2c-1.11,-0.45 -1.89,-0.92 -2.35,-1.42c-0.53,-0.54 -0.82,-1.26 -0.87,-2.14v-0.36c0,-1.17 0.31,-2.13 0.93,-2.88c0.62,-0.75 1.43,-1.2 2.45,-1.34z" style="mix-blend-mode: normal"/><path d="M194.27,335.035c0,-1.3 0.32,-2.35 0.96,-3.16c0.64,-0.81 1.54,-1.29 2.7,-1.45c0.05,-0.02 0.17,-0.02 0.38,-0.02c0.53,0 0.95,0.03 1.27,0.1c0.59,0.11 1.05,0.26 1.36,0.46c0.13,0.06 0.2,0.11 0.22,0.14c0.02,0.03 0.03,0.1 0.03,0.19c0,0.29 -0.12,0.86 -0.35,1.73c-0.05,0.18 -0.11,0.27 -0.19,0.29c-0.05,0 -0.24,-0.05 -0.59,-0.14c-0.52,-0.18 -0.94,-0.26 -1.27,-0.26c-0.19,0 -0.36,0.02 -0.52,0.07c-0.44,0.14 -0.79,0.43 -1.07,0.85c-0.27,0.42 -0.41,0.88 -0.41,1.38c0,0.38 0.08,0.74 0.23,1.06c0.27,0.56 0.74,0.92 1.43,1.08c0.19,0.05 0.38,0.07 0.56,0.07c0.45,0 0.99,-0.12 1.6,-0.36c0.34,-0.13 0.53,-0.19 0.56,-0.19c0.23,0 0.35,0.36 0.35,1.08c0,0.42 -0.08,0.7 -0.23,0.84c-0.23,0.21 -0.63,0.41 -1.17,0.6c-0.59,0.21 -1.2,0.31 -1.83,0.31c-1.1,0 -1.96,-0.29 -2.6,-0.86c-0.95,-0.9 -1.43,-2.16 -1.43,-3.79z" style="mix-blend-mode: normal"/><path d="M202.83,334.095c0,-1.33 0.35,-2.43 1.04,-3.3c0.69,-0.87 1.58,-1.4 2.66,-1.57c0.09,-0.02 0.28,-0.02 0.56,-0.02c0.63,0 1.07,0.03 1.34,0.1c1.85,0.4 3.02,1.47 3.52,3.22c0.11,0.38 0.16,0.83 0.16,1.34c0,0.7 -0.1,1.36 -0.31,1.97c-0.52,1.6 -1.57,2.61 -3.17,3.02c-0.22,0.06 -0.61,0.1 -1.17,0.12h-0.4c-0.23,0 -0.49,-0.02 -0.77,-0.07c-1.02,-0.21 -1.82,-0.71 -2.42,-1.51c-0.7,-0.94 -1.06,-2.04 -1.06,-3.29zM209.28,333.905c0,-0.56 -0.15,-0.99 -0.46,-1.3c-0.31,-0.3 -0.74,-0.46 -1.3,-0.46c-0.38,0.02 -0.7,0.16 -0.99,0.44c-0.28,0.28 -0.47,0.65 -0.56,1.12c-0.03,0.19 -0.05,0.33 -0.05,0.41c0,0.48 0.16,0.88 0.48,1.2c0.32,0.32 0.72,0.48 1.21,0.48h0.16c0.44,-0.02 0.8,-0.22 1.08,-0.6c0.28,-0.38 0.42,-0.82 0.42,-1.3z" style="mix-blend-mode: normal"/><path d="M213.18,330.785c0.75,-0.19 1.4,-0.29 1.95,-0.29c0.33,0 0.52,0.04 0.56,0.12c0.05,0.06 0.08,0.2 0.09,0.41l0.02,0.29l0.19,-0.17c0.66,-0.56 1.36,-0.84 2.11,-0.84c0.38,0 0.74,0.08 1.1,0.24c0.89,0.42 1.46,1.21 1.71,2.38l0.05,0.19c-0.88,0.34 -1.52,0.56 -1.92,0.67c-0.09,0.02 -0.17,-0.05 -0.23,-0.19c-0.14,-0.27 -0.28,-0.47 -0.42,-0.6c-0.14,-0.13 -0.34,-0.19 -0.61,-0.19c-0.8,0.03 -1.37,0.49 -1.71,1.37l-0.14,0.34v2.4c0,1.63 0,2.47 -0.02,2.52c-0.03,0.11 -0.12,0.18 -0.27,0.22c-0.15,0.03 -0.5,0.05 -1.04,0.05c-0.59,0 -0.95,-0.02 -1.07,-0.06c-0.12,-0.04 -0.19,-0.15 -0.22,-0.32c-0.08,-0.69 -0.12,-2.75 -0.12,-6.19v-2.33z" style="mix-blend-mode: normal"/><path d="M225.49,330.185c0,0 0.09,0 0.18,-0.01c0.09,0 0.15,-0.01 0.2,-0.01c0.58,0 1.06,0.08 1.45,0.24c0.95,0.4 1.61,1.3 1.97,2.71c0.14,0.54 0.21,1.09 0.21,1.63c0,0.26 -0.02,0.4 -0.07,0.43c-0.17,0.11 -1.43,0.22 -3.78,0.31l-1.13,0.07c0,0 -0.02,0.13 -0.02,0.38c0,0.5 0.14,0.88 0.41,1.15c0.27,0.27 0.65,0.41 1.14,0.41c0.25,0 0.45,-0.03 0.59,-0.1c0.36,-0.18 0.63,-0.54 0.8,-1.1c0,-0.05 0.05,-0.07 0.16,-0.07c0.14,0 0.36,0.04 0.66,0.12c0.3,0.08 0.55,0.15 0.77,0.22l0.35,0.12c0.11,0.05 0.16,0.13 0.16,0.24c0,0.24 -0.14,0.56 -0.41,0.96c-0.27,0.4 -0.58,0.74 -0.93,1.01c-0.66,0.53 -1.45,0.79 -2.37,0.79c-0.16,0 -0.27,0 -0.35,-0.02c-0.99,-0.11 -1.82,-0.58 -2.5,-1.42c-0.68,-0.83 -1.04,-1.85 -1.07,-3.05v-0.22c0,-1.28 0.32,-2.37 0.95,-3.28c0.63,-0.9 1.51,-1.41 2.62,-1.52zM226.29,332.465c-0.16,-0.08 -0.31,-0.12 -0.45,-0.12c-0.36,0 -0.64,0.16 -0.84,0.48c-0.2,0.27 -0.3,0.54 -0.3,0.82v0.12h0.42c0.41,0 0.81,-0.02 1.22,-0.07c0.41,-0.05 0.61,-0.1 0.61,-0.14c0,-0.02 -0.03,-0.12 -0.09,-0.31c-0.13,-0.37 -0.31,-0.62 -0.56,-0.77z" style="mix-blend-mode: normal"/></g><path d="M150.51,330.815c0,0 -0.03,-0.95 -0.08,-2.7c-0.06,-1.75 -0.08,-2.64 -0.08,-2.68v-0.36l0.24,0.02c0.19,0.03 0.49,0.06 0.89,0.1c0.94,0.08 1.55,0.17 1.82,0.26c0.11,0.03 0.18,0.06 0.19,0.08c0.02,0.02 0.03,0.08 0.05,0.18v0.4c0,0.25 0,0.57 0.01,0.97c0,0.4 0.01,0.84 0.01,1.33v6.85c0,0.5 0,0.95 -0.01,1.36c0,0.41 -0.01,0.74 -0.01,0.98v0.4c-0.02,0.16 -0.07,0.26 -0.17,0.29c-0.27,0.1 -0.66,0.14 -1.15,0.14c-0.72,0 -1.17,-0.09 -1.34,-0.26c-0.06,-0.08 -0.14,-1.09 -0.22,-3.02l-0.07,-1.87c-1.04,0.06 -1.63,0.1 -1.78,0.1l-0.7,0.02v0.41c0,0.91 0,1.75 0.02,2.52c0,0.22 0,0.47 0.01,0.73c0,0.26 0.02,0.47 0.02,0.61c0,0.14 0.01,0.26 0.01,0.36c0,0.26 -0.02,0.4 -0.05,0.43c-0.1,0.1 -0.44,0.14 -1.03,0.14c-1.28,0 -1.94,-0.18 -1.99,-0.55c-0.03,-0.27 -0.17,-3.12 -0.41,-8.54c-0.03,-1.01 -0.08,-2.19 -0.14,-3.55c0,-0.13 0,-0.29 -0.01,-0.48c0,-0.19 -0.02,-0.33 -0.02,-0.42c0,-0.09 -0.01,-0.14 -0.01,-0.16c0,-0.06 0.3,-0.1 0.91,-0.1l2.06,0.07c0.18,0.03 0.27,0.06 0.29,0.07c0.05,0.05 0.1,0.98 0.14,2.78c0.03,1.3 0.06,2.02 0.07,2.18l0.02,0.79l0.84,0.02c0.58,0.05 1.1,0.07 1.58,0.07h0.07z" fill="#ffffff"/><path d="M156.05,327.095c0.06,-0.02 0.17,-0.02 0.31,-0.02c0.34,0 0.62,0.11 0.84,0.34c0.22,0.22 0.34,0.5 0.34,0.82c0,0.35 -0.13,0.64 -0.4,0.88c-0.26,0.23 -0.56,0.35 -0.9,0.35c-0.3,0 -0.55,-0.09 -0.74,-0.26c-0.24,-0.22 -0.36,-0.5 -0.36,-0.84c0,-0.29 0.08,-0.55 0.25,-0.79c0.17,-0.24 0.39,-0.39 0.66,-0.46zM156.7,330.715c0,0 0.08,0 0.2,-0.01c0.12,0 0.22,-0.01 0.3,-0.01c0.22,0 0.36,0.02 0.42,0.06c0.06,0.04 0.09,0.15 0.11,0.32c0.16,1.57 0.24,3.5 0.24,5.78c0,0.91 -0.02,1.42 -0.07,1.51c-0.1,0.18 -0.44,0.26 -1.03,0.26c-0.56,0 -0.92,-0.07 -1.08,-0.22c-0.11,-0.11 -0.19,-0.65 -0.24,-1.61c0,-0.05 -0.05,-0.83 -0.14,-2.34c-0.1,-1.51 -0.14,-2.57 -0.14,-3.18c0,-0.21 0.02,-0.32 0.07,-0.34c0.22,-0.08 0.68,-0.16 1.37,-0.24z" fill="#ffffff"/><path d="M161.41,328.125c0.5,-0.37 1.12,-0.55 1.87,-0.55c0.24,0 0.5,0.02 0.77,0.07c0.53,0.1 0.98,0.22 1.37,0.38l0.34,0.17l0.12,-0.17c0.21,-0.26 0.63,-0.38 1.27,-0.38c0.16,0 0.28,0 0.36,0.02c0.24,0.03 0.4,0.08 0.47,0.16c0.07,0.07 0.13,0.24 0.18,0.49c0.13,0.62 0.27,1.84 0.42,3.65c0.15,1.81 0.24,3.3 0.25,4.46v0.58c0,0.29 -0.02,0.58 -0.07,0.89c-0.18,0.86 -0.55,1.59 -1.13,2.17c-0.58,0.58 -1.3,0.98 -2.18,1.19c-0.26,0.06 -0.68,0.1 -1.27,0.1c-0.43,0 -0.74,-0.02 -0.94,-0.07c-1.39,-0.37 -2.26,-1.42 -2.62,-3.17c-0.05,-0.21 -0.07,-0.42 -0.07,-0.62c0,-0.14 0.04,-0.23 0.12,-0.26c0.22,-0.11 0.68,-0.18 1.37,-0.22h0.31c0.18,0 0.29,0.03 0.35,0.08c0.06,0.06 0.15,0.21 0.28,0.47c0.22,0.48 0.48,0.8 0.77,0.96c0.16,0.08 0.34,0.12 0.55,0.12c0.24,0 0.51,-0.05 0.82,-0.14c0.4,-0.11 0.67,-0.37 0.82,-0.78c0.14,-0.41 0.22,-1 0.22,-1.76c0,-0.7 0,-1.07 -0.02,-1.1c-0.02,-0.05 -0.12,0.02 -0.31,0.22c-0.27,0.27 -0.63,0.47 -1.08,0.6c-0.26,0.06 -0.65,0.1 -1.18,0.1c-0.53,0 -0.95,-0.04 -1.27,-0.12c-0.74,-0.21 -1.26,-0.47 -1.58,-0.79c-0.74,-0.74 -1.1,-1.72 -1.1,-2.95c0,-0.54 0.08,-1.06 0.24,-1.54c0.32,-0.99 0.85,-1.74 1.58,-2.23zM165.22,331.625c-0.06,-0.3 -0.24,-0.57 -0.53,-0.79c-0.29,-0.22 -0.6,-0.34 -0.94,-0.34c-0.26,0 -0.52,0.09 -0.79,0.26c-0.42,0.29 -0.62,0.66 -0.62,1.1c0,0.18 0.05,0.36 0.14,0.55c0.13,0.29 0.33,0.53 0.6,0.72c0.27,0.19 0.54,0.29 0.82,0.29c0.35,0 0.66,-0.16 0.94,-0.48c0.28,-0.32 0.41,-0.67 0.41,-1.06c0,-0.11 0,-0.2 -0.02,-0.26z" fill="#ffffff"/><path d="M171.08,324.665c0.21,-0.02 0.57,-0.02 1.08,-0.02c0.51,0 0.79,0.02 0.84,0.05c0.05,0.02 0.09,0.08 0.12,0.19l0.05,3.17l0.02,3.05l0.26,-0.19c0.62,-0.43 1.23,-0.65 1.82,-0.65c0.24,0 0.46,0.03 0.65,0.1c0.8,0.21 1.42,0.68 1.85,1.43c0.43,0.75 0.65,1.68 0.65,2.8c0,0.35 -0.02,0.72 -0.07,1.1c-0.08,0.62 -0.2,1.2 -0.37,1.72c-0.17,0.52 -0.32,0.81 -0.47,0.88l-0.02,0.02h-0.07c-0.53,0 -1.05,-0.15 -1.56,-0.46c-0.16,-0.1 -0.24,-0.2 -0.24,-0.31c0,-0.11 0.05,-0.36 0.14,-0.74c0.21,-0.94 0.31,-1.65 0.31,-2.11c0,-0.94 -0.27,-1.54 -0.82,-1.78c-0.14,-0.05 -0.3,-0.07 -0.48,-0.07c-0.53,0 -1.02,0.19 -1.46,0.58l-0.22,0.19v2.14c0,1.5 0,2.3 -0.02,2.38c-0.02,0.13 -0.06,0.22 -0.12,0.26c-0.1,0.03 -0.38,0.05 -0.86,0.05c-0.85,0 -1.33,-0.02 -1.44,-0.07l-0.17,-0.05l-0.02,-1.42c-0.02,-0.7 -0.02,-2.73 -0.02,-6.07c0,-3.15 0,-4.89 0.02,-5.21c0.03,-0.56 0.06,-0.85 0.07,-0.86c0.02,-0.02 0.2,-0.04 0.55,-0.07z" fill="#ffffff"/><path d="M188.98,324.785c0.1,-0.02 0.26,-0.02 0.48,-0.02c0.85,0 1.55,0.17 2.11,0.5c0.54,0.35 0.92,0.94 1.13,1.78c0.13,0.43 0.19,0.91 0.19,1.44c0,0.03 0,0.08 -0.01,0.14c0,0.06 -0.01,0.1 -0.01,0.12l-0.05,0.24c-0.56,0.21 -1.14,0.31 -1.75,0.31h-0.1c-0.21,0 -0.34,-0.03 -0.38,-0.1c-0.05,-0.06 -0.09,-0.28 -0.12,-0.65c-0.05,-0.53 -0.18,-0.86 -0.41,-0.98c-0.13,-0.06 -0.34,-0.1 -0.62,-0.1c-0.28,0 -0.5,0.03 -0.62,0.1c-0.43,0.22 -0.65,0.59 -0.65,1.1c0,0.22 0.04,0.42 0.13,0.6c0.09,0.18 0.25,0.33 0.48,0.47c0.23,0.14 0.42,0.24 0.55,0.3c0.14,0.06 0.38,0.17 0.73,0.31c1.15,0.46 1.94,0.93 2.35,1.39c0.58,0.64 0.86,1.5 0.86,2.59c0,1.09 -0.29,2.05 -0.86,2.83c-0.43,0.56 -0.98,0.95 -1.63,1.18c-0.43,0.14 -0.89,0.22 -1.37,0.22c-0.54,0 -1.06,-0.08 -1.54,-0.24c-1.28,-0.4 -2.15,-1.25 -2.62,-2.54c-0.16,-0.45 -0.24,-0.81 -0.24,-1.08c0,-0.16 0.23,-0.31 0.7,-0.44c0.46,-0.14 0.89,-0.2 1.27,-0.2c0.16,0 0.26,0.02 0.31,0.07c0.03,0.03 0.13,0.22 0.29,0.58c0.32,0.72 0.68,1.18 1.08,1.37c0.13,0.06 0.27,0.1 0.43,0.1c0.27,0 0.54,-0.09 0.8,-0.26c0.26,-0.18 0.46,-0.4 0.59,-0.67c0.08,-0.14 0.12,-0.33 0.12,-0.55c0,-0.22 -0.04,-0.41 -0.12,-0.55c-0.21,-0.43 -0.77,-0.83 -1.68,-1.2c-1.14,-0.45 -1.94,-0.92 -2.4,-1.42c-0.54,-0.54 -0.84,-1.26 -0.89,-2.14v-0.36c0,-1.17 0.32,-2.13 0.95,-2.88c0.63,-0.75 1.47,-1.2 2.51,-1.34z" fill="#ffffff"/><path d="M194.38,334.035c0,-1.3 0.33,-2.35 0.98,-3.16c0.66,-0.81 1.58,-1.29 2.76,-1.45c0.05,-0.02 0.18,-0.02 0.38,-0.02c0.54,0 0.98,0.03 1.3,0.1c0.61,0.11 1.07,0.26 1.39,0.46c0.13,0.06 0.2,0.11 0.23,0.14c0.02,0.03 0.04,0.1 0.04,0.19c0,0.29 -0.12,0.86 -0.36,1.73c-0.05,0.18 -0.11,0.27 -0.19,0.29c-0.05,0 -0.25,-0.05 -0.6,-0.14c-0.53,-0.18 -0.96,-0.26 -1.3,-0.26c-0.19,0 -0.37,0.02 -0.53,0.07c-0.45,0.14 -0.81,0.43 -1.09,0.85c-0.28,0.42 -0.42,0.88 -0.42,1.38c0,0.38 0.08,0.74 0.24,1.06c0.27,0.56 0.76,0.92 1.46,1.08c0.19,0.05 0.38,0.07 0.58,0.07c0.46,0 1.01,-0.12 1.63,-0.36c0.35,-0.13 0.54,-0.19 0.58,-0.19c0.24,0 0.36,0.36 0.36,1.08c0,0.42 -0.08,0.7 -0.24,0.84c-0.24,0.21 -0.64,0.41 -1.2,0.6c-0.61,0.21 -1.23,0.31 -1.87,0.31c-1.12,0 -2.01,-0.29 -2.66,-0.86c-0.98,-0.9 -1.46,-2.16 -1.46,-3.79z" fill="#ffffff"/><path d="M203.14,333.095c0,-1.33 0.36,-2.43 1.07,-3.3c0.71,-0.87 1.62,-1.4 2.72,-1.57c0.1,-0.02 0.29,-0.02 0.58,-0.02c0.64,0 1.1,0.03 1.37,0.1c1.89,0.4 3.09,1.47 3.6,3.22c0.11,0.38 0.17,0.83 0.17,1.34c0,0.7 -0.1,1.36 -0.31,1.97c-0.53,1.6 -1.61,2.61 -3.24,3.02c-0.22,0.06 -0.62,0.1 -1.2,0.12h-0.41c-0.24,0 -0.5,-0.02 -0.79,-0.07c-1.04,-0.21 -1.86,-0.71 -2.47,-1.51c-0.72,-0.94 -1.08,-2.04 -1.08,-3.29zM209.74,332.905c0,-0.56 -0.16,-0.99 -0.47,-1.3c-0.31,-0.3 -0.76,-0.46 -1.33,-0.46c-0.38,0.02 -0.72,0.16 -1.01,0.44c-0.29,0.28 -0.48,0.65 -0.58,1.12c-0.03,0.19 -0.05,0.33 -0.05,0.41c0,0.48 0.16,0.88 0.49,1.2c0.33,0.32 0.74,0.48 1.24,0.48h0.17c0.45,-0.02 0.82,-0.22 1.1,-0.6c0.29,-0.38 0.43,-0.82 0.43,-1.3z" fill="#ffffff"/><path d="M213.72,329.785c0.77,-0.19 1.43,-0.29 1.99,-0.29c0.34,0 0.53,0.04 0.58,0.12c0.05,0.06 0.08,0.2 0.1,0.41l0.02,0.29l0.19,-0.17c0.67,-0.56 1.39,-0.84 2.16,-0.84c0.38,0 0.76,0.08 1.13,0.24c0.91,0.42 1.5,1.21 1.75,2.38l0.05,0.19c-0.9,0.34 -1.55,0.56 -1.97,0.67c-0.1,0.02 -0.18,-0.05 -0.24,-0.19c-0.14,-0.27 -0.29,-0.47 -0.43,-0.6c-0.14,-0.13 -0.35,-0.19 -0.62,-0.19c-0.82,0.03 -1.4,0.49 -1.75,1.37l-0.14,0.34v2.4c0,1.63 0,2.47 -0.02,2.52c-0.03,0.11 -0.12,0.18 -0.28,0.22c-0.15,0.03 -0.51,0.05 -1.07,0.05c-0.61,0 -0.97,-0.02 -1.09,-0.06c-0.12,-0.04 -0.2,-0.15 -0.23,-0.32c-0.08,-0.69 -0.12,-2.75 -0.12,-6.19v-2.33z" fill="#ffffff"/><path d="M226.32,329.185c0,0 0.09,0 0.18,-0.01c0.09,0 0.16,-0.01 0.2,-0.01c0.59,0 1.09,0.08 1.49,0.24c0.98,0.4 1.65,1.3 2.02,2.71c0.14,0.54 0.22,1.09 0.22,1.63c0,0.26 -0.02,0.4 -0.07,0.43c-0.18,0.11 -1.46,0.22 -3.86,0.31l-1.15,0.07c0,0 -0.02,0.13 -0.02,0.38c0,0.5 0.14,0.88 0.42,1.15c0.28,0.27 0.67,0.41 1.16,0.41c0.26,0 0.46,-0.03 0.6,-0.1c0.37,-0.18 0.64,-0.54 0.82,-1.1c0,-0.05 0.06,-0.07 0.17,-0.07c0.14,0 0.37,0.04 0.67,0.12c0.3,0.08 0.57,0.15 0.79,0.22l0.36,0.12c0.11,0.05 0.17,0.13 0.17,0.24c0,0.24 -0.14,0.56 -0.42,0.96c-0.28,0.4 -0.6,0.74 -0.95,1.01c-0.67,0.53 -1.48,0.79 -2.42,0.79c-0.16,0 -0.28,0 -0.36,-0.02c-1.01,-0.11 -1.86,-0.58 -2.56,-1.42c-0.7,-0.83 -1.06,-1.85 -1.09,-3.05v-0.22c0,-1.28 0.32,-2.37 0.97,-3.28c0.65,-0.9 1.54,-1.41 2.68,-1.52zM227.14,331.465c-0.16,-0.08 -0.31,-0.12 -0.46,-0.12c-0.37,0 -0.66,0.16 -0.86,0.48c-0.21,0.27 -0.31,0.54 -0.31,0.82v0.12h0.43c0.42,0 0.83,-0.02 1.25,-0.07c0.42,-0.05 0.62,-0.1 0.62,-0.14c0,-0.02 -0.03,-0.12 -0.1,-0.31c-0.13,-0.37 -0.32,-0.62 -0.58,-0.77z" fill="#ffffff"/></g></g></svg>