<svg version="1.1" xmlns="http://www.w3.org/2000/svg" xmlns:xlink="http://www.w3.org/1999/xlink" width="56.73" height="29.15" viewBox="0,0,56.73,29.15"><g transform="translate(-158.22173,-319.11123)"><g data-paper-data="{&quot;isPaintingLayer&quot;:true}" fill-rule="nonzero" stroke="none" stroke-width="0" stroke-linecap="butt" stroke-linejoin="miter" stroke-miterlimit="10" stroke-dasharray="" stroke-dashoffset="0" style="mix-blend-mode: normal"><path d="M162.81173,347.12123c-2.53499,0 -4.59,-2.05501 -4.59,-4.59v-18.83c0,-2.53499 2.05501,-4.59 4.59,-4.59h46.71c2.53499,0 4.59,2.05501 4.59,4.59v18.83c0,2.53499 -2.05501,4.59 -4.59,4.59z" fill="#000000"/><path d="M163.65173,348.26123c-2.53499,0 -4.59,-2.05501 -4.59,-4.59v-18.83c0,-2.53499 2.05501,-4.59 4.59,-4.59h46.71c2.53499,0 4.59,2.05501 4.59,4.59v18.83c0,2.53499 -2.05501,4.59 -4.59,4.59z" fill="#ffffff"/><path d="M198.04173,336.43123c1.2,0.75 1.96,1.85 2.1,3c0.13,1.07 -0.29,2.27 -1.13,3.29c-0.76,0.92 -2,1.81 -3.41,1.9c-0.28,0.01 -0.57,0 -0.86,-0.05c-1.53,-0.26 -3.21,-1.56 -3.67,-3.49l-13.39,-5.77c-0.18,0.63 -0.52,1.26 -0.99,1.83c-0.76,0.92 -2,1.81 -3.41,1.9c-0.28,0.01 -0.57,0 -0.86,-0.05c-1.71,-0.3 -3.62,-1.87 -3.79,-4.18c-0.14,-1.89 0.95,-3.49 2.1,-4.23c1.66,-1.07 3.72,-0.53 4.98,0.26c0.34,0.21 0.64,0.46 0.91,0.72l9.6,-5.82c0.13,-1.58 1.1,-2.88 2.1,-3.53c1.66,-1.07 3.72,-0.53 4.98,0.26c1.2,0.75 1.96,1.85 2.1,3c0.13,1.07 -0.29,2.27 -1.13,3.29c-0.76,0.92 -2,1.81 -3.41,1.9c-0.28,0.01 -0.57,0 -0.86,-0.05c-1.35,-0.24 -2.8,-1.27 -3.45,-2.82l-8.9,5.4l13.41,5.78c0.32,-1.25 1.13,-2.26 1.98,-2.81c1.66,-1.07 3.72,-0.53 4.98,0.26zM176.17173,334.08123c-0.06,-0.47 -0.53,-1.05 -1.2,-1.47c-0.97,-0.61 -2.41,-0.93 -3.44,-0.26c-0.56,0.36 -1.35,1.27 -1.27,2.33c0.1,1.27 1.42,2.17 2.34,2.33c0.96,0.17 2.09,-0.35 2.89,-1.31c0.46,-0.55 0.73,-1.19 0.68,-1.62zM189.11173,323.98123c-0.55,0.36 -1.34,1.27 -1.26,2.33c0.1,1.27 1.42,2.17 2.34,2.33c0.96,0.17 2.09,-0.35 2.89,-1.31c0.47,-0.55 0.73,-1.19 0.68,-1.62c-0.06,-0.47 -0.53,-1.05 -1.2,-1.47c-0.97,-0.61 -2.4,-0.93 -3.44,-0.26zM198.49173,339.65123c-0.06,-0.47 -0.53,-1.05 -1.2,-1.47c-0.65,-0.4 -1.49,-0.67 -2.29,-0.62c-0.41,0.03 -0.81,0.14 -1.16,0.37c-0.55,0.36 -1.34,1.27 -1.26,2.33c0.1,1.27 1.42,2.17 2.34,2.33c0.96,0.17 2.09,-0.35 2.89,-1.31c0.46,-0.56 0.73,-1.2 0.68,-1.63z" fill="#000000"/><path d="M198.04173,337.57123c1.2,0.75 1.96,1.85 2.1,3c0.13,1.07 -0.29,2.27 -1.13,3.29c-0.76,0.92 -2,1.81 -3.41,1.9c-0.28,0.01 -0.57,0 -0.86,-0.05c-1.53,-0.26 -3.21,-1.56 -3.67,-3.49l-13.39,-5.77c-0.18,0.63 -0.52,1.26 -0.99,1.83c-0.76,0.92 -2,1.81 -3.41,1.9c-0.28,0.01 -0.57,0 -0.86,-0.05c-1.71,-0.3 -3.62,-1.87 -3.79,-4.18c-0.14,-1.89 0.95,-3.49 2.1,-4.23c1.66,-1.07 3.72,-0.53 4.98,0.26c0.34,0.21 0.64,0.46 0.91,0.72l9.6,-5.82c0.13,-1.58 1.1,-2.88 2.1,-3.53c1.66,-1.07 3.72,-0.53 4.98,0.26c1.2,0.75 1.96,1.85 2.1,3c0.13,1.07 -0.29,2.27 -1.13,3.29c-0.76,0.92 -2,1.81 -3.41,1.9c-0.28,0.01 -0.57,0 -0.86,-0.05c-1.35,-0.24 -2.8,-1.27 -3.45,-2.82l-8.9,5.4v0l13.41,5.78c0.32,-1.25 1.13,-2.26 1.98,-2.81c1.66,-1.07 3.72,-0.53 4.98,0.26zM176.17173,335.22123c-0.06,-0.47 -0.53,-1.05 -1.2,-1.47c-0.97,-0.61 -2.41,-0.93 -3.44,-0.26c-0.56,0.36 -1.35,1.27 -1.27,2.33c0.1,1.27 1.42,2.17 2.34,2.33c0.96,0.17 2.09,-0.35 2.89,-1.31c0.46,-0.55 0.73,-1.19 0.68,-1.62zM189.11173,325.12123c-0.55,0.36 -1.34,1.27 -1.26,2.33c0.1,1.27 1.42,2.17 2.34,2.33c0.96,0.17 2.09,-0.35 2.89,-1.31c0.47,-0.55 0.73,-1.19 0.68,-1.62c-0.06,-0.47 -0.53,-1.05 -1.2,-1.47c-0.97,-0.61 -2.4,-0.93 -3.44,-0.26zM198.49173,340.79123c-0.06,-0.47 -0.53,-1.05 -1.2,-1.47c-0.65,-0.4 -1.49,-0.67 -2.29,-0.62c-0.41,0.03 -0.81,0.14 -1.16,0.37c-0.55,0.36 -1.34,1.27 -1.26,2.33c0.1,1.27 1.42,2.17 2.34,2.33c0.96,0.17 2.09,-0.35 2.89,-1.31c0.46,-0.56 0.73,-1.2 0.68,-1.63z" fill="#ffb05f"/></g></g></svg>