<svg version="1.1" xmlns="http://www.w3.org/2000/svg" xmlns:xlink="http://www.w3.org/1999/xlink" width="51.11574" height="50.34409" viewBox="0,0,51.11574,50.34409"><g transform="translate(-161.94213,-308.32795)"><g data-paper-data="{&quot;isPaintingLayer&quot;:true}" fill-rule="nonzero" stroke="none" stroke-width="0" stroke-linecap="butt" stroke-linejoin="miter" stroke-miterlimit="10" stroke-dasharray="" stroke-dashoffset="0" style="mix-blend-mode: normal"><g><path d="M177.02706,312.31481l5.79524,1.0796l1.36702,-0.46502c6.87951,-1.80868 11.96203,0.92537 11.96203,0.92537l-1.95122,-4.45392c13.05331,5.51249 10.81466,18.26902 10.81466,18.26902l2.94436,-2.57748c0,0 -0.1332,0.4954 1.32262,0c1.45582,-0.4954 3.2201,0.71272 3.2201,2.90697c0,2.19425 -4.05667,5.11991 -4.05667,5.11991l-4.95166,5.79524l-1.24317,4.16416l2.76442,0.19162c0,0 1.57733,-0.96977 3.34161,-0.96977c1.76428,0 1.27822,3.45378 1.27822,3.45378l-5.24843,5.53352c0,0 -1.18943,1.07025 -2.33679,-0.2734c-1.14503,-1.34365 -4.09873,-1.52359 -4.09873,-1.52359c0,0 -3.17803,1.01417 -4.89791,1.52359c-1.71988,0.50942 -4.86753,-0.26873 -5.51249,0.7244c-0.64495,0.9908 -5.38163,1.23382 -5.38163,1.23382l-0.70571,0.83891c0,0 1.01417,0.52811 1.9629,1.32262c0.9464,0.79451 -1.34599,2.32511 -1.34599,2.32511l-1.36702,0.76179l-1.27822,-0.19395l-2.01431,-0.2033l-1.89981,-4.71798c0,0 -1.37871,-0.61691 -6.53834,-0.41829c-5.15963,0.19863 -6.70191,-6.63648 -6.79071,-8.40543c-0.0888,-1.76895 3.52154,-3.54257 3.52154,-3.54257l0.89265,0.90667c0,0 3.06587,1.41376 4.79042,2.79947c1.72455,1.38572 4.1221,1.51658 4.1221,1.51658l0.46268,-1.1941l2.74573,-4.54506l-5.02643,-0.52344c0,0 0.25471,1.18709 -0.30612,1.94421c-0.56083,0.75478 -2.60786,0.21498 -2.60786,0.21498c-2.82518,0.83657 -3.21776,0.0888 -4.05433,-1.63809c-0.83891,-1.72455 2.73404,-3.58697 2.73404,-3.58697l9.12049,-2.66861c0,0 -0.75712,-2.95838 -1.16606,-6.29531c-0.40894,-3.33694 1.16606,-9.22798 1.16606,-9.22798l-1.55163,-6.12706" fill="#f2b65e"/><path d="M202.2083,334.01891c0,0 6.1995,-17.18241 -7.23937,-24.47787c0,0 17.02118,8.66949 7.23937,24.47787z" fill="#fdd29d"/><path d="M189.35596,351.00036l0.32248,-1.51424c10.95954,1.25719 14.20301,-14.32218 14.20301,-14.32218c-1.36702,18.42325 -14.52548,15.83642 -14.52548,15.83642z" fill="#fdd29d"/><path d="M189.04283,344.65832c0.9908,3.93749 -0.76179,7.24171 -4.20155,7.77216c-3.43975,0.53045 -4.86286,-2.01665 -4.86286,-2.01665c8.10165,4.29969 9.06207,-5.75551 9.06207,-5.75551z" fill="#fdd29d"/><path d="M201.86713,344.29845l0.18461,-0.78983l3.61735,0.48605c0,0 0.88097,-1.41142 2.9537,-1.48386c2.07273,-0.07244 0.92537,2.01431 0.92537,2.01431c-1.28056,-2.46765 -4.23426,1.23382 -4.58712,0.30846c-0.35286,-0.92537 -3.09391,-0.53279 -3.09391,-0.53279z" fill="#fdd29d"/><path d="M189.94717,348.6589c0,0 1.82971,-4.3067 1.54228,-8.10632c-0.27808,-3.67811 2.58683,-5.31853 2.7691,-5.42135c0.00701,-0.00234 0.01168,-0.00701 0.01869,-0.00935c0.20564,-0.07711 3.608,-1.30393 5.68541,1.20812c0.00234,0.00234 0.00467,0.00701 0.00701,0.00935c0.09347,0.13086 2.00029,2.88827 0.14254,6.98466c-1.90682,4.20856 -3.27151,5.01709 -3.47013,5.11757c-0.01869,0.00935 -0.03272,0.02103 -0.04674,0.03505c-0.20564,0.23835 -1.93253,2.20126 -3.59165,2.32043c-1.43713,0.10282 -3.1757,0.03739 -3.77625,0.01168c-0.10516,-0.00467 -0.17059,-0.11217 -0.12852,-0.20797l0.84592,-1.94187z" fill="#fdd29d"/><path d="M210.47119,325.71396c0.1332,-0.46502 0.48605,-0.57251 1.36702,0c0.88097,0.57251 0.33182,3.53089 -0.30846,5.2718c-0.63794,1.74325 -2.67562,1.76428 -2.67562,1.76428c3.08456,-3.57529 1.6194,-7.03607 1.6194,-7.03607z" fill="#fdd29d"/><path d="M167.10972,338.22514c0,0 0.98145,2.90463 2.87892,2.46298c1.89747,-0.44165 1.58201,0.39725 2.48868,0.39725c0.90667,0 1.48152,-0.21498 1.48152,-0.69403c0,-0.47904 0.45801,1.36235 -1.95356,1.51424c-2.41157,0.15189 -5.96349,2.14751 -4.89324,-3.68044" fill="#fdd29d"/><path d="M196.41774,319.65233c0,0 1.69885,-2.51439 3.68745,-1.93954c1.98861,0.57485 2.1662,1.58668 2.1662,1.58668l0.24536,0.88097c0,0 -1.94187,-2.55645 -6.09902,-0.52811z" fill="#fdd29d"/><path d="M176.71393,312.15357l6.50329,1.61005c0,0 11.37783,-1.09362 7.37725,-0.83891c-4.00058,0.25471 -6.49394,2.62421 -6.49394,2.62421l-7.40996,-3.56828" fill="#fdd29d"/><path d="M166.74752,341.38214c0.06777,0.60289 3.10793,0.42997 4.29736,2.01665c1.18943,1.58668 4.16883,2.14985 4.16883,2.14985v2.255c0,0 -0.89966,0.16825 -4.76004,-1.09362c-3.86038,-1.26187 -5.19468,-5.32788 -5.19468,-5.32788c0,0 1.41843,-0.60523 1.48854,0z" fill="#fdd29d"/><path d="M195.85457,328.0601l-3.90478,1.77129c0,0 -1.7339,-2.02366 -1.04454,-2.42792c0.69169,-0.40426 2.95838,-0.07945 3.74821,-0.48605c0.78983,-0.4066 1.13101,-0.35286 1.13101,-0.35286l0.06777,1.49555z" fill="#984332"/><path d="M192.2933,329.87111c0,0 1.58668,-2.34847 3.97955,-2.04002l0.89265,2.60085c0,0 -3.7155,1.00248 -4.87221,-0.56317z" fill="#d06950"/><path d="M195.5594,321.96468c-0.44464,-3.18392 0.84759,-5.9958 2.88627,-6.2805c2.03868,-0.2847 4.05181,2.06558 4.49645,5.2495c0.44464,3.18392 -0.84759,5.9958 -2.88627,6.2805c-2.03868,0.2847 -4.05181,-2.06558 -4.49645,-5.2495z" fill="#fbe6c9"/></g><g><path d="M188.6409,317.43472c-0.57719,-0.19395 1.63108,-0.24303 2.39287,0c0.76179,0.24069 0.68468,0.8576 0.51877,1.0352c-0.16358,0.1776 -0.57251,0.34351 -1.23382,-0.21966c-0.66131,-0.56317 -1.67548,-0.81554 -1.67548,-0.81554z" fill="#855827"/><path d="M195.9644,318.35775c0,0 -0.38323,-1.11699 1.02819,-1.63108c1.41142,-0.51409 1.85307,-0.38323 1.85307,-0.38323c0,0 0.1776,0.10282 -0.05842,0.20564c-0.23602,0.10282 -1.46984,1.01417 -1.71988,1.61706c-0.25004,0.60289 -0.80853,0.66131 -1.10296,0.19162z" fill="#855827"/><path d="M184.11454,321.62692c0.00234,-0.0257 0.00467,-0.04907 0.00701,-0.07478c0.01168,-0.23835 0.1589,-1.75727 1.84606,-2.3181c1.83204,-0.6099 3.66876,0.8132 4.09639,2.35081c0.23835,0.86228 0.41595,1.99562 0.52344,2.82518c0.07945,0.61458 -0.43698,1.16606 -1.15204,1.22915l-4.33241,0.37856c-0.82021,0.07244 -1.50723,-0.52811 -1.41376,-1.23149l0.42296,-3.157z" fill="#ffffff"/><path d="M184.97448,326.47809c-0.50942,0 -0.99547,-0.19863 -1.32963,-0.54915c-0.31547,-0.33182 -0.46502,-0.77114 -0.4066,-1.20578l0.42296,-3.157v0c0,-0.01402 0.00234,-0.02804 0.00467,-0.03973c0.00701,-0.14254 0.05608,-0.66365 0.34584,-1.22214c0.36921,-0.71272 0.99547,-1.23149 1.81335,-1.50489c0.87396,-0.2921 1.83204,-0.19863 2.69666,0.26172c0.95341,0.50708 1.71287,1.42778 1.98393,2.39988c0.25004,0.89733 0.42997,2.06572 0.53746,2.88827c0.05141,0.39024 -0.06309,0.78282 -0.3178,1.10063c-0.2921,0.36454 -0.74777,0.59822 -1.24785,0.64262l-4.33241,0.37856c-0.05608,0.00467 -0.1145,0.00701 -0.17059,0.00701zM184.56788,321.69001l-0.42296,3.157c-0.02804,0.20797 0.07244,0.3622 0.16124,0.45334c0.17993,0.18928 0.46502,0.28743 0.75946,0.26172l4.33241,-0.37856c0.25237,-0.02103 0.47671,-0.1332 0.61458,-0.30378c0.0701,-0.08646 0.14722,-0.22901 0.12385,-0.40894c-0.10282,-0.79451 -0.27574,-1.9185 -0.51176,-2.76209c-0.20564,-0.73843 -0.79217,-1.44414 -1.53293,-1.83672c-0.45334,-0.24069 -1.16606,-0.47203 -1.97926,-0.20096c-1.38805,0.46268 -1.52125,1.6708 -1.53527,1.90916c0,0.03739 -0.00467,0.07478 -0.01168,0.11217v0z" fill="#855827"/><path d="M196.84771,324.94049c0,0 -1.45582,-4.54973 0.99314,-5.94947c1.41609,-0.81087 3.15233,-0.21966 3.88141,1.05857c0.72674,1.27822 0.79685,4.49131 0.79685,4.49131l-5.53819,0.39725" fill="#ffffff"/><path d="M196.84537,325.37279c-0.18227,0 -0.35286,-0.11684 -0.41127,-0.30145c-0.06309,-0.19863 -1.5306,-4.90025 1.18943,-6.45655c0.75478,-0.42997 1.63342,-0.54214 2.477,-0.31079c0.84592,0.23134 1.57266,0.78983 1.99562,1.5306c0.77348,1.35767 0.85059,4.56141 0.85293,4.69695c0.00467,0.23134 -0.17059,0.4253 -0.40193,0.44165l-5.53819,0.39725c-0.03272,0 -0.06543,0 -0.09581,-0.00467c-0.02337,0.00467 -0.0444,0.00467 -0.06777,0.00467zM199.23123,319.05178c-0.41127,0 -0.8132,0.10516 -1.17774,0.31313c-1.77129,1.01417 -1.14269,4.11976 -0.88331,5.12458l4.89791,-0.35286c-0.05375,-1.06558 -0.24536,-3.03315 -0.7244,-3.87673c-0.30846,-0.54214 -0.84592,-0.95341 -1.47218,-1.124c-0.21265,-0.05842 -0.42763,-0.08646 -0.64028,-0.08646z" fill="#855827"/><path d="M194.43147,326.26077c-0.0701,0 -0.14021,-0.01636 -0.20564,-0.04907l-1.71988,-0.86461c-0.22433,-0.11217 -0.31547,-0.38791 -0.2033,-0.61224c0.1145,-0.22433 0.38791,-0.31547 0.61224,-0.2033l1.43012,0.71973l0.8576,-0.8319c0.18227,-0.17526 0.46969,-0.17059 0.64495,0.00935c0.17526,0.18227 0.17059,0.46969 -0.00935,0.64495l-1.09128,1.05857c-0.08646,0.08412 -0.20096,0.12852 -0.3178,0.12852z" fill="#855827"/><path d="M194.50858,327.2025c-0.18694,0 -0.34351,-0.14254 -0.35987,-0.33182l-0.0888,-1.12633c-0.01636,-0.19863 0.1332,-0.37155 0.33182,-0.38791c0.20096,-0.01636 0.37155,0.1332 0.38791,0.33182l0.0888,1.12633c0.01636,0.19863 -0.1332,0.37155 -0.33182,0.38791c-0.00935,0 -0.01869,0 -0.02804,0z" fill="#855827"/><path d="M195.20494,331.45312c-0.70337,0 -1.43479,-0.08179 -2.0073,-0.37856c-0.78516,-0.40426 -1.59836,-0.98379 -2.17789,-1.54929c-0.83891,-0.81554 -1.15671,-1.55397 -0.94406,-2.19425c0.25237,-0.76179 1.4862,-0.71973 1.76194,-0.6987c3.42106,0.06777 4.23426,-0.75245 4.30904,-0.83891c0.00701,-0.00935 0.01168,-0.01636 0.01869,-0.0257c0.13086,-0.17526 0.37389,-0.21498 0.55382,-0.09581c0.17993,0.12151 0.23602,0.3622 0.12385,0.54915c-0.00935,0.01636 -0.0257,0.03973 -0.04907,0.0701c-0.72207,1.04922 0.49306,3.17102 0.88798,3.80196c0.15189,0.24303 0.16591,0.54214 0.03505,0.79918c-0.13086,0.25705 -0.37856,0.42296 -0.66599,0.44399c-0.11684,0.00935 -0.2477,0.02103 -0.38791,0.03272c-0.42062,0.03739 -0.93238,0.08412 -1.46049,0.08412zM190.84917,327.59274c-0.21031,0.66365 1.26187,2.00029 2.72236,2.75508c0.79217,0.40894 2.13349,0.28743 3.01913,0.20564c0.14254,-0.01402 0.27574,-0.0257 0.39492,-0.03505c-0.55148,-0.88564 -1.29458,-2.32511 -1.22915,-3.5636c-0.93472,0.35987 -2.26201,0.52578 -3.94917,0.49306c-0.00701,0 -0.01636,0 -0.02337,0c-0.42062,-0.03038 -0.86461,0.05375 -0.93939,0.14488z" fill="#855827"/></g><g fill="#e49a2b"><path d="M177.0995,312.15591l1.74325,1.63108l3.71316,1.80868c0,0 0.70571,0.92537 -0.1776,1.54462c-0.88097,0.61691 -3.0425,7.40996 -1.32262,12.96685c1.71988,5.55689 -1.56098,4.47729 -1.56098,4.47729l-5.84665,1.3273l4.5731,-2.0517l-0.54681,-11.20724l0.56083,-3.92581l-0.91135,-3.95618l-0.22901,-2.61487z"/><path d="M163.94103,343.67453c0.82489,2.44195 3.37199,7.89601 9.29108,6.12706c0.10983,-0.03272 0.22667,-0.03739 0.33883,-0.01402l0.42997,0.08646c0.39258,0.07945 0.64495,0.46502 0.55382,0.85527l-0.13553,0.59822c-0.06076,0.26406 -0.26406,0.47203 -0.52811,0.53512l-2.24098,0.53512c-0.09113,0.02103 -0.18694,0.0257 -0.28041,0.00935l-3.80429,-0.62392c-0.10516,-0.01636 -0.2033,-0.05608 -0.28976,-0.11684c-0.9721,-0.673 -6.81642,-4.92128 -4.5988,-8.16007c0.33182,-0.48605 1.07492,-0.38791 1.2642,0.16825z"/><path d="M176.04093,346.69833l1.63575,3.30188c0,0 -1.86709,3.19205 1.50723,7.02906c0,0 -0.80386,1.38338 -2.08442,-0.69403c-1.28056,-2.07741 -4.82781,-7.06645 -1.05857,-9.63692z"/><path d="M199.39714,347.15635c0,0 2.255,0.33416 3.35797,1.47451c1.10296,1.14035 3.65941,-4.41653 6.79071,-3.79728l-0.26406,1.27822l-5.47042,5.32788c0,0 -4.05667,-2.34614 -5.59661,-2.20827"/><path d="M174.35611,337.90967l5.98686,0.66131c0,0 -4.72966,9.60654 -1.25719,12.4621c0,0 -3.84402,-1.4675 -2.64525,-5.01942c1.19877,-3.55192 1.97692,-5.77187 1.97692,-5.77187l-4.11509,-0.77581z"/></g><g fill="#d07f2a"><path d="M201.80637,335.95611c-0.13553,0 -0.27107,-0.0444 -0.38557,-0.1332c-0.27107,-0.21265 -0.32014,-0.60523 -0.10749,-0.8763c3.10092,-3.97021 3.17336,-7.66233 3.1757,-7.81656c0,-0.01869 0,-0.03973 0.00234,-0.06076c0,-0.00935 0,-0.02103 0.00234,-0.03038c0.60523,-4.67124 -0.51409,-8.79334 -3.32291,-12.25413c-2.11713,-2.60786 -4.65956,-4.14546 -6.11071,-4.81379c0.41361,0.85059 0.8763,1.81335 1.00482,2.08675c0.11684,0.24536 0.09581,0.53746 -0.05608,0.76179c-0.15189,0.22667 -0.41361,0.35519 -0.68468,0.34117l-0.54681,-0.03038c0,0 -0.02103,0 -0.03272,-0.00234c-6.47291,-0.69169 -11.03432,0.90901 -11.53439,1.09362c-0.16358,0.05842 -0.33182,0.06309 -0.4954,0.01402l-5.29283,-1.6451c0.2921,1.46984 0.87396,3.27384 1.24317,4.41653c0.34117,1.05857 0.40894,1.28056 0.40894,1.47451c0,0.08412 -0.01402,0.16825 -0.04206,0.25004c-1.29692,3.72718 -1.22681,7.60158 -0.93939,10.19541c0.31313,2.83219 0.94406,4.79977 0.95107,4.8208c0.10749,0.32715 -0.07244,0.68001 -0.40193,0.7875c-0.32715,0.10749 -0.68001,-0.07244 -0.7875,-0.39959c-0.02804,-0.08412 -0.673,-2.08675 -1.00248,-5.03812c-0.30145,-2.70133 -0.37622,-6.72995 0.95341,-10.64641c-0.05375,-0.20096 -0.19395,-0.63561 -0.33182,-1.05857c-0.46969,-1.45816 -1.18242,-3.66175 -1.41142,-5.32554c-0.04206,-0.30378 0.05608,-0.59354 0.26406,-0.7688c0.19162,-0.16358 0.45567,-0.21265 0.70571,-0.13553l5.89806,1.83438c0.98145,-0.34117 5.47744,-1.74091 11.64656,-1.14035c-0.40193,-0.83657 -1.00248,-2.07974 -1.24551,-2.54009c-0.13787,-0.25938 -0.09581,-0.57018 0.10282,-0.77581c0.30612,-0.3178 0.74544,-0.21732 1.13334,-0.09815c0.34117,0.10516 0.76179,0.27574 1.2198,0.4954c1.22214,0.58653 4.33241,2.31109 6.82576,5.67373c1.22214,1.64744 2.11479,3.45611 2.65693,5.37929c0.63093,2.24098 0.7875,4.65722 0.46268,7.18095c-0.00935,0.40894 -0.18928,4.38382 -3.43975,8.54564c-0.12385,0.1589 -0.30612,0.24069 -0.49306,0.24069zM205.74153,327.13473c0,0 0,0.00467 0,0.00701v0c0,0 0,-0.00234 0,-0.00701z"/><path d="M209.08781,333.7642c-0.04206,0 -0.08179,0 -0.12151,-0.00234c-0.70337,-0.03973 -1.32963,-0.40193 -1.86476,-1.0796c-0.21265,-0.27107 -0.16825,-0.66365 0.10282,-0.87863c0.27107,-0.21265 0.66365,-0.16825 0.87863,0.10282c0.30612,0.38791 0.61691,0.58653 0.95107,0.60523c0.48138,0.0257 1.08427,-0.31313 1.74325,-0.98145c0.20096,-0.20564 0.46268,-0.64495 0.54681,-0.92537c0.6099,-2.00029 0.64262,-3.9632 0.07711,-4.77406c-0.05141,-0.07478 -0.11918,-0.13787 -0.2033,-0.18928c-0.18694,-0.11684 -0.43698,-0.09815 -0.62159,0.03973l-1.0609,0.79918c-0.19395,0.14722 -0.45567,0.19162 -0.67066,0.07478c-0.21265,-0.11217 -0.33883,-0.31313 -0.32949,-0.55148c-0.00935,-0.05608 -0.05141,-0.19863 -0.25705,-0.28743c-0.1145,-0.04907 -0.24069,0.12385 -0.26639,0.1589c-0.00467,0.00935 -0.00467,0.00935 -0.01402,0.02103l-2.1849,3.15233c-0.19629,0.28275 -0.58653,0.35519 -0.86929,0.1589c-0.28275,-0.19629 -0.35519,-0.58653 -0.1589,-0.86929l2.17789,-3.14298c0.34351,-0.53279 1.05156,-0.95341 1.81101,-0.62392c0.26873,0.11684 0.47203,0.27574 0.62392,0.451l0.44866,-0.3365c0.59588,-0.44866 1.41376,-0.48839 2.03301,-0.10282c0.22901,0.14254 0.42062,0.32248 0.56784,0.53746c0.96509,1.38104 0.68001,3.93048 0.09347,5.85366c-0.14488,0.47203 -0.50942,1.08894 -0.85059,1.43713c-0.88564,0.902 -1.75259,1.35767 -2.57982,1.35767z"/><path d="M203.75993,339.56178c-0.1332,0 -0.26639,-0.04206 -0.3809,-0.13086c-0.2734,-0.21031 -0.32481,-0.60289 -0.1145,-0.8763l4.46561,-5.79758c0.21031,-0.2734 0.60289,-0.32481 0.8763,-0.1145c0.2734,0.21031 0.32481,0.60289 0.1145,0.8763l-4.46561,5.79758c-0.12385,0.1589 -0.30846,0.24303 -0.4954,0.24303z"/><path d="M190.33274,351.657c-0.49774,0 -1.00716,-0.02337 -1.52592,-0.0701c-0.34351,-0.03038 -0.59822,-0.3365 -0.5655,-0.68001c0.03038,-0.34351 0.33416,-0.59822 0.68001,-0.5655c5.52651,0.50475 9.70235,-1.86943 12.41069,-7.0571c2.06339,-3.95385 2.46298,-8.13436 2.46765,-8.17643c0.03038,-0.34351 0.3365,-0.59588 0.67767,-0.5655c0.34351,0.03038 0.59822,0.33416 0.5655,0.67767c-0.00701,0.09113 -0.20797,2.24565 -1.09362,4.99372c-0.82255,2.55411 -2.41624,6.11071 -5.34424,8.55265c-2.30174,1.92084 -5.08018,2.88827 -8.27457,2.88827z"/><path d="M203.41876,352.38374c-0.02103,0 -0.04206,0 -0.06543,-0.00234c-0.18227,-0.01869 -0.34818,-0.11684 -0.45334,-0.27107c-0.00467,-0.00701 -0.64495,-0.92303 -1.80868,-1.58201c-1.51658,-0.85994 -3.19673,-0.90667 -4.99138,-0.13553c-0.3178,0.13553 -0.68468,-0.01168 -0.82021,-0.32715c-0.13553,-0.3178 0.01168,-0.68468 0.32715,-0.82021c2.73404,-1.17307 4.85351,-0.52344 6.15277,0.22667c0.77114,0.44633 1.34599,0.97678 1.70819,1.3717l5.34891,-5.14795c0.222,-0.28976 0.7431,-1.13334 0.62626,-1.72689c-0.02804,-0.14955 -0.10983,-0.36921 -0.46736,-0.57018c-1.39506,-0.78282 -3.26683,0.83423 -3.28553,0.85059c-0.12852,0.1145 -0.30145,0.16825 -0.47203,0.15189c-0.17059,-0.01636 -0.32949,-0.10282 -0.43464,-0.23835c-0.23134,-0.29911 -1.3974,-0.28976 -2.28538,-0.08412c-0.3365,0.07945 -0.673,-0.13086 -0.75011,-0.46736c-0.07945,-0.3365 0.13086,-0.673 0.46736,-0.75011c0.37389,-0.08646 2.04002,-0.42997 3.06353,0.12619c0.80619,-0.57251 2.63824,-1.61472 4.30904,-0.68001c0.59354,0.33182 0.96743,0.82489 1.08427,1.42544c0.25004,1.29458 -0.78282,2.62655 -0.902,2.77611c-0.01636,0.02103 -0.03505,0.03973 -0.05375,0.05842l-5.86534,5.64568c-0.11684,0.11217 -0.2734,0.17526 -0.43231,0.17526z"/><path d="M180.40839,358.67205c-0.21498,0 -0.46736,-0.0444 -0.74544,-0.16825c-0.27574,-0.12151 -0.4954,-0.22667 -0.67066,-0.32481c-0.25471,0.16825 -0.59588,0.31313 -0.9908,0.28041c-0.3622,-0.02804 -0.88331,-0.21966 -1.31561,-0.96276c-0.80619,-1.38805 -2.29005,-4.99606 -2.35315,-5.14795c0,0 0,-0.00467 -0.00234,-0.00701c-0.05608,-0.13787 -1.3273,-3.41171 0.40193,-5.57558c0.00935,-0.01168 0.01869,-0.02103 0.02804,-0.03272l0.95808,-1.04454c0.23368,-0.25471 0.6286,-0.27107 0.88331,-0.03739c0.25471,0.23368 0.27107,0.6286 0.03739,0.88331l-0.94406,1.02819c-1.24317,1.58201 -0.24069,4.22024 -0.20564,4.31371c0.05842,0.14254 1.52359,3.6968 2.27603,4.99138c0.14254,0.2477 0.26873,0.34117 0.33416,0.34584c0.11918,0.00935 0.32248,-0.15656 0.39725,-0.23835c0.02804,-0.03505 0.05842,-0.06777 0.09347,-0.09581c0.2477,-0.20564 0.6099,-0.18928 0.83891,0.03505c0.03973,0.03973 0.07244,0.08179 0.10048,0.12852c0.08646,0.05375 0.26873,0.15656 0.63794,0.31547c0.14722,0.06309 0.25938,0.07945 0.3365,0.0444c0.12852,-0.05842 0.222,-0.25705 0.22901,-0.28275c0.05842,-0.17526 0.18227,-0.32014 0.35286,-0.38791c0.17059,-0.06777 0.35519,-0.06309 0.51643,0.02103c0.03272,0.01402 0.36454,0.15189 0.61224,0.03739c0.23134,-0.10983 0.35987,-0.43464 0.4253,-0.69169c0.09113,-0.35052 0.00701,-0.52344 -0.06309,-0.62159c-0.27574,-0.38557 -1.04454,-0.5211 -1.29224,-0.5398c-0.19162,-0.01402 -0.36688,-0.1145 -0.47437,-0.2734c-0.10749,-0.1589 -0.13787,-0.35753 -0.07945,-0.5398l0.53045,-1.67548c0.09347,-0.29444 0.39024,-0.47904 0.69403,-0.42997c2.54944,0.40894 4.4399,0.01168 5.61764,-1.18475c2.03067,-2.06105 1.39273,-5.85833 1.38572,-5.89572c-0.06076,-0.34117 0.16825,-0.66365 0.50708,-0.7244c0.33883,-0.06076 0.66365,0.16825 0.7244,0.50708c0.03272,0.18227 0.75245,4.47495 -1.72689,6.98934c-1.124,1.14035 -2.69666,1.71287 -4.68994,1.71287c-0.46969,0 -0.96276,-0.03272 -1.47919,-0.09581l-0.15656,0.4954c0.48372,0.13553 1.0796,0.39959 1.45348,0.91602c0.23368,0.32248 0.46736,0.87396 0.26172,1.66847c-0.19629,0.75712 -0.57485,1.26888 -1.12166,1.51658c-0.39725,0.17993 -0.79451,0.1776 -1.1053,0.12385c-0.14021,0.18227 -0.33883,0.36921 -0.6099,0.49073c-0.15189,0.06777 -0.35519,0.12619 -0.60289,0.12619z"/><path d="M178.98529,351.93041c-0.12619,0 -0.25237,-0.03739 -0.3622,-0.11684c-0.0444,-0.03272 -1.124,-0.81087 -1.94421,-2.1662c-1.11231,-1.83438 -1.23149,-3.84402 -0.34584,-5.8116c1.52125,-3.37666 1.69885,-3.7856 1.71754,-3.83c-0.12619,0.30612 0.01869,0.66599 0.32481,0.80152c0.30612,0.13787 0.67066,0.00701 0.81554,-0.2921l-0.56784,-0.26172l-0.5655,-0.26406c0.16825,-0.3622 0.55849,-0.44866 0.83657,-0.32014c0.26873,0.12385 0.46736,0.45801 0.30612,0.83657c-0.00701,0.01636 -0.01869,0.04674 -0.03973,0.09113c-0.03739,0.08646 -0.10516,0.23835 -0.22433,0.50241c-0.28743,0.64028 -0.77815,1.7339 -1.46049,3.24814c-0.71973,1.59836 -0.62626,3.16168 0.27574,4.65021c0.68935,1.13802 1.59369,1.78998 1.60304,1.79465c0.28041,0.20096 0.34584,0.59121 0.14488,0.87162c-0.12151,0.17059 -0.31313,0.26172 -0.50942,0.26172z"/><path d="M178.22583,341.01526c-0.0257,0 -0.05375,0 -0.08179,-0.00467l-3.57295,-0.46268c-0.34351,-0.0444 -0.5842,-0.35753 -0.5398,-0.70104c0.0444,-0.34351 0.35753,-0.5842 0.70104,-0.5398l3.57295,0.46268c0.34351,0.0444 0.5842,0.35753 0.5398,0.70104c-0.03973,0.31547 -0.31079,0.54447 -0.61925,0.54447z"/><path d="M169.09599,343.26325c-0.28275,0 -0.56784,-0.03038 -0.84825,-0.10282c-0.79685,-0.20564 -1.41843,-0.70104 -1.8484,-1.47218c-0.49306,-0.88331 -0.61224,-1.78063 -0.35753,-2.67095c0.50475,-1.75727 2.33445,-2.87659 2.8836,-3.1757c1.06558,-0.5842 8.49423,-2.42792 9.33781,-2.6359c0.33416,-0.08179 0.673,0.12151 0.75712,0.45801c0.08179,0.33416 -0.12151,0.673 -0.45801,0.75712c-3.12662,0.77114 -8.34234,2.13816 -9.03637,2.51906c-0.31547,0.17292 -1.90215,1.10063 -2.28304,2.42559c-0.16358,0.5655 -0.08179,1.12633 0.2477,1.7152c0.26172,0.46736 0.6099,0.75245 1.07025,0.87162c1.04922,0.27107 2.43727,-0.39024 2.8836,-0.66599c0.17292,-0.10749 0.38791,-0.12385 0.57719,-0.0444c0.42763,0.18461 0.99781,0.35286 1.28757,0.10983c0.51643,-0.42997 0.42763,-2.06572 0.20564,-3.03549c-0.07711,-0.3365 0.1332,-0.67066 0.46969,-0.75011c0.3365,-0.07711 0.67066,0.1332 0.75011,0.46736c0.00701,0.03038 0.17292,0.76179 0.2033,1.61472c0.0444,1.26888 -0.23368,2.16387 -0.82722,2.65927c-0.5655,0.47203 -1.33431,0.53746 -2.28772,0.19395c-0.50007,0.26406 -1.58902,0.75946 -2.7247,0.75946z"/><path d="M175.73247,346.42026c-0.45334,0 -1.14035,-0.04206 -1.90916,-0.23368c-1.80634,-0.451 -3.23412,-1.5119 -4.13378,-3.0682c-0.17292,-0.29911 -0.0701,-0.68234 0.22901,-0.85293c0.29911,-0.17292 0.68234,-0.0701 0.85293,0.22901c0.72674,1.26187 1.84139,2.09143 3.31123,2.46999c1.13334,0.28976 2.06339,0.19162 2.07273,0.18928c0.34351,-0.03739 0.65196,0.20797 0.69169,0.54915c0.03973,0.34117 -0.20564,0.65196 -0.54681,0.69169c-0.01869,0 -0.22901,0.0257 -0.57018,0.0257z"/><path d="M170.75278,353.36052c-0.26406,0 -0.52578,-0.01168 -0.78516,-0.03272c-1.33664,-0.11684 -2.59851,-0.53045 -3.75055,-1.23149c-2.0073,-1.22214 -3.16168,-3.01212 -3.56594,-3.72718c-0.1145,-0.2033 -0.20564,-0.42296 -0.27107,-0.64963c-0.70337,-2.477 -0.55849,-4.43055 0.42763,-5.8116c1.22214,-1.71053 3.26683,-1.83905 3.35329,-1.84373c0.34351,-0.01869 0.64028,0.24536 0.65664,0.59121c0.01869,0.34351 -0.24536,0.63794 -0.58887,0.65664c-0.03272,0 -1.55397,0.11918 -2.4139,1.33431c-0.74777,1.05623 -0.82489,2.64758 -0.23368,4.732c0.03739,0.13086 0.09113,0.25705 0.15656,0.37622c0.85293,1.50723 4.15248,6.2182 10.85439,3.55426c0.32014,-0.12852 0.68468,0.02804 0.81087,0.35052c0.12852,0.32014 -0.02804,0.68468 -0.35052,0.81087c-1.49321,0.59354 -2.93734,0.89265 -4.30437,0.89265z"/><path d="M175.38196,346.08142c-1.98627,2.34847 -1.4231,5.6784 -1.4231,5.6784l-1.18943,0.27574c-1.58902,-3.73886 1.18943,-6.23923 1.18943,-6.23923z"/><path d="M173.65974,345.7753c-3.80196,2.37418 -3.10793,6.65751 -3.10793,6.65751l-2.25033,-0.39725c-1.05857,-6.05229 3.14298,-7.19965 3.14298,-7.19965l2.51439,0.96042"/><path d="M171.04487,343.90587c0,0 -5.09186,1.68249 -3.73653,7.53381l-2.21528,-1.35767c0,0 -1.42544,-4.63853 3.35563,-6.98466l1.10998,-0.29444l1.4862,1.10063z"/><path d="M174.65288,334.77136l-0.20564,1.88112l-2.44195,-1.16606z"/><path d="M177.0995,334.58208v1.80634l-1.71988,-1.80634"/><path d="M177.67668,325.44056l2.33445,0.42997l-2.33445,1.81802z"/><path d="M177.67668,328.1933c-0.07478,0 -0.15189,-0.01636 -0.222,-0.05141c-0.17292,-0.08412 -0.28275,-0.26172 -0.28275,-0.45334v-2.25033c0,-0.14955 0.06777,-0.2921 0.18227,-0.38791c0.1145,-0.09581 0.26639,-0.13553 0.41361,-0.10749l2.33445,0.42997c0.19629,0.03505 0.35052,0.18461 0.39959,0.37622c0.04674,0.19395 -0.02337,0.39492 -0.17993,0.51877l-2.33445,1.81802c-0.09113,0.0701 -0.20096,0.10749 -0.31079,0.10749zM178.18143,326.04579v0.6099l0.63327,-0.49306z"/><path d="M177.82858,329.27757l2.94202,0.52811l-2.35548,1.52125z"/><path d="M178.41511,331.83168c-0.06076,0 -0.11918,-0.01168 -0.1776,-0.03272c-0.14955,-0.05608 -0.26406,-0.17993 -0.30846,-0.33416l-0.58887,-2.0517c-0.04907,-0.16825 -0.00701,-0.34818 0.10983,-0.47671c0.11684,-0.12852 0.2921,-0.18928 0.46502,-0.1589l2.94436,0.53045c0.2033,0.03739 0.36454,0.19395 0.4066,0.39725c0.03973,0.2033 -0.04674,0.41127 -0.222,0.52344l-2.35548,1.52125c-0.08179,0.05375 -0.1776,0.08179 -0.2734,0.08179zM178.53662,329.91785l0.1776,0.61691l0.70805,-0.45801z"/><path d="M204.42124,328.84526l-1.45115,-0.46035l1.68249,-1.19176z"/><path d="M204.42124,329.35001c-0.05141,0 -0.10282,-0.00701 -0.15189,-0.02337l-1.45115,-0.46035c-0.18227,-0.05842 -0.3178,-0.21498 -0.34584,-0.40426c-0.02804,-0.18928 0.05141,-0.37856 0.20797,-0.49073l1.68249,-1.19176c0.16358,-0.11684 0.38323,-0.12385 0.55382,-0.01869c0.17292,0.10516 0.26639,0.30145 0.23835,0.50241l-0.23134,1.65211c-0.02103,0.14722 -0.10516,0.27808 -0.23134,0.35753c-0.08179,0.05141 -0.17526,0.07711 -0.26873,0.07711z"/><path d="M205.16434,322.65043l-0.2477,1.58902l-1.58668,0.66131l1.58668,-2.25033"/><path d="M203.32996,325.40551c-0.14955,0 -0.29677,-0.06777 -0.39492,-0.18928c-0.14021,-0.17526 -0.14722,-0.42296 -0.01869,-0.60757l1.58668,-2.25033c0.12385,-0.17526 0.33883,-0.2477 0.53746,-0.19863c0.06309,-0.01636 0.1332,-0.02103 0.20096,-0.00935c0.27574,0.04206 0.46502,0.30145 0.42062,0.57719l-0.2477,1.58668c-0.02804,0.17292 -0.14254,0.32014 -0.30378,0.38791l-1.58668,0.66131c-0.06309,0.0257 -0.12852,0.03973 -0.19395,0.03973z"/><path d="M178.84508,340.68811l1.92551,1.95122l-2.54476,-0.97678z"/><path d="M180.77059,343.14408c-0.06076,0 -0.12151,-0.01168 -0.17993,-0.03272l-2.5471,-0.97444c-0.14254,-0.05375 -0.25004,-0.16825 -0.29911,-0.31313c-0.04674,-0.14488 -0.02804,-0.30145 0.05375,-0.42997l0.61925,-0.97444c0.08179,-0.13086 0.21966,-0.21498 0.37155,-0.23134c0.15189,-0.01636 0.30378,0.03739 0.41361,0.14722l1.92785,1.94888c0.16825,0.16825 0.19395,0.43231 0.06309,0.63093c-0.09581,0.14722 -0.25705,0.22901 -0.42296,0.22901z"/><path d="M177.34953,343.09968c0,0 1.1053,2.48401 2.34146,3.10326c0,0 -1.9629,0.21966 -2.5915,-0.92537c-0.6286,-1.14736 0.25004,-2.17555 0.25004,-2.17555z"/><path d="M179.31477,346.7217c-0.70571,0 -2.07741,-0.14488 -2.65927,-1.20578c-0.7875,-1.43479 0.26406,-2.69432 0.30846,-2.74573c0.11217,-0.13086 0.28509,-0.19629 0.45567,-0.17292c0.17059,0.0257 0.3178,0.13553 0.38791,0.29444v0c0.28743,0.64495 1.22681,2.41624 2.10545,2.85556c0.20096,0.10048 0.31079,0.32014 0.27107,0.5398c-0.03973,0.21966 -0.21732,0.38791 -0.44165,0.41361c-0.02337,0.00234 -0.18928,0.02103 -0.43231,0.02103zM177.38459,344.27976c-0.02103,0.22901 0.01168,0.48839 0.15656,0.75245c0.13787,0.25237 0.39492,0.41595 0.68468,0.51877c-0.33182,-0.41829 -0.61925,-0.87863 -0.84124,-1.27355z"/><path d="M178.84508,314.3151l3.13831,1.54462l-1.97225,2.07273z"/><path d="M180.01114,318.4372c-0.03739,0 -0.07478,-0.00467 -0.11217,-0.01168c-0.17292,-0.03973 -0.31313,-0.16825 -0.36921,-0.3365l-1.16606,-3.61735c-0.06309,-0.19395 -0.00234,-0.40426 0.14955,-0.53746c0.15423,-0.1332 0.37155,-0.16124 0.55382,-0.0701l3.14065,1.54462c0.14488,0.0701 0.24536,0.20564 0.2734,0.36454c0.02804,0.1589 -0.02103,0.32014 -0.13086,0.43698l-1.97225,2.07273c-0.09581,0.10048 -0.22901,0.15656 -0.36454,0.15656zM179.691,315.29422l0.5398,1.67548l0.91368,-0.96042z"/><path d="M188.24598,312.5111l0.83891,1.804l-3.98423,-1.27822z"/><path d="M189.08489,314.81985c-0.05141,0 -0.10282,-0.00701 -0.15423,-0.02337l-3.98423,-1.27822c-0.222,-0.0701 -0.36688,-0.28509 -0.34818,-0.51643c0.01636,-0.23134 0.19162,-0.42296 0.42062,-0.46035l3.14532,-0.52578c0.22433,-0.03739 0.44633,0.07945 0.54214,0.28509l0.83657,1.804c0.08412,0.18227 0.05375,0.39725 -0.07945,0.54681c-0.09815,0.10983 -0.23602,0.17059 -0.37856,0.17059zM187.23649,313.19111l0.90667,0.28976l-0.19162,-0.41127l-0.71506,0.11918z"/><path d="M191.86333,312.33351l0.44165,1.9816c0,0 -2.07273,-1.67548 -2.20593,-1.804z"/><path d="M192.30499,314.81985c-0.11217,0 -0.22433,-0.03739 -0.3178,-0.11217c-0.6286,-0.50942 -2.10545,-1.70586 -2.24098,-1.83672c-0.14021,-0.13787 -0.18928,-0.34351 -0.12385,-0.52811c0.06543,-0.18461 0.23134,-0.31547 0.4253,-0.3365l1.76428,-0.1776c0.25471,-0.0257 0.48839,0.14254 0.54214,0.39258l0.44165,1.9816c0.04674,0.21031 -0.0444,0.4253 -0.22667,0.5398c-0.08179,0.05141 -0.17292,0.07478 -0.26639,0.07478zM191.35158,312.892c0.04674,0.03973 0.09581,0.07711 0.14488,0.11684l-0.02804,-0.12852z"/><path d="M193.5762,312.6256l2.07273,-0.30612l0.70571,1.804c0.222,0.12852 -2.82518,-1.50022 -2.77844,-1.50022z"/><path d="M196.36399,314.63524c-0.0444,0 -0.08646,-0.00467 -0.13086,-0.01636c-0.06777,-0.01869 -0.08646,-0.02337 -1.51658,-0.79217c-0.26873,-0.14488 -0.6543,-0.35052 -0.95575,-0.51643c-0.13086,-0.07244 -0.24069,-0.1332 -0.3178,-0.17526c-0.15423,-0.08646 -0.41595,-0.23368 -0.37155,-0.57719c0.03038,-0.22901 0.21031,-0.40426 0.43231,-0.43464l2.06572,-0.30378c0.23368,-0.03505 0.45801,0.09581 0.54447,0.31547l0.67767,1.7339c0.0888,0.14488 0.09113,0.3178 0.03505,0.45567c-0.07945,0.19162 -0.26639,0.31079 -0.46736,0.31079zM195.13484,312.90368c0.08412,0.04674 0.17059,0.09113 0.25471,0.13787l-0.06543,-0.16591z"/></g><g><path d="M178.77953,322.75597l-0.10849,-1.65089l29.86518,-1.9627l0.10849,1.65089z" fill="#000000"/><path d="M180.3429,323.88038l-0.11708,-1.78146l12.61016,-0.82872l0.11708,1.78146z" fill="#000000"/><path d="M195.56773,322.87644l-0.1019,-1.55062l11.03389,-0.72513l0.1019,1.55062z" fill="#000000"/><path d="M181.51363,325.06232l-0.10482,-1.59492l10.52556,-0.69173l0.10482,1.59492z" fill="#000000"/><path d="M196.79955,324.05906l-0.09547,-1.45269l8.73011,-0.57373l0.09547,1.45269z" fill="#000000"/><path d="M182.76931,326.00729l-0.08152,-1.2405l8.33604,-0.54783l0.08152,1.2405z" fill="#000000"/><path d="M198.26683,324.98823l-0.08152,-1.2405l6.37503,-0.41896l0.08152,1.2405z" fill="#000000"/><path d="M184.5485,326.88408l-0.08965,-1.36408l5.7781,-0.37973l0.08965,1.36408z" fill="#000000"/><path d="M199.50331,325.90024l-0.07585,-1.15422l4.53294,-0.2979l0.07585,1.15422z" fill="#000000"/><path d="M204.75817,321.49602l-0.06727,-1.02364l1.02364,-0.06727l0.06727,1.02364z" fill="#ffffff"/><path d="M203.76526,323.10464l-0.06727,-1.02364l1.02364,-0.06727l0.06727,1.02364z" fill="#ffffff"/><path d="M202.49017,324.46594l-0.06727,-1.02364l1.02364,-0.06727l0.06727,1.02364z" fill="#ffffff"/><path d="M191.24943,322.51524l-0.06727,-1.02364l1.02364,-0.06727l0.06727,1.02364z" fill="#ffffff"/><path d="M190.25652,324.1262l-0.06727,-1.02364l1.02364,-0.06727l0.06727,1.02364z" fill="#ffffff"/><path d="M188.97909,325.48516l-0.06727,-1.02364l1.02364,-0.06727l0.06727,1.02364z" fill="#ffffff"/></g></g></g></svg>