<svg version="1.1" xmlns="http://www.w3.org/2000/svg" xmlns:xlink="http://www.w3.org/1999/xlink" width="54.38682" height="49.61934" viewBox="0,0,54.38682,49.61934"><g transform="translate(-160.30659,-308.69033)"><g data-paper-data="{&quot;isPaintingLayer&quot;:true}" fill-rule="nonzero" stroke="none" stroke-width="0" stroke-linecap="butt" stroke-linejoin="miter" stroke-miterlimit="10" stroke-dasharray="" stroke-dashoffset="0" style="mix-blend-mode: normal"><path d="M171.50585,324.62702c0,0 -0.52277,-3.89842 2.0697,-4.93813" fill="#cd4b55"/><g><path d="M181.46761,317.969l-1.13299,-6.06529l5.22769,3.19492c0,0 6.13913,-2.06581 10.52145,-1.12133c4.38232,0.94448 3.29791,-0.31871 3.29791,-0.31871l0.53443,-3.59331c0,0 6.84652,3.34456 7.11277,10.26882c0.26624,6.92426 0.47807,6.35679 0.47807,6.35679l1.38174,-0.77541c0,0 -0.68796,-2.231 0.61994,-2.56526c1.30789,-0.33232 0.92894,1.03193 0.92894,1.03193c0,0 2.25626,-1.40312 2.75766,-0.03498c0.50139,1.36814 1.10773,4.08498 0.44309,5.0936c-0.66464,1.01056 -2.31262,1.22044 -2.60218,1.16214c-0.28956,-0.06024 -4.62719,4.48338 -4.62719,4.48338l-0.7346,5.46478l1.41284,0.55969c0,0 2.61773,-1.50029 3.63412,-1.29623c1.01833,0.20405 1.61689,-0.05247 2.15132,0.73654c0.53443,0.78901 1.59357,2.0114 1.13105,2.71684c-0.46252,0.70545 -3.31735,5.45118 -4.33179,5.61054c-1.01444,0.15936 -2.34566,0.5733 -4.63885,0c-2.29513,-0.5733 -4.07138,-0.66658 -6.13136,0.2196c-2.05998,0.88618 -5.32097,1.52555 -6.85624,1.24376c-1.53527,-0.28179 -5.42008,1.64604 -5.42008,1.64604l-0.45475,1.61883" fill="#f2b65e"/><path d="M186.1356,353.69609c0,0 1.9667,2.64105 -0.46835,3.35039c-2.43505,0.70933 -5.06639,0.38285 -6.19938,-1.51389c-1.13299,-1.89868 -1.07663,-4.49892 -0.73848,-5.30543c0.33815,-0.8065 -4.65634,-0.01749 -7.4276,-0.13215c-2.77126,-0.11466 -7.28184,-2.27375 -8.306,-4.3143c-1.02416,-2.04055 -1.05914,-4.70492 1.21073,-5.0489c2.26792,-0.34203 3.90814,0.412 4.82541,1.05525c0.91727,0.64326 3.7857,2.36315 5.11692,2.56915c1.33121,0.206 5.07028,-0.10494 5.07028,-0.10494l1.2049,-2.96948l-1.89285,-0.06996c0,0 -0.98335,1.81317 -2.01723,1.37786c-1.03388,-0.43532 -2.97726,0.89007 -3.9334,-0.3226c-0.95614,-1.21461 -1.66742,-5.98755 1.72961,-6.81349c3.39508,-0.82594 7.50339,-3.44172 7.50339,-3.44172c0,0 -1.60134,-10.60113 -0.48001,-14.0895c1.12133,-3.48837 0.50334,-4.86816 0.50334,-4.86816" fill="#f2b65e"/><path d="M196.87666,319.83853c0,-2.18202 1.9107,-3.95089 4.26766,-3.95089c2.35696,0 4.26766,1.76887 4.26766,3.95089c0,2.18202 -1.9107,3.95089 -4.26766,3.95089c-2.35696,0 -4.26766,-1.76887 -4.26766,-3.95089z" fill="#f5dbbe"/><path d="M197.7026,320.68585l6.60555,-0.3362l0.52083,-0.01749c0,0 -5.0936,3.95283 -7.12443,0.3537z" fill="#ffffff"/><path d="M185.64393,321.07841l8.47896,-0.27596c0,0 -1.15825,1.41089 -2.03083,1.66936c-0.87258,0.25847 -4.42896,0.77541 -6.44813,-1.3934" fill="#ffffff"/><path d="M180.42401,312.38373l2.54583,3.50391c0,0 -0.65492,3.64967 -0.412,8.73938c0.24098,5.08971 1.50418,8.93371 1.50418,8.93371l-2.46809,-1.43421c0,0 -1.54887,-7.21382 -0.8959,-10.31934c0.65492,-3.10358 -0.27596,-9.42345 -0.27596,-9.42345z" fill="#e49a2b"/><path d="M172.86427,336.50884c0.94448,-1.50806 6.52198,-2.77126 6.52198,-2.77126c0,0 10.24938,5.3132 4.67577,3.09192c-5.57361,-2.22128 -11.19775,-0.32066 -11.19775,-0.32066" fill="#e49a2b"/><path d="M192.09206,340.19543c0,0 -3.25905,2.27958 -3.84789,1.22433c-0.58884,-1.05525 0.17685,-3.80902 0.17685,-3.80902c2.11051,-0.68796 3.67104,2.58469 3.67104,2.58469z" fill="#e49a2b"/><path d="M198.90361,339.9836c0,0 -3.46505,1.02222 -5.34429,-1.06692c-1.87925,-2.08913 1.03388,-0.92116 1.03388,-0.92116z" fill="#e49a2b"/><path d="M162.44581,342.24958c0,0 2.53222,9.92678 16.84715,5.37344c0,0 0.53832,1.15437 -1.55665,1.91617c-2.09496,0.75986 -16.50512,3.04139 -15.28856,-7.28962" fill="#e49a2b"/><path d="M211.45978,346.27043c-0.10689,1.26514 -3.94312,3.32512 -4.84484,3.32901c-0.90173,0.00389 -5.35207,-2.08136 -5.35207,-2.08136l2.26987,-2.25238h2.8762c0,0 0.60828,-3.01612 3.23573,-2.43894c2.62939,0.57718 1.81706,3.44367 1.81706,3.44367" fill="#e49a2b"/><path d="M183.4654,339.14795c0,0 -2.59635,2.33594 -2.17075,5.10331c0.4256,2.76737 0.33426,3.63995 -0.1477,5.01586c-0.48196,1.37591 -2.55749,5.32292 1.09607,7.80072c0,0 -3.2299,-0.06802 -3.71185,-2.69547c-0.48196,-2.62745 0.7618,-6.25379 0.7618,-6.25379c0,0 -1.17769,-6.10221 4.17244,-8.97258z" fill="#e49a2b"/><path d="M199.91999,310.71826c10.71579,5.64357 6.49283,19.13645 6.49283,19.13645c0,0 -0.47224,8.53726 -2.02889,13.59977c-1.55665,5.0625 -10.63806,8.43038 -5.48033,5.64357c5.15773,-2.78681 5.6494,-11.72441 5.6494,-11.72441c-0.34398,-6.17995 0.75209,-11.33767 0.75792,-16.12033c0.00583,-4.78266 -5.39288,-10.53506 -5.39288,-10.53506z" fill="#fdd29e"/><path d="M204.91836,330.22007c0,0 0.9406,0.82594 0.37507,1.23988c-0.56552,0.41394 -7.0292,3.05305 -4.89537,2.40979c2.13383,-0.64132 4.5203,-3.64772 4.5203,-3.64772z" fill="#fdd29e"/><path d="M212.53835,324.0032c0.59662,0.06996 0.5733,0.8959 0.96392,2.20379c0.39062,1.30789 0.206,2.45449 -0.206,3.28042c-0.41394,0.82594 -2.54777,1.05525 -2.06581,0.8376c0.48196,-0.21766 0.80262,-1.93949 0.80262,-3.47671c0,-1.53721 -1.16991,-2.22128 -1.16991,-2.22128c0,0 1.07858,-0.69379 1.67519,-0.62382z" fill="#fdd29e"/><path d="M173.17521,336.41556c0,0 -0.81622,2.27375 -0.31094,3.19103c0.50528,0.91727 1.46919,1.09412 1.95115,0.62771c0.48196,-0.46641 1.26125,-0.14575 1.42255,0.6005c0.1613,0.74626 1.28457,0.14964 1.19323,-1.11356c-0.09134,-1.26125 0.41977,1.23016 0.27596,1.97642c-0.14381,0.74626 -1.42255,1.08441 -1.78985,0.55192c-0.3673,-0.53249 -3.69436,1.25737 -4.12968,-0.64715c-0.43532,-1.90451 -0.2507,-4.66217 1.38952,-5.18882z" fill="#fdd29e"/><path d="M184.55369,357.29522c0,0 -1.37786,-1.35065 -0.92894,-2.20962c0.44698,-0.86092 1.43421,0 1.43421,0l0.18462,-1.03193v-3.02973c0,0 1.96281,0.14964 5.16356,-2.90341c3.20075,-3.05111 3.61469,-1.22822 3.61469,-1.22822c0,0 0.206,0.72294 -0.412,1.65187c-0.61994,0.92894 6.64247,0.50917 9.22522,-4.09276c0,0 0.85314,2.33011 -3.76238,4.19576c-4.61553,1.86564 -5.73686,1.8773 -7.9387,1.45559l-4.6816,1.60912l0.4392,2.44283c0,0 1.24765,3.93923 -2.33206,3.1405z" fill="#fdd29e"/><path d="M192.09206,347.02641c0,0 -0.9095,-5.05084 2.66049,-7.23326c3.56999,-2.18241 5.76212,0.20988 6.02448,1.90451c0.26236,1.69463 -0.93282,5.92536 -0.93282,5.92536c0,0 -6.32959,4.68937 -7.75214,-0.59662z" fill="#fdd29e"/><path d="M163.00745,341.10882c2.62745,-0.81428 3.10746,-0.81428 8.49645,1.92978c5.38899,2.74405 8.79185,-0.10494 7.02532,1.21267c-1.76653,1.31567 -6.76879,0.97558 -9.8782,-1.34288c-3.10746,-2.31845 -5.64357,-1.79957 -5.64357,-1.79957" fill="#fdd29e"/></g><g fill="#d07f2a"><path d="M171.61856,350.8879c-0.89784,0 -1.71989,-0.06996 -2.46809,-0.20794c-2.16492,-0.40034 -3.50391,-1.32927 -4.68549,-2.14938c-0.07385,-0.05053 -0.1477,-0.10106 -0.2196,-0.15158c-1.64216,-1.13299 -2.75377,-2.99475 -2.8315,-4.74573c-0.05247,-1.18935 0.38868,-2.23489 1.24376,-2.94616c1.1602,-0.96392 2.29707,-1.24182 3.68659,-0.90367c1.34093,0.32649 2.92479,1.23016 5.0489,2.58081c3.24739,2.06581 5.86512,1.4245 7.27407,1.08052c0.38479,-0.09328 0.66075,-0.15936 0.89395,-0.1613c0.30317,0.00194 0.54803,0.2507 0.54609,0.55386c-0.00194,0.30317 -0.24875,0.54609 -0.54998,0.54609h-0.00583c-0.09717,0 -0.37702,0.06802 -0.62382,0.12826c-1.45559,0.35564 -4.48338,1.09801 -8.12721,-1.22044c-4.39981,-2.80041 -5.79127,-3.13078 -7.4412,-1.75876c-0.7482,0.62188 -0.87258,1.45753 -0.84731,2.05027c0.06219,1.39535 1.00861,2.95977 2.35732,3.8887c0.07385,0.05053 0.1477,0.103 0.22155,0.15353c2.32428,1.613 4.72824,3.28042 13.32381,1.18935l0.62188,-0.29539c0.27402,-0.13021 0.60245,-0.0136 0.73265,0.26236c0.13021,0.27402 0.0136,0.60245 -0.26236,0.73265l-0.67241,0.31871c-0.03304,0.01555 -0.06802,0.02915 -0.10494,0.03692c-2.78292,0.68018 -5.13441,1.01833 -7.11277,1.01833z"/><path d="M175.18855,349.8035c-1.89674,-3.36593 0.7035,-5.33846 0.7035,-5.33846l2.63911,-0.21183c-2.30679,2.65854 -0.92894,4.80792 -0.92894,4.80792z"/><path d="M168.84147,349.58778c-1.00861,-4.59026 2.38647,-6.13525 2.38647,-6.13525l2.5089,0.99501c-3.36593,2.35538 -1.57608,5.50754 -1.57608,5.50754z"/><path d="M166.69793,348.80849l-3.48837,-2.58469c0.47418,-4.359 3.9781,-5.25101 3.9781,-5.25101l2.54,1.50223c-4.32985,1.20878 -3.10552,6.33347 -3.10552,6.33347"/></g><path d="M193.16481,351.1386c-1.57414,0 -2.57109,-0.3226 -2.62162,-0.33815c-0.28956,-0.09523 -0.44503,-0.40617 -0.34981,-0.69573c0.09523,-0.28762 0.40617,-0.44503 0.69573,-0.34981c0.01166,0.00389 1.2768,0.40617 3.17742,0.24487c2.54194,-0.21572 4.95367,-1.28263 7.16913,-3.16965c1.54693,-1.31761 2.73433,-3.30957 3.53306,-5.91565c1.42255,-4.64856 1.09607,-9.66248 1.09412,-9.71107c-0.00389,-0.05053 0,-0.10106 0.00972,-0.14964c0.92894,-4.48921 0.61799,-8.97841 0.61022,-9.10279c-0.41394,-4.86233 -2.33983,-7.69967 -3.88287,-9.22522c-0.98141,-0.96975 -1.922,-1.53916 -2.52834,-1.84232l-0.16713,3.34067c-0.01555,0.30317 -0.27402,0.53832 -0.57718,0.52277c-0.30317,-0.01555 -0.53832,-0.27402 -0.52277,-0.57718l0.206,-4.12968c0.00777,-0.17102 0.09523,-0.32649 0.23515,-0.42366c0.13992,-0.09717 0.31677,-0.12438 0.48001,-0.07191c0.07385,0.02332 1.80929,0.58496 3.64578,2.40007c1.0708,1.0572 1.95893,2.32622 2.63911,3.77016c0.84537,1.7918 1.37203,3.85955 1.56636,6.14691c0,0 0,0.00389 0,0.00583c0.0136,0.19045 0.3362,4.68549 -0.61411,9.33794c0.04081,0.68407 0.25653,5.45507 -1.14465,10.03367c-0.86092,2.81207 -2.16298,4.97505 -3.87121,6.43259c-3.00446,2.56137 -5.92731,3.28042 -7.85125,3.43395c-0.33037,0.02526 -0.64132,0.03692 -0.93477,0.03692z" fill="#d07f2a"/><path d="M183.47706,358.30967c-1.62078,0 -3.0822,-0.62965 -4.26183,-1.84427c-1.38757,-1.42838 -1.83066,-3.33678 -1.28263,-5.51725c0.30705,-1.22433 0.84537,-2.20185 1.09218,-2.60996c-0.18851,-0.93477 -0.73071,-4.4173 0.97169,-7.05641c0.01943,-0.02915 0.04081,-0.05636 0.06413,-0.08162l2.54583,-2.66243c0.20988,-0.2196 0.55775,-0.22738 0.77735,-0.01749c0.2196,0.20988 0.22738,0.55775 0.01749,0.77735l-2.5089,2.62356c-1.64993,2.61384 -0.75792,6.35096 -0.75014,6.38789c0.03692,0.15158 0.00777,0.31094 -0.07968,0.44115c-0.00583,0.00972 -0.72488,1.08441 -1.07275,2.4953c-0.44503,1.80346 -0.10494,3.3018 1.0125,4.45228c1.13105,1.16408 2.51085,1.65965 4.10442,1.47308c1.1019,-0.12826 1.94338,-0.55192 2.11245,-0.64326c0.25458,-0.20794 0.38479,-0.43726 0.40422,-0.71905c0.05247,-0.70739 -0.61411,-1.57608 -0.85314,-1.82483c-0.11272,-0.11855 -0.16713,-0.28179 -0.14964,-0.44309l0.18268,-1.58385c0.02915,-0.25653 0.23515,-0.45864 0.49167,-0.4839c2.95199,-0.29539 6.12164,-3.94895 6.15274,-3.98587c0.19822,-0.23126 0.54609,-0.25653 0.77541,-0.0583c0.23126,0.19822 0.25653,0.54415 0.06024,0.77541c-0.13409,0.15741 -3.20075,3.69631 -6.43647,4.3007l-0.10689,0.91922c0.34981,0.42171 1.05525,1.41089 0.97752,2.46615c-0.0447,0.6005 -0.34009,1.1291 -0.85897,1.53138c-0.01943,0.01555 -0.04081,0.02915 -0.06219,0.04275c-0.04275,0.02526 -1.08052,0.61799 -2.52251,0.79484c-0.27207,0.03304 -0.54026,0.05053 -0.80456,0.05053z" fill="#d07f2a"/><path d="M178.25326,341.66074c-0.27596,0 -0.515,-0.20794 -0.54609,-0.48973c-0.03304,-0.30122 0.18268,-0.57524 0.48584,-0.60828l2.44671,-0.27596c0.30122,-0.03304 0.57524,0.18268 0.60828,0.48584c0.03304,0.30122 -0.18268,0.57524 -0.48584,0.60828l-2.44671,0.27596c-0.02138,0.00194 -0.04081,0.00389 -0.06219,0.00389z" fill="#d07f2a"/><path d="M176.61499,343.37869c-0.21183,0 -0.38868,-0.04275 -0.53054,-0.09717c-0.36147,-0.13992 -0.61994,-0.40034 -0.79484,-0.65103c-0.55775,0.31677 -1.45559,0.68407 -2.32817,0.4392c-0.75403,-0.21183 -1.31372,-0.8065 -1.66159,-1.77236c-0.54803,-1.51584 -0.44309,-3.07054 0.29734,-4.37455c0.66075,-1.16603 2.1416,-2.69158 5.44924,-3.33873l4.1394,-0.81039c-0.04664,-0.15353 -0.0894,-0.32843 -0.13021,-0.52666c-0.03692,-0.1613 -0.50528,-2.20185 -0.80456,-4.92064c-0.40617,-3.6827 -0.30511,-6.71632 0.29734,-9.02505l-1.14854,-6.52198c-0.03692,-0.20988 0.05053,-0.42171 0.22543,-0.54415c0.1749,-0.12243 0.40422,-0.13409 0.58884,-0.02915l5.73686,3.24933c0.58884,-0.20017 2.17853,-0.6899 4.39592,-0.9678c2.56137,-0.32066 6.48117,-0.40617 10.59919,1.01444c0.28762,0.09911 0.4392,0.412 0.34009,0.69962c-0.09911,0.28762 -0.412,0.4392 -0.69962,0.34009c-3.91785,-1.35259 -7.65691,-1.27097 -10.10363,-0.96392c-2.64883,0.33232 -4.3726,0.98529 -4.38815,0.99112c-0.15353,0.0583 -0.32454,0.04664 -0.46835,-0.03498l-4.93813,-2.79652l0.9678,5.49199c0.0136,0.07968 0.00972,0.1613 -0.01166,0.24098c-1.42644,5.23935 0.46641,13.45013 0.48584,13.53175c0,0.00389 0.00194,0.00972 0.00389,0.0136c0.07579,0.36924 0.14381,0.55969 0.18462,0.64909c0.12438,0.06024 0.22543,0.16907 0.27596,0.30705c0.09328,0.25458 -0.0136,0.54026 -0.25264,0.67047c-0.06413,0.03498 -0.13409,0.0583 -0.20794,0.06802l-4.87399,0.9542c-2.29319,0.44892 -3.9198,1.41672 -4.70298,2.80041c-0.57913,1.02027 -0.65686,2.25043 -0.2196,3.45921c0.22155,0.61022 0.53054,0.97558 0.92311,1.08635c0.69379,0.19434 1.62466,-0.38479 1.89674,-0.60439c0.14187,-0.11466 0.33232,-0.15158 0.50722,-0.09717c0.1749,0.05441 0.31094,0.19045 0.36536,0.36536c0.03887,0.11855 0.206,0.48779 0.45475,0.58301c0.14964,0.05636 0.34981,0.00972 0.59467,-0.13604c0.80845,-0.48584 0.4392,-2.13966 0.24681,-2.68186c-0.10106,-0.28568 0.04664,-0.6005 0.33426,-0.7035c0.28568,-0.103 0.6005,0.04664 0.7035,0.33426c0.04275,0.12049 1.0261,2.95005 -0.71711,3.99559c-0.39645,0.23709 -0.74237,0.31677 -1.02805,0.31677z" fill="#d07f2a"/><path d="M182.61809,358.24359c-0.07774,0 -0.15741,-0.01749 -0.23321,-0.05247c-0.27596,-0.13021 -0.39256,-0.45669 -0.2643,-0.73265c0.2779,-0.59273 -0.48001,-1.21461 -0.48779,-1.22044c-0.23904,-0.18851 -0.27985,-0.53443 -0.09134,-0.77346c0.18851,-0.23904 0.53443,-0.27985 0.77346,-0.09134c0.5422,0.42754 1.3215,1.44782 0.80067,2.55166c-0.09328,0.20017 -0.29151,0.31677 -0.49751,0.31677z" fill="#d07f2a"/><path d="M185.56231,357.92877c-0.2643,0 -0.49167,-0.19822 -0.52083,-0.46641c-0.09328,-0.82011 -0.71322,-1.17963 -0.74043,-1.19518h0.00389l0.49751,-0.92311c0.04664,0.02526 1.12522,0.61994 1.28069,1.99974c0.03304,0.28762 -0.1749,0.54803 -0.46252,0.58107c-0.01943,0.00194 -0.04081,0.00389 -0.06024,0.00389z" fill="#d07f2a"/><path d="M187.11701,356.71998c-0.21183,0 -0.41394,-0.12243 -0.50334,-0.32843c-0.17102,-0.39062 -0.58301,-0.49167 -0.58884,-0.49167c-0.29734,-0.06024 -0.48973,-0.35175 -0.42949,-0.64909c0.06024,-0.29734 0.35175,-0.48973 0.64909,-0.42949c0.35953,0.07385 1.05331,0.39451 1.37591,1.1291c0.12243,0.2779 -0.00389,0.60245 -0.28179,0.72488c-0.07191,0.03109 -0.1477,0.04664 -0.22155,0.04664z" fill="#d07f2a"/><path d="M207.66825,350.14748c-0.515,0 -1.08829,-0.09134 -1.73544,-0.29928c-0.50917,-0.16324 -0.93671,-0.31677 -1.31567,-0.45086c-1.57414,-0.56164 -2.22711,-0.79484 -4.59998,-0.35758c-0.29928,0.05441 -0.5869,-0.14187 -0.64132,-0.44115c-0.05441,-0.29928 0.14187,-0.5869 0.44115,-0.64132c2.66437,-0.49167 3.55444,-0.17296 5.16939,0.40228c0.36924,0.13215 0.78901,0.28179 1.28263,0.44115c2.33011,0.75014 3.37954,-0.25264 4.32013,-2.11051c0.61605,-1.2185 1.35259,-1.92006 1.94532,-2.4817c0.43726,-0.41588 0.78318,-0.74431 0.9678,-1.16408c0.32843,-0.74237 -0.37313,-1.23016 -0.40228,-1.24959c-0.12438,-0.08551 -0.20988,-0.21766 -0.23321,-0.3673c-0.03887,-0.23709 -0.1477,-0.36924 -0.3673,-0.44115c-0.18851,-0.06219 -0.37702,-0.05053 -0.37896,-0.05053c-0.2196,0.02138 -0.43143,-0.0894 -0.53637,-0.28373c-0.20405,-0.37313 -0.68601,-0.309 -0.75403,-0.29734c-0.01943,0.00389 -0.03109,0.00583 -0.05247,0.00777c-2.50696,0.24292 -3.99753,3.29986 -4.01308,3.33095c-0.13021,0.27402 -0.46058,0.39062 -0.7346,0.25847c-0.27402,-0.13215 -0.39062,-0.46058 -0.25847,-0.7346c0.07191,-0.1477 1.77236,-3.63023 4.87399,-3.94895c0.4392,-0.07774 1.20878,-0.02332 1.71017,0.56941c0.59662,0.05053 1.31178,0.37702 1.54693,1.1874c0.50139,0.43532 1.09995,1.34676 0.60633,2.46226c-0.27402,0.62188 -0.73265,1.0572 -1.21656,1.51778c-0.55775,0.53054 -1.18935,1.13105 -1.71989,2.18047c-0.72682,1.4381 -1.81317,2.96171 -3.90425,2.96171z" fill="#d07f2a"/><path d="M206.61688,335.25925c-0.13992,0 -0.27985,-0.05247 -0.38673,-0.15936c-0.21572,-0.21377 -0.21766,-0.56164 -0.00389,-0.7793l4.12968,-4.16466c0.13992,-0.14187 0.34786,-0.19628 0.54026,-0.14187c0.84731,0.23904 1.83455,-0.27013 2.29902,-0.89784c0.13215,-0.17685 0.26624,-1.00084 0.13992,-2.20574c-0.11466,-1.09995 -0.40811,-2.07747 -0.72682,-2.43505c-0.5286,-0.58884 -1.82872,0.33815 -1.84038,0.34786c-0.18462,0.13798 -0.43532,0.1477 -0.62771,0.02332c-0.19239,-0.12438 -0.28956,-0.35564 -0.24098,-0.57913c0.03304,-0.15741 0.03887,-0.36341 0.01749,-0.47418c-0.04081,0.00777 -0.103,0.02526 -0.19045,0.06413c-0.70933,0.30705 -0.62382,1.79374 -0.53637,2.29124c0.03498,0.20405 -0.04664,0.41005 -0.21183,0.53443l-1.55859,1.16991c-0.24292,0.18268 -0.58884,0.13409 -0.77152,-0.10883c-0.18268,-0.24292 -0.13409,-0.58884 0.10883,-0.77152l1.30206,-0.97946c-0.07191,-0.76569 -0.09134,-2.57692 1.22822,-3.14827c0.68018,-0.29539 1.09801,-0.13021 1.32927,0.06024c0.17879,0.1477 0.28373,0.34203 0.34398,0.54609c0.07774,-0.03498 0.15741,-0.06607 0.24098,-0.09717c0.91339,-0.33232 1.7024,-0.19434 2.22323,0.38673c0.69767,0.77735 0.93282,2.39619 1.00278,3.05499c0.06802,0.65881 0.17296,2.26792 -0.34981,2.97531c-0.63937,0.8648 -1.89285,1.56831 -3.1541,1.37397l-3.9198,3.95089c-0.10689,0.10883 -0.24875,0.16324 -0.39062,0.16324z" fill="#d07f2a"/><path d="M180.87099,323.23362l2.54777,0.46058l-2.54777,1.30789z" fill="#d07f2a"/><path d="M180.87099,325.55207c-0.09911,0 -0.19822,-0.02721 -0.28762,-0.07968c-0.16324,-0.09911 -0.2643,-0.2779 -0.2643,-0.4703v-1.76848c0,-0.16324 0.07191,-0.31871 0.19822,-0.42171c0.12438,-0.10494 0.28956,-0.1477 0.45086,-0.11855l2.54583,0.46058c0.23126,0.04275 0.412,0.22738 0.44698,0.46058c0.03498,0.23321 -0.08357,0.46252 -0.29345,0.57135l-2.54583,1.30789c-0.07968,0.04081 -0.16519,0.06024 -0.2507,0.06024zM181.42291,323.89242v0.20794l0.29928,-0.15353z" fill="#d07f2a"/><path d="M181.14695,327.25447h3.16771l-2.85871,1.8773z" fill="#d07f2a"/><path d="M181.45595,329.68175c-0.07579,0 -0.14964,-0.01555 -0.22155,-0.04664c-0.17102,-0.07385 -0.29151,-0.23126 -0.3226,-0.41394l-0.309,-1.8773c-0.02721,-0.15936 0.01943,-0.3226 0.12243,-0.44503c0.10494,-0.12243 0.25847,-0.19434 0.41977,-0.19434h3.16576c0.24292,0 0.45669,0.15936 0.52666,0.39256c0.06996,0.23321 -0.02138,0.4839 -0.22543,0.61799l-2.85677,1.8773c-0.09134,0.06024 -0.19628,0.09134 -0.30317,0.09134zM181.79604,327.80445l0.06607,0.40228l0.61216,-0.40228z" fill="#d07f2a"/><path d="M206.89284,323.23362l-1.48085,-0.60633l1.36814,-0.61216l0.2507,-0.11077" fill="#d07f2a"/><path d="M206.89284,323.78359c-0.06996,0 -0.13992,-0.0136 -0.20794,-0.04081l-1.48085,-0.60633c-0.20405,-0.08357 -0.33815,-0.27985 -0.34203,-0.50139c-0.00389,-0.2196 0.12438,-0.42171 0.32649,-0.51111l1.61689,-0.72294c0.2779,-0.12438 0.60245,0 0.72682,0.2779c0.12438,0.2779 0,0.60245 -0.2779,0.72682l-0.44503,0.19822l0.29151,0.11855c0.28179,0.11466 0.41588,0.43726 0.30122,0.71711c-0.08745,0.21377 -0.29345,0.34203 -0.50917,0.34203z" fill="#d07f2a"/><path d="M206.61688,326.68895l-1.58385,-0.8959l1.82289,-0.59662l0.1749,-0.0583" fill="#d07f2a"/><path d="M206.61688,327.23892c-0.09134,0 -0.18462,-0.02332 -0.27013,-0.07191l-1.58385,-0.8959c-0.19045,-0.10689 -0.29928,-0.31677 -0.27596,-0.53443c0.02138,-0.21766 0.16907,-0.40034 0.37702,-0.46835l1.99585,-0.65298c0.28956,-0.09523 0.6005,0.06219 0.69379,0.35175c0.09523,0.28956 -0.06219,0.6005 -0.35175,0.69379l-0.81039,0.26624l0.49751,0.28179c0.2643,0.14964 0.35758,0.48584 0.20794,0.75014c-0.10106,0.17879 -0.28762,0.27985 -0.48001,0.27985z" fill="#d07f2a"/><path d="M179.97704,340.55107l0.37896,-1.40312l0.515,1.40312" fill="#d07f2a"/><path d="M180.87099,340.85035c-0.12243,0 -0.23709,-0.07579 -0.28179,-0.19628l-0.19045,-0.51694l-0.13215,0.49167c-0.04275,0.15936 -0.20794,0.25458 -0.3673,0.21183c-0.15936,-0.04275 -0.25458,-0.20794 -0.21183,-0.3673l0.37896,-1.40312c0.03498,-0.12632 0.14575,-0.21572 0.27596,-0.22155c0.13021,-0.00583 0.2507,0.07385 0.29539,0.19628l0.51694,1.40312c0.05636,0.15547 -0.02332,0.32843 -0.17879,0.38479c-0.03498,0.01166 -0.06996,0.01943 -0.103,0.01943z" fill="#d07f2a"/><path d="M181.98649,339.9836l-0.3226,-1.52361l0.89395,0.68796" fill="#d07f2a"/><path d="M181.98455,340.28483c-0.13798,0 -0.2643,-0.09717 -0.29345,-0.23904l-0.3226,-1.52555c-0.02526,-0.12243 0.02721,-0.24875 0.13409,-0.31677c0.10689,-0.06607 0.24292,-0.06024 0.34203,0.01555l0.89395,0.68796c0.13215,0.10106 0.15547,0.28956 0.05441,0.42171c-0.10106,0.13215 -0.28956,0.15547 -0.42171,0.05441l-0.24875,-0.19239l0.15353,0.72877c0.03498,0.1613 -0.06996,0.32066 -0.23126,0.35564c-0.02138,0.00389 -0.04275,0.00583 -0.06219,0.00583z" fill="#d07f2a"/><path d="M179.97704,343.79457c0,0 1.48085,1.54887 2.75377,1.58385c1.27291,0.03498 -1.66936,0.75792 -3.17548,0.48196c0,0 -0.3362,-1.51389 0.42171,-2.06581z" fill="#d07f2a"/><path d="M180.36377,346.22185c-0.29345,0 -0.59079,-0.01943 -0.86092,-0.06802c-0.11855,-0.02138 -0.21377,-0.11272 -0.23904,-0.23126c-0.01555,-0.06996 -0.3673,-1.71406 0.53832,-2.37287c0.12243,-0.0894 0.28956,-0.07385 0.39451,0.03498c0.01943,0.02138 1.41284,1.45948 2.54388,1.49057c0.23709,0.00583 0.47613,0.02915 0.5733,0.23126c0.05247,0.11077 0.03887,0.24098 -0.03887,0.34203c-0.17296,0.22543 -0.93282,0.37896 -1.53916,0.46641c-0.32649,0.04664 -0.84343,0.10689 -1.37203,0.10689zM182.90182,345.69325zM179.81379,345.59414c0.62188,0.06996 1.42838,-0.00194 2.0561,-0.10689c-0.79679,-0.31288 -1.53138,-0.93671 -1.88702,-1.26708c-0.24292,0.37119 -0.22349,0.99112 -0.16907,1.37397z" fill="#d07f2a"/><path d="M179.55532,346.89232c0,0 1.52167,0.44698 3.17548,0.412c1.65187,-0.03498 -2.44283,1.20878 -2.95977,1.03388c-0.515,-0.17296 -0.21377,-1.44782 -0.21377,-1.44782z" fill="#d07f2a"/><path d="M179.91679,348.65302c-0.09717,0 -0.18073,-0.00972 -0.24292,-0.02915c-0.73848,-0.24875 -0.47224,-1.54304 -0.412,-1.80151c0.01943,-0.07968 0.06996,-0.14964 0.14187,-0.19045c0.07191,-0.04081 0.15547,-0.05247 0.23515,-0.02915v0c0.01555,0.00389 1.50029,0.43337 3.08414,0.40034c0.27985,-0.00583 0.56164,0.00777 0.66658,0.23709c0.0583,0.12826 0.03304,0.27207 -0.06996,0.38479c-0.23126,0.25653 -1.19906,0.55581 -1.75487,0.70933c-0.55386,0.15353 -1.23793,0.31677 -1.64993,0.31677zM179.86238,348.05251c0.23904,0.0447 1.30012,-0.20988 2.10468,-0.46252c-0.93477,-0.05441 -1.74515,-0.22155 -2.1727,-0.32649c-0.05247,0.40034 -0.01749,0.75014 0.06996,0.78901z" fill="#d07f2a"/><path d="M205.12436,341.60244l-1.94921,-0.25264l2.23683,-1.50029z" fill="#d07f2a"/><path d="M205.12436,341.90366c-0.0136,0 -0.02526,0 -0.03887,-0.00194l-1.94921,-0.25264c-0.12438,-0.01555 -0.22543,-0.10689 -0.25458,-0.22932c-0.02915,-0.12243 0.02138,-0.24875 0.12438,-0.31871l2.23683,-1.50223c0.09911,-0.06607 0.22932,-0.06802 0.33037,-0.00389c0.10106,0.06413 0.15353,0.18268 0.13409,0.30122l-0.28956,1.75487c-0.02332,0.14575 -0.15158,0.2507 -0.29539,0.2507zM204.00498,341.15546l0.87063,0.11272l0.12826,-0.78318z" fill="#d07f2a"/><path d="M204.29454,343.79457l-1.63633,-0.82594l1.89285,-0.37896z" fill="#d07f2a"/><path d="M204.29454,344.09385c-0.04664,0 -0.09328,-0.01166 -0.13604,-0.03304l-1.63438,-0.82594c-0.11466,-0.0583 -0.17879,-0.18073 -0.1613,-0.309c0.01749,-0.12632 0.11272,-0.22932 0.23904,-0.25458l1.89285,-0.37896c0.09911,-0.01943 0.20211,0.01166 0.27207,0.08357c0.06996,0.07191 0.10106,0.1749 0.07968,0.27402l-0.25847,1.2049c-0.01943,0.09134 -0.07968,0.16713 -0.16324,0.20794c-0.04081,0.01943 -0.08551,0.02915 -0.13021,0.02915zM203.56966,343.09301l0.51111,0.25847l0.08162,-0.37702z" fill="#d07f2a"/><path d="M192.09206,314.10945v1.97836l-2.24849,-1.97836z" fill="#d07f2a"/><path d="M192.09206,316.38709c-0.07191,0 -0.14187,-0.02526 -0.19822,-0.07385l-2.24849,-1.97836c-0.09328,-0.08162 -0.12632,-0.21377 -0.08162,-0.33232c0.0447,-0.1166 0.15547,-0.19434 0.28179,-0.19434h2.24849c0.16519,0 0.29928,0.13409 0.29928,0.29928v1.97836c0,0.11855 -0.06996,0.22543 -0.17685,0.27402c-0.03887,0.01749 -0.08162,0.02721 -0.12438,0.02721zM190.63841,314.40873l1.15242,1.01444v-1.01444z" fill="#d07f2a"/><path d="M195.05183,314.10945v1.97836l-1.85787,-1.97836z" fill="#d07f2a"/><path d="M195.05183,316.38709c-0.08162,0 -0.1613,-0.03304 -0.2196,-0.09523l-1.85787,-1.97836c-0.08162,-0.08745 -0.10494,-0.21572 -0.05636,-0.32454c0.04664,-0.11077 0.15547,-0.18073 0.27596,-0.18073h1.85787c0.16519,0 0.29928,0.13409 0.29928,0.29928v1.97836c0,0.12243 -0.07579,0.23321 -0.19045,0.27985c-0.03498,0.0136 -0.07385,0.02138 -0.11077,0.02138zM193.88774,314.40873l0.8648,0.91922v-0.91922z" fill="#d07f2a"/><path d="M198.32448,314.33877l-0.3809,1.40506l-0.86092,-1.63438z" fill="#d07f2a"/><path d="M197.94358,316.04311c-0.11077,0 -0.21377,-0.06024 -0.26624,-0.15936l-0.86092,-1.63438c-0.05441,-0.10106 -0.0447,-0.22543 0.02332,-0.31871c0.06802,-0.09328 0.18268,-0.13798 0.29734,-0.1166l1.24182,0.22932c0.08162,0.01555 0.15547,0.06413 0.20017,0.13604c0.0447,0.07191 0.0583,0.15741 0.03498,0.23904l-0.37896,1.40312c-0.03304,0.11855 -0.13409,0.206 -0.25653,0.2196c-0.01166,0 -0.02138,0 -0.03304,0zM197.63652,314.51756l0.21572,0.41005l0.09523,-0.3537l-0.31288,-0.0583z" fill="#d07f2a"/><path d="M207.92477,327.25447v1.36037l-0.83565,-0.68018z" fill="#d07f2a"/><path d="M207.92477,328.91606c-0.06802,0 -0.13409,-0.02332 -0.19045,-0.06802l-0.83565,-0.68018c-0.06996,-0.05636 -0.11077,-0.14187 -0.11077,-0.23321c0,-0.09134 0.04081,-0.1749 0.11077,-0.23321l0.83565,-0.68018c0.0894,-0.07385 0.21377,-0.08745 0.31871,-0.03887c0.10494,0.05053 0.17102,0.15547 0.17102,0.27207v1.36037c0,0.1166 -0.06607,0.22155 -0.17102,0.27207c-0.04081,0.01943 -0.08551,0.02915 -0.12826,0.02915zM207.56525,327.93465l0.06024,0.04858v-0.09717z" fill="#d07f2a"/><path d="M207.45586,348.31033c-0.61998,-0.35795 -0.55919,-1.62391 0.13577,-2.82762c0.69496,-1.20371 1.76093,-1.88933 2.38091,-1.53139c0.61998,0.35795 0.55919,1.62391 -0.13577,2.82762c-0.69496,1.20371 -1.76093,1.88933 -2.38091,1.53139z" fill="#d07f2a"/><path d="M207.81983,348.70549c-0.18462,0 -0.35758,-0.04275 -0.51305,-0.13215c-0.40228,-0.23126 -0.60633,-0.71905 -0.57524,-1.37203c0.02721,-0.58107 0.24098,-1.24376 0.6005,-1.86759v0c0.79096,-1.36814 2.01723,-2.08913 2.79069,-1.64216c0.40228,0.23126 0.60633,0.71905 0.57524,1.37203c-0.02721,0.58107 -0.24098,1.24376 -0.6005,1.86759c-0.6316,1.09412 -1.5411,1.77431 -2.27764,1.77431zM207.85287,345.63495c-0.31288,0.5422 -0.49751,1.10773 -0.52083,1.59551c-0.01943,0.41005 0.08162,0.70933 0.27596,0.82205c0.40811,0.23515 1.31761,-0.28956 1.97059,-1.42255c0.31288,-0.5422 0.49751,-1.10773 0.52083,-1.59551c0.01943,-0.41005 -0.08162,-0.70933 -0.27596,-0.82205c-0.40811,-0.23515 -1.31761,0.28956 -1.97059,1.42255z" fill="#d07f2a"/><path d="M209.42673,342.22081c-0.23641,-0.26948 -0.15662,-0.72606 0.17821,-1.01981c0.33483,-0.29374 0.79792,-0.31341 1.03433,-0.04393c0.23641,0.26948 0.15662,0.72606 -0.17821,1.01981c-0.33483,0.29374 -0.79792,0.31341 -1.03433,0.04393z" fill="#d07f2a"/><path d="M211.25091,342.79443c-0.23641,-0.26948 -0.15662,-0.72606 0.17821,-1.01981c0.33483,-0.29374 0.79792,-0.31341 1.03433,-0.04393c0.23641,0.26948 0.15662,0.72606 -0.17821,1.01981c-0.33483,0.29374 -0.79792,0.31341 -1.03433,0.04393z" fill="#d07f2a"/><path d="M212.08703,344.16692c-0.23641,-0.26948 -0.15662,-0.72606 0.17821,-1.01981c0.33483,-0.29374 0.79792,-0.31341 1.03433,-0.04393c0.23641,0.26948 0.15662,0.72606 -0.17821,1.01981c-0.33483,0.29374 -0.79792,0.31341 -1.03433,0.04393z" fill="#d07f2a"/><path d="M181.46761,313.8607l3.00641,2.86843l-2.13383,0.39062z" fill="#d07f2a"/><path d="M182.34019,317.26939c-0.06607,0 -0.12632,-0.0447 -0.14575,-0.11077l-0.87258,-3.25905c-0.01749,-0.06413 0.00972,-0.13409 0.06802,-0.16713c0.0583,-0.03498 0.13215,-0.02526 0.18073,0.02138l3.00641,2.86843c0.04081,0.03887 0.05636,0.09717 0.04081,0.15158c-0.01555,0.05441 -0.06219,0.09523 -0.1166,0.10494l-2.13383,0.39062c0,0 -0.01749,0.00194 -0.02721,0.00194zM181.75134,314.33877l0.69767,2.60801l1.70823,-0.31288z" fill="#d07f2a"/><path d="M199.8442,320.90351c0,-0.36385 0.29496,-0.65881 0.65881,-0.65881c0.36385,0 0.65881,0.29496 0.65881,0.65881c0,0.36385 -0.29496,0.65881 -0.65881,0.65881c-0.36385,0 -0.65881,-0.29496 -0.65881,-0.65881z" fill="#000000"/><path d="M190.02625,321.34271c0,-0.36385 0.29496,-0.65881 0.65881,-0.65881c0.36385,0 0.65881,0.29496 0.65881,0.65881c0,0.36385 -0.29496,0.65881 -0.65881,0.65881c-0.36385,0 -0.65881,-0.29496 -0.65881,-0.65881z" fill="#000000"/><path d="M190.31581,323.06454c-1.46336,0 -3.07637,-0.59467 -4.81181,-1.78014c-0.0894,-0.06024 -0.13021,-0.17296 -0.09911,-0.27596c0.03109,-0.103 0.12438,-0.17685 0.23126,-0.18073l8.47896,-0.27596c0.0894,-0.00194 0.17685,0.04275 0.22349,0.12243c0.04664,0.07774 0.04664,0.1749 0,0.25458c-0.03692,0.06413 -0.93282,1.56636 -2.90535,2.01334c-0.36147,0.08162 -0.7346,0.12243 -1.11744,0.12243zM186.45626,321.3019c1.80151,1.08441 3.43201,1.47308 4.85845,1.15437c1.1602,-0.26041 1.91423,-0.94448 2.29707,-1.38563z" fill="#855827"/><path d="M200.4894,322.42129c-1.13882,0 -2.40785,-0.40228 -3.58942,-1.66548c-0.06607,-0.07191 -0.08551,-0.17685 -0.04858,-0.26624c0.03692,-0.0894 0.12438,-0.15158 0.22349,-0.15353l7.74437,-0.25264c0.103,-0.00389 0.20017,0.0583 0.23904,0.15547c0.03887,0.09717 0.01555,0.20794 -0.06024,0.2779c-0.0447,0.04275 -1.12327,1.03388 -2.6566,1.57219c-0.53832,0.18851 -1.17186,0.33232 -1.85204,0.33232zM197.67733,320.81605c1.28263,1.13105 2.79264,1.39923 4.49698,0.80067c0.79096,-0.2779 1.45948,-0.69184 1.90451,-1.00861z" fill="#855827"/><path d="M196.08376,323.30747c-0.80067,0 -1.61106,-0.66269 -1.64993,-0.69379c-0.10689,-0.08745 -0.12049,-0.24487 -0.03304,-0.35175c0.08745,-0.10689 0.24487,-0.12049 0.35175,-0.03304v0c0.24681,0.20211 1.00084,0.69767 1.53527,0.55386c0.24875,-0.06607 0.43143,-0.26624 0.55969,-0.60828c0.04858,-0.13021 0.19239,-0.19434 0.3226,-0.1477c0.13021,0.04858 0.19434,0.19239 0.1477,0.3226c-0.18656,0.49945 -0.48973,0.80845 -0.89978,0.91727c-0.10883,0.02915 -0.22155,0.04275 -0.33232,0.04275z" fill="#855827"/><path d="M196.24506,324.59787c-0.12826,0 -0.23904,-0.09911 -0.24875,-0.22932l-0.09134,-1.11356c-0.01166,-0.13798 0.09134,-0.25847 0.22932,-0.27013c0.13798,-0.01166 0.25847,0.09134 0.27013,0.22932l0.09134,1.11356c0.01166,0.13798 -0.09134,0.25847 -0.22932,0.27013c-0.00777,0 -0.0136,0 -0.02138,0z" fill="#855827"/><path d="M192.48268,325.38883c-0.11272,0 -0.21572,-0.07579 -0.24292,-0.19045c-0.03304,-0.13409 0.05053,-0.27013 0.18462,-0.30317c4.35317,-1.05914 7.30516,-0.18268 7.42954,-0.14575c0.13215,0.04081 0.206,0.18073 0.16519,0.31288c-0.04081,0.13215 -0.18073,0.206 -0.31288,0.16519v0c-0.02915,-0.00972 -2.95394,-0.87258 -7.16524,0.15353c-0.01943,0.00389 -0.03887,0.00777 -0.06024,0.00777z" fill="#855827"/><path d="M200.76731,325.1323c-0.01166,0 -0.02332,0 -0.03498,-0.00194c-0.13604,-0.01943 -0.23126,-0.14575 -0.21183,-0.28373c0.0583,-0.40422 -0.15936,-0.45086 -0.16907,-0.45281c-0.13604,-0.02721 -0.22349,-0.15936 -0.19628,-0.29345c0.02721,-0.13604 0.15741,-0.22349 0.29345,-0.19628c0.23904,0.04664 0.66464,0.32066 0.56552,1.01444c-0.01749,0.12438 -0.12438,0.21572 -0.24681,0.21572z" fill="#855827"/><path d="M207.08912,342.23987c-0.0583,0 -0.11855,-0.00972 -0.17879,-0.02915l-1.79568,-0.61605c-0.28762,-0.09911 -0.44115,-0.412 -0.34203,-0.69962c0.09911,-0.28762 0.412,-0.44115 0.69962,-0.34203l1.79568,0.61605c0.28762,0.09911 0.44115,0.412 0.34203,0.69962c-0.07774,0.22932 -0.29151,0.37119 -0.52083,0.37119z" fill="#d07f2a"/><g><path d="M162.99773,336.00745c0,0 2.59247,-1.1155 4.45811,-2.66437c1.86564,-1.55082 4.61358,-2.98309 7.94842,-2.18047c3.33484,0.80262 10.29991,3.36593 10.95289,3.35039c0.65298,-0.0136 7.41205,2.13577 11.17249,0.83565c3.76238,-1.30012 8.69274,-3.55638 8.69274,-3.55638l-0.18851,3.10941c0,0 -2.52834,1.51389 -3.63218,1.83649c-1.10384,0.32066 -4.69715,0.66658 -4.69715,0.66658c0,0 1.03388,1.09801 1.19906,1.74321c0.16519,0.6452 -3.10163,0.34592 -4.31042,-1.53721h-0.66464c0,0 -0.97752,2.25238 -1.83649,2.58469c-0.85897,0.33232 -1.88119,0.91533 -1.88119,0.91533c0,0 -1.37786,-0.79096 -0.54998,-2.94811l-0.20988,-0.75597c0,0 -6.62692,-1.51584 -8.57808,-2.69741c-1.95115,-1.18157 -5.66689,-1.2049 -7.29739,-0.32066c-1.62855,0.88424 -3.00641,2.75766 -3.00641,2.75766c0,0 -2.07942,0.09717 -4.09859,-0.10106c-1.45365,-0.14187 -2.8762,-0.4392 -3.47282,-1.03582z" fill="#68a7d9"/><path d="M177.1125,332.1926l0.68601,-0.18073l0.22932,0.18268c0,0 -1.12522,1.1019 -2.43311,1.14854c-1.30789,0.04664 -4.6097,3.35622 -5.86706,3.69436c-1.25737,0.3362 -6.67356,-0.58107 -5.2996,-0.33815c1.37397,0.24292 3.72934,-0.95031 5.77378,-2.62162c2.04443,-1.67131 6.90871,-1.88508 6.90871,-1.88508z" fill="#2aa0cf"/><path d="M185.56231,336.40779c0,0 3.08803,0.41005 3.56999,-0.38673c0.48196,-0.79679 -0.42754,-1.08246 -0.42754,-1.08246l3.10941,0.74626l-1.51195,1.60912c0,0 -3.11135,0.33232 -4.7399,-0.88424z" fill="#2aa0cf"/><path d="M198.32254,338.16071c-0.27985,0 -0.51888,-0.21183 -0.54803,-0.49751c-0.02915,-0.30317 0.19239,-0.57135 0.49362,-0.6005c3.4048,-0.33426 6.63081,-1.83261 7.59084,-2.31262v-2.54388c-1.53138,0.99695 -4.87788,2.95394 -8.6597,3.7857c-2.25626,0.49556 -5.24324,0.30122 -8.8793,-0.57913c-2.85482,-0.6899 -5.4609,-1.65965 -6.82709,-2.27958c-2.16104,-0.98141 -3.49614,-0.04081 -3.50974,-0.03109c-0.00972,0.00777 -0.02138,0.0136 -0.03109,0.02138l-0.18462,0.1166c1.28457,0.21572 3.16382,0.7035 5.06833,1.80929c3.07831,1.78985 7.54031,1.92006 7.58501,1.92006c0.30317,0.00777 0.54415,0.26041 0.53637,0.56358c-0.00777,0.30317 -0.26041,0.54415 -0.56358,0.53637c-0.19434,-0.00389 -4.79237,-0.13992 -8.11166,-2.0697c-3.07248,-1.78791 -6.1333,-1.82872 -6.1644,-1.83066c-0.24487,0 -0.45864,-0.16519 -0.52471,-0.40034c-0.06607,-0.23515 0.02915,-0.48584 0.23709,-0.61605l1.5275,-0.95614c0.21766,-0.14964 1.97642,-1.25542 4.59221,-0.06607c2.34372,1.06303 10.13084,3.85955 15.01649,2.78681c4.83513,-1.06109 9.07752,-4.16466 9.12028,-4.19576c0.16713,-0.12243 0.38868,-0.14187 0.57524,-0.04858c0.18462,0.09328 0.30317,0.28373 0.30317,0.49167v3.92368c0,0.20211 -0.11077,0.38673 -0.28762,0.4839c-0.1613,0.08745 -4.02279,2.17075 -8.29629,2.58858c-0.01749,0 -0.03692,0.00194 -0.05441,0.00194z" fill="#3883c4"/><path d="M189.47627,341.66074c-0.12243,0 -0.24292,-0.04081 -0.34009,-0.11855c-0.11855,-0.09328 -0.19434,-0.23321 -0.20794,-0.38479c-0.23515,-2.74599 1.03971,-4.2424 2.15326,-5.01586c1.18352,-0.82205 2.41562,-0.99695 2.46809,-1.00473c0.03109,-0.00389 0.06219,-0.00583 0.09328,-0.00389c0.0447,0 1.11744,0.04664 2.3787,0.61605c1.16991,0.5286 2.73822,1.62661 3.56416,3.85372c0.06219,0.17102 0.03887,0.36147 -0.06607,0.50917c-0.10494,0.1477 -0.27596,0.23515 -0.45864,0.23126c-0.04664,0 -1.15437,-0.02332 -2.41951,-0.46058c-1.07858,-0.37313 -1.94921,-0.93477 -2.58275,-1.65965c-0.13215,0.42171 -0.33037,0.81622 -0.59079,1.18157c-1.31955,1.84038 -3.80125,2.23489 -3.90814,2.25043c-0.02721,0.00389 -0.05441,0.00583 -0.08162,0.00583zM193.13177,336.36114c-1.0261,0.309 -3.08026,1.27291 -3.12884,4.05778c0.71128,-0.21183 1.87925,-0.6899 2.57303,-1.66159c0.4703,-0.65881 0.65686,-1.46531 0.55581,-2.39619zM194.24338,336.43888c0.72877,1.87147 2.73628,2.4953 3.92368,2.70324c-1.09801,-1.98808 -2.96171,-2.61968 -3.9334,-2.8179c0.00389,0.03887 0.00777,0.07774 0.00972,0.1166z" fill="#3883c4"/><path d="M191.81416,339.45112c-0.17102,0 -0.34398,-0.05053 -0.49556,-0.15353c-0.39839,-0.27402 -0.49945,-0.81816 -0.22543,-1.21656l1.76653,-2.56915c0.25847,-0.37507 0.7618,-0.48973 1.15631,-0.26236l2.95199,1.69851c0.41783,0.24098 0.56358,0.77541 0.3226,1.19323c-0.24098,0.41977 -0.77541,0.56164 -1.19323,0.3226l-2.25238,-1.29623l-1.30984,1.90451c-0.16907,0.24681 -0.44309,0.37896 -0.72099,0.37896z" fill="#3883c4"/><path d="M168.83953,337.95277c-0.51305,0 -1.12716,-0.03498 -1.8637,-0.11466c-3.19103,-0.34786 -4.38232,-0.90561 -5.50754,-1.54693c-0.309,-0.1749 -0.46058,-0.52666 -0.37507,-0.87258c0.08551,-0.34592 0.3809,-0.5869 0.73848,-0.59856c0.5286,-0.01749 1.17769,-0.13798 1.93172,-0.35564c1.81706,-0.52666 2.78292,-1.29235 3.71768,-2.03472c1.22627,-0.97169 2.49141,-1.97642 5.43174,-2.20768c2.93256,-0.23126 7.67635,1.43616 7.87652,1.50806c0.28568,0.10106 0.43532,0.41588 0.33426,0.7035c-0.10106,0.28568 -0.41588,0.43726 -0.7035,0.33426c-0.04664,-0.01749 -4.72241,-1.66159 -7.42177,-1.44782c-2.60607,0.206 -3.63801,1.02416 -4.83513,1.97253c-0.97169,0.76958 -2.07164,1.64216 -4.09664,2.22906c-0.41005,0.11855 -0.79484,0.21183 -1.15437,0.2779c0.86675,0.38673 2.0114,0.70739 4.18215,0.94448c2.44088,0.26624 3.12107,-0.03498 3.2299,-0.09523c0.22932,-0.31288 2.52056,-3.34261 5.75629,-3.5797c0.30317,-0.02138 0.56747,0.206 0.58884,0.50917c0.02138,0.30317 -0.206,0.56747 -0.50917,0.58884c-2.7013,0.19822 -4.74379,2.85677 -4.94007,3.12301c-0.206,0.33815 -0.81428,0.66464 -2.38258,0.66464zM170.25431,336.76537v0zM170.25625,336.76148c0,0 0,0.00389 -0.00194,0.00389c0,0 0,-0.00389 0.00194,-0.00389zM170.2582,336.75954v0zM170.2582,336.75954v0zM170.34176,336.63905z" fill="#3883c4"/><path d="M162.44387,337.82062c-0.96586,0 -1.84232,-0.65881 -2.07747,-1.64021c-0.27596,-1.14659 0.42949,-2.29707 1.57219,-2.57692c0.0447,-0.01166 3.41257,-0.86869 5.86901,-3.32512c0.83371,-0.83565 2.18824,-0.83565 3.0239,0c0.83565,0.83371 0.83565,2.18824 0,3.0239c-3.3329,3.33678 -7.70356,4.41341 -7.88818,4.45811c-0.16713,0.04081 -0.3362,0.06024 -0.50139,0.06024z" fill="#3883c4"/></g><g><g><path d="M180.60475,319.20694c0,0 8.64221,-2.33983 13.98844,-2.43311c5.34624,-0.09134 12.02369,0.55969 12.02369,0.55969l0.47224,1.55082l-26.21813,1.14659c0,0 -2.22517,-0.24487 -0.26819,-0.82594z" fill="#cd4b55"/><path d="M180.15971,318.81049c-0.90367,-1.59163 -2.3787,-2.27375 -5.89038,-3.39897c-3.50974,-1.12522 -4.06749,-5.1072 -4.06749,-5.1072l5.38316,-1.16214c0,0 -0.7929,2.67603 2.14355,4.71852c2.93645,2.04249 2.8762,4.46783 2.8762,4.46783" fill="#cd4b55"/><g><path d="M179.33572,319.34492c0.16324,0.29734 -0.11466,0.34398 -0.11466,0.34398c-5.09554,0.64326 -4.56694,4.93813 -4.56694,4.93813c0,0 -1.97447,0.27207 -2.68575,0.25653c-0.71128,-0.01555 -0.50334,-0.83177 -0.46252,-1.88313c0.03887,-1.05137 0.79679,-2.31456 0.79679,-2.31456c0,0 1.3215,-1.16991 3.3601,-1.75293c2.0386,-0.58301 3.67104,0.412 3.67104,0.412z" fill="#cd4b55"/><path d="M171.38341,313.0542c0,0 2.90924,1.22822 4.52807,1.51972c2.46032,0.44309 3.25905,2.19408 3.25905,2.19408c0,0 -0.04858,-1.62078 -1.04554,-2.69935c-1.74127,-1.88119 1.66353,0.89978 2.07164,2.01917c0.41005,1.11939 0.30511,2.48364 0.30511,2.48364c0,0 -0.04664,0.54609 -1.42255,-1.01444c-1.37786,-1.56053 -3.96255,-1.43227 -5.0936,-2.06581c-1.13105,-0.63354 -2.37481,-2.06193 -2.60024,-2.437z" fill="#b73949"/><path d="M172.09858,321.06286c0,0 2.49141,-3.5078 7.11082,-1.99196c4.62136,1.51389 0.25458,0.1613 0.25458,0.1613l-0.07968,0.54998c0,0 -3.31735,0.68796 -3.94506,1.88119c-0.62771,1.19323 2.18047,-4.16077 -3.34261,-0.6005z" fill="#b73949"/></g></g><path d="M180.16166,320.61977c0,0 -0.56164,-0.01166 -0.81622,-0.45086c-0.18268,-0.31483 -0.13992,-0.71516 0.13021,-1.18935c0.04858,-0.08551 0.12826,-0.1477 0.22155,-0.1749c0.07191,-0.02138 7.35375,-2.11634 14.64336,-2.64883c7.31294,-0.53443 12.74468,0.90367 12.79715,0.91727c0.12826,0.03498 0.22932,0.13604 0.2643,0.2643l0.46835,1.72961c0.02915,0.11077 0.00777,0.22738 -0.06024,0.32066c-0.06802,0.09328 -0.17296,0.1477 -0.28762,0.15353l-27.34529,1.07858c0,0 -0.00972,0 -0.01555,0zM180.18498,319.86963v0zM180.05866,319.4829c-0.08357,0.18073 -0.08162,0.2779 -0.06607,0.30705c0.01749,0.03498 0.10883,0.06802 0.17879,0.07774l26.85167,-1.05914l-0.28762,-1.06109c-1.04748,-0.2507 -5.9584,-1.30789 -12.34046,-0.84148c-6.62692,0.4839 -13.2519,2.27375 -14.33436,2.57692z" fill="#a81f23"/><path d="M171.5039,325.51514c-0.1613,0 -0.30511,-0.103 -0.35564,-0.25653c-0.01555,-0.0447 -0.36147,-1.10578 -0.21572,-2.40396c0.13798,-1.2185 0.7482,-2.8762 2.87426,-3.84983c3.99364,-1.82872 5.97783,-0.00972 6.05946,0.06996c0.14964,0.14187 0.15547,0.3809 0.0136,0.53054c-0.03692,0.03692 -0.07774,0.06607 -0.12243,0.08551c0.05636,0.06219 0.09134,0.14187 0.09717,0.23126c0.01166,0.206 -0.1477,0.38285 -0.3537,0.39451c-1.88119,0.10106 -3.18326,0.64326 -3.86732,1.61106c-0.89007,1.25737 -0.44115,2.83345 -0.43726,2.84899c0.03109,0.10883 0.0136,0.22543 -0.05053,0.31871c-0.06413,0.09328 -0.16713,0.15158 -0.27985,0.1613l-3.33095,0.25653c-0.00972,0 -0.01943,0 -0.02915,0zM177.12999,318.94652c-0.91533,0 -1.93755,0.2507 -3.00835,0.74043c-1.4517,0.66464 -2.27375,1.75876 -2.44088,3.25127c-0.08551,0.76569 0.02526,1.44199 0.10689,1.80346l2.59635,-0.20017c-0.09911,-0.66075 -0.14964,-1.93366 0.63743,-3.04722c0.80262,-1.13493 2.24266,-1.78014 4.28126,-1.91812c-0.13798,-0.10689 -0.54415,-0.38285 -1.22239,-0.53054c-0.30122,-0.06607 -0.61799,-0.09911 -0.95031,-0.09911z" fill="#a81f23"/><path d="M180.14611,319.44597c-0.11855,0 -0.23515,-0.05636 -0.309,-0.1613c-1.86176,-2.68381 -2.93256,-2.90924 -4.55139,-3.25322c-0.61605,-0.13021 -1.31372,-0.2779 -2.13966,-0.58107c-1.30595,-0.48001 -2.29513,-1.52555 -2.86065,-3.02195c-0.41783,-1.10773 -0.45864,-2.0697 -0.46058,-2.11051c-0.00583,-0.18268 0.11855,-0.34203 0.29539,-0.3809l5.73686,-1.23793c0.13215,-0.02915 0.27013,0.01555 0.35953,0.11855c0.0894,0.10106 0.11855,0.24292 0.07385,0.37119c-0.03692,0.10689 -0.8648,2.68186 1.86176,4.35317c2.69158,1.65187 2.85482,4.08887 2.84122,4.79626c-0.00389,0.17102 -0.01749,0.27207 -0.01749,0.28179c-0.02721,0.206 -0.21572,0.34981 -0.42171,0.3226c-0.02138,-0.00194 -0.04081,-0.00777 -0.06219,-0.0136c0.06413,0.15936 0.0136,0.34786 -0.13409,0.44892c-0.06607,0.0447 -0.13992,0.06607 -0.21377,0.06607zM170.60606,310.60165c0.11077,0.87452 0.61411,3.34067 2.80041,4.14523c0.77346,0.28568 1.41478,0.41977 2.03472,0.55192c1.60329,0.34009 2.88203,0.61022 4.78849,3.2435c0,-0.00583 0,-0.01166 0,-0.01749v0c0,0 0.00972,-0.07385 0.01166,-0.20211c0.01166,-0.60633 -0.13021,-2.69741 -2.4817,-4.1394c-1.69074,-1.03776 -2.19602,-2.40396 -2.32234,-3.36593c-0.06413,-0.49362 -0.03887,-0.93088 0.00777,-1.25931l-4.84096,1.04554z" fill="#a81f23"/><path d="M203.53468,316.7952c0,0 -18.01124,0.85897 -18.18809,1.95504c-0.17685,1.09607 14.43348,0.72294 14.43348,0.72294l-19.98182,0.64909l0.00389,-0.9542c0,0 15.25941,-4.00336 23.73449,-2.37092z" fill="#b73949"/></g></g></g></svg>